G04 Layer: TopSilkscreenLayer*
G04 EasyEDA v6.5.50, 2025-05-28 03:44:33*
G04 481f8348a4b54ded82698d34e4f8dad8,511818ccc1ea462d976f425f61ebd680,10*
G04 Gerber Generator version 0.2*
G04 Scale: 100 percent, Rotated: No, Reflected: No *
G04 Dimensions in millimeters *
G04 leading zeros omitted , absolute positions ,4 integer and 5 decimal *
%FSLAX45Y45*%
%MOMM*%

%ADD10C,0.1524*%
%ADD11C,0.1000*%
%ADD12C,0.2032*%
%ADD13C,0.2030*%
%ADD14C,0.2540*%
%ADD15C,0.1300*%
%ADD16C,0.1500*%
%ADD17C,0.1999*%
%ADD18C,0.1520*%
%ADD19C,0.0762*%
%ADD20C,0.2489*%
%ADD21C,0.1001*%
%ADD22C,0.2000*%
%ADD23C,0.2400*%
%ADD24C,0.0132*%

%LPD*%
D10*
X4596384Y6239255D02*
G01*
X4705350Y6197600D01*
X4596384Y6239255D02*
G01*
X4705350Y6280657D01*
X4669027Y6213094D02*
G01*
X4669027Y6265163D01*
X4596384Y6314947D02*
G01*
X4705350Y6314947D01*
X4596384Y6314947D02*
G01*
X4596384Y6351270D01*
X4601463Y6367018D01*
X4611877Y6377431D01*
X4622291Y6382512D01*
X4638040Y6387845D01*
X4663947Y6387845D01*
X4679441Y6382512D01*
X4689856Y6377431D01*
X4700270Y6367018D01*
X4705350Y6351270D01*
X4705350Y6314947D01*
X4596384Y6448044D02*
G01*
X4601463Y6432550D01*
X4611877Y6427215D01*
X4622291Y6427215D01*
X4632706Y6432550D01*
X4638040Y6442710D01*
X4643120Y6463537D01*
X4648200Y6479286D01*
X4658613Y6489700D01*
X4669027Y6494779D01*
X4684775Y6494779D01*
X4695190Y6489700D01*
X4700270Y6484365D01*
X4705350Y6468871D01*
X4705350Y6448044D01*
X4700270Y6432550D01*
X4695190Y6427215D01*
X4684775Y6422136D01*
X4669027Y6422136D01*
X4658613Y6427215D01*
X4648200Y6437629D01*
X4643120Y6453123D01*
X4638040Y6473952D01*
X4632706Y6484365D01*
X4622291Y6489700D01*
X4611877Y6489700D01*
X4601463Y6484365D01*
X4596384Y6468871D01*
X4596384Y6448044D01*
X4611877Y6591300D02*
G01*
X4601463Y6586220D01*
X4596384Y6570726D01*
X4596384Y6560312D01*
X4601463Y6544563D01*
X4617211Y6534150D01*
X4643120Y6529070D01*
X4669027Y6529070D01*
X4689856Y6534150D01*
X4700270Y6544563D01*
X4705350Y6560312D01*
X4705350Y6565392D01*
X4700270Y6581139D01*
X4689856Y6591300D01*
X4674361Y6596634D01*
X4669027Y6596634D01*
X4653534Y6591300D01*
X4643120Y6581139D01*
X4638040Y6565392D01*
X4638040Y6560312D01*
X4643120Y6544563D01*
X4653534Y6534150D01*
X4669027Y6529070D01*
X4622291Y6636004D02*
G01*
X4617211Y6636004D01*
X4606797Y6641337D01*
X4601463Y6646418D01*
X4596384Y6656831D01*
X4596384Y6677660D01*
X4601463Y6688073D01*
X4606797Y6693154D01*
X4617211Y6698487D01*
X4627625Y6698487D01*
X4638040Y6693154D01*
X4653534Y6682739D01*
X4705350Y6630923D01*
X4705350Y6703568D01*
X4596384Y6764020D02*
G01*
X4601463Y6748271D01*
X4611877Y6743192D01*
X4622291Y6743192D01*
X4632706Y6748271D01*
X4638040Y6758686D01*
X4643120Y6779513D01*
X4648200Y6795008D01*
X4658613Y6805421D01*
X4669027Y6810755D01*
X4684775Y6810755D01*
X4695190Y6805421D01*
X4700270Y6800342D01*
X4705350Y6784594D01*
X4705350Y6764020D01*
X4700270Y6748271D01*
X4695190Y6743192D01*
X4684775Y6737858D01*
X4669027Y6737858D01*
X4658613Y6743192D01*
X4648200Y6753605D01*
X4643120Y6769100D01*
X4638040Y6789928D01*
X4632706Y6800342D01*
X4622291Y6805421D01*
X4611877Y6805421D01*
X4601463Y6800342D01*
X4596384Y6784594D01*
X4596384Y6764020D01*
X4508500Y9757155D02*
G01*
X4508500Y9648189D01*
X4508500Y9757155D02*
G01*
X4555236Y9757155D01*
X4570729Y9752076D01*
X4576063Y9746742D01*
X4581143Y9736328D01*
X4581143Y9725913D01*
X4576063Y9715500D01*
X4570729Y9710420D01*
X4555236Y9705339D01*
X4508500Y9705339D02*
G01*
X4555236Y9705339D01*
X4570729Y9700005D01*
X4576063Y9694926D01*
X4581143Y9684512D01*
X4581143Y9668763D01*
X4576063Y9658350D01*
X4570729Y9653270D01*
X4555236Y9648189D01*
X4508500Y9648189D01*
X4646675Y9757155D02*
G01*
X4636261Y9752076D01*
X4625847Y9741662D01*
X4620768Y9731247D01*
X4615434Y9715500D01*
X4615434Y9689592D01*
X4620768Y9674097D01*
X4625847Y9663684D01*
X4636261Y9653270D01*
X4646675Y9648189D01*
X4667504Y9648189D01*
X4677918Y9653270D01*
X4688331Y9663684D01*
X4693411Y9674097D01*
X4698745Y9689592D01*
X4698745Y9715500D01*
X4693411Y9731247D01*
X4688331Y9741662D01*
X4677918Y9752076D01*
X4667504Y9757155D01*
X4646675Y9757155D01*
X4764024Y9757155D02*
G01*
X4753609Y9752076D01*
X4743450Y9741662D01*
X4738115Y9731247D01*
X4733036Y9715500D01*
X4733036Y9689592D01*
X4738115Y9674097D01*
X4743450Y9663684D01*
X4753609Y9653270D01*
X4764024Y9648189D01*
X4784852Y9648189D01*
X4795265Y9653270D01*
X4805679Y9663684D01*
X4810759Y9674097D01*
X4816093Y9689592D01*
X4816093Y9715500D01*
X4810759Y9731247D01*
X4805679Y9741662D01*
X4795265Y9752076D01*
X4784852Y9757155D01*
X4764024Y9757155D01*
X4886706Y9757155D02*
G01*
X4886706Y9648189D01*
X4850384Y9757155D02*
G01*
X4923027Y9757155D01*
X4114800Y9757155D02*
G01*
X4114800Y9648189D01*
X4114800Y9757155D02*
G01*
X4161536Y9757155D01*
X4177029Y9752076D01*
X4182363Y9746742D01*
X4187443Y9736328D01*
X4187443Y9725913D01*
X4182363Y9715500D01*
X4177029Y9710420D01*
X4161536Y9705339D01*
X4114800Y9705339D01*
X4151122Y9705339D02*
G01*
X4187443Y9648189D01*
X4221734Y9757155D02*
G01*
X4294631Y9648189D01*
X4294631Y9757155D02*
G01*
X4221734Y9648189D01*
X3757422Y9744455D02*
G01*
X3757422Y9635489D01*
X3721100Y9744455D02*
G01*
X3793743Y9744455D01*
X3828034Y9744455D02*
G01*
X3900931Y9635489D01*
X3900931Y9744455D02*
G01*
X3828034Y9635489D01*
X1488084Y3327400D02*
G01*
X1597050Y3369055D01*
X1488084Y3410457D02*
G01*
X1597050Y3369055D01*
X1488084Y3444747D02*
G01*
X1597050Y3444747D01*
X1488084Y3444747D02*
G01*
X1488084Y3491484D01*
X1493164Y3507231D01*
X1498498Y3512312D01*
X1508912Y3517645D01*
X1519326Y3517645D01*
X1529740Y3512312D01*
X1534820Y3507231D01*
X1539900Y3491484D01*
X1539900Y3444747D02*
G01*
X1539900Y3491484D01*
X1545234Y3507231D01*
X1550314Y3512312D01*
X1560728Y3517645D01*
X1576476Y3517645D01*
X1586890Y3512312D01*
X1591970Y3507231D01*
X1597050Y3491484D01*
X1597050Y3444747D01*
X1488084Y3593337D02*
G01*
X1597050Y3551936D01*
X1488084Y3593337D02*
G01*
X1597050Y3634994D01*
X1560728Y3567429D02*
G01*
X1560728Y3619500D01*
X1488084Y3705605D02*
G01*
X1597050Y3705605D01*
X1488084Y3669284D02*
G01*
X1488084Y3741928D01*
X1503578Y3822954D02*
G01*
X1597050Y3822954D01*
X1550314Y3776218D02*
G01*
X1550314Y3869689D01*
X2451100Y3186684D02*
G01*
X2409443Y3295650D01*
X2368041Y3186684D02*
G01*
X2409443Y3295650D01*
X2333752Y3186684D02*
G01*
X2333752Y3295650D01*
X2333752Y3186684D02*
G01*
X2287015Y3186684D01*
X2271268Y3191763D01*
X2266188Y3197097D01*
X2260854Y3207512D01*
X2260854Y3217926D01*
X2266188Y3228339D01*
X2271268Y3233420D01*
X2287015Y3238500D01*
X2333752Y3238500D02*
G01*
X2287015Y3238500D01*
X2271268Y3243834D01*
X2266188Y3248913D01*
X2260854Y3259328D01*
X2260854Y3275076D01*
X2266188Y3285489D01*
X2271268Y3290570D01*
X2287015Y3295650D01*
X2333752Y3295650D01*
X2185161Y3186684D02*
G01*
X2226563Y3295650D01*
X2185161Y3186684D02*
G01*
X2143506Y3295650D01*
X2211070Y3259328D02*
G01*
X2159000Y3259328D01*
X2072893Y3186684D02*
G01*
X2072893Y3295650D01*
X2109215Y3186684D02*
G01*
X2036572Y3186684D01*
X2002281Y3248913D02*
G01*
X1908810Y3248913D01*
X5231963Y6709410D02*
G01*
X5237297Y6698995D01*
X5247711Y6688581D01*
X5257871Y6683502D01*
X5278699Y6683502D01*
X5289113Y6688581D01*
X5299527Y6698995D01*
X5304861Y6709410D01*
X5309941Y6725158D01*
X5309941Y6751065D01*
X5304861Y6766560D01*
X5299527Y6776973D01*
X5289113Y6787387D01*
X5278699Y6792468D01*
X5257871Y6792468D01*
X5247711Y6787387D01*
X5237297Y6776973D01*
X5231963Y6766560D01*
X5197673Y6704329D02*
G01*
X5187259Y6698995D01*
X5171765Y6683502D01*
X5171765Y6792468D01*
X5040122Y6057392D02*
G01*
X5045456Y6046978D01*
X5055870Y6036563D01*
X5066029Y6031484D01*
X5086858Y6031484D01*
X5097272Y6036563D01*
X5107686Y6046978D01*
X5113020Y6057392D01*
X5118100Y6073139D01*
X5118100Y6099047D01*
X5113020Y6114542D01*
X5107686Y6124955D01*
X5097272Y6135370D01*
X5086858Y6140450D01*
X5066029Y6140450D01*
X5055870Y6135370D01*
X5045456Y6124955D01*
X5040122Y6114542D01*
X5000752Y6057392D02*
G01*
X5000752Y6052312D01*
X4995418Y6041897D01*
X4990338Y6036563D01*
X4979924Y6031484D01*
X4959095Y6031484D01*
X4948681Y6036563D01*
X4943602Y6041897D01*
X4938268Y6052312D01*
X4938268Y6062726D01*
X4943602Y6073139D01*
X4954015Y6088634D01*
X5005831Y6140450D01*
X4933188Y6140450D01*
X6171691Y6694678D02*
G01*
X6161277Y6689344D01*
X6150863Y6678929D01*
X6145784Y6668770D01*
X6145784Y6647942D01*
X6150863Y6637528D01*
X6161277Y6627113D01*
X6171691Y6621779D01*
X6187440Y6616700D01*
X6213347Y6616700D01*
X6228841Y6621779D01*
X6239256Y6627113D01*
X6249670Y6637528D01*
X6254750Y6647942D01*
X6254750Y6668770D01*
X6249670Y6678929D01*
X6239256Y6689344D01*
X6228841Y6694678D01*
X6145784Y6739381D02*
G01*
X6145784Y6796531D01*
X6187440Y6765289D01*
X6187440Y6780784D01*
X6192520Y6791197D01*
X6197600Y6796531D01*
X6213347Y6801612D01*
X6223761Y6801612D01*
X6239256Y6796531D01*
X6249670Y6786118D01*
X6254750Y6770370D01*
X6254750Y6754876D01*
X6249670Y6739381D01*
X6244590Y6734047D01*
X6234175Y6728968D01*
X5104891Y4014978D02*
G01*
X5094477Y4009644D01*
X5084063Y3999229D01*
X5078984Y3989070D01*
X5078984Y3968242D01*
X5084063Y3957828D01*
X5094477Y3947413D01*
X5104891Y3942079D01*
X5120640Y3937000D01*
X5146547Y3937000D01*
X5162041Y3942079D01*
X5172456Y3947413D01*
X5182870Y3957828D01*
X5187950Y3968242D01*
X5187950Y3989070D01*
X5182870Y3999229D01*
X5172456Y4009644D01*
X5162041Y4014978D01*
X5094477Y4111497D02*
G01*
X5084063Y4106418D01*
X5078984Y4090670D01*
X5078984Y4080510D01*
X5084063Y4064762D01*
X5099811Y4054347D01*
X5125720Y4049268D01*
X5151627Y4049268D01*
X5172456Y4054347D01*
X5182870Y4064762D01*
X5187950Y4080510D01*
X5187950Y4085589D01*
X5182870Y4101084D01*
X5172456Y4111497D01*
X5156961Y4116831D01*
X5151627Y4116831D01*
X5136134Y4111497D01*
X5125720Y4101084D01*
X5120640Y4085589D01*
X5120640Y4080510D01*
X5125720Y4064762D01*
X5136134Y4054347D01*
X5151627Y4049268D01*
X3773677Y3937507D02*
G01*
X3768343Y3947921D01*
X3757929Y3958336D01*
X3747770Y3963415D01*
X3726941Y3963415D01*
X3716527Y3958336D01*
X3706113Y3947921D01*
X3700779Y3937507D01*
X3695700Y3921760D01*
X3695700Y3895852D01*
X3700779Y3880357D01*
X3706113Y3869944D01*
X3716527Y3859529D01*
X3726941Y3854450D01*
X3747770Y3854450D01*
X3757929Y3859529D01*
X3768343Y3869944D01*
X3773677Y3880357D01*
X3859784Y3963415D02*
G01*
X3807968Y3890771D01*
X3885945Y3890771D01*
X3859784Y3963415D02*
G01*
X3859784Y3854450D01*
X5208777Y3772407D02*
G01*
X5203443Y3782821D01*
X5193029Y3793236D01*
X5182870Y3798315D01*
X5162041Y3798315D01*
X5151627Y3793236D01*
X5141213Y3782821D01*
X5135879Y3772407D01*
X5130800Y3756660D01*
X5130800Y3730752D01*
X5135879Y3715257D01*
X5141213Y3704844D01*
X5151627Y3694429D01*
X5162041Y3689350D01*
X5182870Y3689350D01*
X5193029Y3694429D01*
X5203443Y3704844D01*
X5208777Y3715257D01*
X5305297Y3798315D02*
G01*
X5253481Y3798315D01*
X5248147Y3751579D01*
X5253481Y3756660D01*
X5268975Y3761994D01*
X5284470Y3761994D01*
X5300218Y3756660D01*
X5310631Y3746500D01*
X5315711Y3730752D01*
X5315711Y3720337D01*
X5310631Y3704844D01*
X5300218Y3694429D01*
X5284470Y3689350D01*
X5268975Y3689350D01*
X5253481Y3694429D01*
X5248147Y3699510D01*
X5243068Y3709923D01*
X4240022Y3530092D02*
G01*
X4245356Y3519678D01*
X4255770Y3509263D01*
X4265929Y3504184D01*
X4286758Y3504184D01*
X4297172Y3509263D01*
X4307586Y3519678D01*
X4312920Y3530092D01*
X4318000Y3545839D01*
X4318000Y3571747D01*
X4312920Y3587242D01*
X4307586Y3597655D01*
X4297172Y3608070D01*
X4286758Y3613150D01*
X4265929Y3613150D01*
X4255770Y3608070D01*
X4245356Y3597655D01*
X4240022Y3587242D01*
X4133088Y3504184D02*
G01*
X4184904Y3613150D01*
X4205731Y3504184D02*
G01*
X4133088Y3504184D01*
X6476491Y7990078D02*
G01*
X6466077Y7984744D01*
X6455663Y7974329D01*
X6450584Y7964170D01*
X6450584Y7943342D01*
X6455663Y7932928D01*
X6466077Y7922513D01*
X6476491Y7917179D01*
X6492240Y7912100D01*
X6518147Y7912100D01*
X6533641Y7917179D01*
X6544056Y7922513D01*
X6554470Y7932928D01*
X6559550Y7943342D01*
X6559550Y7964170D01*
X6554470Y7974329D01*
X6544056Y7984744D01*
X6533641Y7990078D01*
X6450584Y8050276D02*
G01*
X6455663Y8034781D01*
X6466077Y8029447D01*
X6476491Y8029447D01*
X6486906Y8034781D01*
X6492240Y8045195D01*
X6497320Y8065770D01*
X6502400Y8081518D01*
X6512813Y8091931D01*
X6523227Y8097012D01*
X6538975Y8097012D01*
X6549390Y8091931D01*
X6554470Y8086597D01*
X6559550Y8071104D01*
X6559550Y8050276D01*
X6554470Y8034781D01*
X6549390Y8029447D01*
X6538975Y8024368D01*
X6523227Y8024368D01*
X6512813Y8029447D01*
X6502400Y8039862D01*
X6497320Y8055610D01*
X6492240Y8076184D01*
X6486906Y8086597D01*
X6476491Y8091931D01*
X6466077Y8091931D01*
X6455663Y8086597D01*
X6450584Y8071104D01*
X6450584Y8050276D01*
X6157722Y7174992D02*
G01*
X6163056Y7164578D01*
X6173470Y7154163D01*
X6183629Y7149084D01*
X6204458Y7149084D01*
X6214872Y7154163D01*
X6225286Y7164578D01*
X6230620Y7174992D01*
X6235700Y7190739D01*
X6235700Y7216647D01*
X6230620Y7232142D01*
X6225286Y7242555D01*
X6214872Y7252970D01*
X6204458Y7258050D01*
X6183629Y7258050D01*
X6173470Y7252970D01*
X6163056Y7242555D01*
X6157722Y7232142D01*
X6092190Y7149084D02*
G01*
X6102604Y7154163D01*
X6113018Y7164578D01*
X6118352Y7174992D01*
X6123431Y7190739D01*
X6123431Y7216647D01*
X6118352Y7232142D01*
X6113018Y7242555D01*
X6102604Y7252970D01*
X6092190Y7258050D01*
X6071615Y7258050D01*
X6061202Y7252970D01*
X6050788Y7242555D01*
X6045454Y7232142D01*
X6040374Y7216647D01*
X6040374Y7190739D01*
X6045454Y7174992D01*
X6050788Y7164578D01*
X6061202Y7154163D01*
X6071615Y7149084D01*
X6092190Y7149084D01*
X6006084Y7149084D02*
G01*
X6006084Y7258050D01*
X6006084Y7149084D02*
G01*
X5964427Y7258050D01*
X5923025Y7149084D02*
G01*
X5964427Y7258050D01*
X5923025Y7149084D02*
G01*
X5923025Y7258050D01*
X5888736Y7149084D02*
G01*
X5888736Y7258050D01*
X5888736Y7149084D02*
G01*
X5842000Y7149084D01*
X5826252Y7154163D01*
X5821172Y7159497D01*
X5815838Y7169912D01*
X5815838Y7185405D01*
X5821172Y7195820D01*
X5826252Y7200900D01*
X5842000Y7206234D01*
X5888736Y7206234D01*
X5781547Y7169912D02*
G01*
X5771134Y7164578D01*
X5755640Y7149084D01*
X5755640Y7258050D01*
X5730976Y6406362D02*
G01*
X5720562Y6401028D01*
X5710148Y6390614D01*
X5705068Y6380454D01*
X5705068Y6359626D01*
X5710148Y6349212D01*
X5720562Y6338798D01*
X5730976Y6333464D01*
X5746724Y6328384D01*
X5772632Y6328384D01*
X5788126Y6333464D01*
X5798540Y6338798D01*
X5808954Y6349212D01*
X5814034Y6359626D01*
X5814034Y6380454D01*
X5808954Y6390614D01*
X5798540Y6401028D01*
X5788126Y6406362D01*
X5705068Y6471894D02*
G01*
X5710148Y6461480D01*
X5720562Y6451066D01*
X5730976Y6445732D01*
X5746724Y6440652D01*
X5772632Y6440652D01*
X5788126Y6445732D01*
X5798540Y6451066D01*
X5808954Y6461480D01*
X5814034Y6471894D01*
X5814034Y6492468D01*
X5808954Y6502882D01*
X5798540Y6513296D01*
X5788126Y6518630D01*
X5772632Y6523710D01*
X5746724Y6523710D01*
X5730976Y6518630D01*
X5720562Y6513296D01*
X5710148Y6502882D01*
X5705068Y6492468D01*
X5705068Y6471894D01*
X5705068Y6558000D02*
G01*
X5814034Y6558000D01*
X5705068Y6558000D02*
G01*
X5814034Y6599656D01*
X5705068Y6641058D02*
G01*
X5814034Y6599656D01*
X5705068Y6641058D02*
G01*
X5814034Y6641058D01*
X5705068Y6675348D02*
G01*
X5814034Y6675348D01*
X5705068Y6675348D02*
G01*
X5705068Y6722084D01*
X5710148Y6737832D01*
X5715482Y6742912D01*
X5725896Y6748246D01*
X5741390Y6748246D01*
X5751804Y6742912D01*
X5756884Y6737832D01*
X5762218Y6722084D01*
X5762218Y6675348D01*
X5730976Y6787616D02*
G01*
X5725896Y6787616D01*
X5715482Y6792950D01*
X5710148Y6798030D01*
X5705068Y6808444D01*
X5705068Y6829272D01*
X5710148Y6839686D01*
X5715482Y6844766D01*
X5725896Y6850100D01*
X5736310Y6850100D01*
X5746724Y6844766D01*
X5762218Y6834352D01*
X5814034Y6782536D01*
X5814034Y6855180D01*
X3188715Y3251212D02*
G01*
X3079750Y3251212D01*
X3188715Y3251212D02*
G01*
X3188715Y3214890D01*
X3183636Y3199142D01*
X3173222Y3188982D01*
X3162808Y3183648D01*
X3147059Y3178568D01*
X3121152Y3178568D01*
X3105658Y3183648D01*
X3095243Y3188982D01*
X3084829Y3199142D01*
X3079750Y3214890D01*
X3079750Y3251212D01*
X3167888Y3144278D02*
G01*
X3173222Y3133864D01*
X3188715Y3118116D01*
X3079750Y3118116D01*
X2680715Y4787900D02*
G01*
X2571750Y4787900D01*
X2680715Y4787900D02*
G01*
X2680715Y4720336D01*
X2628900Y4787900D02*
G01*
X2628900Y4746244D01*
X2659888Y4686045D02*
G01*
X2665222Y4675631D01*
X2680715Y4660137D01*
X2571750Y4660137D01*
X2844800Y5703315D02*
G01*
X2844800Y5594350D01*
X2844800Y5703315D02*
G01*
X2912363Y5703315D01*
X2844800Y5651500D02*
G01*
X2886456Y5651500D01*
X2951734Y5677407D02*
G01*
X2951734Y5682487D01*
X2957068Y5692902D01*
X2962147Y5698236D01*
X2972561Y5703315D01*
X2993390Y5703315D01*
X3003804Y5698236D01*
X3008884Y5692902D01*
X3014218Y5682487D01*
X3014218Y5672073D01*
X3008884Y5661660D01*
X2998470Y5646165D01*
X2946654Y5594350D01*
X3019297Y5594350D01*
X3784600Y3085084D02*
G01*
X3784600Y3194050D01*
X3784600Y3085084D02*
G01*
X3717036Y3085084D01*
X3784600Y3136900D02*
G01*
X3742943Y3136900D01*
X3672331Y3085084D02*
G01*
X3615181Y3085084D01*
X3646424Y3126739D01*
X3630929Y3126739D01*
X3620515Y3131820D01*
X3615181Y3136900D01*
X3610102Y3152647D01*
X3610102Y3163062D01*
X3615181Y3178555D01*
X3625595Y3188970D01*
X3641090Y3194050D01*
X3656838Y3194050D01*
X3672331Y3188970D01*
X3677665Y3183889D01*
X3682745Y3173476D01*
X6135115Y9207500D02*
G01*
X6026150Y9207500D01*
X6135115Y9207500D02*
G01*
X6135115Y9160763D01*
X6130036Y9145270D01*
X6124702Y9139936D01*
X6114288Y9134855D01*
X6103874Y9134855D01*
X6093459Y9139936D01*
X6088379Y9145270D01*
X6083300Y9160763D01*
X6083300Y9207500D01*
X6083300Y9171178D02*
G01*
X6026150Y9134855D01*
X6119622Y9038081D02*
G01*
X6130036Y9043415D01*
X6135115Y9058910D01*
X6135115Y9069324D01*
X6130036Y9084818D01*
X6114288Y9095231D01*
X6088379Y9100565D01*
X6062472Y9100565D01*
X6041643Y9095231D01*
X6031229Y9084818D01*
X6026150Y9069324D01*
X6026150Y9063989D01*
X6031229Y9048495D01*
X6041643Y9038081D01*
X6057138Y9033002D01*
X6062472Y9033002D01*
X6077965Y9038081D01*
X6088379Y9048495D01*
X6093459Y9063989D01*
X6093459Y9069324D01*
X6088379Y9084818D01*
X6077965Y9095231D01*
X6062472Y9100565D01*
X6719315Y9169400D02*
G01*
X6610350Y9169400D01*
X6719315Y9169400D02*
G01*
X6719315Y9122663D01*
X6714236Y9107170D01*
X6708902Y9101836D01*
X6698488Y9096755D01*
X6688074Y9096755D01*
X6677659Y9101836D01*
X6672579Y9107170D01*
X6667500Y9122663D01*
X6667500Y9169400D01*
X6667500Y9133078D02*
G01*
X6610350Y9096755D01*
X6719315Y8989568D02*
G01*
X6610350Y9041637D01*
X6719315Y9062465D02*
G01*
X6719315Y8989568D01*
X5322315Y9207500D02*
G01*
X5213350Y9207500D01*
X5322315Y9207500D02*
G01*
X5322315Y9160763D01*
X5317236Y9145270D01*
X5311902Y9139936D01*
X5301488Y9134855D01*
X5291074Y9134855D01*
X5280659Y9139936D01*
X5275579Y9145270D01*
X5270500Y9160763D01*
X5270500Y9207500D01*
X5270500Y9171178D02*
G01*
X5213350Y9134855D01*
X5322315Y9074404D02*
G01*
X5317236Y9090152D01*
X5306822Y9095231D01*
X5296408Y9095231D01*
X5285993Y9090152D01*
X5280659Y9079737D01*
X5275579Y9058910D01*
X5270500Y9043415D01*
X5260086Y9033002D01*
X5249672Y9027668D01*
X5233924Y9027668D01*
X5223509Y9033002D01*
X5218429Y9038081D01*
X5213350Y9053829D01*
X5213350Y9074404D01*
X5218429Y9090152D01*
X5223509Y9095231D01*
X5233924Y9100565D01*
X5249672Y9100565D01*
X5260086Y9095231D01*
X5270500Y9084818D01*
X5275579Y9069324D01*
X5280659Y9048495D01*
X5285993Y9038081D01*
X5296408Y9033002D01*
X5306822Y9033002D01*
X5317236Y9038081D01*
X5322315Y9053829D01*
X5322315Y9074404D01*
X6668515Y4533900D02*
G01*
X6559550Y4533900D01*
X6668515Y4533900D02*
G01*
X6668515Y4487163D01*
X6663436Y4471670D01*
X6658102Y4466336D01*
X6647688Y4461255D01*
X6637274Y4461255D01*
X6626859Y4466336D01*
X6621779Y4471670D01*
X6616700Y4487163D01*
X6616700Y4533900D01*
X6616700Y4497578D02*
G01*
X6559550Y4461255D01*
X6632193Y4359402D02*
G01*
X6616700Y4364481D01*
X6606286Y4374895D01*
X6600952Y4390389D01*
X6600952Y4395723D01*
X6606286Y4411218D01*
X6616700Y4421631D01*
X6632193Y4426965D01*
X6637274Y4426965D01*
X6653022Y4421631D01*
X6663436Y4411218D01*
X6668515Y4395723D01*
X6668515Y4390389D01*
X6663436Y4374895D01*
X6653022Y4364481D01*
X6632193Y4359402D01*
X6606286Y4359402D01*
X6580124Y4364481D01*
X6564629Y4374895D01*
X6559550Y4390389D01*
X6559550Y4400804D01*
X6564629Y4416552D01*
X6575043Y4421631D01*
X5024932Y8026158D02*
G01*
X5133898Y8026158D01*
X5024932Y8060448D02*
G01*
X5133898Y8060448D01*
X5024932Y8060448D02*
G01*
X5133898Y8133092D01*
X5024932Y8133092D02*
G01*
X5133898Y8133092D01*
X5024932Y8209038D02*
G01*
X5133898Y8167382D01*
X5024932Y8209038D02*
G01*
X5133898Y8250694D01*
X5097576Y8183130D02*
G01*
X5097576Y8234946D01*
X5050840Y8290064D02*
G01*
X5045760Y8290064D01*
X5035346Y8295398D01*
X5030012Y8300478D01*
X5024932Y8310892D01*
X5024932Y8331720D01*
X5030012Y8342134D01*
X5035346Y8347214D01*
X5045760Y8352548D01*
X5056174Y8352548D01*
X5066588Y8347214D01*
X5082082Y8336800D01*
X5133898Y8284984D01*
X5133898Y8357628D01*
X5050840Y8396998D02*
G01*
X5045760Y8396998D01*
X5035346Y8402332D01*
X5030012Y8407412D01*
X5024932Y8417826D01*
X5024932Y8438654D01*
X5030012Y8449068D01*
X5035346Y8454148D01*
X5045760Y8459482D01*
X5056174Y8459482D01*
X5066588Y8454148D01*
X5082082Y8443988D01*
X5133898Y8391918D01*
X5133898Y8464562D01*
X5024932Y8525014D02*
G01*
X5030012Y8509266D01*
X5040426Y8504186D01*
X5050840Y8504186D01*
X5061254Y8509266D01*
X5066588Y8519680D01*
X5071668Y8540508D01*
X5076748Y8556002D01*
X5087162Y8566416D01*
X5097576Y8571750D01*
X5113324Y8571750D01*
X5123738Y8566416D01*
X5128818Y8561336D01*
X5133898Y8545588D01*
X5133898Y8525014D01*
X5128818Y8509266D01*
X5123738Y8504186D01*
X5113324Y8498852D01*
X5097576Y8498852D01*
X5087162Y8504186D01*
X5076748Y8514600D01*
X5071668Y8530094D01*
X5066588Y8550922D01*
X5061254Y8561336D01*
X5050840Y8566416D01*
X5040426Y8566416D01*
X5030012Y8561336D01*
X5024932Y8545588D01*
X5024932Y8525014D01*
X3912615Y4826000D02*
G01*
X3803650Y4826000D01*
X3803650Y4826000D02*
G01*
X3803650Y4763770D01*
X3912615Y4729479D02*
G01*
X3803650Y4729479D01*
X3912615Y4729479D02*
G01*
X3912615Y4692904D01*
X3907536Y4677410D01*
X3897122Y4666995D01*
X3886708Y4661915D01*
X3870959Y4656581D01*
X3845052Y4656581D01*
X3829558Y4661915D01*
X3819143Y4666995D01*
X3808729Y4677410D01*
X3803650Y4692904D01*
X3803650Y4729479D01*
X3912615Y4591050D02*
G01*
X3907536Y4601463D01*
X3897122Y4611878D01*
X3886708Y4617212D01*
X3870959Y4622292D01*
X3845052Y4622292D01*
X3829558Y4617212D01*
X3819143Y4611878D01*
X3808729Y4601463D01*
X3803650Y4591050D01*
X3803650Y4570476D01*
X3808729Y4560062D01*
X3819143Y4549647D01*
X3829558Y4544313D01*
X3845052Y4539234D01*
X3870959Y4539234D01*
X3886708Y4544313D01*
X3897122Y4549647D01*
X3907536Y4560062D01*
X3912615Y4570476D01*
X3912615Y4591050D01*
X6194816Y4137995D02*
G01*
X6085850Y4137995D01*
X6085850Y4137995D02*
G01*
X6085850Y4075765D01*
X6194816Y4041475D02*
G01*
X6085850Y4041475D01*
X6194816Y4041475D02*
G01*
X6194816Y3973911D01*
X6143000Y4041475D02*
G01*
X6143000Y3999819D01*
X6085850Y4041475D02*
G01*
X6085850Y3973911D01*
X6194816Y3939621D02*
G01*
X6085850Y3939621D01*
X6194816Y3939621D02*
G01*
X6194816Y3903045D01*
X6189736Y3887551D01*
X6179322Y3877137D01*
X6168908Y3872057D01*
X6153160Y3866723D01*
X6127252Y3866723D01*
X6111758Y3872057D01*
X6101344Y3877137D01*
X6090930Y3887551D01*
X6085850Y3903045D01*
X6085850Y3939621D01*
X6173988Y3832433D02*
G01*
X6179322Y3822019D01*
X6194816Y3806525D01*
X6085850Y3806525D01*
X5544820Y5258815D02*
G01*
X5544820Y5149850D01*
X5544820Y5258815D02*
G01*
X5617463Y5149850D01*
X5617463Y5258815D02*
G01*
X5617463Y5149850D01*
X5682995Y5258815D02*
G01*
X5672581Y5253736D01*
X5662168Y5243321D01*
X5657088Y5232907D01*
X5651754Y5217160D01*
X5651754Y5191252D01*
X5657088Y5175757D01*
X5662168Y5165344D01*
X5672581Y5154929D01*
X5682995Y5149850D01*
X5703824Y5149850D01*
X5714238Y5154929D01*
X5724652Y5165344D01*
X5729731Y5175757D01*
X5735065Y5191252D01*
X5735065Y5217160D01*
X5729731Y5232907D01*
X5724652Y5243321D01*
X5714238Y5253736D01*
X5703824Y5258815D01*
X5682995Y5258815D01*
X5769356Y5258815D02*
G01*
X5769356Y5149850D01*
X5769356Y5258815D02*
G01*
X5816091Y5258815D01*
X5831586Y5253736D01*
X5836920Y5248402D01*
X5842000Y5237987D01*
X5842000Y5227573D01*
X5836920Y5217160D01*
X5831586Y5212079D01*
X5816091Y5207000D01*
X5769356Y5207000D01*
X5805677Y5207000D02*
G01*
X5842000Y5149850D01*
X5876290Y5237987D02*
G01*
X5886704Y5243321D01*
X5902197Y5258815D01*
X5902197Y5149850D01*
X4170679Y4101084D02*
G01*
X4170679Y4210050D01*
X4170679Y4101084D02*
G01*
X4098036Y4210050D01*
X4098036Y4101084D02*
G01*
X4098036Y4210050D01*
X4032504Y4101084D02*
G01*
X4042918Y4106163D01*
X4053331Y4116578D01*
X4058411Y4126992D01*
X4063745Y4142739D01*
X4063745Y4168647D01*
X4058411Y4184142D01*
X4053331Y4194555D01*
X4042918Y4204970D01*
X4032504Y4210050D01*
X4011675Y4210050D01*
X4001261Y4204970D01*
X3990847Y4194555D01*
X3985768Y4184142D01*
X3980434Y4168647D01*
X3980434Y4142739D01*
X3985768Y4126992D01*
X3990847Y4116578D01*
X4001261Y4106163D01*
X4011675Y4101084D01*
X4032504Y4101084D01*
X3946143Y4101084D02*
G01*
X3946143Y4210050D01*
X3946143Y4101084D02*
G01*
X3899408Y4101084D01*
X3883913Y4106163D01*
X3878579Y4111497D01*
X3873500Y4121912D01*
X3873500Y4132326D01*
X3878579Y4142739D01*
X3883913Y4147820D01*
X3899408Y4152900D01*
X3946143Y4152900D01*
X3909822Y4152900D02*
G01*
X3873500Y4210050D01*
X3834129Y4126992D02*
G01*
X3834129Y4121912D01*
X3828795Y4111497D01*
X3823715Y4106163D01*
X3813302Y4101084D01*
X3792474Y4101084D01*
X3782059Y4106163D01*
X3776979Y4111497D01*
X3771645Y4121912D01*
X3771645Y4132326D01*
X3776979Y4142739D01*
X3787140Y4158234D01*
X3839209Y4210050D01*
X3766565Y4210050D01*
X1563646Y5933787D02*
G01*
X1672612Y5933787D01*
X1563646Y5933787D02*
G01*
X1563646Y5980523D01*
X1568726Y5996017D01*
X1574060Y6001351D01*
X1584474Y6006431D01*
X1599968Y6006431D01*
X1610382Y6001351D01*
X1615462Y5996017D01*
X1620796Y5980523D01*
X1620796Y5933787D01*
X1584474Y6040721D02*
G01*
X1579140Y6051135D01*
X1563646Y6066883D01*
X1672612Y6066883D01*
X2424684Y6000242D02*
G01*
X2429763Y5989828D01*
X2440177Y5979413D01*
X2450591Y5974079D01*
X2466340Y5969000D01*
X2492247Y5969000D01*
X2507741Y5974079D01*
X2518156Y5979413D01*
X2528570Y5989828D01*
X2533650Y6000242D01*
X2533650Y6021070D01*
X2528570Y6031229D01*
X2518156Y6041644D01*
X2507741Y6046978D01*
X2492247Y6052057D01*
X2466340Y6052057D01*
X2450591Y6046978D01*
X2440177Y6041644D01*
X2429763Y6031229D01*
X2424684Y6021070D01*
X2424684Y6000242D01*
X2513075Y6015736D02*
G01*
X2544063Y6046978D01*
X2445511Y6086347D02*
G01*
X2440177Y6096762D01*
X2424684Y6112510D01*
X2533650Y6112510D01*
X2570225Y6146800D02*
G01*
X2570225Y6240271D01*
X2424684Y6274562D02*
G01*
X2533650Y6274562D01*
X2424684Y6274562D02*
G01*
X2533650Y6347205D01*
X2424684Y6347205D02*
G01*
X2533650Y6347205D01*
X2424684Y6381495D02*
G01*
X2533650Y6381495D01*
X2424684Y6381495D02*
G01*
X2533650Y6423152D01*
X2424684Y6464554D02*
G01*
X2533650Y6423152D01*
X2424684Y6464554D02*
G01*
X2533650Y6464554D01*
X2424684Y6530086D02*
G01*
X2429763Y6519671D01*
X2440177Y6509257D01*
X2450591Y6504178D01*
X2466340Y6498844D01*
X2492247Y6498844D01*
X2507741Y6504178D01*
X2518156Y6509257D01*
X2528570Y6519671D01*
X2533650Y6530086D01*
X2533650Y6550913D01*
X2528570Y6561328D01*
X2518156Y6571742D01*
X2507741Y6576821D01*
X2492247Y6582155D01*
X2466340Y6582155D01*
X2450591Y6576821D01*
X2440177Y6571742D01*
X2429763Y6561328D01*
X2424684Y6550913D01*
X2424684Y6530086D01*
X2440177Y6689089D02*
G01*
X2429763Y6678676D01*
X2424684Y6663181D01*
X2424684Y6642354D01*
X2429763Y6626860D01*
X2440177Y6616445D01*
X2450591Y6616445D01*
X2461006Y6621526D01*
X2466340Y6626860D01*
X2471420Y6637020D01*
X2481834Y6668262D01*
X2486913Y6678676D01*
X2492247Y6684010D01*
X2502661Y6689089D01*
X2518156Y6689089D01*
X2528570Y6678676D01*
X2533650Y6663181D01*
X2533650Y6642354D01*
X2528570Y6626860D01*
X2518156Y6616445D01*
X4146041Y7481315D02*
G01*
X4135627Y7476236D01*
X4125213Y7465821D01*
X4119879Y7455408D01*
X4114800Y7439660D01*
X4114800Y7413752D01*
X4119879Y7398258D01*
X4125213Y7387844D01*
X4135627Y7377429D01*
X4146041Y7372350D01*
X4166870Y7372350D01*
X4177029Y7377429D01*
X4187443Y7387844D01*
X4192777Y7398258D01*
X4197858Y7413752D01*
X4197858Y7439660D01*
X4192777Y7455408D01*
X4187443Y7465821D01*
X4177029Y7476236D01*
X4166870Y7481315D01*
X4146041Y7481315D01*
X4161536Y7392923D02*
G01*
X4192777Y7361936D01*
X4237481Y7455408D02*
G01*
X4237481Y7460487D01*
X4242561Y7470902D01*
X4247895Y7476236D01*
X4258309Y7481315D01*
X4278884Y7481315D01*
X4289297Y7476236D01*
X4294631Y7470902D01*
X4299711Y7460487D01*
X4299711Y7450073D01*
X4294631Y7439660D01*
X4284218Y7424165D01*
X4232147Y7372350D01*
X4305045Y7372350D01*
X4339336Y7335773D02*
G01*
X4432808Y7335773D01*
X4467097Y7481315D02*
G01*
X4467097Y7372350D01*
X4467097Y7481315D02*
G01*
X4539741Y7372350D01*
X4539741Y7481315D02*
G01*
X4539741Y7372350D01*
X4574031Y7481315D02*
G01*
X4574031Y7372350D01*
X4574031Y7481315D02*
G01*
X4615688Y7372350D01*
X4657090Y7481315D02*
G01*
X4615688Y7372350D01*
X4657090Y7481315D02*
G01*
X4657090Y7372350D01*
X4722622Y7481315D02*
G01*
X4712208Y7476236D01*
X4701793Y7465821D01*
X4696713Y7455408D01*
X4691379Y7439660D01*
X4691379Y7413752D01*
X4696713Y7398258D01*
X4701793Y7387844D01*
X4712208Y7377429D01*
X4722622Y7372350D01*
X4743450Y7372350D01*
X4753863Y7377429D01*
X4764277Y7387844D01*
X4769358Y7398258D01*
X4774691Y7413752D01*
X4774691Y7439660D01*
X4769358Y7455408D01*
X4764277Y7465821D01*
X4753863Y7476236D01*
X4743450Y7481315D01*
X4722622Y7481315D01*
X4881625Y7465821D02*
G01*
X4871211Y7476236D01*
X4855718Y7481315D01*
X4834890Y7481315D01*
X4819395Y7476236D01*
X4808981Y7465821D01*
X4808981Y7455408D01*
X4814061Y7444994D01*
X4819395Y7439660D01*
X4829809Y7434579D01*
X4860797Y7424165D01*
X4871211Y7419086D01*
X4876545Y7413752D01*
X4881625Y7403337D01*
X4881625Y7387844D01*
X4871211Y7377429D01*
X4855718Y7372350D01*
X4834890Y7372350D01*
X4819395Y7377429D01*
X4808981Y7387844D01*
X4214042Y8648700D02*
G01*
X4203628Y8643620D01*
X4193214Y8633205D01*
X4187880Y8622792D01*
X4182800Y8607044D01*
X4182800Y8581136D01*
X4187880Y8565642D01*
X4193214Y8555228D01*
X4203628Y8544813D01*
X4214042Y8539734D01*
X4234870Y8539734D01*
X4245030Y8544813D01*
X4255444Y8555228D01*
X4260778Y8565642D01*
X4265858Y8581136D01*
X4265858Y8607044D01*
X4260778Y8622792D01*
X4255444Y8633205D01*
X4245030Y8643620D01*
X4234870Y8648700D01*
X4214042Y8648700D01*
X4229536Y8560308D02*
G01*
X4260778Y8529320D01*
X4310562Y8648700D02*
G01*
X4367712Y8648700D01*
X4336470Y8607044D01*
X4352218Y8607044D01*
X4362632Y8601963D01*
X4367712Y8596884D01*
X4373046Y8581136D01*
X4373046Y8570721D01*
X4367712Y8555228D01*
X4357298Y8544813D01*
X4341804Y8539734D01*
X4326310Y8539734D01*
X4310562Y8544813D01*
X4305482Y8549894D01*
X4300148Y8560308D01*
X4407336Y8503158D02*
G01*
X4500808Y8503158D01*
X4535098Y8648700D02*
G01*
X4535098Y8539734D01*
X4535098Y8648700D02*
G01*
X4607742Y8539734D01*
X4607742Y8648700D02*
G01*
X4607742Y8539734D01*
X4642032Y8648700D02*
G01*
X4642032Y8539734D01*
X4642032Y8648700D02*
G01*
X4683688Y8539734D01*
X4725090Y8648700D02*
G01*
X4683688Y8539734D01*
X4725090Y8648700D02*
G01*
X4725090Y8539734D01*
X4790622Y8648700D02*
G01*
X4780208Y8643620D01*
X4769794Y8633205D01*
X4764714Y8622792D01*
X4759380Y8607044D01*
X4759380Y8581136D01*
X4764714Y8565642D01*
X4769794Y8555228D01*
X4780208Y8544813D01*
X4790622Y8539734D01*
X4811450Y8539734D01*
X4821864Y8544813D01*
X4832278Y8555228D01*
X4837358Y8565642D01*
X4842692Y8581136D01*
X4842692Y8607044D01*
X4837358Y8622792D01*
X4832278Y8633205D01*
X4821864Y8643620D01*
X4811450Y8648700D01*
X4790622Y8648700D01*
X4949626Y8633205D02*
G01*
X4939212Y8643620D01*
X4923718Y8648700D01*
X4902890Y8648700D01*
X4887396Y8643620D01*
X4876982Y8633205D01*
X4876982Y8622792D01*
X4882062Y8612378D01*
X4887396Y8607044D01*
X4897810Y8601963D01*
X4928798Y8591550D01*
X4939212Y8586470D01*
X4944546Y8581136D01*
X4949626Y8570721D01*
X4949626Y8555228D01*
X4939212Y8544813D01*
X4923718Y8539734D01*
X4902890Y8539734D01*
X4887396Y8544813D01*
X4876982Y8555228D01*
X3391915Y3905757D02*
G01*
X3386836Y3916171D01*
X3376422Y3926586D01*
X3366008Y3931920D01*
X3350259Y3937000D01*
X3324352Y3937000D01*
X3308858Y3931920D01*
X3298443Y3926586D01*
X3288029Y3916171D01*
X3282950Y3905757D01*
X3282950Y3884929D01*
X3288029Y3874770D01*
X3298443Y3864355D01*
X3308858Y3859021D01*
X3324352Y3853942D01*
X3350259Y3853942D01*
X3366008Y3859021D01*
X3376422Y3864355D01*
X3386836Y3874770D01*
X3391915Y3884929D01*
X3391915Y3905757D01*
X3303524Y3890263D02*
G01*
X3272536Y3859021D01*
X3366008Y3814318D02*
G01*
X3371088Y3814318D01*
X3381502Y3809237D01*
X3386836Y3803904D01*
X3391915Y3793489D01*
X3391915Y3772915D01*
X3386836Y3762502D01*
X3381502Y3757168D01*
X3371088Y3752087D01*
X3360674Y3752087D01*
X3350259Y3757168D01*
X3334765Y3767581D01*
X3282950Y3819652D01*
X3282950Y3746754D01*
X3246374Y3712463D02*
G01*
X3246374Y3618992D01*
X3391915Y3584702D02*
G01*
X3282950Y3584702D01*
X3391915Y3584702D02*
G01*
X3391915Y3537965D01*
X3386836Y3522471D01*
X3381502Y3517137D01*
X3371088Y3512057D01*
X3355593Y3512057D01*
X3345179Y3517137D01*
X3340100Y3522471D01*
X3334765Y3537965D01*
X3334765Y3584702D01*
X3391915Y3477768D02*
G01*
X3282950Y3477768D01*
X3391915Y3477768D02*
G01*
X3282950Y3436112D01*
X3391915Y3394710D02*
G01*
X3282950Y3436112D01*
X3391915Y3394710D02*
G01*
X3282950Y3394710D01*
X3391915Y3329178D02*
G01*
X3386836Y3339592D01*
X3376422Y3350005D01*
X3366008Y3355086D01*
X3350259Y3360420D01*
X3324352Y3360420D01*
X3308858Y3355086D01*
X3298443Y3350005D01*
X3288029Y3339592D01*
X3282950Y3329178D01*
X3282950Y3308350D01*
X3288029Y3297936D01*
X3298443Y3287521D01*
X3308858Y3282442D01*
X3324352Y3277107D01*
X3350259Y3277107D01*
X3366008Y3282442D01*
X3376422Y3287521D01*
X3386836Y3297936D01*
X3391915Y3308350D01*
X3391915Y3329178D01*
X3376422Y3170173D02*
G01*
X3386836Y3180587D01*
X3391915Y3196081D01*
X3391915Y3216910D01*
X3386836Y3232404D01*
X3376422Y3242818D01*
X3366008Y3242818D01*
X3355593Y3237737D01*
X3350259Y3232404D01*
X3345179Y3221989D01*
X3334765Y3191002D01*
X3329686Y3180587D01*
X3324352Y3175254D01*
X3313938Y3170173D01*
X3298443Y3170173D01*
X3288029Y3180587D01*
X3282950Y3196081D01*
X3282950Y3216910D01*
X3288029Y3232404D01*
X3298443Y3242818D01*
X3758184Y5753100D02*
G01*
X3867150Y5753100D01*
X3758184Y5753100D02*
G01*
X3758184Y5799836D01*
X3763263Y5815329D01*
X3768597Y5820663D01*
X3779011Y5825744D01*
X3789425Y5825744D01*
X3799840Y5820663D01*
X3804920Y5815329D01*
X3810000Y5799836D01*
X3810000Y5753100D01*
X3810000Y5789421D02*
G01*
X3867150Y5825744D01*
X3779011Y5860034D02*
G01*
X3773677Y5870447D01*
X3758184Y5886195D01*
X3867150Y5886195D01*
X3607815Y5715000D02*
G01*
X3498850Y5715000D01*
X3607815Y5715000D02*
G01*
X3607815Y5668263D01*
X3602736Y5652770D01*
X3597402Y5647436D01*
X3586988Y5642355D01*
X3576574Y5642355D01*
X3566159Y5647436D01*
X3561079Y5652770D01*
X3556000Y5668263D01*
X3556000Y5715000D01*
X3556000Y5678678D02*
G01*
X3498850Y5642355D01*
X3581908Y5602731D02*
G01*
X3586988Y5602731D01*
X3597402Y5597652D01*
X3602736Y5592318D01*
X3607815Y5581904D01*
X3607815Y5561329D01*
X3602736Y5550915D01*
X3597402Y5545581D01*
X3586988Y5540502D01*
X3576574Y5540502D01*
X3566159Y5545581D01*
X3550665Y5555995D01*
X3498850Y5608065D01*
X3498850Y5535168D01*
X4927600Y5614415D02*
G01*
X4927600Y5505450D01*
X4927600Y5614415D02*
G01*
X4974336Y5614415D01*
X4989829Y5609336D01*
X4995163Y5604002D01*
X5000243Y5593587D01*
X5000243Y5583173D01*
X4995163Y5572760D01*
X4989829Y5567679D01*
X4974336Y5562600D01*
X4927600Y5562600D01*
X4963922Y5562600D02*
G01*
X5000243Y5505450D01*
X5044947Y5614415D02*
G01*
X5102097Y5614415D01*
X5071109Y5572760D01*
X5086604Y5572760D01*
X5097018Y5567679D01*
X5102097Y5562600D01*
X5107431Y5546852D01*
X5107431Y5536437D01*
X5102097Y5520944D01*
X5091684Y5510529D01*
X5076190Y5505450D01*
X5060695Y5505450D01*
X5044947Y5510529D01*
X5039868Y5515610D01*
X5034534Y5526023D01*
X5143500Y7659115D02*
G01*
X5143500Y7550150D01*
X5143500Y7659115D02*
G01*
X5190236Y7659115D01*
X5205729Y7654036D01*
X5211063Y7648702D01*
X5216143Y7638287D01*
X5216143Y7627873D01*
X5211063Y7617460D01*
X5205729Y7612379D01*
X5190236Y7607300D01*
X5143500Y7607300D01*
X5179822Y7607300D02*
G01*
X5216143Y7550150D01*
X5302504Y7659115D02*
G01*
X5250434Y7586471D01*
X5328411Y7586471D01*
X5302504Y7659115D02*
G01*
X5302504Y7550150D01*
X5105400Y5752084D02*
G01*
X5105400Y5861050D01*
X5105400Y5752084D02*
G01*
X5058663Y5752084D01*
X5043170Y5757163D01*
X5037836Y5762497D01*
X5032756Y5772912D01*
X5032756Y5783326D01*
X5037836Y5793739D01*
X5043170Y5798820D01*
X5058663Y5803900D01*
X5105400Y5803900D01*
X5069077Y5803900D02*
G01*
X5032756Y5861050D01*
X4935981Y5752084D02*
G01*
X4988052Y5752084D01*
X4993131Y5798820D01*
X4988052Y5793739D01*
X4972304Y5788405D01*
X4956809Y5788405D01*
X4941315Y5793739D01*
X4930902Y5803900D01*
X4925568Y5819647D01*
X4925568Y5830062D01*
X4930902Y5845555D01*
X4941315Y5855970D01*
X4956809Y5861050D01*
X4972304Y5861050D01*
X4988052Y5855970D01*
X4993131Y5850889D01*
X4998465Y5840476D01*
X5359400Y7392415D02*
G01*
X5359400Y7283450D01*
X5359400Y7392415D02*
G01*
X5406136Y7392415D01*
X5421629Y7387336D01*
X5426963Y7382002D01*
X5432043Y7371587D01*
X5432043Y7361173D01*
X5426963Y7350760D01*
X5421629Y7345679D01*
X5406136Y7340600D01*
X5359400Y7340600D01*
X5395722Y7340600D02*
G01*
X5432043Y7283450D01*
X5466334Y7371587D02*
G01*
X5476747Y7376921D01*
X5492495Y7392415D01*
X5492495Y7283450D01*
X5557774Y7392415D02*
G01*
X5542279Y7387336D01*
X5531865Y7371587D01*
X5526786Y7345679D01*
X5526786Y7330186D01*
X5531865Y7304023D01*
X5542279Y7288529D01*
X5557774Y7283450D01*
X5568188Y7283450D01*
X5583936Y7288529D01*
X5594350Y7304023D01*
X5599429Y7330186D01*
X5599429Y7345679D01*
X5594350Y7371587D01*
X5583936Y7387336D01*
X5568188Y7392415D01*
X5557774Y7392415D01*
X4279900Y3110484D02*
G01*
X4279900Y3219450D01*
X4279900Y3110484D02*
G01*
X4233163Y3110484D01*
X4217670Y3115563D01*
X4212336Y3120897D01*
X4207256Y3131312D01*
X4207256Y3141726D01*
X4212336Y3152139D01*
X4217670Y3157220D01*
X4233163Y3162300D01*
X4279900Y3162300D01*
X4243577Y3162300D02*
G01*
X4207256Y3219450D01*
X4172965Y3131312D02*
G01*
X4162552Y3125978D01*
X4146804Y3110484D01*
X4146804Y3219450D01*
X4112513Y3131312D02*
G01*
X4102100Y3125978D01*
X4086606Y3110484D01*
X4086606Y3219450D01*
X5029200Y4329684D02*
G01*
X5029200Y4438650D01*
X5029200Y4329684D02*
G01*
X4982463Y4329684D01*
X4966970Y4334763D01*
X4961636Y4340097D01*
X4956556Y4350512D01*
X4956556Y4360926D01*
X4961636Y4371339D01*
X4966970Y4376420D01*
X4982463Y4381500D01*
X5029200Y4381500D01*
X4992877Y4381500D02*
G01*
X4956556Y4438650D01*
X4922265Y4350512D02*
G01*
X4911852Y4345178D01*
X4896104Y4329684D01*
X4896104Y4438650D01*
X4856734Y4355592D02*
G01*
X4856734Y4350512D01*
X4851400Y4340097D01*
X4846320Y4334763D01*
X4835906Y4329684D01*
X4815077Y4329684D01*
X4804663Y4334763D01*
X4799584Y4340097D01*
X4794250Y4350512D01*
X4794250Y4360926D01*
X4799584Y4371339D01*
X4809997Y4386834D01*
X4861813Y4438650D01*
X4789170Y4438650D01*
X4699000Y3097784D02*
G01*
X4699000Y3206750D01*
X4699000Y3097784D02*
G01*
X4652263Y3097784D01*
X4636770Y3102863D01*
X4631436Y3108197D01*
X4626356Y3118612D01*
X4626356Y3129026D01*
X4631436Y3139439D01*
X4636770Y3144520D01*
X4652263Y3149600D01*
X4699000Y3149600D01*
X4662677Y3149600D02*
G01*
X4626356Y3206750D01*
X4592065Y3118612D02*
G01*
X4581652Y3113278D01*
X4565904Y3097784D01*
X4565904Y3206750D01*
X4521200Y3097784D02*
G01*
X4464050Y3097784D01*
X4495291Y3139439D01*
X4479797Y3139439D01*
X4469384Y3144520D01*
X4464050Y3149600D01*
X4458970Y3165347D01*
X4458970Y3175762D01*
X4464050Y3191255D01*
X4474463Y3201670D01*
X4490211Y3206750D01*
X4505706Y3206750D01*
X4521200Y3201670D01*
X4526534Y3196589D01*
X4531613Y3186176D01*
X6412484Y7035800D02*
G01*
X6521450Y7035800D01*
X6412484Y7035800D02*
G01*
X6412484Y7082536D01*
X6417563Y7098029D01*
X6422897Y7103363D01*
X6433311Y7108444D01*
X6443725Y7108444D01*
X6454140Y7103363D01*
X6459220Y7098029D01*
X6464300Y7082536D01*
X6464300Y7035800D01*
X6464300Y7072121D02*
G01*
X6521450Y7108444D01*
X6433311Y7142734D02*
G01*
X6427977Y7153147D01*
X6412484Y7168895D01*
X6521450Y7168895D01*
X6412484Y7255002D02*
G01*
X6485127Y7203186D01*
X6485127Y7280910D01*
X6412484Y7255002D02*
G01*
X6521450Y7255002D01*
X1563878Y4517631D02*
G01*
X1553463Y4507217D01*
X1548384Y4491723D01*
X1548384Y4470895D01*
X1553463Y4455401D01*
X1563878Y4444987D01*
X1574292Y4444987D01*
X1584705Y4450067D01*
X1590039Y4455401D01*
X1595120Y4465815D01*
X1605534Y4497057D01*
X1610613Y4507217D01*
X1615947Y4512551D01*
X1626362Y4517631D01*
X1641855Y4517631D01*
X1652270Y4507217D01*
X1657350Y4491723D01*
X1657350Y4470895D01*
X1652270Y4455401D01*
X1641855Y4444987D01*
X1548384Y4551921D02*
G01*
X1657350Y4578083D01*
X1548384Y4603991D02*
G01*
X1657350Y4578083D01*
X1548384Y4603991D02*
G01*
X1657350Y4629899D01*
X1548384Y4655807D02*
G01*
X1657350Y4629899D01*
X1574292Y4695431D02*
G01*
X1569212Y4695431D01*
X1558797Y4700511D01*
X1553463Y4705845D01*
X1548384Y4716259D01*
X1548384Y4737087D01*
X1553463Y4747247D01*
X1558797Y4752581D01*
X1569212Y4757661D01*
X1579626Y4757661D01*
X1590039Y4752581D01*
X1605534Y4742167D01*
X1657350Y4690097D01*
X1657350Y4762995D01*
X6417487Y5692114D02*
G01*
X6417487Y5614136D01*
X6422567Y5598642D01*
X6432981Y5588228D01*
X6448729Y5583148D01*
X6459143Y5583148D01*
X6474637Y5588228D01*
X6485051Y5598642D01*
X6490131Y5614136D01*
X6490131Y5692114D01*
X6524421Y5671286D02*
G01*
X6534835Y5676620D01*
X6550583Y5692114D01*
X6550583Y5583148D01*
X6557187Y3634714D02*
G01*
X6557187Y3556736D01*
X6562267Y3541242D01*
X6572681Y3530828D01*
X6588429Y3525748D01*
X6598843Y3525748D01*
X6614337Y3530828D01*
X6624751Y3541242D01*
X6629831Y3556736D01*
X6629831Y3634714D01*
X6669455Y3608806D02*
G01*
X6669455Y3613886D01*
X6674535Y3624300D01*
X6679869Y3629634D01*
X6690283Y3634714D01*
X6710857Y3634714D01*
X6721271Y3629634D01*
X6726605Y3624300D01*
X6731685Y3613886D01*
X6731685Y3603472D01*
X6726605Y3593058D01*
X6716191Y3577564D01*
X6664121Y3525748D01*
X6737019Y3525748D01*
X2590800Y9780511D02*
G01*
X2590800Y9702533D01*
X2595879Y9687039D01*
X2606293Y9676625D01*
X2622041Y9671545D01*
X2632456Y9671545D01*
X2647950Y9676625D01*
X2658363Y9687039D01*
X2663443Y9702533D01*
X2663443Y9780511D01*
X2749804Y9780511D02*
G01*
X2697734Y9707867D01*
X2775711Y9707867D01*
X2749804Y9780511D02*
G01*
X2749804Y9671545D01*
X4699000Y5398515D02*
G01*
X4699000Y5320537D01*
X4704079Y5305044D01*
X4714493Y5294629D01*
X4730241Y5289550D01*
X4740656Y5289550D01*
X4756150Y5294629D01*
X4766563Y5305044D01*
X4771643Y5320537D01*
X4771643Y5398515D01*
X4868418Y5383021D02*
G01*
X4863084Y5393436D01*
X4847590Y5398515D01*
X4837175Y5398515D01*
X4821681Y5393436D01*
X4811268Y5377687D01*
X4805934Y5351779D01*
X4805934Y5325871D01*
X4811268Y5305044D01*
X4821681Y5294629D01*
X4837175Y5289550D01*
X4842509Y5289550D01*
X4858004Y5294629D01*
X4868418Y5305044D01*
X4873497Y5320537D01*
X4873497Y5325871D01*
X4868418Y5341365D01*
X4858004Y5351779D01*
X4842509Y5356860D01*
X4837175Y5356860D01*
X4821681Y5351779D01*
X4811268Y5341365D01*
X4805934Y5325871D01*
G36*
X4813300Y6431178D02*
G01*
X4809439Y6430822D01*
X4805781Y6429603D01*
X4802479Y6427673D01*
X4799634Y6425031D01*
X4797501Y6421831D01*
X4796637Y6420104D01*
X4795621Y6416395D01*
X4795418Y6412534D01*
X4796028Y6408724D01*
X4796637Y6406896D01*
X4798466Y6403492D01*
X4801006Y6400596D01*
X4804105Y6398260D01*
X4805781Y6397345D01*
X4809439Y6396177D01*
X4813300Y6395821D01*
X4817160Y6396177D01*
X4820818Y6397345D01*
X4824120Y6399326D01*
X4826965Y6401968D01*
X4829098Y6405168D01*
X4829962Y6406896D01*
X4830978Y6410604D01*
X4831181Y6414465D01*
X4830572Y6418275D01*
X4829962Y6420104D01*
X4828133Y6423507D01*
X4825593Y6426403D01*
X4822494Y6428740D01*
X4818989Y6430314D01*
X4815230Y6431127D01*
G37*
G36*
X2997200Y3251200D02*
G01*
X2969260Y3228340D01*
X3025140Y3228340D01*
G37*
G36*
X2969260Y3274060D02*
G01*
X2997200Y3251200D01*
X3025140Y3274060D01*
G37*
G36*
X1890826Y8951163D02*
G01*
X1884172Y8950756D01*
X1877669Y8949486D01*
X1871319Y8947454D01*
X1865325Y8944610D01*
X1859737Y8941054D01*
X1854606Y8936837D01*
X1850085Y8932011D01*
X1846173Y8926626D01*
X1842973Y8920784D01*
X1840534Y8914638D01*
X1838858Y8908186D01*
X1838045Y8901633D01*
X1838045Y8894978D01*
X1838858Y8888374D01*
X1840534Y8881973D01*
X1842973Y8875776D01*
X1846173Y8869984D01*
X1850085Y8864600D01*
X1854606Y8859774D01*
X1859737Y8855557D01*
X1865325Y8852001D01*
X1871319Y8849156D01*
X1877669Y8847124D01*
X1884172Y8845854D01*
X1890775Y8845448D01*
X1897430Y8845854D01*
X1903933Y8847124D01*
X1910283Y8849156D01*
X1916277Y8852001D01*
X1921865Y8855557D01*
X1926996Y8859774D01*
X1931517Y8864600D01*
X1935429Y8869984D01*
X1938629Y8875776D01*
X1941068Y8881973D01*
X1942744Y8888374D01*
X1943557Y8894978D01*
X1943557Y8901633D01*
X1942744Y8908186D01*
X1941068Y8914638D01*
X1938629Y8920784D01*
X1935429Y8926626D01*
X1931517Y8932011D01*
X1926996Y8936837D01*
X1921865Y8941054D01*
X1916277Y8944610D01*
X1910283Y8947454D01*
X1903933Y8949486D01*
X1897430Y8950756D01*
G37*
D11*
X4774488Y6361602D02*
G01*
X4759893Y6361602D01*
X4869487Y6361602D02*
G01*
X4865319Y6361602D01*
X4964480Y6361602D02*
G01*
X4960315Y6361602D01*
X5069895Y6361602D02*
G01*
X5055311Y6361602D01*
X4774488Y6541604D02*
G01*
X4759893Y6541604D01*
X4964480Y6541604D02*
G01*
X4865316Y6541604D01*
X5069895Y6541604D02*
G01*
X5055308Y6541604D01*
X5069895Y6541604D02*
G01*
X5069895Y6361602D01*
X4759893Y6541604D02*
G01*
X4759893Y6361602D01*
D12*
X4635500Y9372600D02*
G01*
X4381500Y9372600D01*
X4381500Y9626600D01*
X4635500Y9626600D01*
X4635500Y9436100D01*
D13*
X4635500Y9372600D02*
G01*
X4635500Y9436100D01*
D12*
X4241800Y9372600D02*
G01*
X3987800Y9372600D01*
X3987800Y9626600D01*
X4241800Y9626600D01*
X4241800Y9436100D01*
D13*
X4241800Y9372600D02*
G01*
X4241800Y9436100D01*
D12*
X3848100Y9359900D02*
G01*
X3594100Y9359900D01*
X3594100Y9613900D01*
X3848100Y9613900D01*
X3848100Y9423400D01*
D13*
X3848100Y9359900D02*
G01*
X3848100Y9423400D01*
D12*
X1717700Y3657600D02*
G01*
X1971700Y3657600D01*
X1971700Y3403600D01*
X1717700Y3403600D01*
X1717700Y3594100D01*
D13*
X1717700Y3657600D02*
G01*
X1717700Y3594100D01*
D12*
X2171700Y3644900D02*
G01*
X2425700Y3644900D01*
X2425700Y3390900D01*
X2171700Y3390900D01*
X2171700Y3581400D01*
D13*
X2171700Y3644900D02*
G01*
X2171700Y3581400D01*
D14*
X5268374Y6843318D02*
G01*
X5188371Y6843318D01*
X5157391Y6954299D02*
G01*
X5157391Y6874299D01*
X5268374Y6985281D02*
G01*
X5188371Y6985281D01*
X5325963Y6842734D02*
G01*
X5405958Y6842734D01*
X5325963Y6984697D02*
G01*
X5405958Y6984697D01*
X5436941Y6953717D02*
G01*
X5436941Y6873714D01*
X5324767Y6153099D02*
G01*
X5404769Y6153099D01*
X5435749Y6042118D02*
G01*
X5435749Y6122118D01*
X5324767Y6011136D02*
G01*
X5404769Y6011136D01*
X5267177Y6153683D02*
G01*
X5187182Y6153683D01*
X5267177Y6011720D02*
G01*
X5187182Y6011720D01*
X5156200Y6042700D02*
G01*
X5156200Y6122703D01*
D10*
X6287439Y6718330D02*
G01*
X6287439Y6639321D01*
X6387160Y6639321D02*
G01*
X6387160Y6718330D01*
X6371920Y6733570D02*
G01*
X6302679Y6733570D01*
X6287439Y6515069D02*
G01*
X6287439Y6594078D01*
X6387160Y6594078D02*
G01*
X6387160Y6515069D01*
X6371920Y6499829D02*
G01*
X6302679Y6499829D01*
X5220639Y4038630D02*
G01*
X5220639Y3959621D01*
X5320360Y3959621D02*
G01*
X5320360Y4038630D01*
X5305120Y4053870D02*
G01*
X5235879Y4053870D01*
X5220639Y3835369D02*
G01*
X5220639Y3914378D01*
X5320360Y3914378D02*
G01*
X5320360Y3835369D01*
X5305120Y3820129D02*
G01*
X5235879Y3820129D01*
X3876819Y3811460D02*
G01*
X3735819Y3811460D01*
X3735819Y3630739D02*
G01*
X3876819Y3630739D01*
X3892059Y3645979D02*
G01*
X3892059Y3796220D01*
X3514580Y3811460D02*
G01*
X3655580Y3811460D01*
X3655580Y3630739D02*
G01*
X3514580Y3630739D01*
X3499340Y3645979D02*
G01*
X3499340Y3796220D01*
X5311919Y3646360D02*
G01*
X5170919Y3646360D01*
X5170919Y3465639D02*
G01*
X5311919Y3465639D01*
X5327159Y3480879D02*
G01*
X5327159Y3631120D01*
X4949680Y3646360D02*
G01*
X5090680Y3646360D01*
X5090680Y3465639D02*
G01*
X4949680Y3465639D01*
X4934440Y3480879D02*
G01*
X4934440Y3631120D01*
X4136880Y3656139D02*
G01*
X4277880Y3656139D01*
X4277880Y3836860D02*
G01*
X4136880Y3836860D01*
X4121640Y3821620D02*
G01*
X4121640Y3671379D01*
X4499119Y3656139D02*
G01*
X4358119Y3656139D01*
X4358119Y3836860D02*
G01*
X4499119Y3836860D01*
X4514359Y3821620D02*
G01*
X4514359Y3671379D01*
X6602539Y8093219D02*
G01*
X6602539Y7952219D01*
X6783260Y7952219D02*
G01*
X6783260Y8093219D01*
X6768020Y8108459D02*
G01*
X6617779Y8108459D01*
X6602539Y7730980D02*
G01*
X6602539Y7871980D01*
X6783260Y7871980D02*
G01*
X6783260Y7730980D01*
X6768020Y7715740D02*
G01*
X6617779Y7715740D01*
D14*
X6109799Y7325309D02*
G01*
X5929797Y7325309D01*
X6109799Y7635311D02*
G01*
X5929797Y7635311D01*
X5852109Y6260000D02*
G01*
X5852109Y6440002D01*
X6162111Y6260000D02*
G01*
X6162111Y6440002D01*
D15*
X3047199Y3316201D02*
G01*
X3047199Y3186198D01*
X2947200Y3316201D02*
G01*
X2947200Y3186198D01*
D11*
X3020059Y3251200D02*
G01*
X2971800Y3251200D01*
D10*
X2522260Y4880518D02*
G01*
X2522260Y4999530D01*
X2522260Y4695278D02*
G01*
X2522260Y4576269D01*
X2507020Y5014770D02*
G01*
X2318979Y5014770D01*
X2507020Y4561029D02*
G01*
X2318979Y4561029D01*
X2303739Y4999530D02*
G01*
X2303739Y4880518D01*
X2303739Y4576269D02*
G01*
X2303739Y4695278D01*
X2752181Y5544860D02*
G01*
X2633169Y5544860D01*
X2937421Y5544860D02*
G01*
X3056430Y5544860D01*
X2617929Y5529620D02*
G01*
X2617929Y5341579D01*
X3071670Y5529620D02*
G01*
X3071670Y5341579D01*
X2633169Y5326339D02*
G01*
X2752181Y5326339D01*
X3056430Y5326339D02*
G01*
X2937421Y5326339D01*
X3736980Y3419109D02*
G01*
X3608486Y3419109D01*
X3608486Y3235690D01*
X3736980Y3235690D01*
X3832219Y3419109D02*
G01*
X3960713Y3419109D01*
X3960713Y3235690D01*
X3832219Y3235690D01*
X5801090Y9159880D02*
G01*
X5801090Y9031386D01*
X5984509Y9031386D01*
X5984509Y9159880D01*
X5801090Y9255119D02*
G01*
X5801090Y9383613D01*
X5984509Y9383613D01*
X5984509Y9255119D01*
X6385290Y9121780D02*
G01*
X6385290Y8993286D01*
X6568709Y8993286D01*
X6568709Y9121780D01*
X6385290Y9217019D02*
G01*
X6385290Y9345513D01*
X6568709Y9345513D01*
X6568709Y9217019D01*
X4988290Y9159880D02*
G01*
X4988290Y9031386D01*
X5171709Y9031386D01*
X5171709Y9159880D01*
X4988290Y9255119D02*
G01*
X4988290Y9383613D01*
X5171709Y9383613D01*
X5171709Y9255119D01*
X6334490Y4486280D02*
G01*
X6334490Y4357786D01*
X6517909Y4357786D01*
X6517909Y4486280D01*
X6334490Y4581519D02*
G01*
X6334490Y4710013D01*
X6517909Y4710013D01*
X6517909Y4581519D01*
D16*
X5320047Y7893951D02*
G01*
X5320047Y8203958D01*
X5630054Y8203958D02*
G01*
X5320047Y8203958D01*
X5629927Y7893951D02*
G01*
X5629927Y8203958D01*
X5320047Y7891538D02*
G01*
X5403867Y7891538D01*
X5546107Y7891538D02*
G01*
X5629927Y7891538D01*
D10*
X3076178Y4965639D02*
G01*
X3756421Y4965639D01*
X3756421Y4686360D01*
X3076178Y4686360D01*
X3076178Y4965639D01*
D14*
X6051301Y4077507D02*
G01*
X6052299Y3929499D01*
X5862299Y4063499D02*
G01*
X5862299Y3929499D01*
X6052299Y3929499D02*
G01*
X5862297Y3929499D01*
X5861298Y4302511D02*
G01*
X5861304Y4302511D01*
X5896297Y4337504D01*
X6051301Y4302511D02*
G01*
X6051295Y4302511D01*
X6016302Y4337504D01*
X6051301Y4177507D02*
G01*
X6051301Y4302511D01*
X5861298Y4177507D02*
G01*
X5861298Y4302511D01*
X6016302Y4337504D02*
G01*
X5896297Y4337504D01*
X6006299Y4097500D02*
G01*
X5906300Y4097500D01*
X5955794Y4097500D02*
G01*
X5955794Y4147499D01*
X5465300Y4890262D02*
G01*
X5685302Y4890262D01*
X5689600Y4889500D02*
G01*
X5689600Y4991100D01*
X5461000Y4991100D01*
X5461000Y4889500D01*
X4250199Y4469637D02*
G01*
X4030197Y4469637D01*
X4025900Y4470400D02*
G01*
X4025900Y4368800D01*
X4254500Y4368800D01*
X4254500Y4470400D01*
X1906407Y5231251D02*
G01*
X1906407Y6738310D01*
X2480492Y6534429D02*
G01*
X2395405Y6534429D01*
X2395405Y6381445D01*
X2480467Y6381445D01*
X2480480Y6231254D02*
G01*
X2480480Y6738310D01*
X2480492Y6738310D02*
G01*
X1730402Y6738310D01*
X1730402Y5231251D01*
X2480492Y5231251D01*
X1897212Y5231259D02*
G01*
X1910900Y5171267D01*
X1830410Y5171267D01*
X1842500Y5231259D01*
X2480480Y6231254D02*
G01*
X2480480Y5231256D01*
X2477472Y5551728D02*
G01*
X2388900Y5551728D01*
X2388900Y5398744D01*
X2477472Y5398744D01*
X2480492Y6033541D02*
G01*
X2395405Y6033541D01*
X2395405Y5880557D01*
X2480467Y5880557D01*
D17*
X3173399Y5927394D02*
G01*
X3273399Y5927394D01*
X3173399Y6442405D02*
G01*
X3273399Y6442405D01*
X3857294Y6732600D02*
G01*
X3857294Y6632600D01*
X4372305Y6732600D02*
G01*
X4372305Y6632600D01*
X4174794Y7888300D02*
G01*
X4174794Y7788300D01*
X4689805Y7888300D02*
G01*
X4689805Y7788300D01*
D14*
X2879397Y4058996D02*
G01*
X2989399Y4058996D01*
X2989399Y3560000D01*
X2989399Y3560000D02*
G01*
X2652273Y3560000D01*
X2652273Y3560000D02*
G01*
X2652273Y4058996D01*
X2761401Y4058996D01*
X4236648Y5651662D02*
G01*
X4236648Y6011547D01*
X3916649Y5651662D02*
G01*
X3916649Y6011547D01*
D10*
X3428060Y5501878D02*
G01*
X3428060Y5430075D01*
X3328339Y5430075D01*
X3328339Y5501878D01*
X3428060Y5547121D02*
G01*
X3428060Y5618924D01*
X3328339Y5618924D01*
X3328339Y5547121D01*
X5338521Y5496539D02*
G01*
X5434408Y5496539D01*
X5434408Y5628660D01*
X5338521Y5628660D01*
X5253278Y5496539D02*
G01*
X5157391Y5496539D01*
X5157391Y5628660D01*
X5253278Y5628660D01*
X5186121Y7376139D02*
G01*
X5282008Y7376139D01*
X5282008Y7508260D01*
X5186121Y7508260D01*
X5100878Y7376139D02*
G01*
X5004991Y7376139D01*
X5004991Y7508260D01*
X5100878Y7508260D01*
X5253278Y5869960D02*
G01*
X5157391Y5869960D01*
X5157391Y5737839D01*
X5253278Y5737839D01*
X5338521Y5869960D02*
G01*
X5434408Y5869960D01*
X5434408Y5737839D01*
X5338521Y5737839D01*
X5338521Y7122139D02*
G01*
X5434408Y7122139D01*
X5434408Y7254260D01*
X5338521Y7254260D01*
X5253278Y7122139D02*
G01*
X5157391Y7122139D01*
X5157391Y7254260D01*
X5253278Y7254260D01*
X4237278Y3393460D02*
G01*
X4141391Y3393460D01*
X4141391Y3261339D01*
X4237278Y3261339D01*
X4322521Y3393460D02*
G01*
X4418408Y3393460D01*
X4418408Y3261339D01*
X4322521Y3261339D01*
X4986578Y4612660D02*
G01*
X4890691Y4612660D01*
X4890691Y4480539D01*
X4986578Y4480539D01*
X5071821Y4612660D02*
G01*
X5167708Y4612660D01*
X5167708Y4480539D01*
X5071821Y4480539D01*
X4656378Y3380760D02*
G01*
X4560491Y3380760D01*
X4560491Y3248639D01*
X4656378Y3248639D01*
X4741621Y3380760D02*
G01*
X4837508Y3380760D01*
X4837508Y3248639D01*
X4741621Y3248639D01*
X6788109Y7130920D02*
G01*
X6788109Y7266912D01*
X6572290Y7266912D01*
X6572290Y7130920D01*
X6788109Y6940679D02*
G01*
X6788109Y6804687D01*
X6572290Y6804687D01*
X6572290Y6940679D01*
D14*
X1717700Y3890378D02*
G01*
X1717700Y5050370D01*
X2117699Y5050370D01*
X2117699Y3890378D01*
X1717700Y3890378D01*
X1803400Y4089387D02*
G01*
X1803400Y4343387D01*
X2032000Y4343387D01*
X2032000Y4089387D01*
X1803400Y4089387D01*
D18*
X6353581Y5525912D02*
G01*
X6353581Y5530519D01*
X6353581Y5395915D02*
G01*
X6353581Y5449884D01*
X6353581Y5315280D02*
G01*
X6353581Y5319887D01*
D10*
X6498823Y5315280D02*
G01*
X6353581Y5315280D01*
X6498823Y5530519D02*
G01*
X6353581Y5530519D01*
D18*
X6493281Y3468512D02*
G01*
X6493281Y3473119D01*
X6493281Y3338515D02*
G01*
X6493281Y3392484D01*
X6493281Y3257880D02*
G01*
X6493281Y3262487D01*
D10*
X6638523Y3257880D02*
G01*
X6493281Y3257880D01*
X6638523Y3473119D02*
G01*
X6493281Y3473119D01*
D14*
X3320516Y9023835D02*
G01*
X3320516Y9512294D01*
X3096996Y9512294D01*
X3117316Y9023835D02*
G01*
X3117316Y9512294D01*
X2832100Y9512294D01*
X2832100Y9296394D01*
X2578100Y9296394D01*
X2578100Y9512294D01*
X2324100Y9512294D01*
X2324100Y9296394D01*
X2095500Y9296394D01*
X2095500Y9512294D01*
X1866900Y9512294D01*
X1866900Y9143994D01*
X1690799Y9023835D02*
G01*
X3492500Y9023835D01*
X3492500Y8945910D02*
G01*
X3492500Y9626594D01*
X3357415Y7073894D02*
G01*
X3492500Y7073894D01*
X3492500Y7158680D01*
X1690799Y7158680D02*
G01*
X1690799Y7073894D01*
X1824184Y7073894D01*
X1690799Y9627796D02*
G01*
X1690799Y8945910D01*
X3490800Y9627796D02*
G01*
X1690799Y9627796D01*
X4620259Y5224779D02*
G01*
X4777740Y5224779D01*
X4777740Y4935220D02*
G01*
X4620259Y4935220D01*
X4777740Y5224779D02*
G01*
X4777740Y5222087D01*
X4777740Y5125880D02*
G01*
X4777740Y5034127D01*
X4777740Y4937920D02*
G01*
X4777740Y4935220D01*
X4620259Y5224779D02*
G01*
X4620259Y5222079D01*
X4620259Y4937912D02*
G01*
X4620259Y4935220D01*
G75*
G01*
X5157389Y6954299D02*
G02*
X5188372Y6985282I30983J0D01*
G75*
G01*
X5188372Y6843316D02*
G02*
X5157389Y6874299I0J30983D01*
G75*
G01*
X5405958Y6984700D02*
G02*
X5436941Y6953717I0J-30983D01*
G75*
G01*
X5436941Y6873718D02*
G02*
X5405958Y6842735I-30983J0D01*
G75*
G01*
X5435752Y6042119D02*
G02*
X5404769Y6011136I-30983J0D01*
G75*
G01*
X5404769Y6153102D02*
G02*
X5435752Y6122119I0J-30983D01*
G75*
G01*
X5187183Y6011718D02*
G02*
X5156200Y6042701I0J30983D01*
G75*
G01*
X5156200Y6122700D02*
G02*
X5187183Y6153683I30983J0D01*
D10*
G75*
G01*
X6387160Y6718330D02*
G03*
X6371920Y6733570I-15240J0D01*
G75*
G01*
X6302680Y6733570D02*
G03*
X6287440Y6718330I0J-15240D01*
G75*
G01*
X6387160Y6515070D02*
G02*
X6371920Y6499830I-15240J0D01*
G75*
G01*
X6302680Y6499830D02*
G02*
X6287440Y6515070I0J15240D01*
G75*
G01*
X5320360Y4038630D02*
G03*
X5305120Y4053870I-15240J0D01*
G75*
G01*
X5235880Y4053870D02*
G03*
X5220640Y4038630I0J-15240D01*
G75*
G01*
X5320360Y3835370D02*
G02*
X5305120Y3820130I-15240J0D01*
G75*
G01*
X5235880Y3820130D02*
G02*
X5220640Y3835370I0J15240D01*
G75*
G01*
X3876820Y3630740D02*
G03*
X3892060Y3645980I0J15240D01*
G75*
G01*
X3892060Y3796220D02*
G03*
X3876820Y3811460I-15240J0D01*
G75*
G01*
X3514580Y3630740D02*
G02*
X3499340Y3645980I0J15240D01*
G75*
G01*
X3499340Y3796220D02*
G02*
X3514580Y3811460I15240J0D01*
G75*
G01*
X5311920Y3465640D02*
G03*
X5327160Y3480880I0J15240D01*
G75*
G01*
X5327160Y3631120D02*
G03*
X5311920Y3646360I-15240J0D01*
G75*
G01*
X4949680Y3465640D02*
G02*
X4934440Y3480880I0J15240D01*
G75*
G01*
X4934440Y3631120D02*
G02*
X4949680Y3646360I15240J0D01*
G75*
G01*
X4136880Y3836860D02*
G03*
X4121640Y3821620I0J-15240D01*
G75*
G01*
X4121640Y3671380D02*
G03*
X4136880Y3656140I15240J0D01*
G75*
G01*
X4499120Y3836860D02*
G02*
X4514360Y3821620I0J-15240D01*
G75*
G01*
X4514360Y3671380D02*
G02*
X4499120Y3656140I-15240J0D01*
G75*
G01*
X6783260Y8093220D02*
G03*
X6768021Y8108460I-15240J0D01*
G75*
G01*
X6617779Y8108460D02*
G03*
X6602540Y8093220I1J-15240D01*
G75*
G01*
X6783260Y7730980D02*
G02*
X6768021Y7715740I-15240J0D01*
G75*
G01*
X6617779Y7715740D02*
G02*
X6602540Y7730980I1J15240D01*
D19*
G75*
G01*
X2413000Y4787900D02*
G02*
X2497496Y4787900I42248J-73175D01*
G75*
G01*
X2413000Y4787900D02*
G02*
X2328504Y4787900I-42248J73175D01*
G75*
G01*
X2844800Y5435600D02*
G02*
X2844800Y5520096I73175J42248D01*
G75*
G01*
X2844800Y5435600D02*
G02*
X2844800Y5351104I-73175J-42248D01*
D16*
G75*
G01*
X5406408Y7891539D02*
G02*
X5546108Y7891539I69850J-21730D01*
D20*
G75*
G01*
X5448300Y4813300D02*
G03*
X5448046Y4813300I-127J12445D01*
G75*
G01*
X4267200Y4546600D02*
G03*
X4267454Y4546600I127J-12445D01*
D21*
G75*
G01*
X3483407Y5994400D02*
G03*
X3493389Y5994400I4991J356D01*
G75*
G01*
X3493389Y5994400D02*
G03*
X3483407Y5994400I-4991J-356D01*
G75*
G01*
X3924300Y6422593D02*
G03*
X3924300Y6412611I356J-4991D01*
G75*
G01*
X3924300Y6412611D02*
G03*
X3924300Y6422593I-356J4991D01*
G75*
G01*
X4241800Y7578293D02*
G03*
X4241800Y7568311I356J-4991D01*
G75*
G01*
X4241800Y7568311D02*
G03*
X4241800Y7578293I-356J4991D01*
D14*
G75*
G01*
X2879400Y4058999D02*
G02*
X2761399Y4058999I-59001J-4468D01*
G75*
G01
X5892800Y7645400D02*
G03X5892800Y7645400I-12700J0D01*
G75*
G01
X6184900Y6489700D02*
G03X6184900Y6489700I-12700J0D01*
D22*
G75*
G01
X5681828Y7899413D02*
G03X5681828Y7899413I-10008J0D01*
D14*
G75*
G01
X2575463Y4082992D02*
G03X2575463Y4082992I-12040J0D01*
G75*
G01
X3856685Y5491543D02*
G03X3856685Y5491543I-19990J0D01*
D16*
G75*
G01
X6535293Y5308600D02*
G03X6535293Y5308600I-7493J0D01*
G75*
G01
X6674993Y3251200D02*
G03X6674993Y3251200I-7493J0D01*
D23*
G75*
G01
X4566996Y5234000D02*
G03X4566996Y5234000I-11989J0D01*
M02*
