M48
METRIC,LZ,000.000
;FILE_FORMAT=3:3
;TYPE=PLATED
;Layer: PTH_Through_Via
;EasyEDA v6.5.50, 2025-05-28 03:44:33
;481f8348a4b54ded82698d34e4f8dad8,511818ccc1ea462d976f425f61ebd680,10
;Gerber Generator version 0.2
;Holesize 1 = 0.305 mm
T01C0.305
;Holesize 2 = 0.310 mm
T02C0.310
%
G05
G90
T01
X049961Y043151
X019831Y085153
X058037Y052242
X035966Y071219
X038481Y047371
X046363Y075653
X060685Y034305
X045230Y078289
X032374Y067682
X055197Y061320
X053879Y048972
X061275Y030904
X060346Y072335
X055802Y052911
X057885Y046339
T02
X055880Y063881
X052197Y060833
X049149Y063119
X052206Y058039
X048260Y054102
X044069Y053848
X045593Y049911
X034163Y045403
X040724Y047582
X019304Y068453
X058547Y032004
X022733Y070866
X060071Y064849
X063373Y066675
X059944Y069342
X051054Y047625
X044831Y045974
X044196Y037465
X057087Y079781
X054229Y079756
X063246Y038227
X059563Y042282
X066421Y034417
X059817Y047625
X065151Y054991
X058849Y074803
X066748Y080137
X056648Y048253
X034658Y088778
X050673Y081153
M30
