G04 Layer: TopSilkLayer*
G04 EasyEDA v6.4.7, 2020-12-07T01:06:49--5:00*
G04 5e8349f5503448508ce6795c89dbbb90,9f54a757970e4a3cb0a7e8d24ad546a0,10*
G04 Gerber Generator version 0.2*
G04 Scale: 100 percent, Rotated: No, Reflected: No *
G04 Dimensions in millimeters *
G04 leading zeros omitted , absolute positions ,3 integer and 3 decimal *
%FSLAX33Y33*%
%MOMM*%
G90*
D02*

%ADD10C,0.254000*%
%ADD28C,0.150012*%
%ADD29C,0.200000*%
%ADD30C,0.203200*%
%ADD31C,0.202999*%
%ADD32C,0.152400*%

%LPD*%
G54D28*
G01X18400Y6299D02*
G01X18400Y6599D01*
G01X17499Y5999D02*
G01X18100Y5999D01*
G01X18400Y6299D01*
G01X17200Y4999D02*
G01X17600Y5399D01*
G01X19200Y5399D01*
G01X19600Y5799D01*
G01X19600Y9699D01*
G01X19400Y9899D01*
G54D10*
G01X13949Y2201D02*
G01X13949Y601D01*
G01X15800Y606D02*
G01X17050Y606D01*
G01X15800Y2206D02*
G01X17050Y2206D01*
G01X15199Y601D02*
G01X13949Y601D01*
G01X15199Y2201D02*
G01X13949Y2201D01*
G01X17050Y2206D02*
G01X17050Y606D01*
G54D29*
G01X8849Y2399D02*
G01X10449Y2399D01*
G01X10449Y399D01*
G01X8849Y399D01*
G01X8049Y399D02*
G01X6449Y399D01*
G01X6449Y2399D01*
G01X8049Y2399D01*
G01X10449Y2399D02*
G01X10449Y2399D01*
G01X10749Y2099D01*
G01X10749Y699D01*
G01X10749Y699D01*
G01X10449Y399D01*
G54D10*
G01X19299Y4950D02*
G01X17699Y4950D01*
G01X17704Y3099D02*
G01X17704Y1849D01*
G01X19304Y3099D02*
G01X19304Y1849D01*
G01X17699Y3699D02*
G01X17699Y4950D01*
G01X19299Y3699D02*
G01X19299Y4950D01*
G01X19304Y1849D02*
G01X17704Y1849D01*
G01X20861Y6215D02*
G01X23858Y6215D01*
G01X23858Y6215D02*
G01X23858Y4488D01*
G01X23858Y4488D02*
G01X20861Y4488D01*
G01X20861Y4488D02*
G01X20861Y6215D01*
G01X12834Y17799D02*
G01X19434Y17799D01*
G01X19434Y16481D01*
G01X19434Y12518D02*
G01X19434Y11200D01*
G01X12834Y11200D01*
G01X12834Y12518D01*
G01X12834Y16481D02*
G01X12834Y17799D01*
G01X20851Y11411D02*
G01X23848Y11411D01*
G01X23848Y11411D02*
G01X23848Y9684D01*
G01X23848Y9684D02*
G01X20851Y9684D01*
G01X20851Y9684D02*
G01X20851Y11411D01*
G54D29*
G01X6400Y5149D02*
G01X6400Y6749D01*
G01X8400Y6749D01*
G01X8400Y5149D01*
G01X8400Y4349D02*
G01X8400Y2749D01*
G01X6400Y2749D01*
G01X6400Y4349D01*
G01X6400Y6749D02*
G01X6400Y6749D01*
G01X6700Y7049D01*
G01X8100Y7049D01*
G01X8100Y7049D01*
G01X8400Y6749D01*
G54D10*
G01X10150Y8350D02*
G01X15250Y8350D01*
G01X15249Y8350D02*
G01X15249Y4249D01*
G01X15249Y4249D02*
G01X10149Y4249D01*
G01X10150Y7100D02*
G01X10150Y8350D01*
G01X10150Y5499D02*
G01X10150Y4249D01*
G54D30*
G01X27269Y11230D02*
G01X24729Y11230D01*
G01X24729Y13770D01*
G01X27269Y13770D01*
G01X27269Y11865D01*
G54D31*
G01X27269Y11230D02*
G01X27269Y11865D01*
G54D30*
G01X27269Y14729D02*
G01X24729Y14729D01*
G01X24729Y17269D01*
G01X27269Y17269D01*
G01X27269Y15364D01*
G54D31*
G01X27269Y14729D02*
G01X27269Y15364D01*
G54D30*
G01X27269Y4229D02*
G01X24729Y4229D01*
G01X24729Y6769D01*
G01X27269Y6769D01*
G01X27269Y4864D01*
G54D31*
G01X27269Y4229D02*
G01X27269Y4864D01*
G54D30*
G01X27269Y729D02*
G01X24729Y729D01*
G01X24729Y3269D01*
G01X27269Y3269D01*
G01X27269Y1364D01*
G54D31*
G01X27269Y729D02*
G01X27269Y1364D01*
G54D10*
G01X9800Y15749D02*
G01X8199Y15749D01*
G01X8205Y13899D02*
G01X8205Y12649D01*
G01X9805Y13899D02*
G01X9805Y12649D01*
G01X8199Y14499D02*
G01X8199Y15749D01*
G01X9800Y14499D02*
G01X9800Y15749D01*
G01X9805Y12649D02*
G01X8205Y12649D01*
G01X15950Y10700D02*
G01X15950Y9099D01*
G01X17800Y9105D02*
G01X19050Y9105D01*
G01X17800Y10705D02*
G01X19050Y10705D01*
G01X17200Y9099D02*
G01X15950Y9099D01*
G01X17200Y10700D02*
G01X15950Y10700D01*
G01X19050Y10705D02*
G01X19050Y9105D01*
G01X8299Y10749D02*
G01X9500Y10749D01*
G01X8099Y8699D02*
G01X8099Y7699D01*
G01X9700Y8699D02*
G01X9700Y7699D01*
G01X8099Y9500D02*
G01X8099Y10499D01*
G01X9700Y9500D02*
G01X9700Y10499D01*
G01X8299Y7449D02*
G01X9500Y7449D01*
G01X8099Y7649D02*
G01X8099Y7699D01*
G01X9700Y7649D02*
G01X9700Y7699D01*
G01X8099Y10549D02*
G01X8099Y10499D01*
G01X9700Y10549D02*
G01X9700Y10499D01*
G01X15850Y7099D02*
G01X15850Y8299D01*
G01X17900Y6899D02*
G01X18900Y6899D01*
G01X17900Y8500D02*
G01X18900Y8500D01*
G01X17099Y6899D02*
G01X16100Y6899D01*
G01X17099Y8500D02*
G01X16100Y8500D01*
G01X19150Y7099D02*
G01X19150Y8299D01*
G01X18950Y6899D02*
G01X18900Y6899D01*
G01X18950Y8500D02*
G01X18900Y8500D01*
G01X16050Y6899D02*
G01X16100Y6899D01*
G01X16050Y8500D02*
G01X16100Y8500D01*
G01X6399Y10749D02*
G01X7600Y10749D01*
G01X6199Y8699D02*
G01X6199Y7699D01*
G01X7800Y8699D02*
G01X7800Y7699D01*
G01X6199Y9500D02*
G01X6199Y10499D01*
G01X7800Y9500D02*
G01X7800Y10499D01*
G01X6399Y7449D02*
G01X7600Y7449D01*
G01X6199Y7649D02*
G01X6199Y7699D01*
G01X7800Y7649D02*
G01X7800Y7699D01*
G01X6199Y10549D02*
G01X6199Y10499D01*
G01X7800Y10549D02*
G01X7800Y10499D01*
G01X9649Y17500D02*
G01X9649Y16299D01*
G01X7599Y17700D02*
G01X6599Y17700D01*
G01X7599Y16099D02*
G01X6599Y16099D01*
G01X8400Y17700D02*
G01X9399Y17700D01*
G01X8400Y16099D02*
G01X9399Y16099D01*
G01X6349Y17500D02*
G01X6349Y16299D01*
G01X6549Y17700D02*
G01X6599Y17700D01*
G01X6549Y16099D02*
G01X6599Y16099D01*
G01X9449Y17700D02*
G01X9399Y17700D01*
G01X9449Y16099D02*
G01X9399Y16099D01*
G54D30*
G01X3269Y14729D02*
G01X729Y14729D01*
G01X729Y17269D01*
G01X3269Y17269D01*
G01X3269Y15364D01*
G54D31*
G01X3269Y14729D02*
G01X3269Y15364D01*
G54D30*
G01X3269Y729D02*
G01X729Y729D01*
G01X729Y3269D01*
G01X3269Y3269D01*
G01X3269Y1364D01*
G54D31*
G01X3269Y729D02*
G01X3269Y1364D01*
G54D10*
G01X5426Y7296D02*
G01X5426Y6536D01*
G01X5426Y6561D02*
G01X4426Y6561D01*
G01X4426Y7261D01*
G01X5426Y11561D02*
G01X5426Y10801D01*
G01X5426Y12761D02*
G01X-1173Y12761D01*
G01X5426Y5361D02*
G01X-1173Y5361D01*
G01X-1173Y12761D02*
G01X-1173Y5361D01*
G01X-1173Y5361D02*
G01X-1473Y5061D01*
G01X-1173Y12761D02*
G01X-1473Y13061D01*
G01X-1473Y5061D01*
G01X5426Y11561D02*
G01X4426Y11561D01*
G01X4426Y10861D01*
G01X126Y11661D02*
G01X1626Y11661D01*
G01X1926Y11361D02*
G01X1926Y10561D01*
G01X126Y10211D02*
G01X1626Y10211D01*
G01X126Y11661D02*
G01X126Y10261D01*
G01X126Y7886D02*
G01X1626Y7886D01*
G01X1926Y7586D02*
G01X1926Y6786D01*
G01X126Y6436D02*
G01X1626Y6436D01*
G01X126Y7886D02*
G01X126Y6486D01*
G54D32*
G01X11899Y1307D02*
G01X11899Y542D01*
G01X11899Y1307D02*
G01X12227Y1307D01*
G01X12336Y1271D01*
G01X12372Y1233D01*
G01X12407Y1162D01*
G01X12407Y1088D01*
G01X12372Y1015D01*
G01X12336Y979D01*
G01X12227Y943D01*
G01X11899Y943D01*
G01X12153Y943D02*
G01X12407Y542D01*
G01X12649Y1162D02*
G01X12722Y1197D01*
G01X12829Y1307D01*
G01X12829Y542D01*
G01X13144Y1307D02*
G01X13543Y1307D01*
G01X13324Y1015D01*
G01X13434Y1015D01*
G01X13507Y979D01*
G01X13543Y943D01*
G01X13578Y834D01*
G01X13578Y761D01*
G01X13543Y651D01*
G01X13469Y580D01*
G01X13362Y542D01*
G01X13253Y542D01*
G01X13144Y580D01*
G01X13106Y616D01*
G01X13070Y689D01*
G01X4801Y1407D02*
G01X4801Y642D01*
G01X4801Y1407D02*
G01X5055Y1407D01*
G01X5164Y1371D01*
G01X5235Y1298D01*
G01X5273Y1224D01*
G01X5309Y1115D01*
G01X5309Y934D01*
G01X5273Y825D01*
G01X5235Y752D01*
G01X5164Y680D01*
G01X5055Y642D01*
G01X4801Y642D01*
G01X5586Y1224D02*
G01X5586Y1262D01*
G01X5621Y1333D01*
G01X5657Y1371D01*
G01X5730Y1407D01*
G01X5875Y1407D01*
G01X5949Y1371D01*
G01X5984Y1333D01*
G01X6023Y1262D01*
G01X6023Y1188D01*
G01X5984Y1115D01*
G01X5913Y1006D01*
G01X5548Y642D01*
G01X6058Y642D01*
G01X17899Y1406D02*
G01X17899Y644D01*
G01X17899Y1406D02*
G01X18226Y1406D01*
G01X18336Y1370D01*
G01X18371Y1335D01*
G01X18409Y1261D01*
G01X18409Y1190D01*
G01X18371Y1116D01*
G01X18336Y1081D01*
G01X18226Y1042D01*
G01X17899Y1042D01*
G01X18155Y1042D02*
G01X18409Y644D01*
G01X19085Y1406D02*
G01X18722Y1406D01*
G01X18686Y1081D01*
G01X18722Y1116D01*
G01X18831Y1152D01*
G01X18940Y1152D01*
G01X19049Y1116D01*
G01X19120Y1042D01*
G01X19159Y933D01*
G01X19159Y862D01*
G01X19120Y753D01*
G01X19049Y679D01*
G01X18940Y644D01*
G01X18831Y644D01*
G01X18722Y679D01*
G01X18686Y715D01*
G01X18648Y788D01*
G01X21977Y5798D02*
G01X21889Y5755D01*
G01X21797Y5664D01*
G01X21751Y5572D01*
G01X21706Y5435D01*
G01X21706Y5209D01*
G01X21751Y5072D01*
G01X21797Y4980D01*
G01X21889Y4891D01*
G01X21977Y4846D01*
G01X22160Y4846D01*
G01X22252Y4891D01*
G01X22343Y4980D01*
G01X22386Y5072D01*
G01X22432Y5209D01*
G01X22432Y5435D01*
G01X22386Y5572D01*
G01X22343Y5664D01*
G01X22252Y5755D01*
G01X22160Y5798D01*
G01X21977Y5798D01*
G01X22115Y5026D02*
G01X22386Y4754D01*
G01X22732Y5618D02*
G01X22823Y5664D01*
G01X22960Y5798D01*
G01X22960Y4846D01*
G01X15534Y15053D02*
G01X15534Y13963D01*
G01X15534Y13963D02*
G01X16157Y13963D01*
G01X16500Y14844D02*
G01X16604Y14898D01*
G01X16761Y15053D01*
G01X16761Y13963D01*
G01X21601Y11009D02*
G01X21601Y10326D01*
G01X21644Y10192D01*
G01X21735Y10100D01*
G01X21872Y10054D01*
G01X21964Y10054D01*
G01X22098Y10100D01*
G01X22190Y10192D01*
G01X22236Y10326D01*
G01X22236Y11009D01*
G01X22581Y10781D02*
G01X22581Y10827D01*
G01X22627Y10918D01*
G01X22673Y10964D01*
G01X22764Y11009D01*
G01X22944Y11009D01*
G01X23036Y10964D01*
G01X23081Y10918D01*
G01X23127Y10827D01*
G01X23127Y10735D01*
G01X23081Y10646D01*
G01X22990Y10509D01*
G01X22535Y10054D01*
G01X23173Y10054D01*
G01X5100Y3508D02*
G01X5100Y2743D01*
G01X5100Y3508D02*
G01X5354Y3508D01*
G01X5464Y3470D01*
G01X5535Y3399D01*
G01X5573Y3325D01*
G01X5608Y3216D01*
G01X5608Y3033D01*
G01X5573Y2924D01*
G01X5535Y2853D01*
G01X5464Y2779D01*
G01X5354Y2743D01*
G01X5100Y2743D01*
G01X5850Y3361D02*
G01X5921Y3399D01*
G01X6030Y3508D01*
G01X6030Y2743D01*
G01X8799Y6707D02*
G01X8799Y6094D01*
G01X8840Y5970D01*
G01X8923Y5889D01*
G01X9045Y5848D01*
G01X9127Y5848D01*
G01X9249Y5889D01*
G01X9332Y5970D01*
G01X9373Y6094D01*
G01X9373Y6707D01*
G01X9642Y6544D02*
G01X9724Y6585D01*
G01X9848Y6707D01*
G01X9848Y5848D01*

%LPD*%
G36*
G01X25257Y10541D02*
G01X25214Y10541D01*
G01X25203Y10539D01*
G01X25195Y10537D01*
G01X25189Y10533D01*
G01X25187Y10528D01*
G01X25185Y10518D01*
G01X25183Y10503D01*
G01X25182Y10483D01*
G01X25179Y10439D01*
G01X25176Y10398D01*
G01X25173Y10359D01*
G01X25169Y10323D01*
G01X25166Y10289D01*
G01X25164Y10257D01*
G01X25161Y10226D01*
G01X25159Y10196D01*
G01X24999Y10196D01*
G01X24977Y10195D01*
G01X24958Y10193D01*
G01X24940Y10188D01*
G01X24925Y10183D01*
G01X24912Y10176D01*
G01X24901Y10169D01*
G01X24890Y10161D01*
G01X24882Y10152D01*
G01X24875Y10142D01*
G01X24869Y10131D01*
G01X24865Y10119D01*
G01X24862Y10107D01*
G01X24859Y10094D01*
G01X24858Y10081D01*
G01X24857Y10069D01*
G01X24856Y10056D01*
G01X24855Y10044D01*
G01X24854Y10033D01*
G01X24853Y10023D01*
G01X24851Y10015D01*
G01X24851Y9975D01*
G01X24853Y9964D01*
G01X24857Y9957D01*
G01X24865Y9953D01*
G01X24874Y9952D01*
G01X25138Y9952D01*
G01X25136Y9921D01*
G01X25134Y9895D01*
G01X25132Y9873D01*
G01X25131Y9855D01*
G01X25130Y9840D01*
G01X25128Y9794D01*
G01X25129Y9772D01*
G01X25131Y9752D01*
G01X25134Y9733D01*
G01X25138Y9716D01*
G01X25144Y9698D01*
G01X25151Y9683D01*
G01X25160Y9668D01*
G01X25169Y9655D01*
G01X25182Y9644D01*
G01X25196Y9634D01*
G01X25214Y9626D01*
G01X25232Y9619D01*
G01X25253Y9613D01*
G01X25277Y9609D01*
G01X25302Y9607D01*
G01X25331Y9606D01*
G01X25343Y9607D01*
G01X25353Y9608D01*
G01X25360Y9611D01*
G01X25364Y9614D01*
G01X25369Y9619D01*
G01X25372Y9626D01*
G01X25374Y9634D01*
G01X25375Y9644D01*
G01X25400Y9952D01*
G01X25557Y9952D01*
G01X25599Y9954D01*
G01X25632Y9961D01*
G01X25658Y9972D01*
G01X25677Y9987D01*
G01X25690Y10008D01*
G01X25699Y10031D01*
G01X25706Y10057D01*
G01X25710Y10086D01*
G01X25715Y10168D01*
G01X25714Y10174D01*
G01X25712Y10179D01*
G01X25709Y10184D01*
G01X25705Y10188D01*
G01X25700Y10192D01*
G01X25695Y10194D01*
G01X25690Y10195D01*
G01X25684Y10196D01*
G01X25420Y10196D01*
G01X25424Y10228D01*
G01X25427Y10256D01*
G01X25429Y10278D01*
G01X25430Y10297D01*
G01X25430Y10379D01*
G01X25429Y10399D01*
G01X25426Y10417D01*
G01X25423Y10434D01*
G01X25417Y10452D01*
G01X25410Y10467D01*
G01X25401Y10481D01*
G01X25390Y10493D01*
G01X25378Y10504D01*
G01X25363Y10515D01*
G01X25347Y10522D01*
G01X25329Y10528D01*
G01X25308Y10534D01*
G01X25283Y10538D01*
G01X25257Y10541D01*
G37*

%LPD*%
G36*
G01X26325Y10836D02*
G01X26292Y10836D01*
G01X26256Y10835D01*
G01X26218Y10833D01*
G01X26177Y10831D01*
G01X26135Y10829D01*
G01X26087Y10827D01*
G01X26034Y10824D01*
G01X25977Y10820D01*
G01X25970Y10820D01*
G01X25960Y10818D01*
G01X25956Y10815D01*
G01X25953Y10812D01*
G01X25950Y10808D01*
G01X25948Y10804D01*
G01X25946Y10798D01*
G01X25945Y10792D01*
G01X25945Y10785D01*
G01X25944Y10777D01*
G01X25944Y10767D01*
G01X25943Y10756D01*
G01X25942Y10744D01*
G01X25942Y10731D01*
G01X25941Y10716D01*
G01X25941Y10676D01*
G01X25940Y10662D01*
G01X25938Y10645D01*
G01X25937Y10623D01*
G01X25936Y10597D01*
G01X25933Y10565D01*
G01X25930Y10527D01*
G01X25927Y10484D01*
G01X25923Y10434D01*
G01X25914Y10312D01*
G01X25900Y10152D01*
G01X25896Y10084D01*
G01X25891Y10022D01*
G01X25887Y9965D01*
G01X25883Y9914D01*
G01X25879Y9869D01*
G01X25877Y9828D01*
G01X25874Y9791D01*
G01X25872Y9759D01*
G01X25870Y9731D01*
G01X25868Y9707D01*
G01X25866Y9686D01*
G01X25865Y9667D01*
G01X25864Y9652D01*
G01X25863Y9638D01*
G01X25863Y9627D01*
G01X25862Y9616D01*
G01X25864Y9587D01*
G01X25867Y9560D01*
G01X25872Y9535D01*
G01X25880Y9512D01*
G01X25891Y9490D01*
G01X25905Y9471D01*
G01X25923Y9454D01*
G01X25944Y9439D01*
G01X25967Y9424D01*
G01X25995Y9413D01*
G01X26027Y9403D01*
G01X26063Y9395D01*
G01X26104Y9389D01*
G01X26150Y9384D01*
G01X26202Y9381D01*
G01X26259Y9380D01*
G01X26426Y9389D01*
G01X26563Y9416D01*
G01X26621Y9435D01*
G01X26674Y9458D01*
G01X26719Y9483D01*
G01X26759Y9512D01*
G01X26793Y9544D01*
G01X26822Y9578D01*
G01X26845Y9615D01*
G01X26863Y9655D01*
G01X26877Y9696D01*
G01X26886Y9738D01*
G01X26892Y9782D01*
G01X26894Y9827D01*
G01X26890Y9883D01*
G01X26882Y9934D01*
G01X26867Y9982D01*
G01X26845Y10025D01*
G01X26817Y10064D01*
G01X26780Y10096D01*
G01X26735Y10122D01*
G01X26680Y10142D01*
G01X26711Y10152D01*
G01X26738Y10165D01*
G01X26763Y10179D01*
G01X26784Y10196D01*
G01X26804Y10213D01*
G01X26821Y10232D01*
G01X26837Y10252D01*
G01X26850Y10274D01*
G01X26861Y10299D01*
G01X26870Y10323D01*
G01X26878Y10348D01*
G01X26883Y10373D01*
G01X26888Y10399D01*
G01X26891Y10424D01*
G01X26893Y10448D01*
G01X26894Y10472D01*
G01X26891Y10514D01*
G01X26885Y10553D01*
G01X26875Y10590D01*
G01X26861Y10625D01*
G01X26843Y10658D01*
G01X26821Y10688D01*
G01X26793Y10715D01*
G01X26761Y10739D01*
G01X26725Y10761D01*
G01X26683Y10780D01*
G01X26636Y10797D01*
G01X26584Y10810D01*
G01X26464Y10830D01*
G01X26325Y10836D01*
G37*

%LPC*%
G36*
G01X26370Y10000D02*
G01X26347Y10000D01*
G01X26333Y9998D01*
G01X26317Y9997D01*
G01X26302Y9995D01*
G01X26285Y9992D01*
G01X26269Y9990D01*
G01X26251Y9987D01*
G01X26231Y9662D01*
G01X26266Y9652D01*
G01X26299Y9645D01*
G01X26330Y9641D01*
G01X26360Y9639D01*
G01X26390Y9640D01*
G01X26416Y9644D01*
G01X26439Y9649D01*
G01X26459Y9657D01*
G01X26477Y9667D01*
G01X26493Y9677D01*
G01X26506Y9690D01*
G01X26518Y9703D01*
G01X26528Y9716D01*
G01X26536Y9730D01*
G01X26542Y9746D01*
G01X26546Y9761D01*
G01X26549Y9778D01*
G01X26552Y9793D01*
G01X26553Y9808D01*
G01X26553Y9822D01*
G01X26551Y9859D01*
G01X26543Y9892D01*
G01X26530Y9922D01*
G01X26513Y9949D01*
G01X26489Y9972D01*
G01X26457Y9987D01*
G01X26418Y9997D01*
G01X26370Y10000D01*
G37*
G36*
G01X26391Y10559D02*
G01X26380Y10559D01*
G01X26369Y10558D01*
G01X26356Y10557D01*
G01X26342Y10556D01*
G01X26329Y10555D01*
G01X26314Y10553D01*
G01X26301Y10551D01*
G01X26286Y10549D01*
G01X26285Y10522D01*
G01X26284Y10493D01*
G01X26283Y10461D01*
G01X26281Y10427D01*
G01X26279Y10392D01*
G01X26276Y10355D01*
G01X26274Y10315D01*
G01X26271Y10274D01*
G01X26302Y10268D01*
G01X26332Y10263D01*
G01X26360Y10260D01*
G01X26386Y10259D01*
G01X26414Y10260D01*
G01X26440Y10263D01*
G01X26463Y10268D01*
G01X26482Y10274D01*
G01X26499Y10281D01*
G01X26514Y10290D01*
G01X26527Y10299D01*
G01X26538Y10310D01*
G01X26548Y10321D01*
G01X26555Y10332D01*
G01X26561Y10345D01*
G01X26566Y10358D01*
G01X26569Y10371D01*
G01X26572Y10383D01*
G01X26573Y10395D01*
G01X26573Y10406D01*
G01X26571Y10437D01*
G01X26563Y10465D01*
G01X26551Y10492D01*
G01X26533Y10516D01*
G01X26509Y10534D01*
G01X26477Y10548D01*
G01X26438Y10556D01*
G01X26391Y10559D01*
G37*

%LPD*%

%LPD*%
G36*
G01X24142Y16369D02*
G01X24105Y16369D01*
G01X24096Y16368D01*
G01X24089Y16366D01*
G01X24086Y16364D01*
G01X24083Y16360D01*
G01X24081Y16351D01*
G01X24080Y16338D01*
G01X24078Y16321D01*
G01X24076Y16284D01*
G01X24073Y16249D01*
G01X24071Y16215D01*
G01X24068Y16184D01*
G01X24065Y16155D01*
G01X24063Y16128D01*
G01X24062Y16102D01*
G01X24060Y16077D01*
G01X23905Y16077D01*
G01X23888Y16075D01*
G01X23873Y16072D01*
G01X23860Y16067D01*
G01X23849Y16061D01*
G01X23839Y16055D01*
G01X23831Y16048D01*
G01X23824Y16039D01*
G01X23818Y16030D01*
G01X23814Y16021D01*
G01X23809Y16011D01*
G01X23806Y16001D01*
G01X23804Y15979D01*
G01X23802Y15968D01*
G01X23801Y15958D01*
G01X23800Y15947D01*
G01X23799Y15938D01*
G01X23799Y15887D01*
G01X23800Y15879D01*
G01X23803Y15874D01*
G01X23808Y15870D01*
G01X23817Y15869D01*
G01X24043Y15869D01*
G01X24040Y15843D01*
G01X24038Y15821D01*
G01X24037Y15802D01*
G01X24035Y15788D01*
G01X24035Y15737D01*
G01X24037Y15699D01*
G01X24039Y15683D01*
G01X24043Y15668D01*
G01X24047Y15654D01*
G01X24053Y15640D01*
G01X24060Y15628D01*
G01X24068Y15617D01*
G01X24078Y15608D01*
G01X24090Y15599D01*
G01X24105Y15592D01*
G01X24121Y15584D01*
G01X24139Y15580D01*
G01X24159Y15577D01*
G01X24181Y15575D01*
G01X24205Y15574D01*
G01X24215Y15575D01*
G01X24224Y15576D01*
G01X24231Y15579D01*
G01X24236Y15582D01*
G01X24238Y15585D01*
G01X24240Y15591D01*
G01X24242Y15598D01*
G01X24243Y15607D01*
G01X24264Y15869D01*
G01X24398Y15869D01*
G01X24433Y15871D01*
G01X24462Y15877D01*
G01X24484Y15886D01*
G01X24500Y15899D01*
G01X24510Y15917D01*
G01X24518Y15937D01*
G01X24524Y15959D01*
G01X24528Y15983D01*
G01X24533Y16052D01*
G01X24532Y16058D01*
G01X24530Y16062D01*
G01X24527Y16067D01*
G01X24519Y16073D01*
G01X24515Y16075D01*
G01X24509Y16077D01*
G01X24281Y16077D01*
G01X24283Y16104D01*
G01X24286Y16127D01*
G01X24287Y16147D01*
G01X24289Y16164D01*
G01X24290Y16177D01*
G01X24291Y16191D01*
G01X24291Y16203D01*
G01X24292Y16214D01*
G01X24291Y16232D01*
G01X24290Y16249D01*
G01X24287Y16265D01*
G01X24284Y16280D01*
G01X24279Y16294D01*
G01X24273Y16306D01*
G01X24265Y16318D01*
G01X24256Y16329D01*
G01X24245Y16338D01*
G01X24233Y16346D01*
G01X24218Y16354D01*
G01X24203Y16359D01*
G01X24185Y16364D01*
G01X24165Y16367D01*
G01X24142Y16369D01*
G37*

%LPD*%
G36*
G01X23758Y16606D02*
G01X22999Y16606D01*
G01X22984Y16605D01*
G01X22971Y16603D01*
G01X22959Y16600D01*
G01X22937Y16590D01*
G01X22928Y16584D01*
G01X22919Y16577D01*
G01X22912Y16570D01*
G01X22906Y16561D01*
G01X22901Y16552D01*
G01X22896Y16542D01*
G01X22892Y16532D01*
G01X22889Y16521D01*
G01X22887Y16510D01*
G01X22886Y16499D01*
G01X22884Y16489D01*
G01X22879Y16392D01*
G01X22880Y16382D01*
G01X22884Y16375D01*
G01X22890Y16371D01*
G01X22900Y16369D01*
G01X23171Y16369D01*
G01X23168Y16333D01*
G01X23166Y16296D01*
G01X23162Y16257D01*
G01X23159Y16217D01*
G01X23156Y16176D01*
G01X23153Y16136D01*
G01X23146Y16054D01*
G01X23143Y16013D01*
G01X23140Y15971D01*
G01X23137Y15930D01*
G01X23133Y15889D01*
G01X23131Y15850D01*
G01X23128Y15811D01*
G01X23126Y15774D01*
G01X23123Y15739D01*
G01X23121Y15706D01*
G01X23119Y15675D01*
G01X23117Y15646D01*
G01X23116Y15620D01*
G01X23115Y15596D01*
G01X23114Y15576D01*
G01X23113Y15558D01*
G01X23113Y15544D01*
G01X23116Y15511D01*
G01X23123Y15483D01*
G01X23136Y15458D01*
G01X23154Y15437D01*
G01X23177Y15420D01*
G01X23207Y15409D01*
G01X23245Y15402D01*
G01X23288Y15399D01*
G01X23382Y15399D01*
G01X23390Y15401D01*
G01X23396Y15406D01*
G01X23400Y15413D01*
G01X23403Y15424D01*
G01X23466Y16369D01*
G01X23649Y16369D01*
G01X23684Y16371D01*
G01X23712Y16377D01*
G01X23735Y16387D01*
G01X23751Y16400D01*
G01X23762Y16417D01*
G01X23770Y16435D01*
G01X23775Y16457D01*
G01X23778Y16481D01*
G01X23786Y16583D01*
G01X23786Y16589D01*
G01X23782Y16597D01*
G01X23778Y16600D01*
G01X23768Y16605D01*
G01X23758Y16606D01*
G37*

%LPD*%
G36*
G01X21983Y16606D02*
G01X21891Y16606D01*
G01X21884Y16605D01*
G01X21879Y16604D01*
G01X21874Y16601D01*
G01X21871Y16598D01*
G01X21867Y16591D01*
G01X21864Y16582D01*
G01X21862Y16570D01*
G01X21861Y16555D01*
G01X21860Y16538D01*
G01X21859Y16517D01*
G01X21858Y16493D01*
G01X21856Y16466D01*
G01X21853Y16436D01*
G01X21850Y16404D01*
G01X21847Y16370D01*
G01X21843Y16334D01*
G01X21840Y16297D01*
G01X21837Y16259D01*
G01X21834Y16220D01*
G01X21830Y16181D01*
G01X21827Y16141D01*
G01X21825Y16102D01*
G01X21821Y16062D01*
G01X21818Y16024D01*
G01X21815Y15988D01*
G01X21813Y15953D01*
G01X21810Y15919D01*
G01X21807Y15887D01*
G01X21806Y15857D01*
G01X21805Y15830D01*
G01X21805Y15785D01*
G01X21806Y15744D01*
G01X21810Y15704D01*
G01X21818Y15667D01*
G01X21828Y15630D01*
G01X21840Y15595D01*
G01X21857Y15561D01*
G01X21876Y15530D01*
G01X21899Y15501D01*
G01X21925Y15474D01*
G01X21955Y15451D01*
G01X21988Y15431D01*
G01X22026Y15414D01*
G01X22067Y15400D01*
G01X22112Y15389D01*
G01X22161Y15383D01*
G01X22214Y15381D01*
G01X22267Y15383D01*
G01X22315Y15389D01*
G01X22361Y15399D01*
G01X22402Y15412D01*
G01X22441Y15427D01*
G01X22476Y15444D01*
G01X22509Y15464D01*
G01X22539Y15485D01*
G01X22565Y15509D01*
G01X22590Y15535D01*
G01X22611Y15563D01*
G01X22630Y15592D01*
G01X22647Y15622D01*
G01X22662Y15652D01*
G01X22675Y15683D01*
G01X22686Y15714D01*
G01X22697Y15746D01*
G01X22706Y15777D01*
G01X22713Y15810D01*
G01X22719Y15841D01*
G01X22724Y15871D01*
G01X22728Y15899D01*
G01X22731Y15927D01*
G01X22735Y15953D01*
G01X22737Y15986D01*
G01X22740Y16021D01*
G01X22742Y16059D01*
G01X22745Y16100D01*
G01X22747Y16142D01*
G01X22750Y16182D01*
G01X22752Y16221D01*
G01X22755Y16260D01*
G01X22756Y16298D01*
G01X22757Y16334D01*
G01X22758Y16368D01*
G01X22760Y16400D01*
G01X22761Y16428D01*
G01X22762Y16451D01*
G01X22762Y16496D01*
G01X22761Y16508D01*
G01X22759Y16519D01*
G01X22757Y16529D01*
G01X22755Y16541D01*
G01X22751Y16551D01*
G01X22745Y16561D01*
G01X22737Y16570D01*
G01X22727Y16577D01*
G01X22715Y16584D01*
G01X22702Y16590D01*
G01X22686Y16595D01*
G01X22668Y16600D01*
G01X22647Y16603D01*
G01X22622Y16605D01*
G01X22595Y16606D01*
G01X22503Y16606D01*
G01X22495Y16605D01*
G01X22489Y16604D01*
G01X22484Y16601D01*
G01X22481Y16598D01*
G01X22478Y16591D01*
G01X22476Y16582D01*
G01X22475Y16570D01*
G01X22475Y16522D01*
G01X22474Y16499D01*
G01X22473Y16471D01*
G01X22470Y16440D01*
G01X22468Y16407D01*
G01X22465Y16372D01*
G01X22463Y16334D01*
G01X22459Y16293D01*
G01X22455Y16250D01*
G01X22451Y16206D01*
G01X22444Y16116D01*
G01X22440Y16071D01*
G01X22437Y16027D01*
G01X22435Y15983D01*
G01X22432Y15964D01*
G01X22429Y15943D01*
G01X22426Y15919D01*
G01X22422Y15892D01*
G01X22418Y15863D01*
G01X22412Y15835D01*
G01X22405Y15807D01*
G01X22397Y15780D01*
G01X22386Y15754D01*
G01X22372Y15730D01*
G01X22358Y15707D01*
G01X22341Y15686D01*
G01X22321Y15669D01*
G01X22298Y15658D01*
G01X22274Y15650D01*
G01X22247Y15648D01*
G01X22224Y15649D01*
G01X22205Y15654D01*
G01X22188Y15661D01*
G01X22176Y15671D01*
G01X22164Y15683D01*
G01X22154Y15696D01*
G01X22146Y15711D01*
G01X22140Y15727D01*
G01X22135Y15744D01*
G01X22130Y15762D01*
G01X22127Y15780D01*
G01X22125Y15798D01*
G01X22124Y15817D01*
G01X22122Y15851D01*
G01X22122Y15876D01*
G01X22123Y15889D01*
G01X22124Y15907D01*
G01X22125Y15927D01*
G01X22126Y15951D01*
G01X22128Y15977D01*
G01X22130Y16005D01*
G01X22133Y16034D01*
G01X22135Y16065D01*
G01X22137Y16097D01*
G01X22139Y16130D01*
G01X22140Y16164D01*
G01X22143Y16196D01*
G01X22145Y16228D01*
G01X22148Y16259D01*
G01X22150Y16288D01*
G01X22151Y16316D01*
G01X22153Y16342D01*
G01X22154Y16366D01*
G01X22155Y16387D01*
G01X22156Y16404D01*
G01X22157Y16417D01*
G01X22157Y16426D01*
G01X22158Y16430D01*
G01X22155Y16472D01*
G01X22149Y16508D01*
G01X22138Y16538D01*
G01X22122Y16562D01*
G01X22100Y16581D01*
G01X22070Y16595D01*
G01X22030Y16603D01*
G01X21983Y16606D01*
G37*

%LPD*%
G36*
G01X21248Y16624D02*
G01X21188Y16626D01*
G01X21026Y16611D01*
G01X20893Y16565D01*
G01X20785Y16494D01*
G01X20700Y16405D01*
G01X20667Y16355D01*
G01X20639Y16301D01*
G01X20616Y16243D01*
G01X20598Y16181D01*
G01X20576Y16053D01*
G01X20568Y15922D01*
G01X20569Y15866D01*
G01X20574Y15813D01*
G01X20581Y15761D01*
G01X20591Y15711D01*
G01X20604Y15664D01*
G01X20622Y15619D01*
G01X20644Y15577D01*
G01X20670Y15539D01*
G01X20698Y15505D01*
G01X20733Y15475D01*
G01X20772Y15448D01*
G01X20817Y15424D01*
G01X20866Y15406D01*
G01X20921Y15392D01*
G01X20982Y15384D01*
G01X21051Y15381D01*
G01X21112Y15383D01*
G01X21169Y15390D01*
G01X21222Y15401D01*
G01X21271Y15417D01*
G01X21317Y15436D01*
G01X21358Y15458D01*
G01X21396Y15483D01*
G01X21432Y15511D01*
G01X21464Y15540D01*
G01X21493Y15572D01*
G01X21518Y15606D01*
G01X21541Y15643D01*
G01X21561Y15680D01*
G01X21579Y15719D01*
G01X21596Y15758D01*
G01X21609Y15798D01*
G01X21621Y15838D01*
G01X21630Y15879D01*
G01X21637Y15918D01*
G01X21647Y15998D01*
G01X21650Y16036D01*
G01X21652Y16073D01*
G01X21652Y16108D01*
G01X21651Y16167D01*
G01X21646Y16224D01*
G01X21638Y16276D01*
G01X21627Y16326D01*
G01X21612Y16371D01*
G01X21594Y16414D01*
G01X21572Y16453D01*
G01X21546Y16489D01*
G01X21516Y16520D01*
G01X21482Y16547D01*
G01X21443Y16570D01*
G01X21401Y16590D01*
G01X21354Y16606D01*
G01X21303Y16617D01*
G01X21248Y16624D01*
G37*

%LPC*%
G36*
G01X21198Y16357D02*
G01X21152Y16362D01*
G01X21124Y16361D01*
G01X21097Y16357D01*
G01X21073Y16351D01*
G01X21051Y16341D01*
G01X21030Y16329D01*
G01X21010Y16315D01*
G01X20993Y16300D01*
G01X20977Y16283D01*
G01X20962Y16265D01*
G01X20949Y16245D01*
G01X20938Y16226D01*
G01X20929Y16204D01*
G01X20920Y16181D01*
G01X20913Y16158D01*
G01X20906Y16136D01*
G01X20896Y16090D01*
G01X20893Y16067D01*
G01X20889Y16044D01*
G01X20888Y16021D01*
G01X20885Y16001D01*
G01X20884Y15981D01*
G01X20883Y15962D01*
G01X20883Y15945D01*
G01X20886Y15873D01*
G01X20896Y15811D01*
G01X20913Y15760D01*
G01X20936Y15719D01*
G01X20964Y15688D01*
G01X20998Y15666D01*
G01X21038Y15653D01*
G01X21084Y15648D01*
G01X21120Y15651D01*
G01X21153Y15661D01*
G01X21184Y15676D01*
G01X21211Y15699D01*
G01X21233Y15724D01*
G01X21254Y15753D01*
G01X21271Y15784D01*
G01X21287Y15818D01*
G01X21299Y15854D01*
G01X21310Y15891D01*
G01X21319Y15928D01*
G01X21325Y15965D01*
G01X21329Y16001D01*
G01X21332Y16034D01*
G01X21334Y16065D01*
G01X21335Y16092D01*
G01X21332Y16151D01*
G01X21325Y16204D01*
G01X21312Y16250D01*
G01X21294Y16291D01*
G01X21269Y16322D01*
G01X21237Y16344D01*
G01X21198Y16357D01*
G37*

%LPD*%

%LPD*%
G36*
G01X25589Y7888D02*
G01X25045Y7888D01*
G01X25024Y7887D01*
G01X25004Y7885D01*
G01X24987Y7881D01*
G01X24972Y7875D01*
G01X24959Y7868D01*
G01X24947Y7861D01*
G01X24937Y7853D01*
G01X24929Y7845D01*
G01X24921Y7834D01*
G01X24916Y7823D01*
G01X24911Y7811D01*
G01X24908Y7799D01*
G01X24904Y7773D01*
G01X24901Y7748D01*
G01X24896Y7639D01*
G01X24897Y7630D01*
G01X24901Y7624D01*
G01X24909Y7620D01*
G01X24918Y7619D01*
G01X25462Y7619D01*
G01X25503Y7621D01*
G01X25536Y7627D01*
G01X25563Y7638D01*
G01X25581Y7654D01*
G01X25594Y7674D01*
G01X25604Y7697D01*
G01X25610Y7723D01*
G01X25614Y7751D01*
G01X25622Y7860D01*
G01X25621Y7866D01*
G01X25619Y7871D01*
G01X25616Y7876D01*
G01X25612Y7880D01*
G01X25607Y7884D01*
G01X25601Y7886D01*
G01X25589Y7888D01*
G37*

%LPD*%
G36*
G01X26285Y8635D02*
G01X26253Y8635D01*
G01X26218Y8634D01*
G01X26181Y8633D01*
G01X26140Y8632D01*
G01X26096Y8629D01*
G01X26048Y8626D01*
G01X25996Y8623D01*
G01X25940Y8619D01*
G01X25932Y8619D01*
G01X25927Y8618D01*
G01X25922Y8616D01*
G01X25919Y8614D01*
G01X25913Y8608D01*
G01X25911Y8604D01*
G01X25909Y8599D01*
G01X25908Y8592D01*
G01X25906Y8585D01*
G01X25905Y8577D01*
G01X25904Y8568D01*
G01X25904Y8507D01*
G01X25903Y8498D01*
G01X25902Y8488D01*
G01X25901Y8477D01*
G01X25901Y8463D01*
G01X25900Y8445D01*
G01X25899Y8423D01*
G01X25896Y8396D01*
G01X25895Y8365D01*
G01X25893Y8328D01*
G01X25890Y8285D01*
G01X25886Y8236D01*
G01X25877Y8113D01*
G01X25863Y7954D01*
G01X25858Y7885D01*
G01X25853Y7822D01*
G01X25849Y7765D01*
G01X25846Y7715D01*
G01X25842Y7669D01*
G01X25838Y7628D01*
G01X25836Y7592D01*
G01X25833Y7560D01*
G01X25832Y7531D01*
G01X25830Y7506D01*
G01X25829Y7484D01*
G01X25828Y7466D01*
G01X25827Y7450D01*
G01X25826Y7437D01*
G01X25826Y7425D01*
G01X25825Y7415D01*
G01X25826Y7386D01*
G01X25830Y7359D01*
G01X25835Y7334D01*
G01X25843Y7311D01*
G01X25853Y7290D01*
G01X25866Y7271D01*
G01X25883Y7254D01*
G01X25904Y7238D01*
G01X25929Y7224D01*
G01X25957Y7213D01*
G01X25990Y7203D01*
G01X26026Y7194D01*
G01X26067Y7188D01*
G01X26112Y7183D01*
G01X26163Y7180D01*
G01X26219Y7179D01*
G01X26389Y7188D01*
G01X26526Y7215D01*
G01X26584Y7235D01*
G01X26636Y7258D01*
G01X26682Y7285D01*
G01X26722Y7314D01*
G01X26756Y7345D01*
G01X26785Y7379D01*
G01X26808Y7415D01*
G01X26826Y7453D01*
G01X26839Y7495D01*
G01X26849Y7538D01*
G01X26854Y7582D01*
G01X26856Y7629D01*
G01X26853Y7683D01*
G01X26844Y7733D01*
G01X26830Y7781D01*
G01X26808Y7824D01*
G01X26780Y7863D01*
G01X26743Y7896D01*
G01X26697Y7923D01*
G01X26643Y7944D01*
G01X26674Y7952D01*
G01X26701Y7964D01*
G01X26725Y7978D01*
G01X26747Y7994D01*
G01X26767Y8013D01*
G01X26799Y8053D01*
G01X26811Y8076D01*
G01X26822Y8099D01*
G01X26833Y8123D01*
G01X26840Y8147D01*
G01X26846Y8172D01*
G01X26851Y8198D01*
G01X26854Y8223D01*
G01X26856Y8247D01*
G01X26856Y8271D01*
G01X26854Y8313D01*
G01X26848Y8353D01*
G01X26838Y8391D01*
G01X26823Y8426D01*
G01X26805Y8458D01*
G01X26782Y8488D01*
G01X26755Y8515D01*
G01X26724Y8541D01*
G01X26688Y8562D01*
G01X26646Y8581D01*
G01X26599Y8597D01*
G01X26547Y8612D01*
G01X26427Y8629D01*
G01X26285Y8635D01*
G37*

%LPC*%
G36*
G01X26333Y7799D02*
G01X26322Y7799D01*
G01X26308Y7798D01*
G01X26295Y7797D01*
G01X26280Y7796D01*
G01X26264Y7795D01*
G01X26247Y7793D01*
G01X26231Y7791D01*
G01X26214Y7789D01*
G01X26191Y7461D01*
G01X26227Y7452D01*
G01X26260Y7446D01*
G01X26292Y7442D01*
G01X26321Y7441D01*
G01X26351Y7442D01*
G01X26378Y7445D01*
G01X26402Y7451D01*
G01X26422Y7458D01*
G01X26440Y7468D01*
G01X26456Y7478D01*
G01X26469Y7489D01*
G01X26481Y7502D01*
G01X26490Y7516D01*
G01X26498Y7531D01*
G01X26504Y7546D01*
G01X26508Y7563D01*
G01X26512Y7579D01*
G01X26516Y7609D01*
G01X26516Y7624D01*
G01X26514Y7659D01*
G01X26506Y7692D01*
G01X26493Y7721D01*
G01X26475Y7748D01*
G01X26451Y7770D01*
G01X26419Y7786D01*
G01X26379Y7796D01*
G01X26333Y7799D01*
G37*
G36*
G01X26354Y8360D02*
G01X26330Y8360D01*
G01X26318Y8359D01*
G01X26305Y8358D01*
G01X26292Y8355D01*
G01X26277Y8353D01*
G01X26264Y8352D01*
G01X26249Y8350D01*
G01X26247Y8323D01*
G01X26245Y8293D01*
G01X26243Y8262D01*
G01X26242Y8228D01*
G01X26240Y8192D01*
G01X26239Y8154D01*
G01X26237Y8116D01*
G01X26234Y8076D01*
G01X26265Y8069D01*
G01X26295Y8064D01*
G01X26323Y8061D01*
G01X26348Y8060D01*
G01X26376Y8061D01*
G01X26401Y8064D01*
G01X26423Y8068D01*
G01X26442Y8073D01*
G01X26461Y8081D01*
G01X26476Y8089D01*
G01X26490Y8099D01*
G01X26501Y8109D01*
G01X26510Y8120D01*
G01X26518Y8132D01*
G01X26524Y8144D01*
G01X26529Y8157D01*
G01X26532Y8170D01*
G01X26534Y8182D01*
G01X26536Y8195D01*
G01X26536Y8208D01*
G01X26534Y8237D01*
G01X26526Y8265D01*
G01X26512Y8291D01*
G01X26493Y8314D01*
G01X26469Y8334D01*
G01X26438Y8349D01*
G01X26400Y8357D01*
G01X26354Y8360D01*
G37*

%LPD*%

%LPD*%
G36*
G01X24338Y1884D02*
G01X23876Y1884D01*
G01X23858Y1883D01*
G01X23841Y1881D01*
G01X23826Y1878D01*
G01X23813Y1874D01*
G01X23802Y1868D01*
G01X23792Y1862D01*
G01X23784Y1855D01*
G01X23777Y1848D01*
G01X23771Y1839D01*
G01X23766Y1829D01*
G01X23762Y1820D01*
G01X23759Y1810D01*
G01X23757Y1798D01*
G01X23755Y1787D01*
G01X23754Y1775D01*
G01X23754Y1764D01*
G01X23749Y1673D01*
G01X23750Y1665D01*
G01X23754Y1659D01*
G01X23759Y1656D01*
G01X23767Y1655D01*
G01X24229Y1655D01*
G01X24264Y1657D01*
G01X24293Y1663D01*
G01X24315Y1672D01*
G01X24331Y1686D01*
G01X24342Y1703D01*
G01X24350Y1723D01*
G01X24356Y1745D01*
G01X24359Y1769D01*
G01X24366Y1861D01*
G01X24366Y1866D01*
G01X24364Y1872D01*
G01X24361Y1876D01*
G01X24356Y1879D01*
G01X24352Y1881D01*
G01X24348Y1882D01*
G01X24338Y1884D01*
G37*

%LPD*%
G36*
G01X23759Y2506D02*
G01X23000Y2506D01*
G01X22985Y2505D01*
G01X22971Y2503D01*
G01X22958Y2500D01*
G01X22946Y2496D01*
G01X22936Y2490D01*
G01X22918Y2478D01*
G01X22911Y2470D01*
G01X22905Y2461D01*
G01X22900Y2452D01*
G01X22896Y2442D01*
G01X22893Y2432D01*
G01X22889Y2421D01*
G01X22887Y2409D01*
G01X22885Y2387D01*
G01X22880Y2293D01*
G01X22881Y2282D01*
G01X22885Y2275D01*
G01X22890Y2271D01*
G01X22898Y2270D01*
G01X23170Y2270D01*
G01X23167Y2233D01*
G01X23165Y2196D01*
G01X23162Y2157D01*
G01X23160Y2117D01*
G01X23153Y2035D01*
G01X23150Y1994D01*
G01X23147Y1952D01*
G01X23140Y1871D01*
G01X23137Y1830D01*
G01X23131Y1750D01*
G01X23127Y1711D01*
G01X23124Y1675D01*
G01X23122Y1640D01*
G01X23119Y1606D01*
G01X23117Y1575D01*
G01X23116Y1547D01*
G01X23114Y1520D01*
G01X23113Y1497D01*
G01X23112Y1476D01*
G01X23111Y1459D01*
G01X23111Y1444D01*
G01X23114Y1412D01*
G01X23122Y1383D01*
G01X23134Y1358D01*
G01X23152Y1338D01*
G01X23177Y1321D01*
G01X23208Y1309D01*
G01X23246Y1302D01*
G01X23289Y1299D01*
G01X23383Y1299D01*
G01X23391Y1301D01*
G01X23396Y1306D01*
G01X23400Y1314D01*
G01X23401Y1325D01*
G01X23467Y2270D01*
G01X23650Y2270D01*
G01X23685Y2271D01*
G01X23713Y2277D01*
G01X23736Y2287D01*
G01X23752Y2300D01*
G01X23762Y2317D01*
G01X23770Y2336D01*
G01X23776Y2357D01*
G01X23779Y2382D01*
G01X23785Y2483D01*
G01X23784Y2489D01*
G01X23783Y2494D01*
G01X23780Y2498D01*
G01X23777Y2501D01*
G01X23773Y2503D01*
G01X23769Y2504D01*
G01X23759Y2506D01*
G37*

%LPD*%
G36*
G01X21984Y2506D02*
G01X21890Y2506D01*
G01X21878Y2504D01*
G01X21873Y2501D01*
G01X21869Y2498D01*
G01X21866Y2492D01*
G01X21864Y2482D01*
G01X21862Y2470D01*
G01X21862Y2455D01*
G01X21860Y2438D01*
G01X21859Y2418D01*
G01X21856Y2394D01*
G01X21854Y2366D01*
G01X21852Y2336D01*
G01X21849Y2304D01*
G01X21847Y2270D01*
G01X21844Y2234D01*
G01X21837Y2159D01*
G01X21834Y2120D01*
G01X21831Y2082D01*
G01X21828Y2041D01*
G01X21824Y2002D01*
G01X21821Y1962D01*
G01X21819Y1924D01*
G01X21815Y1888D01*
G01X21812Y1853D01*
G01X21810Y1819D01*
G01X21808Y1787D01*
G01X21807Y1757D01*
G01X21806Y1730D01*
G01X21806Y1686D01*
G01X21807Y1644D01*
G01X21811Y1604D01*
G01X21817Y1565D01*
G01X21826Y1528D01*
G01X21839Y1493D01*
G01X21856Y1461D01*
G01X21876Y1430D01*
G01X21900Y1401D01*
G01X21926Y1375D01*
G01X21956Y1351D01*
G01X21989Y1332D01*
G01X22027Y1315D01*
G01X22068Y1300D01*
G01X22113Y1290D01*
G01X22162Y1284D01*
G01X22215Y1282D01*
G01X22268Y1283D01*
G01X22316Y1288D01*
G01X22362Y1297D01*
G01X22403Y1310D01*
G01X22440Y1325D01*
G01X22476Y1343D01*
G01X22508Y1363D01*
G01X22537Y1386D01*
G01X22564Y1409D01*
G01X22588Y1435D01*
G01X22610Y1463D01*
G01X22629Y1493D01*
G01X22646Y1522D01*
G01X22661Y1552D01*
G01X22675Y1583D01*
G01X22687Y1614D01*
G01X22697Y1646D01*
G01X22705Y1678D01*
G01X22712Y1709D01*
G01X22718Y1741D01*
G01X22722Y1771D01*
G01X22726Y1800D01*
G01X22730Y1827D01*
G01X22733Y1853D01*
G01X22737Y1886D01*
G01X22740Y1922D01*
G01X22743Y1960D01*
G01X22746Y2001D01*
G01X22748Y2042D01*
G01X22752Y2122D01*
G01X22753Y2161D01*
G01X22755Y2199D01*
G01X22758Y2235D01*
G01X22759Y2268D01*
G01X22761Y2300D01*
G01X22762Y2328D01*
G01X22763Y2352D01*
G01X22763Y2395D01*
G01X22762Y2407D01*
G01X22760Y2418D01*
G01X22758Y2430D01*
G01X22755Y2440D01*
G01X22751Y2451D01*
G01X22745Y2461D01*
G01X22738Y2470D01*
G01X22728Y2478D01*
G01X22716Y2484D01*
G01X22703Y2490D01*
G01X22687Y2496D01*
G01X22669Y2500D01*
G01X22648Y2503D01*
G01X22623Y2505D01*
G01X22596Y2506D01*
G01X22502Y2506D01*
G01X22494Y2505D01*
G01X22487Y2504D01*
G01X22482Y2501D01*
G01X22479Y2498D01*
G01X22476Y2492D01*
G01X22475Y2482D01*
G01X22474Y2470D01*
G01X22474Y2455D01*
G01X22473Y2441D01*
G01X22473Y2423D01*
G01X22472Y2399D01*
G01X22471Y2371D01*
G01X22470Y2341D01*
G01X22467Y2308D01*
G01X22465Y2272D01*
G01X22461Y2234D01*
G01X22458Y2193D01*
G01X22456Y2150D01*
G01X22452Y2106D01*
G01X22449Y2061D01*
G01X22444Y2016D01*
G01X22441Y1971D01*
G01X22437Y1927D01*
G01X22433Y1884D01*
G01X22432Y1864D01*
G01X22429Y1843D01*
G01X22427Y1819D01*
G01X22423Y1792D01*
G01X22419Y1763D01*
G01X22412Y1735D01*
G01X22404Y1707D01*
G01X22395Y1680D01*
G01X22385Y1655D01*
G01X22372Y1630D01*
G01X22357Y1607D01*
G01X22339Y1587D01*
G01X22320Y1570D01*
G01X22298Y1558D01*
G01X22273Y1550D01*
G01X22245Y1548D01*
G01X22223Y1549D01*
G01X22205Y1554D01*
G01X22188Y1561D01*
G01X22174Y1571D01*
G01X22164Y1583D01*
G01X22154Y1597D01*
G01X22146Y1611D01*
G01X22139Y1627D01*
G01X22134Y1645D01*
G01X22131Y1663D01*
G01X22127Y1680D01*
G01X22126Y1698D01*
G01X22125Y1717D01*
G01X22124Y1734D01*
G01X22123Y1750D01*
G01X22123Y1774D01*
G01X22124Y1788D01*
G01X22125Y1805D01*
G01X22127Y1851D01*
G01X22129Y1877D01*
G01X22131Y1905D01*
G01X22134Y1934D01*
G01X22135Y1965D01*
G01X22137Y1997D01*
G01X22139Y2030D01*
G01X22141Y2064D01*
G01X22143Y2097D01*
G01X22146Y2128D01*
G01X22147Y2159D01*
G01X22149Y2188D01*
G01X22151Y2216D01*
G01X22153Y2242D01*
G01X22155Y2266D01*
G01X22156Y2288D01*
G01X22157Y2304D01*
G01X22158Y2317D01*
G01X22158Y2326D01*
G01X22159Y2331D01*
G01X22156Y2371D01*
G01X22150Y2407D01*
G01X22139Y2437D01*
G01X22123Y2463D01*
G01X22101Y2482D01*
G01X22071Y2495D01*
G01X22031Y2503D01*
G01X21984Y2506D01*
G37*

%LPD*%
G36*
G01X21249Y2524D02*
G01X21189Y2526D01*
G01X21026Y2511D01*
G01X20892Y2465D01*
G01X20784Y2395D01*
G01X20701Y2305D01*
G01X20668Y2254D01*
G01X20640Y2200D01*
G01X20617Y2142D01*
G01X20599Y2082D01*
G01X20575Y1953D01*
G01X20566Y1823D01*
G01X20568Y1766D01*
G01X20572Y1713D01*
G01X20581Y1661D01*
G01X20592Y1612D01*
G01X20605Y1564D01*
G01X20622Y1519D01*
G01X20643Y1477D01*
G01X20668Y1439D01*
G01X20698Y1405D01*
G01X20734Y1375D01*
G01X20773Y1348D01*
G01X20818Y1325D01*
G01X20867Y1306D01*
G01X20922Y1292D01*
G01X20983Y1284D01*
G01X21052Y1282D01*
G01X21113Y1284D01*
G01X21170Y1290D01*
G01X21223Y1302D01*
G01X21273Y1317D01*
G01X21317Y1336D01*
G01X21358Y1358D01*
G01X21396Y1383D01*
G01X21433Y1411D01*
G01X21464Y1440D01*
G01X21493Y1472D01*
G01X21518Y1506D01*
G01X21542Y1543D01*
G01X21562Y1580D01*
G01X21580Y1619D01*
G01X21595Y1658D01*
G01X21608Y1698D01*
G01X21619Y1738D01*
G01X21629Y1779D01*
G01X21637Y1819D01*
G01X21643Y1858D01*
G01X21646Y1898D01*
G01X21649Y1936D01*
G01X21650Y1973D01*
G01X21651Y2008D01*
G01X21649Y2067D01*
G01X21644Y2123D01*
G01X21637Y2176D01*
G01X21626Y2227D01*
G01X21611Y2272D01*
G01X21593Y2314D01*
G01X21570Y2353D01*
G01X21544Y2389D01*
G01X21514Y2420D01*
G01X21480Y2448D01*
G01X21442Y2471D01*
G01X21400Y2491D01*
G01X21354Y2506D01*
G01X21303Y2517D01*
G01X21249Y2524D01*
G37*

%LPC*%
G36*
G01X21199Y2257D02*
G01X21153Y2262D01*
G01X21124Y2261D01*
G01X21097Y2257D01*
G01X21071Y2250D01*
G01X21049Y2242D01*
G01X21028Y2229D01*
G01X21009Y2215D01*
G01X20991Y2200D01*
G01X20975Y2183D01*
G01X20962Y2165D01*
G01X20950Y2146D01*
G01X20939Y2126D01*
G01X20930Y2105D01*
G01X20921Y2082D01*
G01X20907Y2036D01*
G01X20902Y2013D01*
G01X20897Y1989D01*
G01X20893Y1966D01*
G01X20889Y1944D01*
G01X20886Y1922D01*
G01X20885Y1900D01*
G01X20884Y1881D01*
G01X20884Y1846D01*
G01X20887Y1773D01*
G01X20897Y1711D01*
G01X20912Y1660D01*
G01X20935Y1620D01*
G01X20964Y1588D01*
G01X20998Y1566D01*
G01X21037Y1552D01*
G01X21082Y1548D01*
G01X21120Y1551D01*
G01X21153Y1561D01*
G01X21183Y1577D01*
G01X21209Y1599D01*
G01X21233Y1625D01*
G01X21254Y1653D01*
G01X21272Y1684D01*
G01X21288Y1719D01*
G01X21300Y1754D01*
G01X21311Y1791D01*
G01X21320Y1828D01*
G01X21326Y1866D01*
G01X21330Y1901D01*
G01X21333Y1934D01*
G01X21336Y1965D01*
G01X21336Y1993D01*
G01X21333Y2051D01*
G01X21325Y2104D01*
G01X21312Y2149D01*
G01X21293Y2188D01*
G01X21269Y2221D01*
G01X21237Y2243D01*
G01X21199Y2257D01*
G37*

%LPD*%
G01X6400Y13508D02*
G01X6400Y12743D01*
G01X6400Y13508D02*
G01X6728Y13508D01*
G01X6835Y13469D01*
G01X6873Y13434D01*
G01X6908Y13360D01*
G01X6908Y13289D01*
G01X6873Y13215D01*
G01X6835Y13180D01*
G01X6728Y13144D01*
G01X6400Y13144D01*
G01X6654Y13144D02*
G01X6908Y12743D01*
G01X7185Y13325D02*
G01X7185Y13360D01*
G01X7221Y13434D01*
G01X7259Y13469D01*
G01X7330Y13508D01*
G01X7475Y13508D01*
G01X7548Y13469D01*
G01X7584Y13434D01*
G01X7622Y13360D01*
G01X7622Y13289D01*
G01X7584Y13215D01*
G01X7513Y13106D01*
G01X7150Y12743D01*
G01X7658Y12743D01*
G01X15900Y5106D02*
G01X15900Y4342D01*
G01X15900Y5106D02*
G01X16227Y5106D01*
G01X16337Y5071D01*
G01X16372Y5035D01*
G01X16408Y4962D01*
G01X16408Y4888D01*
G01X16372Y4817D01*
G01X16337Y4779D01*
G01X16227Y4743D01*
G01X15900Y4743D01*
G01X16154Y4743D02*
G01X16408Y4342D01*
G01X16649Y4962D02*
G01X16720Y4997D01*
G01X16829Y5106D01*
G01X16829Y4342D01*
G01X8746Y11726D02*
G01X8708Y11797D01*
G01X8636Y11870D01*
G01X8563Y11906D01*
G01X8418Y11906D01*
G01X8344Y11870D01*
G01X8273Y11797D01*
G01X8235Y11726D01*
G01X8200Y11616D01*
G01X8200Y11434D01*
G01X8235Y11324D01*
G01X8273Y11253D01*
G01X8344Y11180D01*
G01X8418Y11144D01*
G01X8563Y11144D01*
G01X8636Y11180D01*
G01X8708Y11253D01*
G01X8746Y11324D01*
G01X9023Y11726D02*
G01X9023Y11761D01*
G01X9058Y11835D01*
G01X9094Y11870D01*
G01X9167Y11906D01*
G01X9312Y11906D01*
G01X9386Y11870D01*
G01X9421Y11835D01*
G01X9457Y11761D01*
G01X9457Y11688D01*
G01X9421Y11616D01*
G01X9348Y11507D01*
G01X8984Y11144D01*
G01X9495Y11144D01*
G01X16344Y6324D02*
G01X16308Y6398D01*
G01X16235Y6471D01*
G01X16164Y6507D01*
G01X16019Y6507D01*
G01X15945Y6471D01*
G01X15872Y6398D01*
G01X15836Y6324D01*
G01X15800Y6215D01*
G01X15800Y6035D01*
G01X15836Y5925D01*
G01X15872Y5852D01*
G01X15945Y5781D01*
G01X16019Y5742D01*
G01X16164Y5742D01*
G01X16235Y5781D01*
G01X16308Y5852D01*
G01X16344Y5925D01*
G01X16656Y6507D02*
G01X17058Y6507D01*
G01X16839Y6215D01*
G01X16949Y6215D01*
G01X17022Y6179D01*
G01X17058Y6144D01*
G01X17093Y6035D01*
G01X17093Y5961D01*
G01X17058Y5852D01*
G01X16984Y5781D01*
G01X16875Y5742D01*
G01X16766Y5742D01*
G01X16656Y5781D01*
G01X16621Y5816D01*
G01X16585Y5890D01*
G01X6944Y11726D02*
G01X6908Y11797D01*
G01X6835Y11870D01*
G01X6764Y11906D01*
G01X6619Y11906D01*
G01X6545Y11870D01*
G01X6471Y11797D01*
G01X6436Y11726D01*
G01X6400Y11616D01*
G01X6400Y11434D01*
G01X6436Y11324D01*
G01X6471Y11253D01*
G01X6545Y11180D01*
G01X6619Y11144D01*
G01X6764Y11144D01*
G01X6835Y11180D01*
G01X6908Y11253D01*
G01X6944Y11324D01*
G01X7185Y11761D02*
G01X7259Y11797D01*
G01X7368Y11906D01*
G01X7368Y11144D01*
G01X6945Y15425D02*
G01X6909Y15498D01*
G01X6836Y15569D01*
G01X6764Y15608D01*
G01X6617Y15608D01*
G01X6546Y15569D01*
G01X6472Y15498D01*
G01X6437Y15425D01*
G01X6399Y15315D01*
G01X6399Y15135D01*
G01X6437Y15026D01*
G01X6472Y14952D01*
G01X6546Y14879D01*
G01X6617Y14843D01*
G01X6764Y14843D01*
G01X6836Y14879D01*
G01X6909Y14952D01*
G01X6945Y15026D01*
G01X7620Y15608D02*
G01X7257Y15608D01*
G01X7222Y15280D01*
G01X7257Y15315D01*
G01X7366Y15351D01*
G01X7476Y15351D01*
G01X7585Y15315D01*
G01X7659Y15244D01*
G01X7694Y15135D01*
G01X7694Y15061D01*
G01X7659Y14952D01*
G01X7585Y14879D01*
G01X7476Y14843D01*
G01X7366Y14843D01*
G01X7257Y14879D01*
G01X7222Y14917D01*
G01X7186Y14988D01*

%LPD*%
G36*
G01X4187Y16812D02*
G01X4142Y16813D01*
G01X4122Y16812D01*
G01X4105Y16810D01*
G01X4094Y16806D01*
G01X4086Y16800D01*
G01X4082Y16792D01*
G01X4078Y16776D01*
G01X4075Y16754D01*
G01X4074Y16724D01*
G01X4069Y16659D01*
G01X4064Y16597D01*
G01X4060Y16539D01*
G01X4056Y16485D01*
G01X4051Y16433D01*
G01X4047Y16384D01*
G01X4044Y16337D01*
G01X4041Y16292D01*
G01X3799Y16292D01*
G01X3767Y16291D01*
G01X3738Y16288D01*
G01X3712Y16282D01*
G01X3690Y16274D01*
G01X3670Y16265D01*
G01X3652Y16254D01*
G01X3637Y16241D01*
G01X3624Y16226D01*
G01X3614Y16211D01*
G01X3606Y16194D01*
G01X3600Y16178D01*
G01X3596Y16160D01*
G01X3593Y16141D01*
G01X3589Y16122D01*
G01X3586Y16103D01*
G01X3582Y16065D01*
G01X3582Y16048D01*
G01X3581Y16034D01*
G01X3581Y16023D01*
G01X3580Y16013D01*
G01X3579Y16005D01*
G01X3579Y15997D01*
G01X3578Y15990D01*
G01X3578Y15960D01*
G01X3580Y15945D01*
G01X3587Y15935D01*
G01X3597Y15929D01*
G01X3611Y15926D01*
G01X4010Y15926D01*
G01X4007Y15880D01*
G01X4003Y15841D01*
G01X4000Y15808D01*
G01X3998Y15782D01*
G01X3996Y15760D01*
G01X3996Y15738D01*
G01X3995Y15716D01*
G01X3995Y15693D01*
G01X3996Y15659D01*
G01X3999Y15628D01*
G01X4004Y15599D01*
G01X4010Y15571D01*
G01X4018Y15546D01*
G01X4028Y15523D01*
G01X4041Y15502D01*
G01X4056Y15482D01*
G01X4074Y15465D01*
G01X4095Y15450D01*
G01X4120Y15437D01*
G01X4147Y15426D01*
G01X4180Y15418D01*
G01X4215Y15413D01*
G01X4255Y15409D01*
G01X4297Y15408D01*
G01X4316Y15409D01*
G01X4331Y15412D01*
G01X4342Y15415D01*
G01X4351Y15421D01*
G01X4355Y15428D01*
G01X4359Y15438D01*
G01X4362Y15451D01*
G01X4363Y15467D01*
G01X4401Y15926D01*
G01X4638Y15926D01*
G01X4699Y15930D01*
G01X4749Y15940D01*
G01X4788Y15958D01*
G01X4815Y15982D01*
G01X4835Y16012D01*
G01X4850Y16047D01*
G01X4860Y16085D01*
G01X4866Y16127D01*
G01X4874Y16252D01*
G01X4873Y16261D01*
G01X4870Y16269D01*
G01X4865Y16276D01*
G01X4859Y16282D01*
G01X4851Y16287D01*
G01X4843Y16290D01*
G01X4834Y16292D01*
G01X4434Y16292D01*
G01X4438Y16340D01*
G01X4441Y16381D01*
G01X4443Y16416D01*
G01X4445Y16445D01*
G01X4447Y16471D01*
G01X4448Y16495D01*
G01X4449Y16518D01*
G01X4450Y16539D01*
G01X4449Y16570D01*
G01X4446Y16599D01*
G01X4441Y16627D01*
G01X4434Y16653D01*
G01X4427Y16677D01*
G01X4416Y16700D01*
G01X4403Y16721D01*
G01X4386Y16739D01*
G01X4368Y16756D01*
G01X4347Y16770D01*
G01X4322Y16783D01*
G01X4295Y16793D01*
G01X4263Y16802D01*
G01X4227Y16808D01*
G01X4187Y16812D01*
G37*

%LPD*%

%LPD*%
G36*
G01X4885Y2230D02*
G01X4070Y2230D01*
G01X4037Y2229D01*
G01X4007Y2225D01*
G01X3981Y2220D01*
G01X3958Y2212D01*
G01X3939Y2202D01*
G01X3922Y2191D01*
G01X3907Y2178D01*
G01X3894Y2164D01*
G01X3884Y2149D01*
G01X3875Y2133D01*
G01X3869Y2116D01*
G01X3864Y2098D01*
G01X3860Y2079D01*
G01X3858Y2060D01*
G01X3855Y2040D01*
G01X3854Y2021D01*
G01X3844Y1859D01*
G01X3846Y1844D01*
G01X3852Y1834D01*
G01X3862Y1828D01*
G01X3877Y1826D01*
G01X4694Y1826D01*
G01X4756Y1829D01*
G01X4806Y1840D01*
G01X4845Y1857D01*
G01X4872Y1882D01*
G01X4891Y1912D01*
G01X4906Y1946D01*
G01X4916Y1984D01*
G01X4920Y2026D01*
G01X4933Y2189D01*
G01X4932Y2199D01*
G01X4929Y2207D01*
G01X4925Y2214D01*
G01X4918Y2220D01*
G01X4910Y2224D01*
G01X4902Y2227D01*
G01X4894Y2229D01*
G01X4885Y2230D01*
G37*

%LPD*%
G01X701Y9407D02*
G01X701Y8861D01*
G01X736Y8751D01*
G01X810Y8680D01*
G01X916Y8642D01*
G01X990Y8642D01*
G01X1099Y8680D01*
G01X1173Y8751D01*
G01X1209Y8861D01*
G01X1209Y9407D01*
G01X1958Y9297D02*
G01X1884Y9371D01*
G01X1775Y9407D01*
G01X1630Y9407D01*
G01X1521Y9371D01*
G01X1450Y9297D01*
G01X1450Y9224D01*
G01X1485Y9153D01*
G01X1521Y9117D01*
G01X1595Y9079D01*
G01X1813Y9008D01*
G01X1884Y8970D01*
G01X1922Y8934D01*
G01X1958Y8861D01*
G01X1958Y8751D01*
G01X1884Y8680D01*
G01X1775Y8642D01*
G01X1630Y8642D01*
G01X1521Y8680D01*
G01X1450Y8751D01*
G01X2197Y9407D02*
G01X2197Y8642D01*
G01X2197Y9407D02*
G01X2524Y9407D01*
G01X2633Y9371D01*
G01X2672Y9333D01*
G01X2707Y9262D01*
G01X2707Y9188D01*
G01X2672Y9117D01*
G01X2633Y9079D01*
G01X2524Y9043D01*
G01X2197Y9043D02*
G01X2524Y9043D01*
G01X2633Y9008D01*
G01X2672Y8970D01*
G01X2707Y8899D01*
G01X2707Y8789D01*
G01X2672Y8716D01*
G01X2633Y8680D01*
G01X2524Y8642D01*
G01X2197Y8642D01*
G01X2946Y9262D02*
G01X3020Y9297D01*
G01X3129Y9407D01*
G01X3129Y8642D01*
G54D10*
G75*
G01X10200Y7100D02*
G02X10200Y5500I-375J-800D01*
G01*
G75*
G01X8300Y7450D02*
G02X8100Y7650I0J200D01*
G01*
G75*
G01X9500Y7450D02*
G03X9700Y7650I0J200D01*
G01*
G75*
G01X8300Y10750D02*
G03X8100Y10550I0J-200D01*
G01*
G75*
G01X9500Y10750D02*
G02X9700Y10550I0J-200D01*
G01*
G75*
G01X19150Y7100D02*
G02X18950Y6900I-200J0D01*
G01*
G75*
G01X19150Y8300D02*
G03X18950Y8500I-200J0D01*
G01*
G75*
G01X15850Y7100D02*
G03X16050Y6900I200J0D01*
G01*
G75*
G01X15850Y8300D02*
G02X16050Y8500I200J0D01*
G01*
G75*
G01X6400Y7450D02*
G02X6200Y7650I0J200D01*
G01*
G75*
G01X7600Y7450D02*
G03X7800Y7650I0J200D01*
G01*
G75*
G01X6400Y10750D02*
G03X6200Y10550I0J-200D01*
G01*
G75*
G01X7600Y10750D02*
G02X7800Y10550I0J-200D01*
G01*
G75*
G01X6350Y17500D02*
G02X6550Y17700I200J0D01*
G01*
G75*
G01X6350Y16300D02*
G03X6550Y16100I200J0D01*
G01*
G75*
G01X9650Y17500D02*
G03X9450Y17700I-200J0D01*
G01*
G75*
G01X9650Y16300D02*
G02X9450Y16100I-200J0D01*
G01*
G75*
G01X1626Y11661D02*
G02X1926Y11361I0J-300D01*
G01*
G75*
G01X1626Y10211D02*
G03X1926Y10511I0J300D01*
G01*
G75*
G01X1626Y7886D02*
G02X1926Y7586I0J-300D01*
G01*
G75*
G01X1626Y6436D02*
G03X1926Y6736I0J300D01*
G01*
G75*
G01X5426Y6561D02*
G03X5401Y6536I0J-25D01*
G01*
G75*
G01X21039Y4082D02*
G03X21039Y4082I-254J0D01*
G01*
G75*
G01X21029Y9278D02*
G03X21029Y9278I-254J0D01*
G01*

%LPD*%
G36*
G01X8649Y1399D02*
G01X8349Y1799D01*
G01X8349Y999D01*
G01X8649Y1399D01*
G37*

%LPD*%
G36*
G01X7800Y4649D02*
G01X7400Y4949D01*
G01X7000Y4649D01*
G01X7800Y4649D01*
G37*
M00*
M02*
