G04 Layer: TopSolderMaskLayer*
G04 EasyEDA v6.4.7, 2020-12-07T01:06:49--5:00*
G04 5e8349f5503448508ce6795c89dbbb90,9f54a757970e4a3cb0a7e8d24ad546a0,10*
G04 Gerber Generator version 0.2*
G04 Scale: 100 percent, Rotated: No, Reflected: No *
G04 Dimensions in millimeters *
G04 leading zeros omitted , absolute positions ,3 integer and 3 decimal *
%FSLAX33Y33*%
%MOMM*%
G90*
D02*

%ADD33C,1.253211*%

%LPD*%
G54D33*
G01X1676Y12641D02*
G01X876Y12641D01*
G01X5126Y5481D02*
G01X4326Y5481D01*
G01X1726Y5361D02*
G01X926Y5361D01*
G01X5126Y12641D02*
G01X4326Y12641D01*
G36*
G01X15697Y748D02*
G01X15697Y2053D01*
G01X16901Y2053D01*
G01X16901Y748D01*
G01X15697Y748D01*
G37*
G36*
G01X14097Y748D02*
G01X14097Y2053D01*
G01X15300Y2053D01*
G01X15300Y748D01*
G01X14097Y748D01*
G37*
G36*
G01X6647Y598D02*
G01X6647Y2201D01*
G01X8150Y2201D01*
G01X8150Y598D01*
G01X6647Y598D01*
G37*
G36*
G01X8747Y598D02*
G01X8747Y2201D01*
G01X10251Y2201D01*
G01X10251Y598D01*
G01X8747Y598D01*
G37*
G36*
G01X17848Y1997D02*
G01X17848Y3201D01*
G01X19151Y3201D01*
G01X19151Y1997D01*
G01X17848Y1997D01*
G37*
G36*
G01X17848Y3598D02*
G01X17848Y4802D01*
G01X19151Y4802D01*
G01X19151Y3598D01*
G01X17848Y3598D01*
G37*
G36*
G01X21018Y6100D02*
G01X21018Y7502D01*
G01X21821Y7502D01*
G01X21821Y6100D01*
G01X21018Y6100D01*
G37*
G36*
G01X22898Y6100D02*
G01X22898Y7502D01*
G01X23700Y7502D01*
G01X23700Y6100D01*
G01X22898Y6100D01*
G37*
G36*
G01X21018Y3204D02*
G01X21018Y4606D01*
G01X21821Y4606D01*
G01X21821Y3204D01*
G01X21018Y3204D01*
G37*
G36*
G01X22898Y3204D02*
G01X22898Y4606D01*
G01X23700Y4606D01*
G01X23700Y3204D01*
G01X22898Y3204D01*
G37*
G36*
G01X11823Y12648D02*
G01X11823Y16351D01*
G01X14376Y16351D01*
G01X14376Y12648D01*
G01X11823Y12648D01*
G37*
G36*
G01X17894Y12648D02*
G01X17894Y16351D01*
G01X20447Y16351D01*
G01X20447Y12648D01*
G01X17894Y12648D01*
G37*
G36*
G01X21008Y11294D02*
G01X21008Y12696D01*
G01X21810Y12696D01*
G01X21810Y11294D01*
G01X21008Y11294D01*
G37*
G36*
G01X21948Y11294D02*
G01X21948Y12696D01*
G01X22750Y12696D01*
G01X22750Y11294D01*
G01X21948Y11294D01*
G37*
G36*
G01X22887Y11294D02*
G01X22887Y12696D01*
G01X23690Y12696D01*
G01X23690Y11294D01*
G01X22887Y11294D01*
G37*
G36*
G01X21008Y8398D02*
G01X21008Y9800D01*
G01X21810Y9800D01*
G01X21810Y8398D01*
G01X21008Y8398D01*
G37*
G36*
G01X21948Y8398D02*
G01X21948Y9800D01*
G01X22750Y9800D01*
G01X22750Y8398D01*
G01X21948Y8398D01*
G37*
G36*
G01X22887Y8398D02*
G01X22887Y9800D01*
G01X23690Y9800D01*
G01X23690Y8398D01*
G01X22887Y8398D01*
G37*
G36*
G01X6598Y2947D02*
G01X6598Y4451D01*
G01X8201Y4451D01*
G01X8201Y2947D01*
G01X6598Y2947D01*
G37*
G36*
G01X6598Y5048D02*
G01X6598Y6552D01*
G01X8201Y6552D01*
G01X8201Y5048D01*
G01X6598Y5048D01*
G37*
G36*
G01X10454Y2640D02*
G01X10454Y4144D01*
G01X11137Y4144D01*
G01X11137Y2640D01*
G01X10454Y2640D01*
G37*
G36*
G01X11724Y2640D02*
G01X11724Y4144D01*
G01X12407Y4144D01*
G01X12407Y2640D01*
G01X11724Y2640D01*
G37*
G36*
G01X12994Y2640D02*
G01X12994Y4144D01*
G01X13677Y4144D01*
G01X13677Y2640D01*
G01X12994Y2640D01*
G37*
G36*
G01X14264Y2640D02*
G01X14264Y4144D01*
G01X14947Y4144D01*
G01X14947Y2640D01*
G01X14264Y2640D01*
G37*
G36*
G01X14264Y8457D02*
G01X14264Y9960D01*
G01X14947Y9960D01*
G01X14947Y8457D01*
G01X14264Y8457D01*
G37*
G36*
G01X12994Y8457D02*
G01X12994Y9960D01*
G01X13677Y9960D01*
G01X13677Y8457D01*
G01X12994Y8457D01*
G37*
G36*
G01X11724Y8457D02*
G01X11724Y9960D01*
G01X12407Y9960D01*
G01X12407Y8457D01*
G01X11724Y8457D01*
G37*
G36*
G01X10454Y8457D02*
G01X10454Y9960D01*
G01X11137Y9960D01*
G01X11137Y8457D01*
G01X10454Y8457D01*
G37*
G36*
G01X10848Y4949D02*
G01X10848Y7652D01*
G01X14551Y7652D01*
G01X14551Y4949D01*
G01X10848Y4949D01*
G37*
G36*
G01X25097Y11599D02*
G01X25097Y13402D01*
G01X26901Y13402D01*
G01X26901Y11599D01*
G01X25097Y11599D01*
G37*
G36*
G01X25097Y15099D02*
G01X25097Y16902D01*
G01X26901Y16902D01*
G01X26901Y15099D01*
G01X25097Y15099D01*
G37*
G36*
G01X25097Y4598D02*
G01X25097Y6402D01*
G01X26901Y6402D01*
G01X26901Y4598D01*
G01X25097Y4598D01*
G37*
G36*
G01X25097Y1098D02*
G01X25097Y2902D01*
G01X26901Y2902D01*
G01X26901Y1098D01*
G01X25097Y1098D01*
G37*
G36*
G01X8348Y12798D02*
G01X8348Y14002D01*
G01X9652Y14002D01*
G01X9652Y12798D01*
G01X8348Y12798D01*
G37*
G36*
G01X8348Y14398D02*
G01X8348Y15602D01*
G01X9652Y15602D01*
G01X9652Y14398D01*
G01X8348Y14398D01*
G37*
G36*
G01X17698Y9247D02*
G01X17698Y10552D01*
G01X18902Y10552D01*
G01X18902Y9247D01*
G01X17698Y9247D01*
G37*
G36*
G01X16098Y9247D02*
G01X16098Y10552D01*
G01X17302Y10552D01*
G01X17302Y9247D01*
G01X16098Y9247D01*
G37*
G36*
G01X8247Y7598D02*
G01X8247Y8802D01*
G01X9550Y8802D01*
G01X9550Y7598D01*
G01X8247Y7598D01*
G37*
G36*
G01X8247Y9399D02*
G01X8247Y10600D01*
G01X9550Y10600D01*
G01X9550Y9399D01*
G01X8247Y9399D01*
G37*
G36*
G01X17797Y7047D02*
G01X17797Y8350D01*
G01X19001Y8350D01*
G01X19001Y7047D01*
G01X17797Y7047D01*
G37*
G36*
G01X15999Y7047D02*
G01X15999Y8350D01*
G01X17200Y8350D01*
G01X17200Y7047D01*
G01X15999Y7047D01*
G37*
G36*
G01X6347Y7598D02*
G01X6347Y8802D01*
G01X7650Y8802D01*
G01X7650Y7598D01*
G01X6347Y7598D01*
G37*
G36*
G01X6347Y9399D02*
G01X6347Y10600D01*
G01X7650Y10600D01*
G01X7650Y9399D01*
G01X6347Y9399D01*
G37*
G36*
G01X6497Y16247D02*
G01X6497Y17550D01*
G01X7701Y17550D01*
G01X7701Y16247D01*
G01X6497Y16247D01*
G37*
G36*
G01X8298Y16247D02*
G01X8298Y17550D01*
G01X9502Y17550D01*
G01X9502Y16247D01*
G01X8298Y16247D01*
G37*
G36*
G01X1097Y15099D02*
G01X1097Y16902D01*
G01X2900Y16902D01*
G01X2900Y15099D01*
G01X1097Y15099D01*
G37*
G36*
G01X1097Y1098D02*
G01X1097Y2902D01*
G01X2900Y2902D01*
G01X2900Y1098D01*
G01X1097Y1098D01*
G37*
G36*
G01X3401Y9998D02*
G01X3401Y10603D01*
G01X5603Y10603D01*
G01X5603Y9998D01*
G01X3401Y9998D01*
G37*
G36*
G01X3401Y7400D02*
G01X3401Y8002D01*
G01X5603Y8002D01*
G01X5603Y7400D01*
G01X3401Y7400D01*
G37*
M00*
M02*
