G04 Layer: TopLayer*
G04 EasyEDA v6.4.7, 2020-12-07T01:06:49--5:00*
G04 5e8349f5503448508ce6795c89dbbb90,9f54a757970e4a3cb0a7e8d24ad546a0,10*
G04 Gerber Generator version 0.2*
G04 Scale: 100 percent, Rotated: No, Reflected: No *
G04 Dimensions in millimeters *
G04 leading zeros omitted , absolute positions ,3 integer and 3 decimal *
%FSLAX33Y33*%
%MOMM*%
G90*
D02*

%ADD11C,0.499999*%
%ADD12C,0.299999*%
%ADD13C,0.399999*%
%ADD14C,0.609600*%
%ADD15R,0.999998X1.099998*%
%ADD17R,1.099998X0.999998*%
%ADD18R,0.599440X1.198880*%
%ADD20R,1.399540X1.300480*%
%ADD21R,0.480060X1.299997*%
%ADD22R,1.999996X0.399999*%
%ADD23R,3.499866X2.499995*%
%ADD24R,1.599997X1.599997*%
%ADD25C,1.050011*%

%LPD*%
G36*
G01X6241Y17499D02*
G01X5101Y17499D01*
G01X5087Y17498D01*
G01X5072Y17495D01*
G01X5059Y17490D01*
G01X5046Y17483D01*
G01X5035Y17475D01*
G01X5024Y17464D01*
G01X5016Y17453D01*
G01X5009Y17440D01*
G01X5004Y17427D01*
G01X5001Y17412D01*
G01X4999Y17398D01*
G01X4999Y16042D01*
G01X5001Y16026D01*
G01X5004Y16010D01*
G01X5011Y15995D01*
G01X5019Y15982D01*
G01X5029Y15970D01*
G01X5170Y15829D01*
G01X5182Y15819D01*
G01X5196Y15811D01*
G01X5210Y15805D01*
G01X5226Y15801D01*
G01X5242Y15800D01*
G01X7457Y15799D01*
G01X7473Y15801D01*
G01X7489Y15804D01*
G01X7504Y15811D01*
G01X7517Y15819D01*
G01X7529Y15829D01*
G01X7620Y15920D01*
G01X7630Y15932D01*
G01X7638Y15945D01*
G01X7644Y15960D01*
G01X7648Y15975D01*
G01X7649Y15991D01*
G01X7648Y16006D01*
G01X7645Y16020D01*
G01X7640Y16034D01*
G01X7633Y16046D01*
G01X7624Y16058D01*
G01X7614Y16068D01*
G01X7603Y16077D01*
G01X7590Y16084D01*
G01X7576Y16089D01*
G01X7562Y16092D01*
G01X7548Y16093D01*
G01X7413Y16093D01*
G01X7413Y16561D01*
G01X7598Y16561D01*
G01X7612Y16562D01*
G01X7627Y16565D01*
G01X7640Y16570D01*
G01X7653Y16577D01*
G01X7664Y16586D01*
G01X7675Y16596D01*
G01X7683Y16608D01*
G01X7690Y16620D01*
G01X7695Y16634D01*
G01X7698Y16648D01*
G01X7700Y16663D01*
G01X7700Y17136D01*
G01X7698Y17151D01*
G01X7695Y17165D01*
G01X7690Y17179D01*
G01X7683Y17191D01*
G01X7675Y17203D01*
G01X7664Y17213D01*
G01X7653Y17222D01*
G01X7640Y17229D01*
G01X7627Y17234D01*
G01X7612Y17237D01*
G01X7598Y17238D01*
G01X7413Y17238D01*
G01X7413Y17398D01*
G01X7412Y17412D01*
G01X7409Y17427D01*
G01X7404Y17440D01*
G01X7397Y17453D01*
G01X7388Y17464D01*
G01X7378Y17475D01*
G01X7366Y17483D01*
G01X7354Y17490D01*
G01X7340Y17495D01*
G01X7326Y17498D01*
G01X7311Y17499D01*
G01X6888Y17499D01*
G01X6873Y17498D01*
G01X6859Y17495D01*
G01X6845Y17490D01*
G01X6833Y17483D01*
G01X6821Y17475D01*
G01X6811Y17464D01*
G01X6802Y17453D01*
G01X6795Y17440D01*
G01X6790Y17427D01*
G01X6787Y17412D01*
G01X6786Y17398D01*
G01X6786Y17238D01*
G01X6343Y17238D01*
G01X6343Y17398D01*
G01X6342Y17412D01*
G01X6339Y17427D01*
G01X6334Y17440D01*
G01X6327Y17453D01*
G01X6318Y17464D01*
G01X6308Y17475D01*
G01X6296Y17483D01*
G01X6284Y17490D01*
G01X6270Y17495D01*
G01X6256Y17498D01*
G01X6241Y17499D01*
G37*

%LPC*%
G36*
G01X6786Y16561D02*
G01X6343Y16561D01*
G01X6343Y16349D01*
G01X6344Y16326D01*
G01X6347Y16302D01*
G01X6353Y16279D01*
G01X6360Y16257D01*
G01X6370Y16235D01*
G01X6381Y16214D01*
G01X6395Y16195D01*
G01X6410Y16177D01*
G01X6427Y16160D01*
G01X6445Y16145D01*
G01X6464Y16131D01*
G01X6485Y16120D01*
G01X6507Y16110D01*
G01X6529Y16103D01*
G01X6552Y16097D01*
G01X6576Y16094D01*
G01X6599Y16093D01*
G01X6786Y16093D01*
G01X6786Y16561D01*
G37*

%LPD*%
G36*
G01X26957Y17499D02*
G01X18542Y17499D01*
G01X18526Y17498D01*
G01X18510Y17495D01*
G01X18495Y17488D01*
G01X18482Y17480D01*
G01X18470Y17470D01*
G01X17529Y16529D01*
G01X17519Y16517D01*
G01X17511Y16504D01*
G01X17504Y16489D01*
G01X17501Y16473D01*
G01X17499Y16457D01*
G01X17499Y12601D01*
G01X17501Y12587D01*
G01X17504Y12572D01*
G01X17509Y12559D01*
G01X17516Y12546D01*
G01X17524Y12535D01*
G01X17535Y12524D01*
G01X17546Y12516D01*
G01X17559Y12509D01*
G01X17572Y12504D01*
G01X17587Y12501D01*
G01X17601Y12500D01*
G01X17668Y12500D01*
G01X17683Y12501D01*
G01X17697Y12504D01*
G01X17710Y12509D01*
G01X17723Y12516D01*
G01X17735Y12524D01*
G01X17745Y12535D01*
G01X17754Y12546D01*
G01X17761Y12559D01*
G01X17766Y12572D01*
G01X17769Y12587D01*
G01X17770Y12601D01*
G01X17769Y12616D01*
G01X17766Y12630D01*
G01X17751Y12669D01*
G01X17743Y12695D01*
G01X17739Y12722D01*
G01X17738Y12750D01*
G01X17738Y13561D01*
G01X18518Y13561D01*
G01X18518Y12601D01*
G01X18519Y12587D01*
G01X18522Y12572D01*
G01X18527Y12559D01*
G01X18534Y12546D01*
G01X18543Y12535D01*
G01X18553Y12524D01*
G01X18565Y12516D01*
G01X18577Y12509D01*
G01X18591Y12504D01*
G01X18605Y12500D01*
G01X18620Y12499D01*
G01X19718Y12499D01*
G01X19733Y12500D01*
G01X19747Y12504D01*
G01X19761Y12509D01*
G01X19773Y12516D01*
G01X19785Y12524D01*
G01X19795Y12534D01*
G01X19804Y12546D01*
G01X19811Y12559D01*
G01X19816Y12572D01*
G01X19819Y12587D01*
G01X19820Y12601D01*
G01X19820Y13561D01*
G01X20601Y13561D01*
G01X20601Y13146D01*
G01X20602Y13131D01*
G01X20605Y13117D01*
G01X20610Y13104D01*
G01X20617Y13091D01*
G01X20625Y13079D01*
G01X20636Y13069D01*
G01X20647Y13060D01*
G01X20660Y13053D01*
G01X20674Y13048D01*
G01X20688Y13045D01*
G01X20702Y13044D01*
G01X20718Y13045D01*
G01X20734Y13049D01*
G01X20748Y13055D01*
G01X20762Y13064D01*
G01X20774Y13074D01*
G01X20970Y13270D01*
G01X20980Y13282D01*
G01X20988Y13295D01*
G01X20994Y13310D01*
G01X20998Y13326D01*
G01X20999Y13342D01*
G01X21000Y14999D01*
G01X21500Y15499D01*
G01X24000Y15499D01*
G01X24500Y14999D01*
G01X24500Y11542D01*
G01X24501Y11526D01*
G01X24504Y11510D01*
G01X24511Y11495D01*
G01X24519Y11482D01*
G01X24529Y11470D01*
G01X24970Y11029D01*
G01X24982Y11019D01*
G01X24995Y11011D01*
G01X25010Y11004D01*
G01X25026Y11001D01*
G01X25042Y10999D01*
G01X26957Y10999D01*
G01X26973Y11001D01*
G01X26989Y11004D01*
G01X27004Y11011D01*
G01X27017Y11019D01*
G01X27029Y11029D01*
G01X27470Y11470D01*
G01X27480Y11482D01*
G01X27488Y11495D01*
G01X27495Y11510D01*
G01X27498Y11526D01*
G01X27499Y11542D01*
G01X27499Y16957D01*
G01X27498Y16973D01*
G01X27495Y16989D01*
G01X27488Y17004D01*
G01X27480Y17017D01*
G01X27470Y17029D01*
G01X27029Y17470D01*
G01X27017Y17480D01*
G01X27004Y17488D01*
G01X26989Y17495D01*
G01X26973Y17498D01*
G01X26957Y17499D01*
G37*

%LPC*%
G36*
G01X20344Y16506D02*
G01X19820Y16506D01*
G01X19820Y15438D01*
G01X20601Y15438D01*
G01X20601Y16250D01*
G01X20600Y16273D01*
G01X20596Y16297D01*
G01X20591Y16320D01*
G01X20583Y16342D01*
G01X20574Y16364D01*
G01X20562Y16385D01*
G01X20549Y16404D01*
G01X20534Y16422D01*
G01X20517Y16439D01*
G01X20499Y16454D01*
G01X20479Y16468D01*
G01X20458Y16479D01*
G01X20437Y16489D01*
G01X20414Y16496D01*
G01X20391Y16502D01*
G01X20368Y16505D01*
G01X20344Y16506D01*
G37*
G36*
G01X18518Y16506D02*
G01X17994Y16506D01*
G01X17970Y16505D01*
G01X17947Y16502D01*
G01X17924Y16496D01*
G01X17901Y16489D01*
G01X17880Y16479D01*
G01X17859Y16468D01*
G01X17839Y16454D01*
G01X17821Y16439D01*
G01X17804Y16422D01*
G01X17789Y16404D01*
G01X17776Y16385D01*
G01X17764Y16364D01*
G01X17755Y16342D01*
G01X17747Y16320D01*
G01X17742Y16297D01*
G01X17739Y16273D01*
G01X17738Y16250D01*
G01X17738Y15438D01*
G01X18518Y15438D01*
G01X18518Y16506D01*
G37*
G36*
G01X25536Y13556D02*
G01X25199Y13556D01*
G01X25176Y13555D01*
G01X25152Y13552D01*
G01X25129Y13546D01*
G01X25107Y13539D01*
G01X25085Y13529D01*
G01X25064Y13517D01*
G01X25045Y13504D01*
G01X25027Y13489D01*
G01X25010Y13472D01*
G01X24995Y13454D01*
G01X24981Y13434D01*
G01X24970Y13414D01*
G01X24960Y13392D01*
G01X24953Y13370D01*
G01X24947Y13347D01*
G01X24944Y13323D01*
G01X24943Y13299D01*
G01X24943Y12963D01*
G01X25536Y12963D01*
G01X25536Y13556D01*
G37*
G36*
G01X26799Y13556D02*
G01X26463Y13556D01*
G01X26463Y12963D01*
G01X27056Y12963D01*
G01X27056Y13299D01*
G01X27055Y13323D01*
G01X27052Y13347D01*
G01X27046Y13370D01*
G01X27039Y13392D01*
G01X27029Y13414D01*
G01X27018Y13434D01*
G01X27004Y13454D01*
G01X26989Y13472D01*
G01X26972Y13489D01*
G01X26954Y13504D01*
G01X26934Y13517D01*
G01X26914Y13529D01*
G01X26892Y13539D01*
G01X26870Y13546D01*
G01X26847Y13552D01*
G01X26823Y13555D01*
G01X26799Y13556D01*
G37*
G36*
G01X27056Y15536D02*
G01X26463Y15536D01*
G01X26463Y14943D01*
G01X26799Y14943D01*
G01X26823Y14944D01*
G01X26847Y14947D01*
G01X26870Y14953D01*
G01X26892Y14960D01*
G01X26914Y14970D01*
G01X26934Y14981D01*
G01X26954Y14995D01*
G01X26972Y15010D01*
G01X26989Y15027D01*
G01X27004Y15045D01*
G01X27018Y15064D01*
G01X27029Y15085D01*
G01X27039Y15107D01*
G01X27046Y15129D01*
G01X27052Y15152D01*
G01X27055Y15176D01*
G01X27056Y15199D01*
G01X27056Y15536D01*
G37*
G36*
G01X25536Y15536D02*
G01X24943Y15536D01*
G01X24943Y15199D01*
G01X24944Y15176D01*
G01X24947Y15152D01*
G01X24953Y15129D01*
G01X24960Y15107D01*
G01X24970Y15085D01*
G01X24981Y15064D01*
G01X24995Y15045D01*
G01X25010Y15027D01*
G01X25027Y15010D01*
G01X25045Y14995D01*
G01X25064Y14981D01*
G01X25085Y14970D01*
G01X25107Y14960D01*
G01X25129Y14953D01*
G01X25152Y14947D01*
G01X25176Y14944D01*
G01X25199Y14943D01*
G01X25536Y14943D01*
G01X25536Y15536D01*
G37*
G36*
G01X25536Y17056D02*
G01X25199Y17056D01*
G01X25176Y17055D01*
G01X25152Y17052D01*
G01X25129Y17046D01*
G01X25107Y17039D01*
G01X25085Y17029D01*
G01X25064Y17018D01*
G01X25045Y17004D01*
G01X25027Y16989D01*
G01X25010Y16972D01*
G01X24995Y16954D01*
G01X24981Y16935D01*
G01X24970Y16914D01*
G01X24960Y16892D01*
G01X24953Y16870D01*
G01X24947Y16847D01*
G01X24944Y16823D01*
G01X24943Y16799D01*
G01X24943Y16463D01*
G01X25536Y16463D01*
G01X25536Y17056D01*
G37*
G36*
G01X26799Y17056D02*
G01X26463Y17056D01*
G01X26463Y16463D01*
G01X27056Y16463D01*
G01X27056Y16799D01*
G01X27055Y16823D01*
G01X27052Y16847D01*
G01X27046Y16870D01*
G01X27039Y16892D01*
G01X27029Y16914D01*
G01X27018Y16935D01*
G01X27004Y16954D01*
G01X26989Y16972D01*
G01X26972Y16989D01*
G01X26954Y17004D01*
G01X26934Y17018D01*
G01X26914Y17029D01*
G01X26892Y17039D01*
G01X26870Y17046D01*
G01X26847Y17052D01*
G01X26823Y17055D01*
G01X26799Y17056D01*
G37*
G36*
G01X25536Y12036D02*
G01X24943Y12036D01*
G01X24943Y11699D01*
G01X24944Y11676D01*
G01X24947Y11652D01*
G01X24953Y11629D01*
G01X24960Y11607D01*
G01X24970Y11585D01*
G01X24981Y11564D01*
G01X24995Y11545D01*
G01X25010Y11527D01*
G01X25027Y11510D01*
G01X25045Y11495D01*
G01X25064Y11481D01*
G01X25085Y11470D01*
G01X25107Y11460D01*
G01X25129Y11453D01*
G01X25152Y11447D01*
G01X25176Y11444D01*
G01X25199Y11443D01*
G01X25536Y11443D01*
G01X25536Y12036D01*
G37*
G36*
G01X27056Y12036D02*
G01X26463Y12036D01*
G01X26463Y11443D01*
G01X26799Y11443D01*
G01X26823Y11444D01*
G01X26847Y11447D01*
G01X26870Y11453D01*
G01X26892Y11460D01*
G01X26914Y11470D01*
G01X26934Y11481D01*
G01X26954Y11495D01*
G01X26972Y11510D01*
G01X26989Y11527D01*
G01X27004Y11545D01*
G01X27018Y11564D01*
G01X27029Y11585D01*
G01X27039Y11607D01*
G01X27046Y11629D01*
G01X27052Y11652D01*
G01X27055Y11676D01*
G01X27056Y11699D01*
G01X27056Y12036D01*
G37*

%LPD*%
G36*
G01X3957Y17499D02*
G01X1042Y17499D01*
G01X1026Y17498D01*
G01X1010Y17495D01*
G01X995Y17488D01*
G01X982Y17480D01*
G01X970Y17470D01*
G01X529Y17029D01*
G01X519Y17017D01*
G01X511Y17004D01*
G01X504Y16989D01*
G01X501Y16973D01*
G01X499Y16957D01*
G01X499Y14542D01*
G01X501Y14526D01*
G01X504Y14510D01*
G01X511Y14495D01*
G01X519Y14482D01*
G01X529Y14470D01*
G01X970Y14029D01*
G01X982Y14019D01*
G01X995Y14011D01*
G01X1010Y14004D01*
G01X1026Y14001D01*
G01X1042Y13999D01*
G01X2199Y13999D01*
G01X2700Y13499D01*
G01X2700Y11378D01*
G01X2701Y11364D01*
G01X2704Y11350D01*
G01X2709Y11336D01*
G01X2716Y11323D01*
G01X2724Y11312D01*
G01X2735Y11302D01*
G01X2746Y11293D01*
G01X2759Y11286D01*
G01X2772Y11281D01*
G01X2787Y11278D01*
G01X2801Y11277D01*
G01X2817Y11278D01*
G01X2832Y11282D01*
G01X2847Y11288D01*
G01X2860Y11296D01*
G01X2872Y11306D01*
G01X2883Y11318D01*
G01X2891Y11331D01*
G01X2908Y11362D01*
G01X2927Y11391D01*
G01X2948Y11419D01*
G01X2971Y11446D01*
G01X2995Y11472D01*
G01X3020Y11496D01*
G01X3047Y11519D01*
G01X3076Y11539D01*
G01X3105Y11558D01*
G01X3136Y11576D01*
G01X3167Y11591D01*
G01X3200Y11604D01*
G01X3233Y11616D01*
G01X3267Y11625D01*
G01X3301Y11633D01*
G01X3336Y11638D01*
G01X3371Y11641D01*
G01X3406Y11642D01*
G01X3441Y11641D01*
G01X3476Y11638D01*
G01X3511Y11633D01*
G01X3545Y11625D01*
G01X3579Y11616D01*
G01X3612Y11604D01*
G01X3645Y11591D01*
G01X3676Y11576D01*
G01X3707Y11558D01*
G01X3736Y11539D01*
G01X3765Y11519D01*
G01X3792Y11496D01*
G01X3817Y11472D01*
G01X3841Y11446D01*
G01X3864Y11419D01*
G01X3884Y11391D01*
G01X3904Y11362D01*
G01X3921Y11331D01*
G01X3936Y11299D01*
G01X3950Y11267D01*
G01X3961Y11234D01*
G01X3971Y11200D01*
G01X3978Y11166D01*
G01X3983Y11131D01*
G01X3986Y11096D01*
G01X3987Y11061D01*
G01X3986Y11026D01*
G01X3983Y10991D01*
G01X3978Y10957D01*
G01X3971Y10923D01*
G01X3961Y10889D01*
G01X3945Y10842D01*
G01X3939Y10824D01*
G01X3937Y10804D01*
G01X3937Y10464D01*
G01X3239Y10464D01*
G01X3232Y10480D01*
G01X3222Y10494D01*
G01X3211Y10506D01*
G01X3197Y10516D01*
G01X3182Y10524D01*
G01X3149Y10539D01*
G01X3116Y10556D01*
G01X3085Y10576D01*
G01X3055Y10597D01*
G01X3027Y10620D01*
G01X3000Y10644D01*
G01X2975Y10671D01*
G01X2951Y10699D01*
G01X2929Y10728D01*
G01X2909Y10758D01*
G01X2891Y10790D01*
G01X2883Y10804D01*
G01X2872Y10816D01*
G01X2860Y10826D01*
G01X2847Y10834D01*
G01X2832Y10840D01*
G01X2817Y10843D01*
G01X2801Y10845D01*
G01X2787Y10844D01*
G01X2772Y10841D01*
G01X2746Y10829D01*
G01X2735Y10820D01*
G01X2724Y10810D01*
G01X2716Y10798D01*
G01X2709Y10785D01*
G01X2704Y10772D01*
G01X2701Y10757D01*
G01X2700Y10743D01*
G01X2700Y10042D01*
G01X2701Y10026D01*
G01X2704Y10010D01*
G01X2711Y9995D01*
G01X2719Y9982D01*
G01X2729Y9970D01*
G01X3170Y9529D01*
G01X3182Y9519D01*
G01X3195Y9510D01*
G01X3210Y9504D01*
G01X3226Y9501D01*
G01X3241Y9499D01*
G01X6091Y9499D01*
G01X6106Y9501D01*
G01X6120Y9504D01*
G01X6133Y9509D01*
G01X6146Y9516D01*
G01X6158Y9524D01*
G01X6168Y9535D01*
G01X6177Y9546D01*
G01X6184Y9559D01*
G01X6189Y9572D01*
G01X6192Y9587D01*
G01X6193Y9601D01*
G01X6193Y9686D01*
G01X6661Y9686D01*
G01X6661Y9601D01*
G01X6662Y9587D01*
G01X6665Y9572D01*
G01X6670Y9559D01*
G01X6677Y9546D01*
G01X6686Y9535D01*
G01X6696Y9524D01*
G01X6708Y9516D01*
G01X6720Y9509D01*
G01X6734Y9504D01*
G01X6748Y9501D01*
G01X6763Y9499D01*
G01X7236Y9499D01*
G01X7251Y9501D01*
G01X7265Y9504D01*
G01X7279Y9509D01*
G01X7291Y9516D01*
G01X7303Y9524D01*
G01X7313Y9535D01*
G01X7322Y9546D01*
G01X7329Y9559D01*
G01X7334Y9572D01*
G01X7337Y9587D01*
G01X7338Y9601D01*
G01X7338Y9686D01*
G01X7806Y9686D01*
G01X7806Y9601D01*
G01X7807Y9587D01*
G01X7810Y9572D01*
G01X7815Y9559D01*
G01X7822Y9546D01*
G01X7831Y9535D01*
G01X7841Y9524D01*
G01X7853Y9516D01*
G01X7865Y9509D01*
G01X7879Y9504D01*
G01X7893Y9501D01*
G01X7908Y9499D01*
G01X7991Y9499D01*
G01X8006Y9501D01*
G01X8020Y9504D01*
G01X8033Y9509D01*
G01X8046Y9516D01*
G01X8058Y9524D01*
G01X8068Y9535D01*
G01X8077Y9546D01*
G01X8084Y9559D01*
G01X8089Y9572D01*
G01X8092Y9587D01*
G01X8093Y9601D01*
G01X8093Y9686D01*
G01X8561Y9686D01*
G01X8561Y9601D01*
G01X8562Y9587D01*
G01X8565Y9572D01*
G01X8570Y9559D01*
G01X8577Y9546D01*
G01X8586Y9535D01*
G01X8596Y9524D01*
G01X8608Y9516D01*
G01X8620Y9509D01*
G01X8634Y9504D01*
G01X8648Y9501D01*
G01X8663Y9499D01*
G01X9136Y9499D01*
G01X9151Y9501D01*
G01X9165Y9504D01*
G01X9179Y9509D01*
G01X9191Y9516D01*
G01X9203Y9524D01*
G01X9213Y9535D01*
G01X9222Y9546D01*
G01X9229Y9559D01*
G01X9234Y9572D01*
G01X9237Y9587D01*
G01X9238Y9601D01*
G01X9238Y9686D01*
G01X9706Y9686D01*
G01X9706Y9601D01*
G01X9707Y9587D01*
G01X9710Y9572D01*
G01X9715Y9559D01*
G01X9722Y9546D01*
G01X9731Y9534D01*
G01X9741Y9524D01*
G01X9753Y9516D01*
G01X9765Y9509D01*
G01X9779Y9504D01*
G01X9793Y9500D01*
G01X9808Y9499D01*
G01X9999Y9499D01*
G01X10125Y9374D01*
G01X10400Y9100D01*
G01X10400Y8921D01*
G01X10401Y8906D01*
G01X10404Y8892D01*
G01X10409Y8879D01*
G01X10416Y8866D01*
G01X10424Y8854D01*
G01X10435Y8844D01*
G01X10446Y8835D01*
G01X10459Y8828D01*
G01X10473Y8823D01*
G01X10487Y8820D01*
G01X10501Y8819D01*
G01X10611Y8819D01*
G01X10611Y8601D01*
G01X10612Y8587D01*
G01X10615Y8572D01*
G01X10620Y8559D01*
G01X10627Y8546D01*
G01X10636Y8535D01*
G01X10646Y8524D01*
G01X10658Y8516D01*
G01X10670Y8509D01*
G01X10684Y8504D01*
G01X10698Y8500D01*
G01X10713Y8499D01*
G01X10876Y8499D01*
G01X10891Y8500D01*
G01X10905Y8504D01*
G01X10919Y8509D01*
G01X10931Y8516D01*
G01X10943Y8524D01*
G01X10953Y8534D01*
G01X10962Y8546D01*
G01X10969Y8559D01*
G01X10974Y8572D01*
G01X10977Y8587D01*
G01X10978Y8601D01*
G01X10978Y8819D01*
G01X11098Y8819D01*
G01X11112Y8820D01*
G01X11127Y8823D01*
G01X11140Y8828D01*
G01X11153Y8835D01*
G01X11165Y8844D01*
G01X11175Y8854D01*
G01X11184Y8866D01*
G01X11196Y8892D01*
G01X11199Y8906D01*
G01X11200Y8921D01*
G01X11200Y9495D01*
G01X11199Y9509D01*
G01X11196Y9523D01*
G01X11190Y9537D01*
G01X11184Y9550D01*
G01X11175Y9561D01*
G01X11165Y9571D01*
G01X11153Y9580D01*
G01X11140Y9587D01*
G01X11127Y9592D01*
G01X11112Y9595D01*
G01X11098Y9596D01*
G01X10978Y9596D01*
G01X10978Y10114D01*
G01X11035Y10114D01*
G01X11057Y10113D01*
G01X11080Y10110D01*
G01X11098Y10109D01*
G01X11112Y10110D01*
G01X11127Y10113D01*
G01X11140Y10118D01*
G01X11153Y10125D01*
G01X11165Y10133D01*
G01X11175Y10144D01*
G01X11184Y10155D01*
G01X11190Y10168D01*
G01X11196Y10182D01*
G01X11199Y10196D01*
G01X11200Y10210D01*
G01X11200Y13257D01*
G01X11198Y13273D01*
G01X11195Y13289D01*
G01X11189Y13304D01*
G01X11180Y13317D01*
G01X11170Y13329D01*
G01X10529Y13970D01*
G01X10517Y13980D01*
G01X10504Y13988D01*
G01X10489Y13995D01*
G01X10473Y13998D01*
G01X10457Y13999D01*
G01X9908Y13999D01*
G01X9893Y13998D01*
G01X9879Y13995D01*
G01X9865Y13990D01*
G01X9853Y13983D01*
G01X9841Y13975D01*
G01X9831Y13964D01*
G01X9822Y13953D01*
G01X9815Y13940D01*
G01X9810Y13927D01*
G01X9807Y13912D01*
G01X9806Y13898D01*
G01X9806Y13713D01*
G01X9338Y13713D01*
G01X9338Y13898D01*
G01X9337Y13912D01*
G01X9334Y13927D01*
G01X9329Y13940D01*
G01X9322Y13953D01*
G01X9313Y13964D01*
G01X9303Y13975D01*
G01X9291Y13983D01*
G01X9279Y13990D01*
G01X9265Y13995D01*
G01X9251Y13998D01*
G01X9236Y13999D01*
G01X8763Y13999D01*
G01X8748Y13998D01*
G01X8734Y13995D01*
G01X8720Y13990D01*
G01X8708Y13983D01*
G01X8696Y13975D01*
G01X8686Y13964D01*
G01X8677Y13953D01*
G01X8670Y13940D01*
G01X8665Y13927D01*
G01X8662Y13912D01*
G01X8661Y13898D01*
G01X8661Y13713D01*
G01X8193Y13713D01*
G01X8193Y13898D01*
G01X8192Y13912D01*
G01X8189Y13927D01*
G01X8184Y13940D01*
G01X8177Y13953D01*
G01X8168Y13964D01*
G01X8158Y13975D01*
G01X8146Y13983D01*
G01X8133Y13990D01*
G01X8120Y13995D01*
G01X8106Y13998D01*
G01X8091Y13999D01*
G01X7999Y13999D01*
G01X6027Y15479D01*
G01X6013Y15488D01*
G01X5998Y15494D01*
G01X5982Y15498D01*
G01X5966Y15499D01*
G01X4999Y15499D01*
G01X4500Y15999D01*
G01X4499Y16957D01*
G01X4498Y16973D01*
G01X4495Y16989D01*
G01X4488Y17004D01*
G01X4480Y17017D01*
G01X4470Y17029D01*
G01X4029Y17470D01*
G01X4017Y17480D01*
G01X4004Y17488D01*
G01X3989Y17494D01*
G01X3973Y17498D01*
G01X3957Y17499D01*
G37*

%LPC*%
G36*
G01X5125Y13422D02*
G01X4326Y13422D01*
G01X4285Y13421D01*
G01X4245Y13418D01*
G01X4204Y13413D01*
G01X4164Y13405D01*
G01X4124Y13396D01*
G01X4085Y13384D01*
G01X4046Y13370D01*
G01X4008Y13355D01*
G01X3971Y13337D01*
G01X3935Y13318D01*
G01X3901Y13296D01*
G01X3867Y13273D01*
G01X3834Y13248D01*
G01X3803Y13222D01*
G01X3745Y13164D01*
G01X3719Y13133D01*
G01X3694Y13100D01*
G01X3671Y13066D01*
G01X3649Y13032D01*
G01X3630Y12996D01*
G01X3612Y12959D01*
G01X3597Y12921D01*
G01X3583Y12882D01*
G01X3571Y12843D01*
G01X3562Y12803D01*
G01X3554Y12763D01*
G01X3549Y12722D01*
G01X3546Y12682D01*
G01X3545Y12641D01*
G01X3546Y12600D01*
G01X3549Y12559D01*
G01X3554Y12519D01*
G01X3562Y12478D01*
G01X3571Y12438D01*
G01X3583Y12399D01*
G01X3597Y12361D01*
G01X3612Y12323D01*
G01X3630Y12286D01*
G01X3649Y12250D01*
G01X3671Y12215D01*
G01X3694Y12181D01*
G01X3719Y12149D01*
G01X3745Y12118D01*
G01X3774Y12088D01*
G01X3803Y12060D01*
G01X3834Y12033D01*
G01X3867Y12008D01*
G01X3901Y11985D01*
G01X3935Y11964D01*
G01X3971Y11944D01*
G01X4008Y11927D01*
G01X4046Y11911D01*
G01X4085Y11897D01*
G01X4124Y11886D01*
G01X4164Y11876D01*
G01X4204Y11869D01*
G01X4245Y11864D01*
G01X4285Y11860D01*
G01X4326Y11859D01*
G01X5125Y11859D01*
G01X5166Y11860D01*
G01X5207Y11864D01*
G01X5247Y11869D01*
G01X5288Y11876D01*
G01X5327Y11886D01*
G01X5367Y11897D01*
G01X5405Y11911D01*
G01X5443Y11927D01*
G01X5480Y11944D01*
G01X5516Y11964D01*
G01X5551Y11985D01*
G01X5584Y12008D01*
G01X5617Y12033D01*
G01X5648Y12060D01*
G01X5678Y12088D01*
G01X5706Y12118D01*
G01X5732Y12149D01*
G01X5757Y12181D01*
G01X5780Y12215D01*
G01X5802Y12250D01*
G01X5821Y12286D01*
G01X5839Y12323D01*
G01X5855Y12361D01*
G01X5868Y12399D01*
G01X5880Y12438D01*
G01X5889Y12478D01*
G01X5897Y12519D01*
G01X5902Y12559D01*
G01X5905Y12600D01*
G01X5907Y12641D01*
G01X5905Y12682D01*
G01X5902Y12722D01*
G01X5897Y12763D01*
G01X5889Y12803D01*
G01X5880Y12843D01*
G01X5868Y12882D01*
G01X5855Y12921D01*
G01X5839Y12959D01*
G01X5821Y12996D01*
G01X5802Y13032D01*
G01X5780Y13066D01*
G01X5757Y13100D01*
G01X5732Y13133D01*
G01X5706Y13164D01*
G01X5678Y13193D01*
G01X5648Y13222D01*
G01X5617Y13248D01*
G01X5584Y13273D01*
G01X5551Y13296D01*
G01X5516Y13318D01*
G01X5480Y13337D01*
G01X5443Y13355D01*
G01X5405Y13370D01*
G01X5367Y13384D01*
G01X5327Y13396D01*
G01X5288Y13405D01*
G01X5247Y13413D01*
G01X5207Y13418D01*
G01X5166Y13421D01*
G01X5125Y13422D01*
G37*
G36*
G01X3043Y15542D02*
G01X2457Y15542D01*
G01X2457Y14956D01*
G01X2787Y14956D01*
G01X2811Y14957D01*
G01X2834Y14960D01*
G01X2857Y14965D01*
G01X2880Y14973D01*
G01X2901Y14982D01*
G01X2922Y14994D01*
G01X2942Y15007D01*
G01X2960Y15023D01*
G01X2976Y15039D01*
G01X2992Y15057D01*
G01X3005Y15077D01*
G01X3017Y15098D01*
G01X3026Y15119D01*
G01X3034Y15142D01*
G01X3039Y15165D01*
G01X3042Y15188D01*
G01X3043Y15212D01*
G01X3043Y15542D01*
G37*
G36*
G01X2787Y17043D02*
G01X2457Y17043D01*
G01X2457Y16457D01*
G01X3043Y16457D01*
G01X3043Y16787D01*
G01X3042Y16811D01*
G01X3039Y16834D01*
G01X3034Y16857D01*
G01X3026Y16880D01*
G01X3017Y16901D01*
G01X3005Y16922D01*
G01X2992Y16942D01*
G01X2976Y16960D01*
G01X2960Y16976D01*
G01X2942Y16992D01*
G01X2922Y17005D01*
G01X2901Y17017D01*
G01X2880Y17026D01*
G01X2857Y17034D01*
G01X2834Y17039D01*
G01X2811Y17042D01*
G01X2787Y17043D01*
G37*
G36*
G01X1542Y15542D02*
G01X956Y15542D01*
G01X956Y15212D01*
G01X957Y15188D01*
G01X960Y15165D01*
G01X965Y15142D01*
G01X973Y15119D01*
G01X982Y15098D01*
G01X994Y15077D01*
G01X1007Y15057D01*
G01X1023Y15039D01*
G01X1039Y15023D01*
G01X1057Y15007D01*
G01X1077Y14994D01*
G01X1098Y14982D01*
G01X1119Y14973D01*
G01X1142Y14965D01*
G01X1165Y14960D01*
G01X1188Y14957D01*
G01X1212Y14956D01*
G01X1542Y14956D01*
G01X1542Y15542D01*
G37*
G36*
G01X1542Y17043D02*
G01X1212Y17043D01*
G01X1188Y17042D01*
G01X1165Y17039D01*
G01X1142Y17034D01*
G01X1119Y17026D01*
G01X1098Y17017D01*
G01X1077Y17005D01*
G01X1057Y16992D01*
G01X1039Y16976D01*
G01X1023Y16960D01*
G01X1007Y16942D01*
G01X994Y16922D01*
G01X982Y16901D01*
G01X973Y16880D01*
G01X965Y16857D01*
G01X960Y16834D01*
G01X957Y16811D01*
G01X956Y16787D01*
G01X956Y16457D01*
G01X1542Y16457D01*
G01X1542Y17043D01*
G37*
G36*
G01X9449Y10756D02*
G01X9238Y10756D01*
G01X9238Y10313D01*
G01X9706Y10313D01*
G01X9706Y10499D01*
G01X9705Y10523D01*
G01X9702Y10547D01*
G01X9696Y10570D01*
G01X9689Y10592D01*
G01X9679Y10614D01*
G01X9668Y10635D01*
G01X9654Y10654D01*
G01X9639Y10672D01*
G01X9622Y10689D01*
G01X9604Y10704D01*
G01X9584Y10718D01*
G01X9564Y10729D01*
G01X9542Y10739D01*
G01X9520Y10746D01*
G01X9497Y10752D01*
G01X9473Y10755D01*
G01X9449Y10756D01*
G37*
G36*
G01X8561Y10756D02*
G01X8349Y10756D01*
G01X8326Y10755D01*
G01X8302Y10752D01*
G01X8279Y10746D01*
G01X8257Y10739D01*
G01X8235Y10729D01*
G01X8214Y10718D01*
G01X8195Y10704D01*
G01X8177Y10689D01*
G01X8160Y10672D01*
G01X8145Y10654D01*
G01X8131Y10635D01*
G01X8120Y10614D01*
G01X8110Y10592D01*
G01X8103Y10570D01*
G01X8097Y10547D01*
G01X8094Y10523D01*
G01X8093Y10499D01*
G01X8093Y10313D01*
G01X8561Y10313D01*
G01X8561Y10756D01*
G37*
G36*
G01X7549Y10756D02*
G01X7338Y10756D01*
G01X7338Y10313D01*
G01X7806Y10313D01*
G01X7806Y10499D01*
G01X7805Y10523D01*
G01X7802Y10547D01*
G01X7796Y10570D01*
G01X7789Y10592D01*
G01X7779Y10614D01*
G01X7768Y10635D01*
G01X7754Y10654D01*
G01X7739Y10672D01*
G01X7722Y10689D01*
G01X7704Y10704D01*
G01X7684Y10718D01*
G01X7664Y10729D01*
G01X7642Y10739D01*
G01X7620Y10746D01*
G01X7597Y10752D01*
G01X7573Y10755D01*
G01X7549Y10756D01*
G37*
G36*
G01X6661Y10756D02*
G01X6449Y10756D01*
G01X6426Y10755D01*
G01X6402Y10752D01*
G01X6379Y10746D01*
G01X6357Y10739D01*
G01X6335Y10729D01*
G01X6314Y10718D01*
G01X6295Y10704D01*
G01X6277Y10689D01*
G01X6260Y10672D01*
G01X6245Y10654D01*
G01X6231Y10635D01*
G01X6220Y10614D01*
G01X6210Y10592D01*
G01X6203Y10570D01*
G01X6197Y10547D01*
G01X6194Y10523D01*
G01X6193Y10499D01*
G01X6193Y10313D01*
G01X6661Y10313D01*
G01X6661Y10756D01*
G37*
G36*
G01X9806Y13086D02*
G01X9338Y13086D01*
G01X9338Y12643D01*
G01X9549Y12643D01*
G01X9573Y12644D01*
G01X9597Y12647D01*
G01X9620Y12653D01*
G01X9642Y12660D01*
G01X9664Y12670D01*
G01X9684Y12681D01*
G01X9704Y12695D01*
G01X9722Y12710D01*
G01X9739Y12727D01*
G01X9754Y12745D01*
G01X9768Y12764D01*
G01X9779Y12785D01*
G01X9789Y12807D01*
G01X9796Y12829D01*
G01X9802Y12852D01*
G01X9805Y12876D01*
G01X9806Y12900D01*
G01X9806Y13086D01*
G37*
G36*
G01X8661Y13086D02*
G01X8193Y13086D01*
G01X8193Y12900D01*
G01X8194Y12876D01*
G01X8197Y12852D01*
G01X8203Y12829D01*
G01X8210Y12807D01*
G01X8220Y12785D01*
G01X8231Y12764D01*
G01X8245Y12745D01*
G01X8260Y12727D01*
G01X8277Y12710D01*
G01X8295Y12695D01*
G01X8314Y12681D01*
G01X8335Y12670D01*
G01X8357Y12660D01*
G01X8379Y12653D01*
G01X8402Y12647D01*
G01X8426Y12644D01*
G01X8449Y12643D01*
G01X8661Y12643D01*
G01X8661Y13086D01*
G37*
G36*
G01X5501Y10757D02*
G01X5064Y10757D01*
G01X5064Y10464D01*
G01X5758Y10464D01*
G01X5758Y10501D01*
G01X5756Y10524D01*
G01X5753Y10548D01*
G01X5748Y10571D01*
G01X5740Y10593D01*
G01X5731Y10615D01*
G01X5719Y10636D01*
G01X5706Y10655D01*
G01X5691Y10674D01*
G01X5674Y10690D01*
G01X5656Y10705D01*
G01X5636Y10719D01*
G01X5615Y10730D01*
G01X5594Y10740D01*
G01X5571Y10748D01*
G01X5548Y10753D01*
G01X5525Y10756D01*
G01X5501Y10757D01*
G37*
G36*
G01X3937Y10137D02*
G01X3244Y10137D01*
G01X3244Y10101D01*
G01X3246Y10077D01*
G01X3249Y10054D01*
G01X3254Y10031D01*
G01X3262Y10008D01*
G01X3271Y9986D01*
G01X3283Y9966D01*
G01X3296Y9946D01*
G01X3311Y9928D01*
G01X3328Y9911D01*
G01X3346Y9896D01*
G01X3366Y9883D01*
G01X3387Y9871D01*
G01X3408Y9862D01*
G01X3431Y9854D01*
G01X3454Y9849D01*
G01X3477Y9845D01*
G01X3501Y9844D01*
G01X3937Y9844D01*
G01X3937Y10137D01*
G37*
G36*
G01X5758Y10137D02*
G01X5064Y10137D01*
G01X5064Y9844D01*
G01X5501Y9844D01*
G01X5525Y9845D01*
G01X5548Y9849D01*
G01X5571Y9854D01*
G01X5594Y9862D01*
G01X5615Y9871D01*
G01X5636Y9883D01*
G01X5656Y9896D01*
G01X5674Y9911D01*
G01X5691Y9928D01*
G01X5706Y9946D01*
G01X5719Y9966D01*
G01X5731Y9986D01*
G01X5740Y10008D01*
G01X5748Y10031D01*
G01X5753Y10054D01*
G01X5756Y10077D01*
G01X5758Y10101D01*
G01X5758Y10137D01*
G37*
G36*
G01X10611Y10114D02*
G01X10554Y10114D01*
G01X10531Y10113D01*
G01X10507Y10110D01*
G01X10484Y10105D01*
G01X10462Y10097D01*
G01X10440Y10087D01*
G01X10419Y10076D01*
G01X10400Y10062D01*
G01X10382Y10047D01*
G01X10365Y10031D01*
G01X10350Y10012D01*
G01X10336Y9993D01*
G01X10325Y9972D01*
G01X10315Y9950D01*
G01X10308Y9928D01*
G01X10302Y9905D01*
G01X10299Y9881D01*
G01X10298Y9858D01*
G01X10298Y9596D01*
G01X10611Y9596D01*
G01X10611Y10114D01*
G37*

%LPD*%
G36*
G01X13649Y16599D02*
G01X12550Y16599D01*
G01X12536Y16598D01*
G01X12521Y16595D01*
G01X12508Y16590D01*
G01X12495Y16583D01*
G01X12483Y16575D01*
G01X12473Y16564D01*
G01X12465Y16553D01*
G01X12458Y16540D01*
G01X12453Y16527D01*
G01X12449Y16512D01*
G01X12448Y16498D01*
G01X12448Y15438D01*
G01X11701Y15438D01*
G01X11687Y15437D01*
G01X11672Y15434D01*
G01X11659Y15429D01*
G01X11646Y15422D01*
G01X11635Y15413D01*
G01X11624Y15403D01*
G01X11616Y15391D01*
G01X11609Y15379D01*
G01X11604Y15365D01*
G01X11601Y15351D01*
G01X11600Y15336D01*
G01X11599Y13663D01*
G01X11601Y13648D01*
G01X11604Y13634D01*
G01X11609Y13620D01*
G01X11616Y13608D01*
G01X11624Y13596D01*
G01X11635Y13586D01*
G01X11646Y13577D01*
G01X11659Y13570D01*
G01X11672Y13565D01*
G01X11687Y13562D01*
G01X11701Y13561D01*
G01X12448Y13561D01*
G01X12448Y12493D01*
G01X11924Y12493D01*
G01X11900Y12494D01*
G01X11875Y12498D01*
G01X11851Y12504D01*
G01X11828Y12512D01*
G01X11806Y12522D01*
G01X11784Y12535D01*
G01X11764Y12549D01*
G01X11750Y12558D01*
G01X11735Y12565D01*
G01X11718Y12570D01*
G01X11701Y12571D01*
G01X11687Y12570D01*
G01X11672Y12567D01*
G01X11659Y12562D01*
G01X11646Y12555D01*
G01X11635Y12546D01*
G01X11624Y12536D01*
G01X11616Y12524D01*
G01X11609Y12512D01*
G01X11604Y12498D01*
G01X11600Y12484D01*
G01X11599Y12470D01*
G01X11599Y10194D01*
G01X11600Y10180D01*
G01X11604Y10165D01*
G01X11609Y10152D01*
G01X11616Y10139D01*
G01X11624Y10127D01*
G01X11635Y10117D01*
G01X11646Y10108D01*
G01X11672Y10096D01*
G01X11687Y10093D01*
G01X11701Y10092D01*
G01X11719Y10094D01*
G01X11736Y10099D01*
G01X11765Y10107D01*
G01X11794Y10113D01*
G01X11824Y10114D01*
G01X11881Y10114D01*
G01X11881Y9596D01*
G01X11701Y9596D01*
G01X11687Y9595D01*
G01X11672Y9592D01*
G01X11659Y9587D01*
G01X11646Y9580D01*
G01X11635Y9571D01*
G01X11624Y9561D01*
G01X11616Y9550D01*
G01X11609Y9537D01*
G01X11604Y9523D01*
G01X11600Y9509D01*
G01X11599Y9495D01*
G01X11599Y8921D01*
G01X11600Y8906D01*
G01X11604Y8892D01*
G01X11609Y8879D01*
G01X11616Y8866D01*
G01X11624Y8854D01*
G01X11635Y8844D01*
G01X11646Y8835D01*
G01X11659Y8828D01*
G01X11672Y8823D01*
G01X11687Y8820D01*
G01X11701Y8819D01*
G01X11881Y8819D01*
G01X11881Y8601D01*
G01X11882Y8587D01*
G01X11885Y8572D01*
G01X11890Y8559D01*
G01X11897Y8546D01*
G01X11906Y8534D01*
G01X11916Y8524D01*
G01X11928Y8516D01*
G01X11940Y8509D01*
G01X11954Y8503D01*
G01X11968Y8500D01*
G01X11983Y8499D01*
G01X12146Y8499D01*
G01X12161Y8500D01*
G01X12175Y8503D01*
G01X12189Y8509D01*
G01X12201Y8516D01*
G01X12213Y8524D01*
G01X12223Y8534D01*
G01X12232Y8546D01*
G01X12239Y8559D01*
G01X12244Y8572D01*
G01X12247Y8587D01*
G01X12248Y8601D01*
G01X12248Y8819D01*
G01X12398Y8819D01*
G01X12412Y8820D01*
G01X12427Y8823D01*
G01X12440Y8828D01*
G01X12453Y8835D01*
G01X12465Y8844D01*
G01X12475Y8854D01*
G01X12483Y8866D01*
G01X12490Y8879D01*
G01X12495Y8892D01*
G01X12499Y8906D01*
G01X12500Y8921D01*
G01X12500Y9495D01*
G01X12499Y9509D01*
G01X12495Y9523D01*
G01X12490Y9537D01*
G01X12483Y9550D01*
G01X12475Y9561D01*
G01X12465Y9571D01*
G01X12453Y9580D01*
G01X12440Y9587D01*
G01X12427Y9592D01*
G01X12412Y9595D01*
G01X12398Y9596D01*
G01X12248Y9596D01*
G01X12248Y10114D01*
G01X12305Y10114D01*
G01X12338Y10112D01*
G01X12371Y10105D01*
G01X12398Y10102D01*
G01X12412Y10103D01*
G01X12427Y10106D01*
G01X12440Y10111D01*
G01X12453Y10118D01*
G01X12465Y10127D01*
G01X12475Y10137D01*
G01X12483Y10149D01*
G01X12490Y10161D01*
G01X12495Y10175D01*
G01X12499Y10189D01*
G01X12500Y10203D01*
G01X12500Y11400D01*
G01X13399Y12299D01*
G01X13649Y12299D01*
G01X13663Y12301D01*
G01X13677Y12304D01*
G01X13691Y12309D01*
G01X13704Y12316D01*
G01X13715Y12324D01*
G01X13726Y12335D01*
G01X13734Y12346D01*
G01X13741Y12359D01*
G01X13746Y12372D01*
G01X13749Y12387D01*
G01X13750Y12401D01*
G01X13750Y13561D01*
G01X14298Y13561D01*
G01X14312Y13562D01*
G01X14327Y13565D01*
G01X14340Y13570D01*
G01X14353Y13577D01*
G01X14364Y13586D01*
G01X14375Y13596D01*
G01X14383Y13608D01*
G01X14390Y13620D01*
G01X14395Y13634D01*
G01X14398Y13648D01*
G01X14399Y13663D01*
G01X14399Y15336D01*
G01X14398Y15351D01*
G01X14395Y15365D01*
G01X14390Y15379D01*
G01X14383Y15391D01*
G01X14375Y15403D01*
G01X14364Y15413D01*
G01X14353Y15422D01*
G01X14340Y15429D01*
G01X14327Y15434D01*
G01X14312Y15437D01*
G01X14298Y15438D01*
G01X13750Y15438D01*
G01X13750Y16498D01*
G01X13749Y16512D01*
G01X13746Y16527D01*
G01X13741Y16540D01*
G01X13734Y16553D01*
G01X13726Y16564D01*
G01X13715Y16575D01*
G01X13704Y16583D01*
G01X13691Y16590D01*
G01X13677Y16595D01*
G01X13663Y16598D01*
G01X13649Y16599D01*
G37*

%LPD*%
G36*
G01X26957Y6999D02*
G01X25042Y6999D01*
G01X25026Y6998D01*
G01X25010Y6995D01*
G01X24995Y6988D01*
G01X24982Y6980D01*
G01X24970Y6970D01*
G01X24500Y6499D01*
G01X23999Y6000D01*
G01X23791Y6000D01*
G01X23777Y5998D01*
G01X23763Y5995D01*
G01X23750Y5990D01*
G01X23737Y5984D01*
G01X23716Y5972D01*
G01X23694Y5962D01*
G01X23671Y5954D01*
G01X23647Y5948D01*
G01X23623Y5945D01*
G01X23599Y5944D01*
G01X23000Y5944D01*
G01X22976Y5945D01*
G01X22952Y5948D01*
G01X22928Y5954D01*
G01X22905Y5962D01*
G01X22883Y5972D01*
G01X22862Y5984D01*
G01X22849Y5990D01*
G01X22836Y5995D01*
G01X22822Y5998D01*
G01X22808Y6000D01*
G01X21912Y6000D01*
G01X21898Y5998D01*
G01X21883Y5995D01*
G01X21870Y5990D01*
G01X21857Y5984D01*
G01X21836Y5972D01*
G01X21814Y5962D01*
G01X21791Y5954D01*
G01X21768Y5948D01*
G01X21744Y5945D01*
G01X21720Y5944D01*
G01X21286Y5944D01*
G01X21270Y5942D01*
G01X21254Y5939D01*
G01X21239Y5932D01*
G01X21226Y5924D01*
G01X21214Y5914D01*
G01X21029Y5729D01*
G01X21019Y5717D01*
G01X21011Y5704D01*
G01X21004Y5689D01*
G01X21001Y5673D01*
G01X20999Y5657D01*
G01X20999Y4861D01*
G01X21000Y4847D01*
G01X21004Y4832D01*
G01X21009Y4819D01*
G01X21016Y4806D01*
G01X21024Y4794D01*
G01X21035Y4784D01*
G01X21046Y4776D01*
G01X21059Y4769D01*
G01X21072Y4764D01*
G01X21087Y4760D01*
G01X21101Y4759D01*
G01X21106Y4760D01*
G01X21207Y4760D01*
G01X21207Y4267D01*
G01X21101Y4267D01*
G01X21087Y4266D01*
G01X21072Y4263D01*
G01X21059Y4258D01*
G01X21046Y4251D01*
G01X21035Y4242D01*
G01X21024Y4232D01*
G01X21016Y4220D01*
G01X21009Y4208D01*
G01X21004Y4194D01*
G01X21000Y4180D01*
G01X20999Y4166D01*
G01X20999Y3642D01*
G01X21000Y3628D01*
G01X21004Y3614D01*
G01X21009Y3600D01*
G01X21016Y3587D01*
G01X21024Y3576D01*
G01X21035Y3566D01*
G01X21046Y3557D01*
G01X21059Y3550D01*
G01X21072Y3545D01*
G01X21087Y3542D01*
G01X21101Y3541D01*
G01X21207Y3541D01*
G01X21207Y3301D01*
G01X21208Y3287D01*
G01X21211Y3272D01*
G01X21216Y3259D01*
G01X21223Y3246D01*
G01X21231Y3234D01*
G01X21242Y3224D01*
G01X21253Y3216D01*
G01X21266Y3209D01*
G01X21280Y3204D01*
G01X21294Y3200D01*
G01X21308Y3199D01*
G01X21532Y3199D01*
G01X21546Y3200D01*
G01X21560Y3204D01*
G01X21574Y3209D01*
G01X21587Y3216D01*
G01X21598Y3224D01*
G01X21608Y3234D01*
G01X21617Y3246D01*
G01X21624Y3259D01*
G01X21629Y3272D01*
G01X21632Y3287D01*
G01X21633Y3301D01*
G01X21633Y3541D01*
G01X21898Y3541D01*
G01X21912Y3542D01*
G01X21926Y3545D01*
G01X21940Y3550D01*
G01X21953Y3557D01*
G01X21964Y3566D01*
G01X21975Y3576D01*
G01X21983Y3587D01*
G01X21990Y3600D01*
G01X21995Y3614D01*
G01X21998Y3628D01*
G01X21999Y3642D01*
G01X21999Y4166D01*
G01X21998Y4180D01*
G01X21995Y4194D01*
G01X21990Y4208D01*
G01X21983Y4220D01*
G01X21975Y4232D01*
G01X21964Y4242D01*
G01X21953Y4251D01*
G01X21940Y4258D01*
G01X21926Y4263D01*
G01X21912Y4266D01*
G01X21898Y4267D01*
G01X21633Y4267D01*
G01X21633Y4760D01*
G01X21720Y4760D01*
G01X21744Y4759D01*
G01X21769Y4755D01*
G01X21793Y4749D01*
G01X21817Y4741D01*
G01X21839Y4730D01*
G01X21861Y4718D01*
G01X21881Y4703D01*
G01X21899Y4687D01*
G01X21916Y4668D01*
G01X21931Y4649D01*
G01X21944Y4628D01*
G01X21953Y4615D01*
G01X21963Y4603D01*
G01X21975Y4593D01*
G01X21988Y4585D01*
G01X22003Y4580D01*
G01X22018Y4576D01*
G01X22033Y4575D01*
G01X22049Y4576D01*
G01X22064Y4580D01*
G01X22079Y4586D01*
G01X22093Y4594D01*
G01X22105Y4605D01*
G01X22699Y5199D01*
G01X23800Y5199D01*
G01X24970Y4029D01*
G01X24982Y4019D01*
G01X24995Y4011D01*
G01X25010Y4004D01*
G01X25026Y4001D01*
G01X25042Y3999D01*
G01X26957Y3999D01*
G01X26973Y4001D01*
G01X26989Y4004D01*
G01X27004Y4011D01*
G01X27017Y4019D01*
G01X27029Y4029D01*
G01X27470Y4470D01*
G01X27480Y4482D01*
G01X27488Y4495D01*
G01X27495Y4510D01*
G01X27498Y4526D01*
G01X27499Y4542D01*
G01X27499Y6457D01*
G01X27498Y6473D01*
G01X27495Y6489D01*
G01X27488Y6504D01*
G01X27480Y6517D01*
G01X27470Y6529D01*
G01X27029Y6970D01*
G01X27017Y6980D01*
G01X27004Y6988D01*
G01X26989Y6995D01*
G01X26973Y6998D01*
G01X26957Y6999D01*
G37*

%LPC*%
G36*
G01X27043Y5042D02*
G01X26457Y5042D01*
G01X26457Y4456D01*
G01X26787Y4456D01*
G01X26811Y4457D01*
G01X26834Y4460D01*
G01X26857Y4465D01*
G01X26880Y4473D01*
G01X26901Y4482D01*
G01X26922Y4494D01*
G01X26942Y4507D01*
G01X26960Y4523D01*
G01X26976Y4539D01*
G01X26992Y4557D01*
G01X27005Y4577D01*
G01X27017Y4598D01*
G01X27026Y4619D01*
G01X27034Y4642D01*
G01X27039Y4665D01*
G01X27042Y4688D01*
G01X27043Y4712D01*
G01X27043Y5042D01*
G37*
G36*
G01X25542Y5042D02*
G01X24956Y5042D01*
G01X24956Y4712D01*
G01X24957Y4688D01*
G01X24960Y4665D01*
G01X24965Y4642D01*
G01X24973Y4619D01*
G01X24982Y4598D01*
G01X24994Y4577D01*
G01X25007Y4557D01*
G01X25023Y4539D01*
G01X25039Y4523D01*
G01X25057Y4507D01*
G01X25077Y4494D01*
G01X25098Y4482D01*
G01X25119Y4473D01*
G01X25142Y4465D01*
G01X25165Y4460D01*
G01X25188Y4457D01*
G01X25212Y4456D01*
G01X25542Y4456D01*
G01X25542Y5042D01*
G37*
G36*
G01X26787Y6543D02*
G01X26457Y6543D01*
G01X26457Y5957D01*
G01X27043Y5957D01*
G01X27043Y6287D01*
G01X27042Y6311D01*
G01X27039Y6334D01*
G01X27034Y6357D01*
G01X27026Y6380D01*
G01X27017Y6401D01*
G01X27005Y6422D01*
G01X26992Y6441D01*
G01X26976Y6460D01*
G01X26960Y6476D01*
G01X26942Y6492D01*
G01X26922Y6505D01*
G01X26901Y6517D01*
G01X26880Y6526D01*
G01X26857Y6534D01*
G01X26834Y6539D01*
G01X26811Y6542D01*
G01X26787Y6543D01*
G37*
G36*
G01X25542Y6543D02*
G01X25212Y6543D01*
G01X25188Y6542D01*
G01X25165Y6539D01*
G01X25142Y6534D01*
G01X25119Y6526D01*
G01X25098Y6517D01*
G01X25077Y6505D01*
G01X25057Y6492D01*
G01X25039Y6476D01*
G01X25023Y6460D01*
G01X25007Y6441D01*
G01X24994Y6422D01*
G01X24982Y6401D01*
G01X24973Y6380D01*
G01X24965Y6357D01*
G01X24960Y6334D01*
G01X24957Y6311D01*
G01X24956Y6287D01*
G01X24956Y5957D01*
G01X25542Y5957D01*
G01X25542Y6543D01*
G37*

%LPD*%
G36*
G01X23411Y4899D02*
G01X23188Y4899D01*
G01X23173Y4898D01*
G01X23159Y4895D01*
G01X23146Y4890D01*
G01X23133Y4883D01*
G01X23121Y4875D01*
G01X23111Y4864D01*
G01X23102Y4853D01*
G01X23095Y4840D01*
G01X23090Y4826D01*
G01X23087Y4812D01*
G01X23086Y4798D01*
G01X23086Y4267D01*
G01X22743Y4267D01*
G01X22743Y4498D01*
G01X22742Y4512D01*
G01X22739Y4526D01*
G01X22734Y4540D01*
G01X22727Y4553D01*
G01X22718Y4564D01*
G01X22708Y4575D01*
G01X22697Y4583D01*
G01X22684Y4590D01*
G01X22670Y4595D01*
G01X22656Y4598D01*
G01X22642Y4599D01*
G01X22626Y4598D01*
G01X22610Y4594D01*
G01X22596Y4588D01*
G01X22582Y4580D01*
G01X22570Y4570D01*
G01X22529Y4529D01*
G01X22519Y4517D01*
G01X22511Y4503D01*
G01X22504Y4489D01*
G01X22501Y4473D01*
G01X22500Y4457D01*
G01X22500Y1042D01*
G01X22501Y1026D01*
G01X22504Y1010D01*
G01X22511Y995D01*
G01X22519Y982D01*
G01X22529Y970D01*
G01X22970Y529D01*
G01X22982Y519D01*
G01X22995Y511D01*
G01X23010Y504D01*
G01X23026Y501D01*
G01X23042Y499D01*
G01X26957Y499D01*
G01X26973Y501D01*
G01X26989Y504D01*
G01X27004Y511D01*
G01X27017Y519D01*
G01X27029Y529D01*
G01X27470Y970D01*
G01X27480Y982D01*
G01X27488Y995D01*
G01X27495Y1010D01*
G01X27498Y1026D01*
G01X27499Y1042D01*
G01X27500Y2957D01*
G01X27498Y2973D01*
G01X27495Y2989D01*
G01X27488Y3004D01*
G01X27480Y3017D01*
G01X27470Y3029D01*
G01X27029Y3470D01*
G01X27017Y3480D01*
G01X27003Y3488D01*
G01X26989Y3494D01*
G01X26973Y3498D01*
G01X26957Y3499D01*
G01X24500Y3499D01*
G01X23999Y4000D01*
G01X23999Y4166D01*
G01X23998Y4180D01*
G01X23995Y4194D01*
G01X23990Y4208D01*
G01X23983Y4220D01*
G01X23975Y4232D01*
G01X23964Y4242D01*
G01X23953Y4251D01*
G01X23940Y4258D01*
G01X23926Y4263D01*
G01X23912Y4266D01*
G01X23898Y4267D01*
G01X23513Y4267D01*
G01X23513Y4798D01*
G01X23512Y4812D01*
G01X23509Y4826D01*
G01X23504Y4840D01*
G01X23497Y4853D01*
G01X23488Y4864D01*
G01X23478Y4875D01*
G01X23466Y4883D01*
G01X23454Y4890D01*
G01X23440Y4895D01*
G01X23426Y4898D01*
G01X23411Y4899D01*
G37*

%LPC*%
G36*
G01X25542Y1542D02*
G01X24956Y1542D01*
G01X24956Y1212D01*
G01X24957Y1188D01*
G01X24960Y1165D01*
G01X24965Y1142D01*
G01X24973Y1119D01*
G01X24982Y1098D01*
G01X24994Y1077D01*
G01X25007Y1057D01*
G01X25023Y1039D01*
G01X25039Y1023D01*
G01X25057Y1007D01*
G01X25077Y994D01*
G01X25098Y982D01*
G01X25119Y973D01*
G01X25142Y965D01*
G01X25165Y960D01*
G01X25188Y957D01*
G01X25212Y956D01*
G01X25542Y956D01*
G01X25542Y1542D01*
G37*
G36*
G01X27043Y1542D02*
G01X26457Y1542D01*
G01X26457Y956D01*
G01X26787Y956D01*
G01X26811Y957D01*
G01X26834Y960D01*
G01X26857Y965D01*
G01X26880Y973D01*
G01X26901Y982D01*
G01X26922Y994D01*
G01X26942Y1007D01*
G01X26960Y1023D01*
G01X26976Y1039D01*
G01X26992Y1057D01*
G01X27005Y1077D01*
G01X27017Y1098D01*
G01X27026Y1119D01*
G01X27034Y1142D01*
G01X27039Y1165D01*
G01X27042Y1188D01*
G01X27043Y1212D01*
G01X27043Y1542D01*
G37*
G36*
G01X25542Y3043D02*
G01X25212Y3043D01*
G01X25188Y3042D01*
G01X25165Y3039D01*
G01X25142Y3034D01*
G01X25119Y3026D01*
G01X25098Y3017D01*
G01X25077Y3005D01*
G01X25057Y2992D01*
G01X25039Y2976D01*
G01X25023Y2960D01*
G01X25007Y2942D01*
G01X24994Y2922D01*
G01X24982Y2901D01*
G01X24973Y2880D01*
G01X24965Y2857D01*
G01X24960Y2834D01*
G01X24957Y2811D01*
G01X24956Y2787D01*
G01X24956Y2457D01*
G01X25542Y2457D01*
G01X25542Y3043D01*
G37*
G36*
G01X26787Y3043D02*
G01X26457Y3043D01*
G01X26457Y2457D01*
G01X27043Y2457D01*
G01X27043Y2787D01*
G01X27042Y2811D01*
G01X27039Y2834D01*
G01X27034Y2857D01*
G01X27026Y2880D01*
G01X27017Y2901D01*
G01X27005Y2922D01*
G01X26992Y2942D01*
G01X26976Y2960D01*
G01X26960Y2976D01*
G01X26942Y2992D01*
G01X26922Y3005D01*
G01X26901Y3017D01*
G01X26880Y3026D01*
G01X26857Y3034D01*
G01X26834Y3039D01*
G01X26811Y3042D01*
G01X26787Y3043D01*
G37*
G36*
G01X23856Y3541D02*
G01X23513Y3541D01*
G01X23513Y3048D01*
G01X23599Y3048D01*
G01X23623Y3049D01*
G01X23646Y3052D01*
G01X23669Y3058D01*
G01X23692Y3065D01*
G01X23714Y3075D01*
G01X23734Y3086D01*
G01X23754Y3100D01*
G01X23772Y3115D01*
G01X23789Y3132D01*
G01X23804Y3150D01*
G01X23817Y3169D01*
G01X23829Y3190D01*
G01X23838Y3212D01*
G01X23846Y3234D01*
G01X23851Y3257D01*
G01X23855Y3281D01*
G01X23856Y3304D01*
G01X23856Y3541D01*
G37*
G36*
G01X23086Y3541D02*
G01X22743Y3541D01*
G01X22743Y3304D01*
G01X22744Y3281D01*
G01X22748Y3257D01*
G01X22753Y3234D01*
G01X22761Y3212D01*
G01X22770Y3190D01*
G01X22782Y3169D01*
G01X22795Y3150D01*
G01X22810Y3132D01*
G01X22827Y3115D01*
G01X22845Y3100D01*
G01X22865Y3086D01*
G01X22885Y3075D01*
G01X22907Y3065D01*
G01X22930Y3058D01*
G01X22953Y3052D01*
G01X22976Y3049D01*
G01X23000Y3048D01*
G01X23086Y3048D01*
G01X23086Y3541D01*
G37*

%LPD*%
G36*
G01X1700Y13499D02*
G01X1042Y13499D01*
G01X1026Y13498D01*
G01X1010Y13495D01*
G01X995Y13488D01*
G01X982Y13480D01*
G01X970Y13470D01*
G01X780Y13280D01*
G01X769Y13268D01*
G01X761Y13254D01*
G01X755Y13239D01*
G01X751Y13224D01*
G01X750Y13208D01*
G01X750Y12967D01*
G01X601Y12967D01*
G01X587Y12966D01*
G01X572Y12963D01*
G01X546Y12951D01*
G01X535Y12942D01*
G01X524Y12932D01*
G01X516Y12920D01*
G01X509Y12907D01*
G01X504Y12894D01*
G01X501Y12879D01*
G01X499Y12865D01*
G01X499Y12416D01*
G01X501Y12402D01*
G01X504Y12388D01*
G01X509Y12374D01*
G01X516Y12361D01*
G01X524Y12350D01*
G01X535Y12339D01*
G01X546Y12331D01*
G01X559Y12324D01*
G01X572Y12319D01*
G01X587Y12316D01*
G01X601Y12315D01*
G01X750Y12315D01*
G01X750Y11869D01*
G01X710Y11877D01*
G01X671Y11886D01*
G01X633Y11898D01*
G01X617Y11902D01*
G01X601Y11903D01*
G01X587Y11902D01*
G01X572Y11899D01*
G01X559Y11894D01*
G01X546Y11887D01*
G01X535Y11878D01*
G01X524Y11868D01*
G01X516Y11856D01*
G01X509Y11844D01*
G01X504Y11830D01*
G01X501Y11816D01*
G01X499Y11801D01*
G01X499Y6182D01*
G01X501Y6167D01*
G01X504Y6153D01*
G01X509Y6140D01*
G01X516Y6127D01*
G01X524Y6115D01*
G01X535Y6105D01*
G01X546Y6096D01*
G01X559Y6089D01*
G01X572Y6084D01*
G01X587Y6081D01*
G01X601Y6080D01*
G01X620Y6082D01*
G01X639Y6087D01*
G01X678Y6102D01*
G01X718Y6114D01*
G01X759Y6124D01*
G01X800Y6132D01*
G01X800Y5687D01*
G01X601Y5687D01*
G01X587Y5686D01*
G01X572Y5683D01*
G01X559Y5678D01*
G01X546Y5671D01*
G01X535Y5662D01*
G01X524Y5652D01*
G01X516Y5640D01*
G01X509Y5627D01*
G01X504Y5614D01*
G01X501Y5600D01*
G01X499Y5585D01*
G01X499Y5136D01*
G01X501Y5122D01*
G01X504Y5108D01*
G01X509Y5094D01*
G01X516Y5081D01*
G01X524Y5070D01*
G01X535Y5060D01*
G01X546Y5051D01*
G01X559Y5044D01*
G01X572Y5039D01*
G01X587Y5036D01*
G01X601Y5035D01*
G01X800Y5035D01*
G01X800Y4590D01*
G01X759Y4597D01*
G01X718Y4608D01*
G01X678Y4620D01*
G01X639Y4634D01*
G01X620Y4640D01*
G01X601Y4641D01*
G01X587Y4640D01*
G01X572Y4637D01*
G01X559Y4632D01*
G01X546Y4625D01*
G01X535Y4617D01*
G01X524Y4606D01*
G01X516Y4595D01*
G01X509Y4582D01*
G01X504Y4568D01*
G01X501Y4554D01*
G01X499Y4540D01*
G01X499Y1042D01*
G01X501Y1026D01*
G01X504Y1010D01*
G01X511Y995D01*
G01X519Y982D01*
G01X529Y970D01*
G01X970Y529D01*
G01X982Y519D01*
G01X995Y511D01*
G01X1010Y504D01*
G01X1026Y501D01*
G01X1042Y499D01*
G01X3457Y499D01*
G01X3473Y501D01*
G01X3489Y504D01*
G01X3504Y511D01*
G01X3517Y519D01*
G01X3529Y529D01*
G01X3970Y970D01*
G01X3980Y982D01*
G01X3988Y995D01*
G01X3995Y1010D01*
G01X3998Y1026D01*
G01X3999Y1042D01*
G01X3999Y4199D01*
G01X4329Y4529D01*
G01X4339Y4541D01*
G01X4347Y4554D01*
G01X4361Y4563D01*
G01X4373Y4573D01*
G01X4500Y4700D01*
G01X5150Y4700D01*
G01X5164Y4701D01*
G01X5178Y4704D01*
G01X5192Y4709D01*
G01X5205Y4716D01*
G01X5216Y4724D01*
G01X5226Y4735D01*
G01X5235Y4746D01*
G01X5242Y4759D01*
G01X5247Y4773D01*
G01X5250Y4787D01*
G01X5251Y4801D01*
G01X5251Y5155D01*
G01X5835Y5155D01*
G01X5816Y5116D01*
G01X5794Y5077D01*
G01X5771Y5041D01*
G01X5745Y5005D01*
G01X5718Y4971D01*
G01X5688Y4939D01*
G01X5657Y4908D01*
G01X5624Y4879D01*
G01X5613Y4869D01*
G01X5604Y4857D01*
G01X5597Y4844D01*
G01X5592Y4830D01*
G01X5588Y4816D01*
G01X5587Y4801D01*
G01X5588Y4787D01*
G01X5591Y4773D01*
G01X5597Y4759D01*
G01X5604Y4746D01*
G01X5612Y4735D01*
G01X5622Y4724D01*
G01X5634Y4716D01*
G01X5647Y4709D01*
G01X5660Y4704D01*
G01X5675Y4701D01*
G01X5689Y4700D01*
G01X6616Y4700D01*
G01X6630Y4701D01*
G01X6644Y4704D01*
G01X6658Y4709D01*
G01X6670Y4716D01*
G01X6682Y4724D01*
G01X6692Y4735D01*
G01X6701Y4746D01*
G01X6708Y4759D01*
G01X6713Y4773D01*
G01X6716Y4787D01*
G01X6717Y4801D01*
G01X6716Y4816D01*
G01X6713Y4831D01*
G01X6707Y4845D01*
G01X6700Y4858D01*
G01X6691Y4870D01*
G01X6680Y4880D01*
G01X6667Y4889D01*
G01X6654Y4895D01*
G01X6639Y4900D01*
G01X6616Y4907D01*
G01X6593Y4916D01*
G01X6572Y4927D01*
G01X6551Y4940D01*
G01X6532Y4955D01*
G01X6514Y4972D01*
G01X6498Y4991D01*
G01X6484Y5010D01*
G01X6472Y5032D01*
G01X6462Y5054D01*
G01X6454Y5077D01*
G01X6448Y5101D01*
G01X6444Y5125D01*
G01X6443Y5149D01*
G01X6443Y5411D01*
G01X6986Y5411D01*
G01X6986Y4801D01*
G01X6987Y4787D01*
G01X6990Y4773D01*
G01X6995Y4759D01*
G01X7002Y4746D01*
G01X7011Y4735D01*
G01X7021Y4724D01*
G01X7033Y4716D01*
G01X7046Y4709D01*
G01X7059Y4704D01*
G01X7073Y4701D01*
G01X7088Y4700D01*
G01X7711Y4700D01*
G01X7726Y4701D01*
G01X7740Y4704D01*
G01X7754Y4709D01*
G01X7766Y4716D01*
G01X7778Y4724D01*
G01X7788Y4735D01*
G01X7797Y4746D01*
G01X7804Y4759D01*
G01X7809Y4773D01*
G01X7812Y4787D01*
G01X7813Y4801D01*
G01X7813Y5411D01*
G01X8356Y5411D01*
G01X8356Y5149D01*
G01X8355Y5125D01*
G01X8351Y5101D01*
G01X8345Y5077D01*
G01X8337Y5054D01*
G01X8327Y5032D01*
G01X8315Y5010D01*
G01X8301Y4991D01*
G01X8285Y4972D01*
G01X8267Y4955D01*
G01X8248Y4940D01*
G01X8227Y4927D01*
G01X8206Y4916D01*
G01X8183Y4907D01*
G01X8160Y4900D01*
G01X8145Y4895D01*
G01X8132Y4889D01*
G01X8119Y4880D01*
G01X8109Y4870D01*
G01X8099Y4858D01*
G01X8092Y4845D01*
G01X8086Y4831D01*
G01X8083Y4816D01*
G01X8082Y4801D01*
G01X8083Y4787D01*
G01X8086Y4773D01*
G01X8091Y4759D01*
G01X8098Y4746D01*
G01X8107Y4735D01*
G01X8117Y4724D01*
G01X8129Y4716D01*
G01X8141Y4709D01*
G01X8155Y4704D01*
G01X8169Y4701D01*
G01X8183Y4700D01*
G01X10691Y4700D01*
G01X10706Y4701D01*
G01X10720Y4704D01*
G01X10734Y4709D01*
G01X10746Y4716D01*
G01X10758Y4724D01*
G01X10768Y4735D01*
G01X10777Y4746D01*
G01X10784Y4759D01*
G01X10789Y4773D01*
G01X10792Y4787D01*
G01X10793Y4801D01*
G01X10792Y4817D01*
G01X10788Y4832D01*
G01X10783Y4846D01*
G01X10775Y4860D01*
G01X10765Y4872D01*
G01X10748Y4890D01*
G01X10734Y4910D01*
G01X10722Y4931D01*
G01X10712Y4954D01*
G01X10703Y4977D01*
G01X10698Y5001D01*
G01X10694Y5025D01*
G01X10693Y5050D01*
G01X10693Y5611D01*
G01X11761Y5611D01*
G01X11761Y4801D01*
G01X11762Y4787D01*
G01X11765Y4773D01*
G01X11770Y4759D01*
G01X11777Y4746D01*
G01X11786Y4735D01*
G01X11796Y4724D01*
G01X11808Y4716D01*
G01X11820Y4709D01*
G01X11834Y4704D01*
G01X11848Y4701D01*
G01X11863Y4700D01*
G01X13536Y4700D01*
G01X13551Y4701D01*
G01X13565Y4704D01*
G01X13579Y4709D01*
G01X13591Y4716D01*
G01X13603Y4724D01*
G01X13613Y4735D01*
G01X13622Y4746D01*
G01X13629Y4759D01*
G01X13634Y4773D01*
G01X13637Y4787D01*
G01X13638Y4801D01*
G01X13638Y5611D01*
G01X14706Y5611D01*
G01X14706Y5151D01*
G01X14707Y5137D01*
G01X14710Y5123D01*
G01X14715Y5109D01*
G01X14722Y5096D01*
G01X14731Y5085D01*
G01X14741Y5075D01*
G01X14753Y5066D01*
G01X14765Y5059D01*
G01X14779Y5054D01*
G01X14793Y5051D01*
G01X14808Y5050D01*
G01X14824Y5051D01*
G01X14839Y5055D01*
G01X14854Y5061D01*
G01X14867Y5069D01*
G01X14880Y5079D01*
G01X14970Y5170D01*
G01X14980Y5182D01*
G01X14988Y5195D01*
G01X14994Y5210D01*
G01X14998Y5226D01*
G01X14999Y5242D01*
G01X14999Y7357D01*
G01X14998Y7373D01*
G01X14994Y7389D01*
G01X14988Y7404D01*
G01X14980Y7417D01*
G01X14970Y7429D01*
G01X14880Y7520D01*
G01X14867Y7530D01*
G01X14854Y7538D01*
G01X14839Y7544D01*
G01X14824Y7548D01*
G01X14808Y7549D01*
G01X14793Y7548D01*
G01X14779Y7545D01*
G01X14765Y7540D01*
G01X14753Y7533D01*
G01X14741Y7524D01*
G01X14731Y7514D01*
G01X14722Y7503D01*
G01X14715Y7490D01*
G01X14710Y7476D01*
G01X14707Y7462D01*
G01X14706Y7448D01*
G01X14706Y6988D01*
G01X13638Y6988D01*
G01X13638Y7798D01*
G01X13637Y7812D01*
G01X13634Y7826D01*
G01X13629Y7840D01*
G01X13622Y7853D01*
G01X13613Y7864D01*
G01X13603Y7875D01*
G01X13591Y7883D01*
G01X13579Y7890D01*
G01X13565Y7895D01*
G01X13551Y7898D01*
G01X13536Y7899D01*
G01X11863Y7899D01*
G01X11848Y7898D01*
G01X11834Y7895D01*
G01X11820Y7890D01*
G01X11808Y7883D01*
G01X11796Y7875D01*
G01X11786Y7864D01*
G01X11777Y7853D01*
G01X11770Y7840D01*
G01X11765Y7826D01*
G01X11762Y7812D01*
G01X11761Y7798D01*
G01X11761Y6988D01*
G01X10693Y6988D01*
G01X10693Y7549D01*
G01X10694Y7574D01*
G01X10698Y7598D01*
G01X10703Y7622D01*
G01X10712Y7645D01*
G01X10722Y7668D01*
G01X10734Y7689D01*
G01X10748Y7709D01*
G01X10765Y7727D01*
G01X10775Y7739D01*
G01X10783Y7753D01*
G01X10788Y7767D01*
G01X10792Y7782D01*
G01X10793Y7798D01*
G01X10792Y7812D01*
G01X10789Y7826D01*
G01X10784Y7840D01*
G01X10777Y7853D01*
G01X10768Y7864D01*
G01X10758Y7875D01*
G01X10746Y7883D01*
G01X10734Y7890D01*
G01X10720Y7895D01*
G01X10706Y7898D01*
G01X10691Y7899D01*
G01X10599Y7899D01*
G01X9880Y8619D01*
G01X9867Y8630D01*
G01X9854Y8638D01*
G01X9839Y8644D01*
G01X9824Y8648D01*
G01X9808Y8649D01*
G01X9793Y8648D01*
G01X9779Y8645D01*
G01X9765Y8640D01*
G01X9753Y8633D01*
G01X9741Y8624D01*
G01X9731Y8614D01*
G01X9722Y8603D01*
G01X9715Y8590D01*
G01X9710Y8576D01*
G01X9707Y8562D01*
G01X9706Y8548D01*
G01X9706Y8513D01*
G01X9238Y8513D01*
G01X9238Y8898D01*
G01X9237Y8912D01*
G01X9234Y8927D01*
G01X9229Y8940D01*
G01X9222Y8953D01*
G01X9213Y8964D01*
G01X9203Y8975D01*
G01X9191Y8983D01*
G01X9179Y8990D01*
G01X9165Y8995D01*
G01X9151Y8998D01*
G01X9136Y8999D01*
G01X8663Y8999D01*
G01X8648Y8998D01*
G01X8634Y8995D01*
G01X8620Y8990D01*
G01X8608Y8983D01*
G01X8596Y8975D01*
G01X8586Y8964D01*
G01X8577Y8953D01*
G01X8570Y8940D01*
G01X8565Y8927D01*
G01X8562Y8912D01*
G01X8561Y8898D01*
G01X8561Y8513D01*
G01X8093Y8513D01*
G01X8093Y8699D01*
G01X8094Y8725D01*
G01X8098Y8749D01*
G01X8104Y8774D01*
G01X8112Y8797D01*
G01X8123Y8820D01*
G01X8136Y8842D01*
G01X8143Y8855D01*
G01X8149Y8868D01*
G01X8152Y8883D01*
G01X8153Y8898D01*
G01X8152Y8912D01*
G01X8149Y8927D01*
G01X8144Y8940D01*
G01X8137Y8953D01*
G01X8128Y8964D01*
G01X8118Y8975D01*
G01X8106Y8983D01*
G01X8094Y8990D01*
G01X8080Y8995D01*
G01X8066Y8998D01*
G01X8051Y8999D01*
G01X7848Y8999D01*
G01X7833Y8998D01*
G01X7819Y8995D01*
G01X7805Y8990D01*
G01X7793Y8983D01*
G01X7781Y8975D01*
G01X7771Y8964D01*
G01X7762Y8953D01*
G01X7755Y8940D01*
G01X7750Y8927D01*
G01X7747Y8912D01*
G01X7746Y8898D01*
G01X7747Y8883D01*
G01X7750Y8868D01*
G01X7756Y8855D01*
G01X7763Y8842D01*
G01X7776Y8820D01*
G01X7787Y8797D01*
G01X7795Y8774D01*
G01X7801Y8749D01*
G01X7805Y8725D01*
G01X7806Y8699D01*
G01X7806Y8513D01*
G01X7338Y8513D01*
G01X7338Y8898D01*
G01X7337Y8912D01*
G01X7334Y8927D01*
G01X7329Y8940D01*
G01X7322Y8953D01*
G01X7313Y8964D01*
G01X7303Y8975D01*
G01X7291Y8983D01*
G01X7279Y8990D01*
G01X7265Y8995D01*
G01X7251Y8998D01*
G01X7236Y8999D01*
G01X6763Y8999D01*
G01X6748Y8998D01*
G01X6734Y8995D01*
G01X6720Y8990D01*
G01X6708Y8983D01*
G01X6696Y8975D01*
G01X6686Y8964D01*
G01X6677Y8953D01*
G01X6670Y8940D01*
G01X6665Y8927D01*
G01X6662Y8912D01*
G01X6661Y8898D01*
G01X6661Y8513D01*
G01X6193Y8513D01*
G01X6193Y8699D01*
G01X6194Y8725D01*
G01X6198Y8749D01*
G01X6204Y8774D01*
G01X6212Y8797D01*
G01X6223Y8820D01*
G01X6236Y8842D01*
G01X6243Y8855D01*
G01X6249Y8868D01*
G01X6252Y8883D01*
G01X6253Y8898D01*
G01X6252Y8912D01*
G01X6249Y8927D01*
G01X6244Y8940D01*
G01X6237Y8953D01*
G01X6228Y8964D01*
G01X6218Y8975D01*
G01X6206Y8983D01*
G01X6194Y8990D01*
G01X6180Y8995D01*
G01X6166Y8998D01*
G01X6151Y8999D01*
G01X2800Y9000D01*
G01X1999Y9799D01*
G01X1999Y11786D01*
G01X1998Y11801D01*
G01X1995Y11815D01*
G01X1990Y11828D01*
G01X1983Y11841D01*
G01X1975Y11853D01*
G01X1964Y11863D01*
G01X1953Y11872D01*
G01X1927Y11884D01*
G01X1912Y11887D01*
G01X1898Y11888D01*
G01X1872Y11884D01*
G01X1801Y11869D01*
G01X1801Y12315D01*
G01X1898Y12315D01*
G01X1912Y12316D01*
G01X1927Y12319D01*
G01X1940Y12324D01*
G01X1953Y12331D01*
G01X1964Y12339D01*
G01X1975Y12350D01*
G01X1983Y12361D01*
G01X1990Y12374D01*
G01X1995Y12388D01*
G01X1998Y12402D01*
G01X1999Y12416D01*
G01X1999Y12865D01*
G01X1998Y12879D01*
G01X1995Y12894D01*
G01X1990Y12907D01*
G01X1983Y12920D01*
G01X1975Y12932D01*
G01X1964Y12942D01*
G01X1953Y12951D01*
G01X1927Y12963D01*
G01X1912Y12966D01*
G01X1898Y12967D01*
G01X1801Y12967D01*
G01X1801Y13398D01*
G01X1800Y13412D01*
G01X1797Y13427D01*
G01X1792Y13440D01*
G01X1785Y13453D01*
G01X1777Y13464D01*
G01X1766Y13475D01*
G01X1755Y13483D01*
G01X1742Y13490D01*
G01X1728Y13495D01*
G01X1714Y13498D01*
G01X1700Y13499D01*
G37*

%LPC*%
G36*
G01X3442Y7641D02*
G01X3406Y7642D01*
G01X3368Y7641D01*
G01X3329Y7637D01*
G01X3292Y7631D01*
G01X3254Y7622D01*
G01X3218Y7611D01*
G01X3182Y7597D01*
G01X3149Y7582D01*
G01X3117Y7566D01*
G01X3087Y7547D01*
G01X3057Y7526D01*
G01X3029Y7504D01*
G01X3002Y7480D01*
G01X2977Y7454D01*
G01X2954Y7427D01*
G01X2932Y7398D01*
G01X2912Y7368D01*
G01X2894Y7337D01*
G01X2878Y7305D01*
G01X2864Y7272D01*
G01X2852Y7238D01*
G01X2842Y7203D01*
G01X2834Y7168D01*
G01X2829Y7132D01*
G01X2825Y7097D01*
G01X2824Y7061D01*
G01X2825Y7026D01*
G01X2829Y6991D01*
G01X2834Y6956D01*
G01X2841Y6922D01*
G01X2851Y6888D01*
G01X2862Y6855D01*
G01X2876Y6822D01*
G01X2891Y6790D01*
G01X2908Y6760D01*
G01X2927Y6730D01*
G01X2948Y6702D01*
G01X2971Y6675D01*
G01X2995Y6650D01*
G01X3020Y6625D01*
G01X3047Y6603D01*
G01X3076Y6582D01*
G01X3105Y6563D01*
G01X3136Y6546D01*
G01X3167Y6530D01*
G01X3200Y6517D01*
G01X3233Y6506D01*
G01X3267Y6496D01*
G01X3301Y6489D01*
G01X3336Y6483D01*
G01X3371Y6480D01*
G01X3406Y6479D01*
G01X3441Y6480D01*
G01X3476Y6483D01*
G01X3511Y6489D01*
G01X3545Y6496D01*
G01X3579Y6506D01*
G01X3612Y6517D01*
G01X3645Y6530D01*
G01X3676Y6546D01*
G01X3707Y6563D01*
G01X3736Y6582D01*
G01X3765Y6603D01*
G01X3792Y6625D01*
G01X3817Y6650D01*
G01X3841Y6675D01*
G01X3864Y6702D01*
G01X3884Y6730D01*
G01X3904Y6760D01*
G01X3921Y6790D01*
G01X3936Y6822D01*
G01X3950Y6855D01*
G01X3961Y6888D01*
G01X3971Y6922D01*
G01X3978Y6956D01*
G01X3983Y6991D01*
G01X3986Y7026D01*
G01X3987Y7061D01*
G01X3986Y7096D01*
G01X3983Y7130D01*
G01X3977Y7169D01*
G01X3969Y7206D01*
G01X3958Y7243D01*
G01X3945Y7279D01*
G01X3939Y7298D01*
G01X3937Y7318D01*
G01X3937Y7537D01*
G01X3770Y7537D01*
G01X3751Y7539D01*
G01X3733Y7544D01*
G01X3716Y7553D01*
G01X3684Y7571D01*
G01X3652Y7588D01*
G01X3619Y7602D01*
G01X3584Y7614D01*
G01X3550Y7624D01*
G01X3514Y7632D01*
G01X3478Y7638D01*
G01X3442Y7641D01*
G37*
G36*
G01X3043Y1542D02*
G01X2457Y1542D01*
G01X2457Y956D01*
G01X2787Y956D01*
G01X2811Y957D01*
G01X2834Y960D01*
G01X2857Y965D01*
G01X2880Y973D01*
G01X2901Y982D01*
G01X2922Y994D01*
G01X2942Y1007D01*
G01X2960Y1023D01*
G01X2976Y1039D01*
G01X2992Y1057D01*
G01X3005Y1077D01*
G01X3017Y1098D01*
G01X3026Y1119D01*
G01X3034Y1142D01*
G01X3039Y1165D01*
G01X3042Y1188D01*
G01X3043Y1212D01*
G01X3043Y1542D01*
G37*
G36*
G01X2787Y3043D02*
G01X2457Y3043D01*
G01X2457Y2457D01*
G01X3043Y2457D01*
G01X3043Y2787D01*
G01X3042Y2811D01*
G01X3039Y2834D01*
G01X3034Y2857D01*
G01X3026Y2880D01*
G01X3017Y2901D01*
G01X3005Y2922D01*
G01X2992Y2942D01*
G01X2976Y2960D01*
G01X2960Y2976D01*
G01X2942Y2992D01*
G01X2922Y3005D01*
G01X2901Y3017D01*
G01X2880Y3026D01*
G01X2857Y3034D01*
G01X2834Y3039D01*
G01X2811Y3042D01*
G01X2787Y3043D01*
G37*
G36*
G01X1542Y3043D02*
G01X1212Y3043D01*
G01X1188Y3042D01*
G01X1165Y3039D01*
G01X1142Y3034D01*
G01X1119Y3026D01*
G01X1098Y3017D01*
G01X1077Y3005D01*
G01X1057Y2992D01*
G01X1039Y2976D01*
G01X1023Y2960D01*
G01X1007Y2942D01*
G01X994Y2922D01*
G01X982Y2901D01*
G01X973Y2880D01*
G01X965Y2857D01*
G01X960Y2834D01*
G01X957Y2811D01*
G01X956Y2787D01*
G01X956Y2457D01*
G01X1542Y2457D01*
G01X1542Y3043D01*
G37*
G36*
G01X1542Y1542D02*
G01X956Y1542D01*
G01X956Y1212D01*
G01X957Y1188D01*
G01X960Y1165D01*
G01X965Y1142D01*
G01X973Y1119D01*
G01X982Y1098D01*
G01X994Y1077D01*
G01X1007Y1057D01*
G01X1023Y1039D01*
G01X1039Y1023D01*
G01X1057Y1007D01*
G01X1077Y994D01*
G01X1098Y982D01*
G01X1119Y973D01*
G01X1142Y965D01*
G01X1165Y960D01*
G01X1188Y957D01*
G01X1212Y956D01*
G01X1542Y956D01*
G01X1542Y1542D01*
G37*
G36*
G01X8099Y6706D02*
G01X7813Y6706D01*
G01X7813Y6188D01*
G01X8356Y6188D01*
G01X8356Y6450D01*
G01X8355Y6473D01*
G01X8351Y6497D01*
G01X8346Y6520D01*
G01X8338Y6542D01*
G01X8329Y6564D01*
G01X8317Y6585D01*
G01X8304Y6604D01*
G01X8289Y6623D01*
G01X8272Y6639D01*
G01X8254Y6654D01*
G01X8234Y6668D01*
G01X8214Y6679D01*
G01X8192Y6689D01*
G01X8169Y6696D01*
G01X8146Y6702D01*
G01X8123Y6705D01*
G01X8099Y6706D01*
G37*
G36*
G01X6986Y6706D02*
G01X6700Y6706D01*
G01X6676Y6705D01*
G01X6653Y6702D01*
G01X6630Y6696D01*
G01X6607Y6689D01*
G01X6585Y6679D01*
G01X6565Y6668D01*
G01X6545Y6654D01*
G01X6527Y6639D01*
G01X6510Y6623D01*
G01X6495Y6604D01*
G01X6482Y6585D01*
G01X6470Y6564D01*
G01X6461Y6542D01*
G01X6453Y6520D01*
G01X6448Y6497D01*
G01X6444Y6473D01*
G01X6443Y6450D01*
G01X6443Y6188D01*
G01X6986Y6188D01*
G01X6986Y6706D01*
G37*
G36*
G01X1891Y6125D02*
G01X1851Y6132D01*
G01X1851Y5687D01*
G01X2435Y5687D01*
G01X2418Y5723D01*
G01X2398Y5758D01*
G01X2377Y5792D01*
G01X2354Y5825D01*
G01X2329Y5857D01*
G01X2303Y5887D01*
G01X2275Y5916D01*
G01X2245Y5944D01*
G01X2215Y5970D01*
G01X2183Y5994D01*
G01X2150Y6017D01*
G01X2115Y6038D01*
G01X2080Y6057D01*
G01X2044Y6075D01*
G01X2006Y6090D01*
G01X1969Y6103D01*
G01X1930Y6115D01*
G01X1891Y6125D01*
G37*
G36*
G01X2435Y5035D02*
G01X1851Y5035D01*
G01X1851Y4590D01*
G01X1891Y4597D01*
G01X1930Y4607D01*
G01X1969Y4618D01*
G01X2006Y4632D01*
G01X2044Y4647D01*
G01X2080Y4664D01*
G01X2115Y4684D01*
G01X2150Y4705D01*
G01X2183Y4727D01*
G01X2215Y4752D01*
G01X2245Y4778D01*
G01X2275Y4805D01*
G01X2303Y4834D01*
G01X2329Y4865D01*
G01X2354Y4896D01*
G01X2377Y4929D01*
G01X2398Y4964D01*
G01X2418Y4999D01*
G01X2435Y5035D01*
G37*
G36*
G01X4200Y5807D02*
G01X4200Y6252D01*
G01X4160Y6245D01*
G01X4121Y6235D01*
G01X4083Y6223D01*
G01X4045Y6210D01*
G01X4008Y6194D01*
G01X3971Y6177D01*
G01X3936Y6158D01*
G01X3902Y6137D01*
G01X3868Y6114D01*
G01X3837Y6090D01*
G01X3806Y6064D01*
G01X3776Y6036D01*
G01X3749Y6007D01*
G01X3722Y5977D01*
G01X3698Y5945D01*
G01X3674Y5912D01*
G01X3653Y5878D01*
G01X3634Y5843D01*
G01X3616Y5807D01*
G01X4200Y5807D01*
G37*
G36*
G01X5291Y6245D02*
G01X5251Y6252D01*
G01X5251Y5807D01*
G01X5835Y5807D01*
G01X5818Y5843D01*
G01X5798Y5878D01*
G01X5777Y5912D01*
G01X5754Y5945D01*
G01X5729Y5977D01*
G01X5703Y6007D01*
G01X5675Y6036D01*
G01X5645Y6064D01*
G01X5615Y6090D01*
G01X5583Y6114D01*
G01X5550Y6137D01*
G01X5515Y6158D01*
G01X5480Y6177D01*
G01X5444Y6194D01*
G01X5406Y6210D01*
G01X5368Y6223D01*
G01X5330Y6235D01*
G01X5291Y6245D01*
G37*
G36*
G01X4200Y5155D02*
G01X3616Y5155D01*
G01X3634Y5119D01*
G01X3653Y5083D01*
G01X3674Y5049D01*
G01X3698Y5016D01*
G01X3722Y4985D01*
G01X3749Y4954D01*
G01X3776Y4925D01*
G01X3806Y4898D01*
G01X3837Y4872D01*
G01X3868Y4847D01*
G01X3902Y4825D01*
G01X3936Y4804D01*
G01X3971Y4784D01*
G01X4008Y4767D01*
G01X4045Y4752D01*
G01X4083Y4738D01*
G01X4121Y4727D01*
G01X4160Y4717D01*
G01X4200Y4709D01*
G01X4200Y5155D01*
G37*
G36*
G01X8561Y7886D02*
G01X8093Y7886D01*
G01X8093Y7699D01*
G01X8094Y7676D01*
G01X8097Y7652D01*
G01X8103Y7629D01*
G01X8110Y7607D01*
G01X8120Y7585D01*
G01X8131Y7564D01*
G01X8145Y7545D01*
G01X8160Y7527D01*
G01X8177Y7510D01*
G01X8195Y7495D01*
G01X8214Y7481D01*
G01X8235Y7470D01*
G01X8257Y7460D01*
G01X8279Y7453D01*
G01X8302Y7447D01*
G01X8326Y7444D01*
G01X8349Y7443D01*
G01X8561Y7443D01*
G01X8561Y7886D01*
G37*
G36*
G01X9706Y7886D02*
G01X9238Y7886D01*
G01X9238Y7443D01*
G01X9450Y7443D01*
G01X9473Y7444D01*
G01X9497Y7447D01*
G01X9520Y7453D01*
G01X9542Y7460D01*
G01X9564Y7470D01*
G01X9585Y7481D01*
G01X9604Y7495D01*
G01X9622Y7510D01*
G01X9639Y7527D01*
G01X9654Y7545D01*
G01X9668Y7564D01*
G01X9679Y7585D01*
G01X9689Y7607D01*
G01X9696Y7629D01*
G01X9702Y7652D01*
G01X9705Y7676D01*
G01X9706Y7699D01*
G01X9706Y7886D01*
G37*
G36*
G01X6661Y7886D02*
G01X6193Y7886D01*
G01X6193Y7699D01*
G01X6194Y7676D01*
G01X6197Y7652D01*
G01X6203Y7629D01*
G01X6210Y7607D01*
G01X6220Y7585D01*
G01X6231Y7564D01*
G01X6245Y7545D01*
G01X6260Y7527D01*
G01X6277Y7510D01*
G01X6295Y7495D01*
G01X6314Y7481D01*
G01X6335Y7470D01*
G01X6357Y7460D01*
G01X6379Y7453D01*
G01X6402Y7447D01*
G01X6426Y7444D01*
G01X6449Y7443D01*
G01X6661Y7443D01*
G01X6661Y7886D01*
G37*
G36*
G01X7806Y7886D02*
G01X7338Y7886D01*
G01X7338Y7443D01*
G01X7550Y7443D01*
G01X7573Y7444D01*
G01X7597Y7447D01*
G01X7620Y7453D01*
G01X7642Y7460D01*
G01X7664Y7470D01*
G01X7685Y7481D01*
G01X7704Y7495D01*
G01X7722Y7510D01*
G01X7739Y7527D01*
G01X7754Y7545D01*
G01X7768Y7564D01*
G01X7779Y7585D01*
G01X7789Y7607D01*
G01X7796Y7629D01*
G01X7802Y7652D01*
G01X7805Y7676D01*
G01X7806Y7699D01*
G01X7806Y7886D01*
G37*
G36*
G01X3937Y8157D02*
G01X3501Y8157D01*
G01X3477Y8156D01*
G01X3454Y8153D01*
G01X3431Y8148D01*
G01X3408Y8140D01*
G01X3386Y8130D01*
G01X3366Y8119D01*
G01X3346Y8106D01*
G01X3328Y8090D01*
G01X3311Y8074D01*
G01X3296Y8055D01*
G01X3283Y8036D01*
G01X3271Y8015D01*
G01X3262Y7993D01*
G01X3254Y7971D01*
G01X3249Y7948D01*
G01X3245Y7924D01*
G01X3244Y7901D01*
G01X3244Y7864D01*
G01X3937Y7864D01*
G01X3937Y8157D01*
G37*
G36*
G01X5501Y8157D02*
G01X5064Y8157D01*
G01X5064Y7864D01*
G01X5757Y7864D01*
G01X5757Y7901D01*
G01X5756Y7924D01*
G01X5753Y7948D01*
G01X5748Y7971D01*
G01X5740Y7993D01*
G01X5730Y8015D01*
G01X5719Y8036D01*
G01X5706Y8055D01*
G01X5690Y8074D01*
G01X5674Y8090D01*
G01X5655Y8106D01*
G01X5636Y8119D01*
G01X5615Y8130D01*
G01X5593Y8140D01*
G01X5571Y8148D01*
G01X5548Y8153D01*
G01X5524Y8156D01*
G01X5501Y8157D01*
G37*
G36*
G01X5757Y7537D02*
G01X5064Y7537D01*
G01X5064Y7244D01*
G01X5501Y7244D01*
G01X5524Y7245D01*
G01X5548Y7249D01*
G01X5571Y7254D01*
G01X5593Y7262D01*
G01X5615Y7271D01*
G01X5636Y7283D01*
G01X5655Y7296D01*
G01X5674Y7311D01*
G01X5690Y7328D01*
G01X5706Y7346D01*
G01X5719Y7366D01*
G01X5730Y7386D01*
G01X5740Y7408D01*
G01X5748Y7431D01*
G01X5753Y7454D01*
G01X5756Y7477D01*
G01X5757Y7501D01*
G01X5757Y7537D01*
G37*

%LPD*%
G54D11*
G01X16299Y1401D02*
G01X19598Y1401D01*
G01X19601Y1401D01*
G01X12065Y3392D02*
G01X12065Y1434D01*
G01X12499Y999D01*
G01X14300Y999D01*
G01X14698Y1401D01*
G01X9499Y1401D02*
G01X9499Y2498D01*
G01X8999Y2998D01*
G01X8999Y5000D01*
G54D12*
G01X20299Y11299D02*
G01X20299Y6199D01*
G01X21000Y5499D01*
G01X21400Y5499D01*
G54D13*
G01X10795Y3392D02*
G01X10109Y3392D01*
G01X9999Y3499D01*
G01X5001Y3999D02*
G01X5300Y3699D01*
G01X7399Y3699D01*
G01X13335Y3392D02*
G01X13299Y3356D01*
G01X13299Y2000D01*
G01X5499Y2000D02*
G01X6098Y1401D01*
G01X7399Y1401D01*
G01X13335Y9209D02*
G01X13335Y10664D01*
G01X13299Y10700D01*
G01X21419Y6801D02*
G01X21419Y9089D01*
G01X21409Y9099D01*
G01X22349Y9099D02*
G01X22349Y7499D01*
G01X23299Y6801D02*
G01X23299Y9089D01*
G01X23289Y9099D01*
G01X8999Y15000D02*
G01X8900Y15099D01*
G01X8900Y16900D01*
G54D11*
G01X14605Y3392D02*
G01X16007Y3392D01*
G01X16799Y2599D01*
G01X18498Y2599D01*
G01X22349Y11995D02*
G01X22349Y13849D01*
G01X22900Y14400D01*
G01X18498Y4200D02*
G01X19298Y4200D01*
G01X19999Y3499D01*
G01X19999Y2599D01*
G01X20599Y2000D01*
G01X22999Y2000D01*
G01X16700Y9899D02*
G01X16007Y9209D01*
G01X14605Y9209D01*
G01X16598Y7700D02*
G01X16598Y9800D01*
G01X16700Y9899D01*
G01X18399Y7700D02*
G01X18498Y7601D01*
G01X18498Y4200D01*
G01X12700Y6299D02*
G01X15300Y6299D01*
G01X15800Y5799D01*
G01X17844Y5799D01*
G01X17844Y5799D02*
G01X18498Y5799D01*
G01X17844Y5799D02*
G01X18026Y5799D01*
G01X18498Y6272D01*
G01X17844Y5799D02*
G01X18200Y5799D01*
G01X18499Y5499D01*
G54D12*
G01X21409Y11995D02*
G01X20995Y11995D01*
G01X20299Y11299D01*
G01X18300Y9899D02*
G01X19298Y9899D01*
G01X19601Y9600D01*
G01X19601Y5200D01*
G01X19601Y5200D01*
G54D11*
G01X18300Y9899D02*
G01X18300Y10801D01*
G01X18999Y11500D01*
G36*
G01X15799Y1951D02*
G01X16799Y1951D01*
G01X16799Y851D01*
G01X15799Y851D01*
G01X15799Y1951D01*
G37*
G36*
G01X14199Y1951D02*
G01X15199Y1951D01*
G01X15199Y851D01*
G01X14199Y851D01*
G01X14199Y1951D01*
G37*
G36*
G01X6748Y2099D02*
G01X8049Y2099D01*
G01X8049Y700D01*
G01X6748Y700D01*
G01X6748Y2099D01*
G37*
G36*
G01X8849Y2099D02*
G01X10149Y2099D01*
G01X10149Y700D01*
G01X8849Y700D01*
G01X8849Y2099D01*
G37*
G54D17*
G01X18499Y2599D03*
G01X18499Y4199D03*
G54D18*
G01X21420Y6800D03*
G01X23299Y6800D03*
G01X21420Y3904D03*
G01X23299Y3904D03*
G36*
G01X11924Y16249D02*
G01X14274Y16249D01*
G01X14274Y12749D01*
G01X11924Y12749D01*
G01X11924Y16249D01*
G37*
G36*
G01X17994Y16249D02*
G01X20344Y16249D01*
G01X20344Y12749D01*
G01X17994Y12749D01*
G01X17994Y16249D01*
G37*
G01X21410Y11995D03*
G01X22349Y11995D03*
G01X23289Y11995D03*
G01X21410Y9100D03*
G01X22349Y9100D03*
G01X23289Y9100D03*
G54D20*
G01X7400Y3699D03*
G01X7400Y5799D03*
G54D21*
G01X10795Y3391D03*
G01X12065Y3391D03*
G01X13335Y3391D03*
G01X14605Y3391D03*
G01X14605Y9208D03*
G01X13335Y9208D03*
G01X12065Y9208D03*
G01X10795Y9208D03*
G54D17*
G01X8999Y13399D03*
G01X8999Y14999D03*
G36*
G01X17800Y10449D02*
G01X18800Y10449D01*
G01X18800Y9349D01*
G01X17800Y9349D01*
G01X17800Y10449D01*
G37*
G36*
G01X16200Y10449D02*
G01X17200Y10449D01*
G01X17200Y9349D01*
G01X16200Y9349D01*
G01X16200Y10449D01*
G37*
G01X8899Y8199D03*
G01X8899Y10000D03*
G54D15*
G01X18400Y7700D03*
G01X16599Y7700D03*
G54D17*
G01X6999Y8199D03*
G01X6999Y10000D03*
G36*
G01X6599Y17450D02*
G01X7599Y17450D01*
G01X7599Y16349D01*
G01X6599Y16349D01*
G01X6599Y17450D01*
G37*
G36*
G01X8400Y17450D02*
G01X9400Y17450D01*
G01X9400Y16349D01*
G01X8400Y16349D01*
G01X8400Y17450D01*
G37*
G54D22*
G01X4501Y10301D03*
G01X4501Y7701D03*

%LPD*%
G36*
G01X6748Y901D02*
G01X6748Y1901D01*
G01X6148Y1601D01*
G01X6148Y1201D01*
G01X6748Y901D01*
G37*

%LPD*%
G36*
G01X5934Y1848D02*
G01X5804Y2019D01*
G01X5481Y1695D01*
G01X5652Y1565D01*
G01X5934Y1848D01*
G37*

%LPD*%
G36*
G01X19751Y5614D02*
G01X19451Y5615D01*
G01X19371Y5402D01*
G01X19829Y5400D01*
G01X19751Y5614D01*
G37*

%LPD*%
G36*
G01X19250Y10049D02*
G01X18800Y10274D01*
G01X18800Y9524D01*
G01X19250Y9749D01*
G01X19250Y10049D01*
G37*

%LPD*%
G36*
G01X19398Y1628D02*
G01X19185Y1649D01*
G01X19185Y1149D01*
G01X19398Y1171D01*
G01X19398Y1628D01*
G37*

%LPD*%
G36*
G01X17550Y1649D02*
G01X16800Y1949D01*
G01X16800Y849D01*
G01X17550Y1149D01*
G01X17550Y1649D01*
G37*

%LPD*%
G36*
G01X9750Y2499D02*
G01X9250Y2499D01*
G01X8875Y2099D01*
G01X10125Y2099D01*
G01X9750Y2499D01*
G37*

%LPD*%
G36*
G01X10454Y3591D02*
G01X10254Y3668D01*
G01X10134Y3226D01*
G01X10346Y3191D01*
G01X10454Y3591D01*
G37*

%LPD*%
G36*
G01X10553Y2891D02*
G01X10553Y3891D01*
G01X10108Y3591D01*
G01X10108Y3191D01*
G01X10553Y2891D01*
G37*

%LPD*%
G36*
G01X21110Y11396D02*
G01X21110Y12595D01*
G01X20995Y12245D01*
G01X20995Y11745D01*
G01X21110Y11396D01*
G37*

%LPD*%
G36*
G01X18899Y7151D02*
G01X17900Y7151D01*
G01X18250Y6401D01*
G01X18750Y6401D01*
G01X18899Y7151D01*
G37*

%LPD*%
G36*
G01X18750Y5449D02*
G01X18250Y5449D01*
G01X17949Y4699D01*
G01X19050Y4699D01*
G01X18750Y5449D01*
G37*

%LPD*%
G36*
G01X16850Y9000D02*
G01X16350Y9000D01*
G01X16099Y8250D01*
G01X17100Y8250D01*
G01X16850Y9000D01*
G37*

%LPD*%
G36*
G01X17199Y9348D02*
G01X16201Y9348D01*
G01X16350Y8598D01*
G01X16850Y8598D01*
G01X17199Y9348D01*
G37*

%LPD*%
G36*
G01X16945Y9348D02*
G01X16201Y10353D01*
G01X15919Y9473D01*
G01X16220Y9067D01*
G01X16945Y9348D01*
G37*

%LPD*%
G36*
G01X15596Y9458D02*
G01X14846Y9833D01*
G01X14846Y8583D01*
G01X15596Y8958D01*
G01X15596Y9458D01*
G37*

%LPD*%
G36*
G01X19300Y4449D02*
G01X19050Y4699D01*
G01X19050Y3699D01*
G01X19300Y3949D01*
G01X19300Y4449D01*
G37*

%LPD*%
G36*
G01X13534Y10303D02*
G01X13544Y10518D01*
G01X13089Y10479D01*
G01X13135Y10269D01*
G01X13534Y10303D01*
G37*

%LPD*%
G36*
G01X13534Y10457D02*
G01X13135Y10457D01*
G01X13093Y9857D01*
G01X13576Y9857D01*
G01X13534Y10457D01*
G37*

%LPD*%
G36*
G01X22919Y14095D02*
G01X22595Y14419D01*
G01X22429Y14283D01*
G01X22783Y13929D01*
G01X22919Y14095D01*
G37*

%LPD*%
G36*
G01X22600Y13345D02*
G01X22100Y13345D01*
G01X22050Y12595D01*
G01X22649Y12595D01*
G01X22600Y13345D01*
G37*

%LPD*%
G36*
G01X17950Y2099D02*
G01X17950Y3100D01*
G01X17200Y2849D01*
G01X17200Y2350D01*
G01X17950Y2099D01*
G37*

%LPD*%
G36*
G01X15595Y3641D02*
G01X14845Y4016D01*
G01X14845Y2766D01*
G01X15595Y3141D01*
G01X15595Y3641D01*
G37*

%LPD*%
G36*
G01X9099Y16101D02*
G01X8699Y16101D01*
G01X8449Y15501D01*
G01X9399Y15501D01*
G01X9099Y16101D01*
G37*

%LPD*%
G36*
G01X9399Y16348D02*
G01X8399Y16348D01*
G01X8699Y15748D01*
G01X9099Y15748D01*
G01X9399Y16348D01*
G37*

%LPD*%
G36*
G01X13576Y2743D02*
G01X13093Y2743D01*
G01X13099Y2143D01*
G01X13499Y2143D01*
G01X13576Y2743D01*
G37*

%LPD*%
G36*
G01X13499Y2414D02*
G01X13099Y2414D01*
G01X13071Y2201D01*
G01X13528Y2201D01*
G01X13499Y2414D01*
G37*

%LPD*%
G36*
G01X22649Y8500D02*
G01X22050Y8500D01*
G01X22150Y7900D01*
G01X22550Y7900D01*
G01X22649Y8500D01*
G37*

%LPD*%
G36*
G01X5436Y3847D02*
G01X5305Y4018D01*
G01X4982Y3695D01*
G01X5153Y3564D01*
G01X5436Y3847D01*
G37*

%LPD*%
G36*
G01X6700Y3199D02*
G01X6700Y4199D01*
G01X6100Y3899D01*
G01X6100Y3499D01*
G01X6700Y3199D01*
G37*

%LPD*%
G36*
G01X21620Y7999D02*
G01X21220Y7999D01*
G01X21120Y7399D01*
G01X21720Y7399D01*
G01X21620Y7999D01*
G37*

%LPD*%
G36*
G01X21709Y8500D02*
G01X21110Y8500D01*
G01X21220Y7900D01*
G01X21620Y7900D01*
G01X21709Y8500D01*
G37*

%LPD*%
G36*
G01X23499Y7999D02*
G01X23099Y7999D01*
G01X23000Y7399D01*
G01X23599Y7399D01*
G01X23499Y7999D01*
G37*

%LPD*%
G36*
G01X23589Y8500D02*
G01X22990Y8500D01*
G01X23099Y7900D01*
G01X23499Y7900D01*
G01X23589Y8500D01*
G37*

%LPD*%
G36*
G01X20528Y11098D02*
G01X20071Y11098D01*
G01X20149Y10885D01*
G01X20449Y10884D01*
G01X20528Y11098D01*
G37*
G54D23*
G01X12700Y6299D03*
G54D24*
G01X25999Y12499D03*
G01X25999Y15999D03*
G01X25999Y5499D03*
G01X25999Y2000D03*
G01X1999Y15999D03*
G01X1999Y2000D03*
G54D14*
G01X18999Y11500D03*
G01X19599Y5199D03*
G01X22900Y14400D03*
G01X5899Y16299D03*
G01X5500Y16999D03*
G01X22348Y7499D03*
G01X20299Y11299D03*
G01X13299Y10700D03*
G01X5500Y2000D03*
G01X13299Y2000D03*
G01X5001Y3999D03*
G01X9999Y3499D03*
G01X19599Y1400D03*
G54D25*
G01X1676Y12641D02*
G01X876Y12641D01*
G01X5126Y5481D02*
G01X4326Y5481D01*
G01X1726Y5361D02*
G01X926Y5361D01*
G01X5126Y12641D02*
G01X4326Y12641D01*
M00*
M02*
