G04 Layer: BottomPasteMaskLayer*
G04 EasyEDA v6.4.7, 2020-12-07T01:06:49--5:00*
G04 5e8349f5503448508ce6795c89dbbb90,9f54a757970e4a3cb0a7e8d24ad546a0,10*
G04 Gerber Generator version 0.2*
G04 Scale: 100 percent, Rotated: No, Reflected: No *
G04 Dimensions in millimeters *
G04 leading zeros omitted , absolute positions ,3 integer and 3 decimal *
%FSLAX33Y33*%
%MOMM*%
G90*
D02*


%LPD*%
G36*
G01X15500Y15750D02*
G01X15500Y15724D01*
G01X15502Y15699D01*
G01X15505Y15675D01*
G01X15509Y15650D01*
G01X15515Y15626D01*
G01X15522Y15602D01*
G01X15530Y15578D01*
G01X15539Y15556D01*
G01X15549Y15532D01*
G01X15560Y15510D01*
G01X15573Y15488D01*
G01X15586Y15467D01*
G01X15601Y15448D01*
G01X15616Y15429D01*
G01X15633Y15410D01*
G01X15650Y15391D01*
G01X15669Y15375D01*
G01X15688Y15358D01*
G01X15708Y15343D01*
G01X15728Y15329D01*
G01X15750Y15316D01*
G01X15771Y15304D01*
G01X15794Y15294D01*
G01X15817Y15284D01*
G01X15840Y15275D01*
G01X15864Y15269D01*
G01X15888Y15262D01*
G01X15913Y15257D01*
G01X15937Y15253D01*
G01X15962Y15250D01*
G01X15987Y15249D01*
G01X16012Y15249D01*
G01X16037Y15250D01*
G01X16062Y15253D01*
G01X16086Y15257D01*
G01X16111Y15262D01*
G01X16135Y15269D01*
G01X16159Y15275D01*
G01X16182Y15284D01*
G01X16205Y15294D01*
G01X16228Y15304D01*
G01X16250Y15316D01*
G01X16271Y15329D01*
G01X16291Y15343D01*
G01X16311Y15358D01*
G01X16330Y15375D01*
G01X16349Y15391D01*
G01X16366Y15410D01*
G01X16383Y15429D01*
G01X16398Y15448D01*
G01X16413Y15467D01*
G01X16426Y15488D01*
G01X16439Y15510D01*
G01X16450Y15532D01*
G01X16460Y15556D01*
G01X16469Y15578D01*
G01X16477Y15602D01*
G01X16484Y15626D01*
G01X16490Y15650D01*
G01X16494Y15675D01*
G01X16497Y15699D01*
G01X16499Y15724D01*
G01X16500Y15750D01*
G01X16500Y15850D01*
G01X15500Y15850D01*
G01X15500Y15750D01*
G37*
G36*
G01X16499Y16150D02*
G01X16499Y16175D01*
G01X16497Y16200D01*
G01X16494Y16224D01*
G01X16490Y16249D01*
G01X16484Y16273D01*
G01X16477Y16297D01*
G01X16469Y16321D01*
G01X16460Y16344D01*
G01X16450Y16367D01*
G01X16439Y16389D01*
G01X16426Y16411D01*
G01X16413Y16432D01*
G01X16398Y16452D01*
G01X16383Y16471D01*
G01X16366Y16490D01*
G01X16349Y16508D01*
G01X16330Y16525D01*
G01X16311Y16541D01*
G01X16291Y16556D01*
G01X16271Y16570D01*
G01X16249Y16583D01*
G01X16228Y16595D01*
G01X16205Y16606D01*
G01X16182Y16615D01*
G01X16159Y16624D01*
G01X16135Y16631D01*
G01X16111Y16637D01*
G01X16086Y16642D01*
G01X16062Y16646D01*
G01X16037Y16649D01*
G01X16012Y16650D01*
G01X15987Y16650D01*
G01X15962Y16649D01*
G01X15937Y16646D01*
G01X15913Y16642D01*
G01X15888Y16637D01*
G01X15864Y16631D01*
G01X15840Y16624D01*
G01X15817Y16615D01*
G01X15794Y16606D01*
G01X15771Y16595D01*
G01X15749Y16583D01*
G01X15728Y16570D01*
G01X15708Y16556D01*
G01X15688Y16541D01*
G01X15669Y16525D01*
G01X15650Y16508D01*
G01X15633Y16490D01*
G01X15616Y16471D01*
G01X15601Y16452D01*
G01X15586Y16432D01*
G01X15573Y16411D01*
G01X15560Y16389D01*
G01X15549Y16367D01*
G01X15539Y16344D01*
G01X15530Y16321D01*
G01X15522Y16297D01*
G01X15515Y16273D01*
G01X15509Y16249D01*
G01X15505Y16224D01*
G01X15502Y16200D01*
G01X15500Y16175D01*
G01X15500Y16150D01*
G01X15500Y16050D01*
G01X16499Y16050D01*
G01X16499Y16150D01*
G37*
G36*
G01X13499Y15750D02*
G01X13500Y15724D01*
G01X13502Y15699D01*
G01X13505Y15675D01*
G01X13509Y15650D01*
G01X13515Y15626D01*
G01X13522Y15602D01*
G01X13530Y15578D01*
G01X13539Y15556D01*
G01X13549Y15532D01*
G01X13560Y15510D01*
G01X13573Y15488D01*
G01X13586Y15467D01*
G01X13601Y15448D01*
G01X13616Y15429D01*
G01X13633Y15410D01*
G01X13650Y15391D01*
G01X13669Y15375D01*
G01X13688Y15358D01*
G01X13708Y15343D01*
G01X13728Y15329D01*
G01X13750Y15316D01*
G01X13771Y15304D01*
G01X13794Y15294D01*
G01X13817Y15284D01*
G01X13840Y15275D01*
G01X13864Y15269D01*
G01X13888Y15262D01*
G01X13913Y15257D01*
G01X13937Y15253D01*
G01X13962Y15250D01*
G01X13987Y15249D01*
G01X14012Y15249D01*
G01X14037Y15250D01*
G01X14062Y15253D01*
G01X14086Y15257D01*
G01X14111Y15262D01*
G01X14135Y15269D01*
G01X14159Y15275D01*
G01X14182Y15284D01*
G01X14205Y15294D01*
G01X14228Y15304D01*
G01X14250Y15316D01*
G01X14271Y15329D01*
G01X14291Y15343D01*
G01X14311Y15358D01*
G01X14330Y15375D01*
G01X14349Y15391D01*
G01X14366Y15410D01*
G01X14383Y15429D01*
G01X14398Y15448D01*
G01X14413Y15467D01*
G01X14426Y15488D01*
G01X14439Y15510D01*
G01X14450Y15532D01*
G01X14460Y15556D01*
G01X14469Y15578D01*
G01X14477Y15602D01*
G01X14484Y15626D01*
G01X14490Y15650D01*
G01X14494Y15675D01*
G01X14497Y15699D01*
G01X14499Y15724D01*
G01X14499Y15750D01*
G01X14499Y15850D01*
G01X13499Y15850D01*
G01X13499Y15750D01*
G37*
G36*
G01X14499Y16150D02*
G01X14499Y16175D01*
G01X14497Y16200D01*
G01X14494Y16224D01*
G01X14490Y16249D01*
G01X14484Y16273D01*
G01X14477Y16297D01*
G01X14469Y16321D01*
G01X14460Y16344D01*
G01X14450Y16367D01*
G01X14439Y16389D01*
G01X14426Y16411D01*
G01X14413Y16432D01*
G01X14398Y16452D01*
G01X14383Y16471D01*
G01X14366Y16490D01*
G01X14349Y16508D01*
G01X14330Y16525D01*
G01X14311Y16541D01*
G01X14291Y16556D01*
G01X14271Y16570D01*
G01X14249Y16583D01*
G01X14228Y16595D01*
G01X14205Y16606D01*
G01X14182Y16615D01*
G01X14159Y16624D01*
G01X14135Y16631D01*
G01X14111Y16637D01*
G01X14086Y16642D01*
G01X14062Y16646D01*
G01X14037Y16649D01*
G01X14012Y16650D01*
G01X13987Y16650D01*
G01X13962Y16649D01*
G01X13937Y16646D01*
G01X13913Y16642D01*
G01X13888Y16637D01*
G01X13864Y16631D01*
G01X13840Y16624D01*
G01X13817Y16615D01*
G01X13794Y16606D01*
G01X13771Y16595D01*
G01X13749Y16583D01*
G01X13728Y16570D01*
G01X13708Y16556D01*
G01X13688Y16541D01*
G01X13669Y16525D01*
G01X13650Y16508D01*
G01X13633Y16490D01*
G01X13616Y16471D01*
G01X13601Y16452D01*
G01X13586Y16432D01*
G01X13573Y16411D01*
G01X13560Y16389D01*
G01X13549Y16367D01*
G01X13539Y16344D01*
G01X13530Y16321D01*
G01X13522Y16297D01*
G01X13515Y16273D01*
G01X13509Y16249D01*
G01X13505Y16224D01*
G01X13502Y16200D01*
G01X13500Y16175D01*
G01X13499Y16150D01*
G01X13499Y16050D01*
G01X14499Y16050D01*
G01X14499Y16150D01*
G37*
G36*
G01X9500Y15750D02*
G01X9500Y15724D01*
G01X9502Y15699D01*
G01X9505Y15675D01*
G01X9509Y15650D01*
G01X9515Y15626D01*
G01X9522Y15602D01*
G01X9530Y15578D01*
G01X9539Y15556D01*
G01X9549Y15532D01*
G01X9560Y15510D01*
G01X9573Y15488D01*
G01X9586Y15467D01*
G01X9601Y15448D01*
G01X9616Y15429D01*
G01X9633Y15410D01*
G01X9650Y15391D01*
G01X9669Y15375D01*
G01X9688Y15358D01*
G01X9708Y15343D01*
G01X9728Y15329D01*
G01X9750Y15316D01*
G01X9771Y15304D01*
G01X9794Y15294D01*
G01X9817Y15284D01*
G01X9840Y15275D01*
G01X9864Y15269D01*
G01X9888Y15262D01*
G01X9913Y15257D01*
G01X9937Y15253D01*
G01X9962Y15250D01*
G01X9987Y15249D01*
G01X10012Y15249D01*
G01X10037Y15250D01*
G01X10062Y15253D01*
G01X10086Y15257D01*
G01X10111Y15262D01*
G01X10135Y15269D01*
G01X10159Y15275D01*
G01X10182Y15284D01*
G01X10205Y15294D01*
G01X10228Y15304D01*
G01X10250Y15316D01*
G01X10271Y15329D01*
G01X10291Y15343D01*
G01X10311Y15358D01*
G01X10330Y15375D01*
G01X10349Y15391D01*
G01X10366Y15410D01*
G01X10383Y15429D01*
G01X10398Y15448D01*
G01X10413Y15467D01*
G01X10426Y15488D01*
G01X10439Y15510D01*
G01X10450Y15532D01*
G01X10460Y15556D01*
G01X10469Y15578D01*
G01X10477Y15602D01*
G01X10484Y15626D01*
G01X10490Y15650D01*
G01X10494Y15675D01*
G01X10497Y15699D01*
G01X10499Y15724D01*
G01X10500Y15750D01*
G01X10500Y15850D01*
G01X9500Y15850D01*
G01X9500Y15750D01*
G37*
G36*
G01X10499Y16150D02*
G01X10499Y16175D01*
G01X10497Y16200D01*
G01X10494Y16224D01*
G01X10490Y16249D01*
G01X10484Y16273D01*
G01X10477Y16297D01*
G01X10469Y16321D01*
G01X10460Y16344D01*
G01X10450Y16367D01*
G01X10439Y16389D01*
G01X10426Y16411D01*
G01X10413Y16432D01*
G01X10398Y16452D01*
G01X10383Y16471D01*
G01X10366Y16490D01*
G01X10349Y16508D01*
G01X10330Y16525D01*
G01X10311Y16541D01*
G01X10291Y16556D01*
G01X10271Y16570D01*
G01X10249Y16583D01*
G01X10228Y16595D01*
G01X10205Y16606D01*
G01X10182Y16615D01*
G01X10159Y16624D01*
G01X10135Y16631D01*
G01X10111Y16637D01*
G01X10086Y16642D01*
G01X10062Y16646D01*
G01X10037Y16649D01*
G01X10012Y16650D01*
G01X9987Y16650D01*
G01X9962Y16649D01*
G01X9937Y16646D01*
G01X9913Y16642D01*
G01X9888Y16637D01*
G01X9864Y16631D01*
G01X9840Y16624D01*
G01X9817Y16615D01*
G01X9794Y16606D01*
G01X9771Y16595D01*
G01X9749Y16583D01*
G01X9728Y16570D01*
G01X9708Y16556D01*
G01X9688Y16541D01*
G01X9669Y16525D01*
G01X9650Y16508D01*
G01X9633Y16490D01*
G01X9616Y16471D01*
G01X9601Y16452D01*
G01X9586Y16432D01*
G01X9573Y16411D01*
G01X9560Y16389D01*
G01X9549Y16367D01*
G01X9539Y16344D01*
G01X9530Y16321D01*
G01X9522Y16297D01*
G01X9515Y16273D01*
G01X9509Y16249D01*
G01X9505Y16224D01*
G01X9502Y16200D01*
G01X9500Y16175D01*
G01X9500Y16150D01*
G01X9500Y16050D01*
G01X10499Y16050D01*
G01X10499Y16150D01*
G37*
G36*
G01X11500Y15750D02*
G01X11500Y15724D01*
G01X11502Y15699D01*
G01X11505Y15675D01*
G01X11509Y15650D01*
G01X11515Y15626D01*
G01X11522Y15602D01*
G01X11530Y15578D01*
G01X11539Y15556D01*
G01X11549Y15532D01*
G01X11560Y15510D01*
G01X11573Y15488D01*
G01X11586Y15467D01*
G01X11601Y15448D01*
G01X11616Y15429D01*
G01X11633Y15410D01*
G01X11650Y15391D01*
G01X11669Y15375D01*
G01X11688Y15358D01*
G01X11708Y15343D01*
G01X11728Y15329D01*
G01X11750Y15316D01*
G01X11771Y15304D01*
G01X11794Y15294D01*
G01X11817Y15284D01*
G01X11840Y15275D01*
G01X11864Y15269D01*
G01X11888Y15262D01*
G01X11913Y15257D01*
G01X11937Y15253D01*
G01X11962Y15250D01*
G01X11987Y15249D01*
G01X12012Y15249D01*
G01X12037Y15250D01*
G01X12062Y15253D01*
G01X12086Y15257D01*
G01X12111Y15262D01*
G01X12135Y15269D01*
G01X12159Y15275D01*
G01X12182Y15284D01*
G01X12205Y15294D01*
G01X12228Y15304D01*
G01X12250Y15316D01*
G01X12271Y15329D01*
G01X12291Y15343D01*
G01X12311Y15358D01*
G01X12330Y15375D01*
G01X12349Y15391D01*
G01X12366Y15410D01*
G01X12383Y15429D01*
G01X12398Y15448D01*
G01X12413Y15467D01*
G01X12426Y15488D01*
G01X12439Y15510D01*
G01X12450Y15532D01*
G01X12460Y15556D01*
G01X12469Y15578D01*
G01X12477Y15602D01*
G01X12484Y15626D01*
G01X12490Y15650D01*
G01X12494Y15675D01*
G01X12497Y15699D01*
G01X12499Y15724D01*
G01X12500Y15750D01*
G01X12500Y15850D01*
G01X11500Y15850D01*
G01X11500Y15750D01*
G37*
G36*
G01X12499Y16150D02*
G01X12499Y16175D01*
G01X12497Y16200D01*
G01X12494Y16224D01*
G01X12490Y16249D01*
G01X12484Y16273D01*
G01X12477Y16297D01*
G01X12469Y16321D01*
G01X12460Y16344D01*
G01X12450Y16367D01*
G01X12439Y16389D01*
G01X12426Y16411D01*
G01X12413Y16432D01*
G01X12398Y16452D01*
G01X12383Y16471D01*
G01X12366Y16490D01*
G01X12349Y16508D01*
G01X12330Y16525D01*
G01X12311Y16541D01*
G01X12291Y16556D01*
G01X12271Y16570D01*
G01X12249Y16583D01*
G01X12228Y16595D01*
G01X12205Y16606D01*
G01X12182Y16615D01*
G01X12159Y16624D01*
G01X12135Y16631D01*
G01X12111Y16637D01*
G01X12086Y16642D01*
G01X12062Y16646D01*
G01X12037Y16649D01*
G01X12012Y16650D01*
G01X11987Y16650D01*
G01X11962Y16649D01*
G01X11937Y16646D01*
G01X11913Y16642D01*
G01X11888Y16637D01*
G01X11864Y16631D01*
G01X11840Y16624D01*
G01X11817Y16615D01*
G01X11794Y16606D01*
G01X11771Y16595D01*
G01X11749Y16583D01*
G01X11728Y16570D01*
G01X11708Y16556D01*
G01X11688Y16541D01*
G01X11669Y16525D01*
G01X11650Y16508D01*
G01X11633Y16490D01*
G01X11616Y16471D01*
G01X11601Y16452D01*
G01X11586Y16432D01*
G01X11573Y16411D01*
G01X11560Y16389D01*
G01X11549Y16367D01*
G01X11539Y16344D01*
G01X11530Y16321D01*
G01X11522Y16297D01*
G01X11515Y16273D01*
G01X11509Y16249D01*
G01X11505Y16224D01*
G01X11502Y16200D01*
G01X11500Y16175D01*
G01X11500Y16150D01*
G01X11500Y16050D01*
G01X12499Y16050D01*
G01X12499Y16150D01*
G37*
G36*
G01X7500Y15750D02*
G01X7500Y15724D01*
G01X7502Y15699D01*
G01X7505Y15675D01*
G01X7509Y15650D01*
G01X7515Y15626D01*
G01X7522Y15602D01*
G01X7530Y15578D01*
G01X7539Y15556D01*
G01X7549Y15532D01*
G01X7560Y15510D01*
G01X7573Y15488D01*
G01X7586Y15467D01*
G01X7601Y15448D01*
G01X7616Y15429D01*
G01X7633Y15410D01*
G01X7650Y15391D01*
G01X7669Y15375D01*
G01X7688Y15358D01*
G01X7708Y15343D01*
G01X7728Y15329D01*
G01X7750Y15316D01*
G01X7771Y15304D01*
G01X7794Y15294D01*
G01X7817Y15284D01*
G01X7840Y15275D01*
G01X7864Y15269D01*
G01X7888Y15262D01*
G01X7913Y15257D01*
G01X7937Y15253D01*
G01X7962Y15250D01*
G01X7987Y15249D01*
G01X8012Y15249D01*
G01X8037Y15250D01*
G01X8062Y15253D01*
G01X8086Y15257D01*
G01X8111Y15262D01*
G01X8135Y15269D01*
G01X8159Y15275D01*
G01X8182Y15284D01*
G01X8205Y15294D01*
G01X8228Y15304D01*
G01X8250Y15316D01*
G01X8271Y15329D01*
G01X8291Y15343D01*
G01X8311Y15358D01*
G01X8330Y15375D01*
G01X8349Y15391D01*
G01X8366Y15410D01*
G01X8383Y15429D01*
G01X8398Y15448D01*
G01X8413Y15467D01*
G01X8426Y15488D01*
G01X8439Y15510D01*
G01X8450Y15532D01*
G01X8460Y15556D01*
G01X8469Y15578D01*
G01X8477Y15602D01*
G01X8484Y15626D01*
G01X8490Y15650D01*
G01X8494Y15675D01*
G01X8497Y15699D01*
G01X8499Y15724D01*
G01X8500Y15750D01*
G01X8500Y15850D01*
G01X7500Y15850D01*
G01X7500Y15750D01*
G37*
G36*
G01X8499Y16150D02*
G01X8499Y16175D01*
G01X8497Y16200D01*
G01X8494Y16224D01*
G01X8490Y16249D01*
G01X8484Y16273D01*
G01X8477Y16297D01*
G01X8469Y16321D01*
G01X8460Y16344D01*
G01X8450Y16367D01*
G01X8439Y16389D01*
G01X8426Y16411D01*
G01X8413Y16432D01*
G01X8398Y16452D01*
G01X8383Y16471D01*
G01X8366Y16490D01*
G01X8349Y16508D01*
G01X8330Y16525D01*
G01X8311Y16541D01*
G01X8291Y16556D01*
G01X8271Y16570D01*
G01X8249Y16583D01*
G01X8228Y16595D01*
G01X8205Y16606D01*
G01X8182Y16615D01*
G01X8159Y16624D01*
G01X8135Y16631D01*
G01X8111Y16637D01*
G01X8086Y16642D01*
G01X8062Y16646D01*
G01X8037Y16649D01*
G01X8012Y16650D01*
G01X7987Y16650D01*
G01X7962Y16649D01*
G01X7937Y16646D01*
G01X7913Y16642D01*
G01X7888Y16637D01*
G01X7864Y16631D01*
G01X7840Y16624D01*
G01X7817Y16615D01*
G01X7794Y16606D01*
G01X7771Y16595D01*
G01X7749Y16583D01*
G01X7728Y16570D01*
G01X7708Y16556D01*
G01X7688Y16541D01*
G01X7669Y16525D01*
G01X7650Y16508D01*
G01X7633Y16490D01*
G01X7616Y16471D01*
G01X7601Y16452D01*
G01X7586Y16432D01*
G01X7573Y16411D01*
G01X7560Y16389D01*
G01X7549Y16367D01*
G01X7539Y16344D01*
G01X7530Y16321D01*
G01X7522Y16297D01*
G01X7515Y16273D01*
G01X7509Y16249D01*
G01X7505Y16224D01*
G01X7502Y16200D01*
G01X7500Y16175D01*
G01X7500Y16150D01*
G01X7500Y16050D01*
G01X8499Y16050D01*
G01X8499Y16150D01*
G37*
G36*
G01X21449Y9399D02*
G01X21449Y8399D01*
G01X22549Y8399D01*
G01X22549Y9399D01*
G01X21449Y9399D01*
G37*
G36*
G01X21449Y10999D02*
G01X21449Y9999D01*
G01X22549Y9999D01*
G01X22549Y10999D01*
G01X21449Y10999D01*
G37*
G36*
G01X8600Y949D02*
G01X9600Y949D01*
G01X9600Y2050D01*
G01X8600Y2050D01*
G01X8600Y949D01*
G37*
G36*
G01X7000Y949D02*
G01X8000Y949D01*
G01X8000Y2050D01*
G01X7000Y2050D01*
G01X7000Y949D01*
G37*
G36*
G01X7500Y2949D02*
G01X8500Y2949D01*
G01X8500Y4050D01*
G01X7500Y4050D01*
G01X7500Y2949D01*
G37*
G36*
G01X5900Y2949D02*
G01X6900Y2949D01*
G01X6900Y4050D01*
G01X5900Y4050D01*
G01X5900Y2949D01*
G37*
G36*
G01X15449Y12399D02*
G01X15449Y11399D01*
G01X16550Y11399D01*
G01X16550Y12399D01*
G01X15449Y12399D01*
G37*
G36*
G01X15449Y13999D02*
G01X15449Y12999D01*
G01X16550Y12999D01*
G01X16550Y13999D01*
G01X15449Y13999D01*
G37*
G36*
G01X9449Y12399D02*
G01X9449Y11399D01*
G01X10550Y11399D01*
G01X10550Y12399D01*
G01X9449Y12399D01*
G37*
G36*
G01X9449Y13999D02*
G01X9449Y12999D01*
G01X10550Y12999D01*
G01X10550Y13999D01*
G01X9449Y13999D01*
G37*
G36*
G01X7449Y12399D02*
G01X7449Y11399D01*
G01X8550Y11399D01*
G01X8550Y12399D01*
G01X7449Y12399D01*
G37*
G36*
G01X7449Y13999D02*
G01X7449Y12999D01*
G01X8550Y12999D01*
G01X8550Y13999D01*
G01X7449Y13999D01*
G37*
G36*
G01X21149Y14899D02*
G01X21149Y13899D01*
G01X22250Y13899D01*
G01X22250Y14899D01*
G01X21149Y14899D01*
G37*
G36*
G01X21149Y16499D02*
G01X21149Y15499D01*
G01X22250Y15499D01*
G01X22250Y16499D01*
G01X21149Y16499D01*
G37*
G36*
G01X11449Y12399D02*
G01X11449Y11399D01*
G01X12550Y11399D01*
G01X12550Y12399D01*
G01X11449Y12399D01*
G37*
G36*
G01X11449Y13999D02*
G01X11449Y12999D01*
G01X12550Y12999D01*
G01X12550Y13999D01*
G01X11449Y13999D01*
G37*
G36*
G01X13449Y12399D02*
G01X13449Y11399D01*
G01X14550Y11399D01*
G01X14550Y12399D01*
G01X13449Y12399D01*
G37*
G36*
G01X13449Y13999D02*
G01X13449Y12999D01*
G01X14550Y12999D01*
G01X14550Y13999D01*
G01X13449Y13999D01*
G37*
G36*
G01X26550Y7699D02*
G01X26550Y8699D01*
G01X25449Y8699D01*
G01X25449Y7699D01*
G01X26550Y7699D01*
G37*
G36*
G01X26550Y9500D02*
G01X26550Y10500D01*
G01X25449Y10500D01*
G01X25449Y9500D01*
G01X26550Y9500D01*
G37*
G36*
G01X20599Y11849D02*
G01X21599Y11849D01*
G01X21599Y12949D01*
G01X20599Y12949D01*
G01X20599Y11849D01*
G37*
G36*
G01X22400Y11849D02*
G01X23400Y11849D01*
G01X23400Y12949D01*
G01X22400Y12949D01*
G01X22400Y11849D01*
G37*
M00*
M02*
