G04 Layer: TopPasteMaskLayer*
G04 EasyEDA v6.4.7, 2020-12-07T01:06:49--5:00*
G04 5e8349f5503448508ce6795c89dbbb90,9f54a757970e4a3cb0a7e8d24ad546a0,10*
G04 Gerber Generator version 0.2*
G04 Scale: 100 percent, Rotated: No, Reflected: No *
G04 Dimensions in millimeters *
G04 leading zeros omitted , absolute positions ,3 integer and 3 decimal *
%FSLAX33Y33*%
%MOMM*%
G90*
D02*

%ADD15R,0.999998X1.099998*%
%ADD17R,1.099998X0.999998*%
%ADD18R,0.599440X1.198880*%
%ADD20R,1.399540X1.300480*%
%ADD21R,0.480060X1.299997*%
%ADD22R,1.999996X0.399999*%

%LPD*%
G36*
G01X15799Y1951D02*
G01X16799Y1951D01*
G01X16799Y851D01*
G01X15799Y851D01*
G01X15799Y1951D01*
G37*
G36*
G01X14199Y1951D02*
G01X15199Y1951D01*
G01X15199Y851D01*
G01X14199Y851D01*
G01X14199Y1951D01*
G37*
G36*
G01X6748Y2099D02*
G01X8049Y2099D01*
G01X8049Y700D01*
G01X6748Y700D01*
G01X6748Y2099D01*
G37*
G36*
G01X8849Y2099D02*
G01X10149Y2099D01*
G01X10149Y700D01*
G01X8849Y700D01*
G01X8849Y2099D01*
G37*
G54D17*
G01X18499Y2599D03*
G01X18499Y4199D03*
G54D18*
G01X21420Y6800D03*
G01X23299Y6800D03*
G01X21420Y3904D03*
G01X23299Y3904D03*
G36*
G01X11924Y16249D02*
G01X14274Y16249D01*
G01X14274Y12749D01*
G01X11924Y12749D01*
G01X11924Y16249D01*
G37*
G36*
G01X17994Y16249D02*
G01X20344Y16249D01*
G01X20344Y12749D01*
G01X17994Y12749D01*
G01X17994Y16249D01*
G37*
G01X21410Y11995D03*
G01X22349Y11995D03*
G01X23289Y11995D03*
G01X21410Y9100D03*
G01X22349Y9100D03*
G01X23289Y9100D03*
G54D20*
G01X7400Y3699D03*
G01X7400Y5799D03*
G54D21*
G01X10795Y3391D03*
G01X12065Y3391D03*
G01X13335Y3391D03*
G01X14605Y3391D03*
G01X14605Y9208D03*
G01X13335Y9208D03*
G01X12065Y9208D03*
G01X10795Y9208D03*
G54D17*
G01X8999Y13399D03*
G01X8999Y14999D03*
G36*
G01X17800Y10449D02*
G01X18800Y10449D01*
G01X18800Y9349D01*
G01X17800Y9349D01*
G01X17800Y10449D01*
G37*
G36*
G01X16200Y10449D02*
G01X17200Y10449D01*
G01X17200Y9349D01*
G01X16200Y9349D01*
G01X16200Y10449D01*
G37*
G01X8899Y8199D03*
G01X8899Y10000D03*
G54D15*
G01X18400Y7700D03*
G01X16599Y7700D03*
G54D17*
G01X6999Y8199D03*
G01X6999Y10000D03*
G36*
G01X6599Y17450D02*
G01X7599Y17450D01*
G01X7599Y16349D01*
G01X6599Y16349D01*
G01X6599Y17450D01*
G37*
G36*
G01X8400Y17450D02*
G01X9400Y17450D01*
G01X9400Y16349D01*
G01X8400Y16349D01*
G01X8400Y17450D01*
G37*
G54D22*
G01X4501Y10301D03*
G01X4501Y7701D03*
M00*
M02*
