;Layer: Drill PTH
;EasyEDA v6.4.7, 2020-12-07T01:06:49--5:00
;5e8349f5503448508ce6795c89dbbb90,9f54a757970e4a3cb0a7e8d24ad546a0,10
;Gerber Generator version 0.2
M48
METRIC,LZ,000.000
;Holesize 1 = 0.305 METRIC
T01C0.305
;Holesize 2 = 0.450 METRIC
T02C0.450
;Holesize 3 = 1.200 METRIC
T03C1.200
;Holesize 4 = 1.501 METRIC
T04C1.501
%
G05
G90
T01
X+018999Y+011500
X+019599Y+005199
X+022900Y+014400
X+005899Y+016299
X+005500Y+016999
X+022348Y+007499
X+020299Y+011299
X+013299Y+010700
X+005500Y+002000
X+013299Y+002000
X+005001Y+003999
X+009999Y+003499
X+019599Y+001400
T02
X+000801Y+012641G85X+001751Y+012641
X+004251Y+005481G85X+005201Y+005481
X+000851Y+005361G85X+001801Y+005361
X+004251Y+012641G85X+005201Y+012641
T03
X+025999Y+012500
X+025999Y+015999
X+025999Y+005499
X+025999Y+001999
X+001999Y+015999
X+001999Y+001999
T04
X+013219Y+006299G85X+012180Y+006299
M30
