G04 Layer: BottomLayer*
G04 EasyEDA v6.4.7, 2020-12-07T01:06:49--5:00*
G04 5e8349f5503448508ce6795c89dbbb90,9f54a757970e4a3cb0a7e8d24ad546a0,10*
G04 Gerber Generator version 0.2*
G04 Scale: 100 percent, Rotated: No, Reflected: No *
G04 Dimensions in millimeters *
G04 leading zeros omitted , absolute positions ,3 integer and 3 decimal *
%FSLAX33Y33*%
%MOMM*%
G90*
D02*

%ADD11C,0.499999*%
%ADD13C,0.399999*%
%ADD14C,0.609600*%
%ADD23R,3.499866X2.499995*%
%ADD24R,1.599997X1.599997*%
%ADD25C,1.050011*%
%ADD26C,0.999998*%
%ADD27C,0.450012*%

%LPD*%
G36*
G01X26957Y17499D02*
G01X1042Y17499D01*
G01X1026Y17498D01*
G01X1010Y17495D01*
G01X995Y17488D01*
G01X982Y17480D01*
G01X970Y17470D01*
G01X529Y17029D01*
G01X519Y17017D01*
G01X511Y17004D01*
G01X504Y16989D01*
G01X501Y16973D01*
G01X499Y16957D01*
G01X499Y13480D01*
G01X501Y13465D01*
G01X504Y13451D01*
G01X509Y13438D01*
G01X516Y13425D01*
G01X524Y13413D01*
G01X535Y13403D01*
G01X546Y13394D01*
G01X559Y13387D01*
G01X572Y13382D01*
G01X587Y13379D01*
G01X601Y13378D01*
G01X617Y13379D01*
G01X633Y13383D01*
G01X671Y13395D01*
G01X710Y13404D01*
G01X750Y13412D01*
G01X750Y12967D01*
G01X601Y12967D01*
G01X587Y12966D01*
G01X572Y12963D01*
G01X546Y12951D01*
G01X535Y12942D01*
G01X524Y12932D01*
G01X516Y12920D01*
G01X509Y12907D01*
G01X504Y12894D01*
G01X501Y12879D01*
G01X499Y12865D01*
G01X499Y12416D01*
G01X501Y12402D01*
G01X504Y12388D01*
G01X509Y12374D01*
G01X516Y12361D01*
G01X524Y12350D01*
G01X535Y12339D01*
G01X546Y12331D01*
G01X559Y12324D01*
G01X572Y12319D01*
G01X587Y12316D01*
G01X601Y12315D01*
G01X750Y12315D01*
G01X750Y11869D01*
G01X710Y11877D01*
G01X671Y11886D01*
G01X633Y11898D01*
G01X617Y11902D01*
G01X601Y11903D01*
G01X587Y11902D01*
G01X572Y11899D01*
G01X559Y11894D01*
G01X546Y11887D01*
G01X535Y11878D01*
G01X524Y11868D01*
G01X516Y11856D01*
G01X509Y11844D01*
G01X504Y11830D01*
G01X501Y11816D01*
G01X499Y11801D01*
G01X499Y6182D01*
G01X501Y6167D01*
G01X504Y6153D01*
G01X509Y6140D01*
G01X516Y6127D01*
G01X524Y6115D01*
G01X535Y6105D01*
G01X546Y6096D01*
G01X559Y6089D01*
G01X572Y6084D01*
G01X587Y6081D01*
G01X601Y6080D01*
G01X620Y6082D01*
G01X639Y6087D01*
G01X678Y6102D01*
G01X718Y6114D01*
G01X759Y6124D01*
G01X800Y6132D01*
G01X800Y5687D01*
G01X601Y5687D01*
G01X587Y5686D01*
G01X572Y5683D01*
G01X559Y5678D01*
G01X546Y5671D01*
G01X535Y5662D01*
G01X524Y5652D01*
G01X516Y5640D01*
G01X509Y5627D01*
G01X504Y5614D01*
G01X501Y5600D01*
G01X499Y5585D01*
G01X499Y5136D01*
G01X501Y5122D01*
G01X504Y5108D01*
G01X509Y5094D01*
G01X516Y5081D01*
G01X524Y5070D01*
G01X535Y5060D01*
G01X546Y5051D01*
G01X559Y5044D01*
G01X572Y5039D01*
G01X587Y5036D01*
G01X601Y5035D01*
G01X800Y5035D01*
G01X800Y4590D01*
G01X759Y4597D01*
G01X718Y4608D01*
G01X678Y4620D01*
G01X639Y4634D01*
G01X620Y4640D01*
G01X601Y4641D01*
G01X587Y4640D01*
G01X572Y4637D01*
G01X559Y4632D01*
G01X546Y4625D01*
G01X535Y4617D01*
G01X524Y4606D01*
G01X516Y4595D01*
G01X509Y4582D01*
G01X504Y4568D01*
G01X501Y4554D01*
G01X499Y4540D01*
G01X499Y1042D01*
G01X501Y1026D01*
G01X504Y1010D01*
G01X511Y995D01*
G01X519Y982D01*
G01X529Y970D01*
G01X970Y529D01*
G01X982Y519D01*
G01X995Y511D01*
G01X1010Y504D01*
G01X1026Y501D01*
G01X1042Y499D01*
G01X6917Y499D01*
G01X6931Y501D01*
G01X6945Y504D01*
G01X6959Y509D01*
G01X6971Y516D01*
G01X6983Y524D01*
G01X6993Y535D01*
G01X7002Y546D01*
G01X7009Y559D01*
G01X7014Y572D01*
G01X7017Y587D01*
G01X7018Y601D01*
G01X7017Y616D01*
G01X7014Y631D01*
G01X7008Y645D01*
G01X7001Y658D01*
G01X6991Y670D01*
G01X6980Y680D01*
G01X6968Y689D01*
G01X6954Y695D01*
G01X6940Y700D01*
G01X6904Y711D01*
G01X6218Y986D01*
G01X6199Y991D01*
G01X6180Y993D01*
G01X5999Y993D01*
G01X5966Y994D01*
G01X5933Y997D01*
G01X5900Y1003D01*
G01X5868Y1010D01*
G01X5836Y1020D01*
G01X5805Y1032D01*
G01X5775Y1045D01*
G01X5746Y1061D01*
G01X5718Y1078D01*
G01X5691Y1098D01*
G01X5665Y1119D01*
G01X5641Y1141D01*
G01X5327Y1455D01*
G01X5311Y1468D01*
G01X5293Y1478D01*
G01X5260Y1492D01*
G01X5229Y1508D01*
G01X5199Y1526D01*
G01X5170Y1545D01*
G01X5142Y1567D01*
G01X5115Y1590D01*
G01X5090Y1615D01*
G01X5067Y1642D01*
G01X5045Y1670D01*
G01X5026Y1699D01*
G01X5008Y1729D01*
G01X4992Y1761D01*
G01X4978Y1793D01*
G01X4966Y1826D01*
G01X4956Y1860D01*
G01X4948Y1894D01*
G01X4943Y1929D01*
G01X4939Y1964D01*
G01X4938Y2000D01*
G01X4939Y2033D01*
G01X4942Y2067D01*
G01X4947Y2101D01*
G01X4955Y2134D01*
G01X4964Y2167D01*
G01X4975Y2199D01*
G01X4988Y2230D01*
G01X5003Y2260D01*
G01X5019Y2290D01*
G01X5038Y2318D01*
G01X5058Y2346D01*
G01X5079Y2372D01*
G01X5127Y2420D01*
G01X5153Y2441D01*
G01X5181Y2461D01*
G01X5209Y2480D01*
G01X5239Y2497D01*
G01X5269Y2511D01*
G01X5301Y2524D01*
G01X5333Y2535D01*
G01X5365Y2545D01*
G01X5398Y2552D01*
G01X5432Y2557D01*
G01X5466Y2560D01*
G01X5500Y2561D01*
G01X5535Y2560D01*
G01X5570Y2556D01*
G01X5605Y2551D01*
G01X5639Y2543D01*
G01X5673Y2533D01*
G01X5707Y2521D01*
G01X5739Y2507D01*
G01X5771Y2491D01*
G01X5801Y2473D01*
G01X5830Y2453D01*
G01X5858Y2432D01*
G01X5885Y2408D01*
G01X5909Y2383D01*
G01X5933Y2357D01*
G01X5954Y2329D01*
G01X5974Y2299D01*
G01X5992Y2269D01*
G01X6008Y2237D01*
G01X6022Y2205D01*
G01X6032Y2186D01*
G01X6045Y2170D01*
G01X6157Y2058D01*
G01X6169Y2047D01*
G01X6183Y2038D01*
G01X6198Y2032D01*
G01X6214Y2027D01*
G01X6231Y2026D01*
G01X6250Y2028D01*
G01X6269Y2033D01*
G01X6904Y2288D01*
G01X6927Y2296D01*
G01X6951Y2301D01*
G01X6974Y2305D01*
G01X6999Y2306D01*
G01X8000Y2306D01*
G01X8023Y2305D01*
G01X8046Y2302D01*
G01X8068Y2297D01*
G01X8090Y2290D01*
G01X8111Y2280D01*
G01X8132Y2269D01*
G01X8151Y2257D01*
G01X8169Y2242D01*
G01X8186Y2226D01*
G01X8201Y2208D01*
G01X8214Y2190D01*
G01X8223Y2178D01*
G01X8233Y2168D01*
G01X8245Y2159D01*
G01X8258Y2153D01*
G01X8271Y2148D01*
G01X8285Y2145D01*
G01X8300Y2144D01*
G01X8314Y2145D01*
G01X8328Y2148D01*
G01X8342Y2153D01*
G01X8354Y2159D01*
G01X8366Y2168D01*
G01X8376Y2178D01*
G01X8385Y2190D01*
G01X8398Y2208D01*
G01X8413Y2226D01*
G01X8430Y2242D01*
G01X8448Y2257D01*
G01X8467Y2269D01*
G01X8488Y2280D01*
G01X8509Y2290D01*
G01X8531Y2297D01*
G01X8554Y2302D01*
G01X8576Y2305D01*
G01X8600Y2306D01*
G01X9600Y2306D01*
G01X9624Y2305D01*
G01X9649Y2301D01*
G01X9673Y2295D01*
G01X9696Y2287D01*
G01X9719Y2277D01*
G01X9740Y2264D01*
G01X9760Y2250D01*
G01X9779Y2233D01*
G01X9796Y2215D01*
G01X9811Y2195D01*
G01X9821Y2182D01*
G01X9834Y2171D01*
G01X9849Y2162D01*
G01X10239Y1967D01*
G01X10254Y1961D01*
G01X10269Y1957D01*
G01X10285Y1956D01*
G01X12268Y1956D01*
G01X12284Y1957D01*
G01X12299Y1961D01*
G01X12314Y1967D01*
G01X12327Y1976D01*
G01X12340Y1986D01*
G01X12676Y2323D01*
G01X12699Y2344D01*
G01X12723Y2363D01*
G01X12748Y2381D01*
G01X12774Y2397D01*
G01X12801Y2411D01*
G01X12829Y2424D01*
G01X12858Y2434D01*
G01X12888Y2443D01*
G01X12918Y2449D01*
G01X12948Y2454D01*
G01X12964Y2457D01*
G01X12979Y2462D01*
G01X12993Y2470D01*
G01X13023Y2488D01*
G01X13055Y2505D01*
G01X13088Y2520D01*
G01X13122Y2532D01*
G01X13157Y2542D01*
G01X13192Y2550D01*
G01X13228Y2556D01*
G01X13263Y2560D01*
G01X13299Y2561D01*
G01X13333Y2560D01*
G01X13367Y2557D01*
G01X13401Y2552D01*
G01X13434Y2545D01*
G01X13466Y2535D01*
G01X13499Y2524D01*
G01X13530Y2511D01*
G01X13560Y2497D01*
G01X13590Y2480D01*
G01X13618Y2461D01*
G01X13646Y2441D01*
G01X13672Y2420D01*
G01X13720Y2372D01*
G01X13741Y2346D01*
G01X13761Y2318D01*
G01X13780Y2290D01*
G01X13797Y2260D01*
G01X13811Y2230D01*
G01X13824Y2199D01*
G01X13835Y2167D01*
G01X13844Y2134D01*
G01X13852Y2101D01*
G01X13857Y2067D01*
G01X13860Y2033D01*
G01X13861Y2000D01*
G01X13860Y1966D01*
G01X13857Y1932D01*
G01X13852Y1898D01*
G01X13844Y1865D01*
G01X13835Y1833D01*
G01X13824Y1800D01*
G01X13811Y1769D01*
G01X13797Y1739D01*
G01X13780Y1709D01*
G01X13761Y1681D01*
G01X13741Y1653D01*
G01X13720Y1627D01*
G01X13672Y1579D01*
G01X13646Y1558D01*
G01X13618Y1538D01*
G01X13590Y1519D01*
G01X13560Y1502D01*
G01X13530Y1488D01*
G01X13499Y1475D01*
G01X13466Y1464D01*
G01X13434Y1454D01*
G01X13401Y1447D01*
G01X13367Y1442D01*
G01X13333Y1439D01*
G01X13299Y1438D01*
G01X13257Y1440D01*
G01X13214Y1445D01*
G01X13172Y1453D01*
G01X13149Y1455D01*
G01X13122Y1452D01*
G01X13113Y1449D01*
G01X13096Y1443D01*
G01X13081Y1434D01*
G01X13068Y1423D01*
G01X12822Y1177D01*
G01X12798Y1155D01*
G01X12772Y1134D01*
G01X12746Y1116D01*
G01X12718Y1099D01*
G01X12689Y1084D01*
G01X12658Y1072D01*
G01X12627Y1062D01*
G01X12596Y1054D01*
G01X12564Y1048D01*
G01X12531Y1044D01*
G01X12499Y1043D01*
G01X10286Y1043D01*
G01X10270Y1042D01*
G01X10255Y1038D01*
G01X10240Y1032D01*
G01X9849Y837D01*
G01X9834Y828D01*
G01X9821Y817D01*
G01X9811Y804D01*
G01X9796Y785D01*
G01X9781Y768D01*
G01X9763Y752D01*
G01X9744Y738D01*
G01X9724Y725D01*
G01X9703Y715D01*
G01X9682Y706D01*
G01X9659Y700D01*
G01X9645Y695D01*
G01X9631Y689D01*
G01X9619Y680D01*
G01X9608Y670D01*
G01X9598Y658D01*
G01X9591Y645D01*
G01X9585Y631D01*
G01X9582Y616D01*
G01X9581Y601D01*
G01X9582Y587D01*
G01X9585Y572D01*
G01X9590Y559D01*
G01X9597Y546D01*
G01X9606Y535D01*
G01X9616Y524D01*
G01X9628Y516D01*
G01X9640Y509D01*
G01X9654Y504D01*
G01X9668Y501D01*
G01X9683Y499D01*
G01X26957Y499D01*
G01X26973Y501D01*
G01X26989Y504D01*
G01X27004Y511D01*
G01X27017Y519D01*
G01X27029Y529D01*
G01X27470Y970D01*
G01X27480Y982D01*
G01X27488Y995D01*
G01X27495Y1010D01*
G01X27498Y1026D01*
G01X27499Y1042D01*
G01X27499Y16957D01*
G01X27498Y16973D01*
G01X27495Y16989D01*
G01X27488Y17004D01*
G01X27480Y17017D01*
G01X27470Y17029D01*
G01X27029Y17470D01*
G01X27017Y17480D01*
G01X27004Y17488D01*
G01X26989Y17495D01*
G01X26973Y17498D01*
G01X26957Y17499D01*
G37*

%LPC*%
G36*
G01X26799Y17056D02*
G01X25199Y17056D01*
G01X25176Y17055D01*
G01X25152Y17052D01*
G01X25129Y17046D01*
G01X25107Y17039D01*
G01X25085Y17029D01*
G01X25064Y17018D01*
G01X25045Y17004D01*
G01X25027Y16989D01*
G01X25010Y16972D01*
G01X24995Y16954D01*
G01X24981Y16935D01*
G01X24970Y16914D01*
G01X24960Y16892D01*
G01X24953Y16870D01*
G01X24947Y16847D01*
G01X24944Y16823D01*
G01X24943Y16799D01*
G01X24943Y16714D01*
G01X24942Y16698D01*
G01X24938Y16683D01*
G01X24932Y16668D01*
G01X24923Y16654D01*
G01X24913Y16642D01*
G01X24900Y16632D01*
G01X24887Y16624D01*
G01X24575Y16468D01*
G01X24561Y16462D01*
G01X24545Y16458D01*
G01X24530Y16457D01*
G01X22603Y16457D01*
G01X22587Y16458D01*
G01X22572Y16462D01*
G01X22557Y16468D01*
G01X22543Y16476D01*
G01X22531Y16486D01*
G01X22521Y16498D01*
G01X22513Y16512D01*
G01X22506Y16526D01*
G01X22503Y16542D01*
G01X22497Y16565D01*
G01X22490Y16588D01*
G01X22481Y16610D01*
G01X22469Y16631D01*
G01X22456Y16651D01*
G01X22441Y16670D01*
G01X22424Y16687D01*
G01X22406Y16703D01*
G01X22386Y16716D01*
G01X22365Y16728D01*
G01X22343Y16738D01*
G01X22321Y16746D01*
G01X22297Y16751D01*
G01X22273Y16755D01*
G01X22250Y16756D01*
G01X21149Y16756D01*
G01X21126Y16755D01*
G01X21104Y16752D01*
G01X21081Y16747D01*
G01X21059Y16739D01*
G01X21038Y16730D01*
G01X21018Y16719D01*
G01X20998Y16707D01*
G01X20980Y16692D01*
G01X20964Y16676D01*
G01X20948Y16659D01*
G01X20935Y16640D01*
G01X20923Y16620D01*
G01X20913Y16599D01*
G01X20905Y16578D01*
G01X20899Y16563D01*
G01X20891Y16549D01*
G01X20880Y16537D01*
G01X20868Y16527D01*
G01X20855Y16518D01*
G01X20840Y16512D01*
G01X20824Y16508D01*
G01X20808Y16507D01*
G01X19999Y16507D01*
G01X19966Y16506D01*
G01X19933Y16503D01*
G01X19901Y16497D01*
G01X19868Y16490D01*
G01X19837Y16480D01*
G01X19806Y16468D01*
G01X19775Y16455D01*
G01X19746Y16439D01*
G01X19718Y16422D01*
G01X19691Y16402D01*
G01X19665Y16381D01*
G01X19641Y16359D01*
G01X18641Y15358D01*
G01X18618Y15334D01*
G01X18597Y15308D01*
G01X18578Y15281D01*
G01X18560Y15253D01*
G01X18544Y15224D01*
G01X18531Y15194D01*
G01X18519Y15163D01*
G01X18509Y15131D01*
G01X18502Y15099D01*
G01X18496Y15066D01*
G01X18493Y15033D01*
G01X18492Y15000D01*
G01X18492Y11764D01*
G01X18490Y11743D01*
G01X18484Y11723D01*
G01X18470Y11687D01*
G01X18458Y11651D01*
G01X18449Y11614D01*
G01X18443Y11576D01*
G01X18439Y11538D01*
G01X18437Y11500D01*
G01X18438Y11466D01*
G01X18441Y11432D01*
G01X18447Y11398D01*
G01X18454Y11365D01*
G01X18463Y11333D01*
G01X18474Y11301D01*
G01X18487Y11269D01*
G01X18502Y11239D01*
G01X18518Y11209D01*
G01X18537Y11181D01*
G01X18557Y11153D01*
G01X18579Y11127D01*
G01X18602Y11103D01*
G01X18626Y11079D01*
G01X18653Y11058D01*
G01X18680Y11038D01*
G01X18708Y11019D01*
G01X18738Y11003D01*
G01X18768Y10988D01*
G01X18800Y10975D01*
G01X18832Y10964D01*
G01X18864Y10955D01*
G01X18898Y10947D01*
G01X18931Y10942D01*
G01X18965Y10939D01*
G01X18999Y10938D01*
G01X19033Y10939D01*
G01X19068Y10943D01*
G01X19102Y10948D01*
G01X19136Y10955D01*
G01X19169Y10965D01*
G01X19202Y10976D01*
G01X19234Y10990D01*
G01X19265Y11005D01*
G01X19295Y11023D01*
G01X19324Y11042D01*
G01X19351Y11063D01*
G01X19377Y11085D01*
G01X19402Y11110D01*
G01X19426Y11135D01*
G01X19447Y11162D01*
G01X19467Y11191D01*
G01X19485Y11220D01*
G01X19502Y11251D01*
G01X19516Y11282D01*
G01X19529Y11314D01*
G01X19539Y11347D01*
G01X19545Y11363D01*
G01X19553Y11377D01*
G01X19563Y11389D01*
G01X19574Y11400D01*
G01X19588Y11409D01*
G01X19578Y11421D01*
G01X19570Y11434D01*
G01X19564Y11449D01*
G01X19561Y11464D01*
G01X19560Y11479D01*
G01X19560Y11500D01*
G01X19559Y11538D01*
G01X19555Y11576D01*
G01X19548Y11614D01*
G01X19539Y11651D01*
G01X19528Y11687D01*
G01X19514Y11723D01*
G01X19507Y11743D01*
G01X19505Y11764D01*
G01X19505Y14748D01*
G01X19506Y14764D01*
G01X19510Y14779D01*
G01X19516Y14794D01*
G01X19525Y14808D01*
G01X19535Y14820D01*
G01X20180Y15464D01*
G01X20192Y15475D01*
G01X20205Y15483D01*
G01X20220Y15489D01*
G01X20235Y15493D01*
G01X20251Y15494D01*
G01X20808Y15494D01*
G01X20824Y15493D01*
G01X20839Y15489D01*
G01X20854Y15483D01*
G01X20868Y15474D01*
G01X20880Y15464D01*
G01X20890Y15451D01*
G01X20899Y15438D01*
G01X20905Y15423D01*
G01X20913Y15399D01*
G01X20924Y15376D01*
G01X20938Y15355D01*
G01X20953Y15335D01*
G01X20970Y15316D01*
G01X20989Y15299D01*
G01X21009Y15284D01*
G01X21021Y15276D01*
G01X21031Y15266D01*
G01X21040Y15254D01*
G01X21046Y15241D01*
G01X21051Y15228D01*
G01X21054Y15214D01*
G01X21055Y15199D01*
G01X21054Y15185D01*
G01X21051Y15171D01*
G01X21046Y15157D01*
G01X21040Y15145D01*
G01X21031Y15133D01*
G01X21021Y15123D01*
G01X21009Y15114D01*
G01X20991Y15101D01*
G01X20973Y15086D01*
G01X20957Y15069D01*
G01X20943Y15051D01*
G01X20930Y15032D01*
G01X20919Y15011D01*
G01X20910Y14990D01*
G01X20902Y14968D01*
G01X20897Y14946D01*
G01X20894Y14923D01*
G01X20893Y14899D01*
G01X20893Y13899D01*
G01X20894Y13876D01*
G01X20897Y13852D01*
G01X20903Y13829D01*
G01X20910Y13807D01*
G01X20920Y13785D01*
G01X20931Y13764D01*
G01X20945Y13745D01*
G01X20960Y13727D01*
G01X20977Y13710D01*
G01X20995Y13695D01*
G01X21015Y13681D01*
G01X21035Y13670D01*
G01X21057Y13660D01*
G01X21079Y13653D01*
G01X21102Y13647D01*
G01X21126Y13644D01*
G01X21150Y13643D01*
G01X22220Y13643D01*
G01X22234Y13642D01*
G01X22248Y13639D01*
G01X22262Y13634D01*
G01X22274Y13627D01*
G01X22286Y13618D01*
G01X22296Y13608D01*
G01X22305Y13596D01*
G01X22312Y13584D01*
G01X22317Y13570D01*
G01X22320Y13556D01*
G01X22321Y13541D01*
G01X22320Y13525D01*
G01X22316Y13509D01*
G01X22162Y13047D01*
G01X22160Y13042D01*
G01X22153Y13020D01*
G01X22147Y12996D01*
G01X22144Y12973D01*
G01X22143Y12949D01*
G01X22143Y11849D01*
G01X22144Y11826D01*
G01X22147Y11802D01*
G01X22153Y11779D01*
G01X22160Y11757D01*
G01X22170Y11735D01*
G01X22181Y11714D01*
G01X22195Y11695D01*
G01X22210Y11677D01*
G01X22227Y11660D01*
G01X22245Y11645D01*
G01X22264Y11631D01*
G01X22285Y11620D01*
G01X22307Y11610D01*
G01X22329Y11603D01*
G01X22352Y11597D01*
G01X22376Y11594D01*
G01X22399Y11593D01*
G01X23399Y11593D01*
G01X23423Y11594D01*
G01X23447Y11597D01*
G01X23470Y11603D01*
G01X23492Y11610D01*
G01X23514Y11620D01*
G01X23535Y11631D01*
G01X23554Y11645D01*
G01X23572Y11660D01*
G01X23589Y11677D01*
G01X23604Y11695D01*
G01X23618Y11714D01*
G01X23629Y11735D01*
G01X23639Y11757D01*
G01X23646Y11779D01*
G01X23652Y11802D01*
G01X23655Y11826D01*
G01X23656Y11849D01*
G01X23656Y12949D01*
G01X23655Y12975D01*
G01X23651Y13001D01*
G01X23644Y13026D01*
G01X23635Y13051D01*
G01X23632Y13059D01*
G01X23412Y13723D01*
G01X23408Y13739D01*
G01X23407Y13755D01*
G01X23407Y14137D01*
G01X23409Y14157D01*
G01X23415Y14177D01*
G01X23429Y14213D01*
G01X23440Y14249D01*
G01X23449Y14286D01*
G01X23456Y14324D01*
G01X23460Y14361D01*
G01X23461Y14400D01*
G01X23460Y14433D01*
G01X23457Y14467D01*
G01X23452Y14501D01*
G01X23445Y14534D01*
G01X23436Y14567D01*
G01X23424Y14599D01*
G01X23412Y14630D01*
G01X23397Y14660D01*
G01X23380Y14690D01*
G01X23362Y14718D01*
G01X23342Y14746D01*
G01X23320Y14772D01*
G01X23297Y14796D01*
G01X23272Y14820D01*
G01X23246Y14841D01*
G01X23219Y14862D01*
G01X23190Y14880D01*
G01X23160Y14897D01*
G01X23130Y14911D01*
G01X23099Y14924D01*
G01X23067Y14935D01*
G01X23034Y14945D01*
G01X23001Y14952D01*
G01X22967Y14957D01*
G01X22934Y14960D01*
G01X22900Y14961D01*
G01X22843Y14958D01*
G01X22833Y14957D01*
G01X22814Y14959D01*
G01X22796Y14964D01*
G01X22417Y15110D01*
G01X22403Y15117D01*
G01X22391Y15125D01*
G01X22379Y15136D01*
G01X22370Y15148D01*
G01X22362Y15161D01*
G01X22357Y15175D01*
G01X22353Y15190D01*
G01X22352Y15205D01*
G01X22353Y15221D01*
G01X22357Y15237D01*
G01X22364Y15252D01*
G01X22372Y15266D01*
G01X22383Y15278D01*
G01X22396Y15289D01*
G01X22414Y15302D01*
G01X22431Y15318D01*
G01X22446Y15335D01*
G01X22460Y15353D01*
G01X22472Y15372D01*
G01X22483Y15393D01*
G01X22491Y15414D01*
G01X22498Y15436D01*
G01X22503Y15459D01*
G01X22507Y15474D01*
G01X22513Y15489D01*
G01X22521Y15502D01*
G01X22531Y15514D01*
G01X22543Y15525D01*
G01X22557Y15533D01*
G01X22572Y15539D01*
G01X22587Y15543D01*
G01X22603Y15544D01*
G01X24525Y15544D01*
G01X24541Y15543D01*
G01X24556Y15539D01*
G01X24571Y15533D01*
G01X24887Y15375D01*
G01X24900Y15367D01*
G01X24913Y15357D01*
G01X24923Y15345D01*
G01X24932Y15331D01*
G01X24938Y15316D01*
G01X24942Y15300D01*
G01X24943Y15284D01*
G01X24943Y15199D01*
G01X24944Y15175D01*
G01X24947Y15152D01*
G01X24953Y15128D01*
G01X24961Y15106D01*
G01X24971Y15084D01*
G01X24982Y15063D01*
G01X24996Y15043D01*
G01X25012Y15025D01*
G01X25029Y15008D01*
G01X25048Y14993D01*
G01X25068Y14979D01*
G01X25089Y14968D01*
G01X25111Y14959D01*
G01X25134Y14951D01*
G01X25157Y14946D01*
G01X25173Y14943D01*
G01X25187Y14936D01*
G01X25201Y14928D01*
G01X25213Y14918D01*
G01X25223Y14906D01*
G01X25231Y14892D01*
G01X25237Y14877D01*
G01X25241Y14862D01*
G01X25242Y14846D01*
G01X25242Y13653D01*
G01X25241Y13637D01*
G01X25237Y13621D01*
G01X25231Y13607D01*
G01X25223Y13593D01*
G01X25213Y13581D01*
G01X25201Y13571D01*
G01X25187Y13562D01*
G01X25173Y13556D01*
G01X25157Y13552D01*
G01X25134Y13547D01*
G01X25111Y13540D01*
G01X25089Y13531D01*
G01X25068Y13519D01*
G01X25048Y13506D01*
G01X25029Y13491D01*
G01X25012Y13474D01*
G01X24996Y13456D01*
G01X24982Y13436D01*
G01X24971Y13415D01*
G01X24961Y13393D01*
G01X24953Y13371D01*
G01X24947Y13347D01*
G01X24944Y13323D01*
G01X24943Y13299D01*
G01X24943Y11699D01*
G01X24944Y11675D01*
G01X24947Y11652D01*
G01X24953Y11628D01*
G01X24961Y11605D01*
G01X24971Y11583D01*
G01X24982Y11563D01*
G01X24996Y11543D01*
G01X25012Y11524D01*
G01X25029Y11508D01*
G01X25048Y11493D01*
G01X25068Y11479D01*
G01X25089Y11468D01*
G01X25111Y11459D01*
G01X25134Y11451D01*
G01X25157Y11446D01*
G01X25173Y11442D01*
G01X25187Y11436D01*
G01X25201Y11428D01*
G01X25213Y11418D01*
G01X25223Y11406D01*
G01X25231Y11392D01*
G01X25237Y11377D01*
G01X25241Y11362D01*
G01X25242Y11346D01*
G01X25242Y10681D01*
G01X25241Y10663D01*
G01X25236Y10646D01*
G01X25228Y10629D01*
G01X25216Y10605D01*
G01X25206Y10580D01*
G01X25199Y10554D01*
G01X25194Y10527D01*
G01X25193Y10499D01*
G01X25193Y9499D01*
G01X25194Y9476D01*
G01X25197Y9452D01*
G01X25203Y9429D01*
G01X25210Y9407D01*
G01X25220Y9385D01*
G01X25231Y9364D01*
G01X25245Y9345D01*
G01X25260Y9327D01*
G01X25277Y9310D01*
G01X25295Y9295D01*
G01X25315Y9281D01*
G01X25335Y9270D01*
G01X25357Y9260D01*
G01X25379Y9253D01*
G01X25402Y9247D01*
G01X25426Y9244D01*
G01X25450Y9243D01*
G01X25963Y9243D01*
G01X25999Y9242D01*
G01X26035Y9243D01*
G01X26550Y9243D01*
G01X26573Y9244D01*
G01X26597Y9247D01*
G01X26620Y9253D01*
G01X26642Y9260D01*
G01X26664Y9270D01*
G01X26685Y9281D01*
G01X26704Y9295D01*
G01X26722Y9310D01*
G01X26739Y9327D01*
G01X26754Y9345D01*
G01X26768Y9364D01*
G01X26779Y9385D01*
G01X26789Y9407D01*
G01X26796Y9429D01*
G01X26802Y9452D01*
G01X26805Y9476D01*
G01X26806Y9499D01*
G01X26806Y10499D01*
G01X26805Y10522D01*
G01X26802Y10545D01*
G01X26797Y10568D01*
G01X26790Y10590D01*
G01X26781Y10611D01*
G01X26770Y10631D01*
G01X26762Y10647D01*
G01X26757Y10665D01*
G01X26755Y10683D01*
G01X26755Y11346D01*
G01X26757Y11362D01*
G01X26760Y11377D01*
G01X26766Y11392D01*
G01X26775Y11405D01*
G01X26785Y11418D01*
G01X26797Y11428D01*
G01X26811Y11436D01*
G01X26825Y11442D01*
G01X26841Y11446D01*
G01X26864Y11451D01*
G01X26887Y11458D01*
G01X26910Y11468D01*
G01X26931Y11479D01*
G01X26951Y11492D01*
G01X26970Y11507D01*
G01X26987Y11524D01*
G01X27002Y11543D01*
G01X27016Y11562D01*
G01X27028Y11583D01*
G01X27038Y11605D01*
G01X27046Y11628D01*
G01X27051Y11651D01*
G01X27055Y11675D01*
G01X27056Y11699D01*
G01X27056Y13299D01*
G01X27055Y13323D01*
G01X27051Y13347D01*
G01X27046Y13371D01*
G01X27038Y13394D01*
G01X27028Y13416D01*
G01X27016Y13436D01*
G01X27002Y13456D01*
G01X26987Y13475D01*
G01X26970Y13491D01*
G01X26951Y13506D01*
G01X26931Y13520D01*
G01X26910Y13531D01*
G01X26887Y13540D01*
G01X26864Y13548D01*
G01X26841Y13553D01*
G01X26825Y13556D01*
G01X26811Y13562D01*
G01X26797Y13571D01*
G01X26785Y13581D01*
G01X26775Y13593D01*
G01X26766Y13607D01*
G01X26760Y13622D01*
G01X26757Y13637D01*
G01X26755Y13653D01*
G01X26755Y14846D01*
G01X26757Y14862D01*
G01X26760Y14877D01*
G01X26766Y14892D01*
G01X26775Y14906D01*
G01X26785Y14918D01*
G01X26797Y14928D01*
G01X26811Y14936D01*
G01X26825Y14943D01*
G01X26841Y14946D01*
G01X26864Y14951D01*
G01X26887Y14958D01*
G01X26910Y14968D01*
G01X26931Y14979D01*
G01X26951Y14992D01*
G01X26970Y15008D01*
G01X26987Y15024D01*
G01X27002Y15043D01*
G01X27016Y15062D01*
G01X27028Y15083D01*
G01X27038Y15105D01*
G01X27046Y15128D01*
G01X27051Y15152D01*
G01X27055Y15175D01*
G01X27056Y15199D01*
G01X27056Y16799D01*
G01X27055Y16823D01*
G01X27052Y16847D01*
G01X27046Y16870D01*
G01X27039Y16892D01*
G01X27029Y16914D01*
G01X27018Y16935D01*
G01X27004Y16954D01*
G01X26989Y16972D01*
G01X26972Y16989D01*
G01X26954Y17004D01*
G01X26934Y17018D01*
G01X26914Y17029D01*
G01X26892Y17039D01*
G01X26870Y17046D01*
G01X26847Y17052D01*
G01X26823Y17055D01*
G01X26799Y17056D01*
G37*
G36*
G01X8036Y16130D02*
G01X8001Y16132D01*
G01X7965Y16130D01*
G01X7929Y16126D01*
G01X7894Y16120D01*
G01X7860Y16110D01*
G01X7845Y16107D01*
G01X7830Y16106D01*
G01X7500Y16106D01*
G01X7468Y16104D01*
G01X7437Y16098D01*
G01X7412Y16095D01*
G01X7243Y16095D01*
G01X7243Y16050D01*
G01X7244Y16026D01*
G01X7248Y16002D01*
G01X7253Y15978D01*
G01X7256Y15964D01*
G01X7257Y15950D01*
G01X7256Y15935D01*
G01X7253Y15921D01*
G01X7248Y15898D01*
G01X7244Y15874D01*
G01X7243Y15850D01*
G01X7243Y15743D01*
G01X7244Y15718D01*
G01X7244Y15705D01*
G01X7246Y15680D01*
G01X7248Y15667D01*
G01X7251Y15643D01*
G01X7252Y15632D01*
G01X7257Y15607D01*
G01X7260Y15593D01*
G01X7265Y15569D01*
G01X7268Y15557D01*
G01X7275Y15533D01*
G01X7278Y15522D01*
G01X7286Y15498D01*
G01X7291Y15484D01*
G01X7300Y15461D01*
G01X7304Y15451D01*
G01X7315Y15428D01*
G01X7321Y15415D01*
G01X7333Y15393D01*
G01X7337Y15384D01*
G01X7350Y15362D01*
G01X7357Y15350D01*
G01X7371Y15329D01*
G01X7379Y15316D01*
G01X7394Y15296D01*
G01X7402Y15285D01*
G01X7418Y15266D01*
G01X7423Y15260D01*
G01X7439Y15241D01*
G01X7448Y15231D01*
G01X7466Y15213D01*
G01X7476Y15204D01*
G01X7484Y15196D01*
G01X7495Y15184D01*
G01X7504Y15170D01*
G01X7510Y15155D01*
G01X7515Y15139D01*
G01X7516Y15122D01*
G01X7518Y14756D01*
G01X7518Y14755D01*
G01X7516Y14740D01*
G01X7513Y14725D01*
G01X7508Y14711D01*
G01X7220Y14114D01*
G01X7221Y14115D01*
G01X7220Y14113D01*
G01X7210Y14092D01*
G01X7203Y14069D01*
G01X7197Y14046D01*
G01X7194Y14023D01*
G01X7193Y13999D01*
G01X7193Y12999D01*
G01X7194Y12976D01*
G01X7197Y12953D01*
G01X7202Y12931D01*
G01X7209Y12909D01*
G01X7219Y12888D01*
G01X7230Y12867D01*
G01X7242Y12848D01*
G01X7257Y12830D01*
G01X7273Y12813D01*
G01X7291Y12798D01*
G01X7309Y12785D01*
G01X7321Y12776D01*
G01X7331Y12766D01*
G01X7340Y12754D01*
G01X7346Y12741D01*
G01X7351Y12728D01*
G01X7354Y12714D01*
G01X7355Y12699D01*
G01X7354Y12685D01*
G01X7351Y12671D01*
G01X7346Y12658D01*
G01X7340Y12645D01*
G01X7331Y12633D01*
G01X7321Y12623D01*
G01X7309Y12614D01*
G01X7291Y12601D01*
G01X7273Y12586D01*
G01X7257Y12569D01*
G01X7243Y12551D01*
G01X7230Y12532D01*
G01X7219Y12511D01*
G01X7210Y12490D01*
G01X7202Y12468D01*
G01X7197Y12446D01*
G01X7194Y12423D01*
G01X7193Y12400D01*
G01X7193Y11400D01*
G01X7194Y11376D01*
G01X7197Y11352D01*
G01X7203Y11329D01*
G01X7210Y11307D01*
G01X7220Y11285D01*
G01X7231Y11264D01*
G01X7245Y11245D01*
G01X7260Y11227D01*
G01X7277Y11210D01*
G01X7295Y11195D01*
G01X7315Y11181D01*
G01X7335Y11170D01*
G01X7357Y11160D01*
G01X7379Y11153D01*
G01X7402Y11147D01*
G01X7426Y11144D01*
G01X7450Y11143D01*
G01X8550Y11143D01*
G01X8577Y11144D01*
G01X8604Y11149D01*
G01X8630Y11156D01*
G01X8665Y11170D01*
G01X9108Y11316D01*
G01X9124Y11320D01*
G01X9140Y11321D01*
G01X9155Y11320D01*
G01X9170Y11317D01*
G01X9184Y11311D01*
G01X9197Y11304D01*
G01X9209Y11294D01*
G01X9219Y11283D01*
G01X9228Y11271D01*
G01X9241Y11250D01*
G01X9256Y11231D01*
G01X9273Y11214D01*
G01X9291Y11198D01*
G01X9311Y11184D01*
G01X9332Y11171D01*
G01X9354Y11161D01*
G01X9377Y11153D01*
G01X9401Y11148D01*
G01X9425Y11144D01*
G01X9450Y11143D01*
G01X10550Y11143D01*
G01X10573Y11144D01*
G01X10596Y11147D01*
G01X10618Y11152D01*
G01X10640Y11159D01*
G01X10661Y11169D01*
G01X10682Y11180D01*
G01X10701Y11192D01*
G01X10719Y11207D01*
G01X10736Y11223D01*
G01X10751Y11240D01*
G01X10764Y11259D01*
G01X10776Y11279D01*
G01X10786Y11300D01*
G01X10794Y11321D01*
G01X10800Y11336D01*
G01X10808Y11350D01*
G01X10819Y11362D01*
G01X10831Y11372D01*
G01X10844Y11381D01*
G01X10859Y11387D01*
G01X10875Y11391D01*
G01X10891Y11392D01*
G01X11109Y11392D01*
G01X11124Y11391D01*
G01X11140Y11387D01*
G01X11155Y11381D01*
G01X11168Y11372D01*
G01X11181Y11362D01*
G01X11191Y11350D01*
G01X11199Y11336D01*
G01X11205Y11321D01*
G01X11213Y11300D01*
G01X11223Y11279D01*
G01X11235Y11259D01*
G01X11249Y11240D01*
G01X11264Y11223D01*
G01X11280Y11207D01*
G01X11298Y11192D01*
G01X11318Y11180D01*
G01X11338Y11169D01*
G01X11359Y11159D01*
G01X11381Y11152D01*
G01X11404Y11147D01*
G01X11427Y11144D01*
G01X11450Y11143D01*
G01X12385Y11143D01*
G01X12401Y11142D01*
G01X12417Y11138D01*
G01X12431Y11132D01*
G01X12445Y11124D01*
G01X12457Y11113D01*
G01X12475Y11095D01*
G01X12485Y11083D01*
G01X12494Y11070D01*
G01X12500Y11055D01*
G01X12503Y11039D01*
G01X12505Y11024D01*
G01X12505Y10988D01*
G01X12506Y10955D01*
G01X12509Y10923D01*
G01X12514Y10891D01*
G01X12521Y10859D01*
G01X12531Y10827D01*
G01X12542Y10797D01*
G01X12555Y10767D01*
G01X12570Y10738D01*
G01X12587Y10710D01*
G01X12606Y10684D01*
G01X12627Y10658D01*
G01X12649Y10634D01*
G01X12648Y10634D01*
G01X12655Y10627D01*
G01X12655Y10628D01*
G01X12656Y10626D01*
G01X12755Y10528D01*
G01X12768Y10512D01*
G01X12777Y10493D01*
G01X12791Y10461D01*
G01X12807Y10430D01*
G01X12825Y10399D01*
G01X12845Y10370D01*
G01X12867Y10342D01*
G01X12890Y10316D01*
G01X12915Y10291D01*
G01X12941Y10267D01*
G01X12969Y10246D01*
G01X12998Y10226D01*
G01X13029Y10208D01*
G01X13060Y10192D01*
G01X13093Y10178D01*
G01X13126Y10166D01*
G01X13160Y10156D01*
G01X13194Y10148D01*
G01X13229Y10143D01*
G01X13264Y10139D01*
G01X13299Y10138D01*
G01X13333Y10139D01*
G01X13367Y10142D01*
G01X13401Y10147D01*
G01X13434Y10154D01*
G01X13466Y10164D01*
G01X13499Y10175D01*
G01X13530Y10188D01*
G01X13560Y10202D01*
G01X13590Y10219D01*
G01X13618Y10238D01*
G01X13646Y10258D01*
G01X13672Y10279D01*
G01X13720Y10327D01*
G01X13741Y10353D01*
G01X13761Y10381D01*
G01X13780Y10409D01*
G01X13797Y10439D01*
G01X13811Y10469D01*
G01X13824Y10500D01*
G01X13835Y10533D01*
G01X13844Y10565D01*
G01X13852Y10598D01*
G01X13857Y10632D01*
G01X13860Y10666D01*
G01X13861Y10700D01*
G01X13860Y10734D01*
G01X13857Y10768D01*
G01X13851Y10802D01*
G01X13844Y10835D01*
G01X13835Y10868D01*
G01X13824Y10901D01*
G01X13810Y10932D01*
G01X13795Y10963D01*
G01X13789Y10978D01*
G01X13785Y10994D01*
G01X13783Y11011D01*
G01X13785Y11027D01*
G01X13788Y11043D01*
G01X13795Y11058D01*
G01X13803Y11071D01*
G01X13821Y11097D01*
G01X13830Y11108D01*
G01X13840Y11118D01*
G01X13852Y11127D01*
G01X13864Y11134D01*
G01X13878Y11139D01*
G01X13892Y11142D01*
G01X13906Y11143D01*
G01X14550Y11143D01*
G01X14574Y11144D01*
G01X14598Y11148D01*
G01X14622Y11153D01*
G01X14645Y11161D01*
G01X14667Y11171D01*
G01X14688Y11184D01*
G01X14708Y11198D01*
G01X14726Y11214D01*
G01X14743Y11231D01*
G01X14758Y11250D01*
G01X14780Y11283D01*
G01X14790Y11294D01*
G01X14802Y11304D01*
G01X14815Y11311D01*
G01X14829Y11317D01*
G01X14844Y11320D01*
G01X14859Y11321D01*
G01X14876Y11320D01*
G01X14891Y11316D01*
G01X15336Y11169D01*
G01X15345Y11165D01*
G01X15370Y11156D01*
G01X15396Y11149D01*
G01X15423Y11144D01*
G01X15450Y11143D01*
G01X16550Y11143D01*
G01X16573Y11144D01*
G01X16597Y11147D01*
G01X16620Y11153D01*
G01X16642Y11160D01*
G01X16664Y11170D01*
G01X16685Y11181D01*
G01X16704Y11195D01*
G01X16722Y11210D01*
G01X16739Y11227D01*
G01X16754Y11245D01*
G01X16768Y11264D01*
G01X16779Y11285D01*
G01X16789Y11307D01*
G01X16796Y11329D01*
G01X16802Y11352D01*
G01X16805Y11376D01*
G01X16806Y11400D01*
G01X16806Y12400D01*
G01X16805Y12423D01*
G01X16802Y12446D01*
G01X16797Y12468D01*
G01X16790Y12490D01*
G01X16780Y12511D01*
G01X16769Y12532D01*
G01X16757Y12551D01*
G01X16742Y12569D01*
G01X16726Y12586D01*
G01X16709Y12601D01*
G01X16690Y12614D01*
G01X16678Y12623D01*
G01X16668Y12633D01*
G01X16660Y12645D01*
G01X16653Y12658D01*
G01X16648Y12671D01*
G01X16645Y12685D01*
G01X16644Y12700D01*
G01X16645Y12714D01*
G01X16648Y12728D01*
G01X16653Y12741D01*
G01X16660Y12754D01*
G01X16668Y12766D01*
G01X16678Y12776D01*
G01X16690Y12785D01*
G01X16709Y12798D01*
G01X16726Y12813D01*
G01X16742Y12830D01*
G01X16757Y12848D01*
G01X16769Y12867D01*
G01X16780Y12888D01*
G01X16790Y12909D01*
G01X16797Y12931D01*
G01X16802Y12953D01*
G01X16805Y12976D01*
G01X16806Y12999D01*
G01X16806Y13999D01*
G01X16805Y14022D01*
G01X16802Y14045D01*
G01X16797Y14068D01*
G01X16790Y14090D01*
G01X16781Y14111D01*
G01X16780Y14112D01*
G01X16780Y14113D01*
G01X16492Y14711D01*
G01X16486Y14725D01*
G01X16483Y14740D01*
G01X16482Y14755D01*
G01X16483Y15123D01*
G01X16485Y15139D01*
G01X16489Y15155D01*
G01X16496Y15170D01*
G01X16505Y15184D01*
G01X16516Y15197D01*
G01X16523Y15204D01*
G01X16533Y15213D01*
G01X16551Y15231D01*
G01X16560Y15241D01*
G01X16576Y15260D01*
G01X16581Y15266D01*
G01X16597Y15285D01*
G01X16605Y15296D01*
G01X16620Y15316D01*
G01X16628Y15329D01*
G01X16642Y15350D01*
G01X16649Y15362D01*
G01X16662Y15384D01*
G01X16666Y15393D01*
G01X16678Y15415D01*
G01X16684Y15428D01*
G01X16695Y15451D01*
G01X16699Y15461D01*
G01X16708Y15484D01*
G01X16713Y15498D01*
G01X16721Y15522D01*
G01X16724Y15533D01*
G01X16731Y15557D01*
G01X16740Y15593D01*
G01X16742Y15607D01*
G01X16747Y15632D01*
G01X16748Y15643D01*
G01X16751Y15667D01*
G01X16753Y15680D01*
G01X16755Y15705D01*
G01X16755Y15718D01*
G01X16756Y15743D01*
G01X16756Y15850D01*
G01X16755Y15874D01*
G01X16751Y15898D01*
G01X16746Y15921D01*
G01X16743Y15935D01*
G01X16742Y15950D01*
G01X16743Y15964D01*
G01X16746Y15978D01*
G01X16751Y16002D01*
G01X16755Y16026D01*
G01X16756Y16050D01*
G01X16756Y16095D01*
G01X16587Y16095D01*
G01X16562Y16098D01*
G01X16531Y16104D01*
G01X16500Y16106D01*
G01X15500Y16106D01*
G01X15468Y16104D01*
G01X15437Y16098D01*
G01X15412Y16095D01*
G01X15243Y16095D01*
G01X15243Y16050D01*
G01X15244Y16026D01*
G01X15248Y16002D01*
G01X15253Y15978D01*
G01X15256Y15964D01*
G01X15257Y15950D01*
G01X15256Y15935D01*
G01X15253Y15921D01*
G01X15248Y15898D01*
G01X15244Y15874D01*
G01X15243Y15850D01*
G01X15243Y15743D01*
G01X15244Y15718D01*
G01X15244Y15705D01*
G01X15246Y15680D01*
G01X15248Y15667D01*
G01X15251Y15643D01*
G01X15252Y15632D01*
G01X15257Y15607D01*
G01X15260Y15593D01*
G01X15265Y15569D01*
G01X15268Y15557D01*
G01X15275Y15533D01*
G01X15278Y15522D01*
G01X15286Y15498D01*
G01X15291Y15484D01*
G01X15300Y15461D01*
G01X15304Y15451D01*
G01X15315Y15428D01*
G01X15321Y15415D01*
G01X15333Y15393D01*
G01X15337Y15384D01*
G01X15350Y15362D01*
G01X15357Y15350D01*
G01X15371Y15329D01*
G01X15379Y15316D01*
G01X15394Y15296D01*
G01X15402Y15285D01*
G01X15418Y15266D01*
G01X15423Y15260D01*
G01X15439Y15241D01*
G01X15448Y15231D01*
G01X15466Y15213D01*
G01X15476Y15204D01*
G01X15483Y15197D01*
G01X15494Y15184D01*
G01X15504Y15170D01*
G01X15510Y15155D01*
G01X15514Y15139D01*
G01X15516Y15123D01*
G01X15517Y14755D01*
G01X15516Y14740D01*
G01X15513Y14725D01*
G01X15507Y14711D01*
G01X15218Y14111D01*
G01X15209Y14090D01*
G01X15202Y14068D01*
G01X15197Y14045D01*
G01X15194Y14022D01*
G01X15193Y13999D01*
G01X15193Y12999D01*
G01X15194Y12975D01*
G01X15198Y12951D01*
G01X15203Y12927D01*
G01X15211Y12904D01*
G01X15222Y12882D01*
G01X15234Y12860D01*
G01X15248Y12840D01*
G01X15264Y12822D01*
G01X15282Y12805D01*
G01X15301Y12790D01*
G01X15314Y12780D01*
G01X15324Y12767D01*
G01X15333Y12754D01*
G01X15339Y12739D01*
G01X15343Y12723D01*
G01X15344Y12707D01*
G01X15343Y12691D01*
G01X15339Y12676D01*
G01X15333Y12661D01*
G01X15325Y12648D01*
G01X15315Y12636D01*
G01X15303Y12625D01*
G01X15289Y12617D01*
G01X15275Y12611D01*
G01X14891Y12483D01*
G01X14875Y12479D01*
G01X14859Y12478D01*
G01X14844Y12479D01*
G01X14829Y12482D01*
G01X14815Y12488D01*
G01X14802Y12496D01*
G01X14790Y12505D01*
G01X14780Y12516D01*
G01X14771Y12528D01*
G01X14758Y12549D01*
G01X14744Y12567D01*
G01X14727Y12585D01*
G01X14709Y12600D01*
G01X14690Y12614D01*
G01X14678Y12623D01*
G01X14668Y12633D01*
G01X14660Y12645D01*
G01X14653Y12658D01*
G01X14648Y12671D01*
G01X14645Y12685D01*
G01X14644Y12700D01*
G01X14645Y12714D01*
G01X14648Y12728D01*
G01X14653Y12741D01*
G01X14660Y12754D01*
G01X14668Y12766D01*
G01X14678Y12776D01*
G01X14690Y12785D01*
G01X14709Y12798D01*
G01X14726Y12813D01*
G01X14742Y12830D01*
G01X14757Y12848D01*
G01X14769Y12867D01*
G01X14780Y12888D01*
G01X14790Y12909D01*
G01X14797Y12931D01*
G01X14802Y12953D01*
G01X14805Y12976D01*
G01X14806Y12999D01*
G01X14806Y13999D01*
G01X14805Y14022D01*
G01X14802Y14045D01*
G01X14797Y14068D01*
G01X14790Y14090D01*
G01X14781Y14111D01*
G01X14779Y14113D01*
G01X14492Y14711D01*
G01X14486Y14725D01*
G01X14483Y14740D01*
G01X14482Y14755D01*
G01X14483Y15123D01*
G01X14485Y15139D01*
G01X14489Y15155D01*
G01X14495Y15170D01*
G01X14505Y15184D01*
G01X14516Y15197D01*
G01X14523Y15204D01*
G01X14533Y15213D01*
G01X14551Y15231D01*
G01X14560Y15241D01*
G01X14576Y15260D01*
G01X14581Y15266D01*
G01X14597Y15285D01*
G01X14605Y15296D01*
G01X14620Y15316D01*
G01X14628Y15329D01*
G01X14642Y15350D01*
G01X14649Y15362D01*
G01X14662Y15384D01*
G01X14666Y15393D01*
G01X14678Y15415D01*
G01X14684Y15428D01*
G01X14695Y15451D01*
G01X14699Y15461D01*
G01X14708Y15484D01*
G01X14713Y15498D01*
G01X14721Y15522D01*
G01X14724Y15533D01*
G01X14731Y15557D01*
G01X14740Y15593D01*
G01X14742Y15607D01*
G01X14747Y15632D01*
G01X14748Y15643D01*
G01X14751Y15667D01*
G01X14753Y15680D01*
G01X14755Y15705D01*
G01X14755Y15718D01*
G01X14756Y15743D01*
G01X14756Y15850D01*
G01X14755Y15874D01*
G01X14751Y15898D01*
G01X14746Y15921D01*
G01X14743Y15935D01*
G01X14742Y15950D01*
G01X14743Y15964D01*
G01X14746Y15978D01*
G01X14751Y16002D01*
G01X14755Y16026D01*
G01X14756Y16050D01*
G01X14756Y16095D01*
G01X14587Y16095D01*
G01X14562Y16098D01*
G01X14531Y16104D01*
G01X14499Y16106D01*
G01X13499Y16106D01*
G01X13468Y16104D01*
G01X13437Y16098D01*
G01X13412Y16095D01*
G01X13243Y16095D01*
G01X13243Y16050D01*
G01X13244Y16026D01*
G01X13248Y16002D01*
G01X13253Y15978D01*
G01X13256Y15964D01*
G01X13257Y15950D01*
G01X13256Y15935D01*
G01X13253Y15921D01*
G01X13248Y15898D01*
G01X13244Y15874D01*
G01X13243Y15850D01*
G01X13243Y15743D01*
G01X13244Y15718D01*
G01X13244Y15705D01*
G01X13246Y15680D01*
G01X13248Y15667D01*
G01X13251Y15643D01*
G01X13252Y15632D01*
G01X13257Y15607D01*
G01X13259Y15593D01*
G01X13268Y15557D01*
G01X13275Y15533D01*
G01X13278Y15522D01*
G01X13286Y15498D01*
G01X13291Y15484D01*
G01X13300Y15461D01*
G01X13304Y15451D01*
G01X13315Y15428D01*
G01X13321Y15415D01*
G01X13333Y15393D01*
G01X13337Y15384D01*
G01X13350Y15362D01*
G01X13357Y15350D01*
G01X13371Y15329D01*
G01X13379Y15316D01*
G01X13394Y15296D01*
G01X13402Y15285D01*
G01X13418Y15266D01*
G01X13423Y15260D01*
G01X13439Y15241D01*
G01X13448Y15231D01*
G01X13466Y15213D01*
G01X13476Y15204D01*
G01X13483Y15197D01*
G01X13494Y15184D01*
G01X13504Y15170D01*
G01X13510Y15155D01*
G01X13514Y15139D01*
G01X13516Y15123D01*
G01X13517Y14755D01*
G01X13516Y14740D01*
G01X13513Y14725D01*
G01X13507Y14711D01*
G01X13218Y14111D01*
G01X13209Y14090D01*
G01X13202Y14068D01*
G01X13197Y14045D01*
G01X13194Y14022D01*
G01X13193Y13999D01*
G01X13193Y12999D01*
G01X13194Y12976D01*
G01X13197Y12953D01*
G01X13202Y12931D01*
G01X13209Y12909D01*
G01X13219Y12888D01*
G01X13230Y12867D01*
G01X13242Y12848D01*
G01X13257Y12830D01*
G01X13273Y12813D01*
G01X13291Y12798D01*
G01X13309Y12785D01*
G01X13321Y12776D01*
G01X13331Y12766D01*
G01X13340Y12754D01*
G01X13346Y12741D01*
G01X13351Y12728D01*
G01X13354Y12714D01*
G01X13355Y12699D01*
G01X13354Y12685D01*
G01X13351Y12671D01*
G01X13346Y12658D01*
G01X13340Y12645D01*
G01X13331Y12633D01*
G01X13321Y12623D01*
G01X13309Y12614D01*
G01X13289Y12600D01*
G01X13270Y12583D01*
G01X13253Y12564D01*
G01X13238Y12544D01*
G01X13224Y12523D01*
G01X13213Y12500D01*
G01X13205Y12476D01*
G01X13199Y12461D01*
G01X13190Y12447D01*
G01X13180Y12435D01*
G01X13168Y12425D01*
G01X13154Y12416D01*
G01X13139Y12410D01*
G01X13124Y12406D01*
G01X13108Y12405D01*
G01X12891Y12405D01*
G01X12875Y12406D01*
G01X12860Y12410D01*
G01X12845Y12416D01*
G01X12831Y12425D01*
G01X12819Y12435D01*
G01X12809Y12447D01*
G01X12800Y12461D01*
G01X12794Y12476D01*
G01X12786Y12500D01*
G01X12775Y12523D01*
G01X12762Y12544D01*
G01X12746Y12564D01*
G01X12729Y12583D01*
G01X12710Y12600D01*
G01X12690Y12614D01*
G01X12678Y12623D01*
G01X12668Y12633D01*
G01X12660Y12645D01*
G01X12653Y12658D01*
G01X12648Y12671D01*
G01X12645Y12685D01*
G01X12644Y12700D01*
G01X12645Y12714D01*
G01X12648Y12728D01*
G01X12653Y12741D01*
G01X12660Y12754D01*
G01X12668Y12766D01*
G01X12678Y12776D01*
G01X12690Y12785D01*
G01X12709Y12798D01*
G01X12726Y12813D01*
G01X12742Y12830D01*
G01X12757Y12848D01*
G01X12769Y12867D01*
G01X12780Y12888D01*
G01X12790Y12909D01*
G01X12797Y12931D01*
G01X12802Y12953D01*
G01X12805Y12976D01*
G01X12806Y12999D01*
G01X12806Y13999D01*
G01X12805Y14022D01*
G01X12802Y14045D01*
G01X12797Y14068D01*
G01X12790Y14090D01*
G01X12781Y14111D01*
G01X12780Y14113D01*
G01X12779Y14114D01*
G01X12492Y14711D01*
G01X12486Y14725D01*
G01X12483Y14740D01*
G01X12482Y14755D01*
G01X12483Y15123D01*
G01X12485Y15139D01*
G01X12489Y15155D01*
G01X12495Y15170D01*
G01X12505Y15184D01*
G01X12516Y15197D01*
G01X12523Y15204D01*
G01X12533Y15213D01*
G01X12551Y15231D01*
G01X12560Y15241D01*
G01X12576Y15260D01*
G01X12581Y15266D01*
G01X12597Y15285D01*
G01X12605Y15296D01*
G01X12620Y15316D01*
G01X12628Y15329D01*
G01X12642Y15350D01*
G01X12649Y15362D01*
G01X12662Y15384D01*
G01X12666Y15393D01*
G01X12678Y15415D01*
G01X12684Y15428D01*
G01X12695Y15451D01*
G01X12699Y15461D01*
G01X12708Y15484D01*
G01X12713Y15498D01*
G01X12721Y15522D01*
G01X12724Y15533D01*
G01X12731Y15557D01*
G01X12740Y15593D01*
G01X12742Y15607D01*
G01X12747Y15632D01*
G01X12748Y15643D01*
G01X12751Y15667D01*
G01X12753Y15680D01*
G01X12755Y15705D01*
G01X12755Y15718D01*
G01X12756Y15743D01*
G01X12756Y15850D01*
G01X12755Y15874D01*
G01X12751Y15898D01*
G01X12746Y15921D01*
G01X12743Y15935D01*
G01X12742Y15950D01*
G01X12743Y15964D01*
G01X12746Y15978D01*
G01X12751Y16002D01*
G01X12755Y16026D01*
G01X12756Y16050D01*
G01X12756Y16095D01*
G01X12587Y16095D01*
G01X12562Y16098D01*
G01X12531Y16104D01*
G01X12500Y16106D01*
G01X11500Y16106D01*
G01X11468Y16104D01*
G01X11437Y16098D01*
G01X11412Y16095D01*
G01X11243Y16095D01*
G01X11243Y16050D01*
G01X11244Y16026D01*
G01X11248Y16002D01*
G01X11253Y15978D01*
G01X11256Y15964D01*
G01X11257Y15950D01*
G01X11256Y15935D01*
G01X11253Y15921D01*
G01X11248Y15898D01*
G01X11244Y15874D01*
G01X11243Y15850D01*
G01X11243Y15743D01*
G01X11244Y15718D01*
G01X11244Y15705D01*
G01X11246Y15680D01*
G01X11248Y15667D01*
G01X11251Y15643D01*
G01X11252Y15632D01*
G01X11257Y15607D01*
G01X11259Y15593D01*
G01X11268Y15557D01*
G01X11275Y15533D01*
G01X11278Y15522D01*
G01X11286Y15498D01*
G01X11291Y15484D01*
G01X11300Y15461D01*
G01X11304Y15451D01*
G01X11315Y15428D01*
G01X11321Y15415D01*
G01X11333Y15393D01*
G01X11337Y15384D01*
G01X11350Y15362D01*
G01X11357Y15350D01*
G01X11371Y15329D01*
G01X11379Y15316D01*
G01X11394Y15296D01*
G01X11402Y15285D01*
G01X11418Y15266D01*
G01X11423Y15260D01*
G01X11439Y15241D01*
G01X11448Y15231D01*
G01X11466Y15213D01*
G01X11476Y15204D01*
G01X11483Y15197D01*
G01X11494Y15184D01*
G01X11504Y15170D01*
G01X11510Y15155D01*
G01X11514Y15139D01*
G01X11516Y15123D01*
G01X11517Y14852D01*
G01X11517Y14754D01*
G01X11516Y14739D01*
G01X11512Y14724D01*
G01X11507Y14710D01*
G01X11218Y14111D01*
G01X11209Y14090D01*
G01X11202Y14068D01*
G01X11197Y14045D01*
G01X11194Y14022D01*
G01X11193Y14000D01*
G01X11193Y12999D01*
G01X11194Y12976D01*
G01X11197Y12953D01*
G01X11202Y12931D01*
G01X11209Y12909D01*
G01X11219Y12888D01*
G01X11230Y12867D01*
G01X11242Y12848D01*
G01X11257Y12830D01*
G01X11273Y12813D01*
G01X11291Y12798D01*
G01X11309Y12785D01*
G01X11321Y12776D01*
G01X11331Y12766D01*
G01X11340Y12754D01*
G01X11346Y12741D01*
G01X11351Y12728D01*
G01X11354Y12714D01*
G01X11355Y12699D01*
G01X11354Y12685D01*
G01X11351Y12671D01*
G01X11346Y12658D01*
G01X11340Y12645D01*
G01X11331Y12633D01*
G01X11321Y12623D01*
G01X11309Y12614D01*
G01X11289Y12600D01*
G01X11270Y12583D01*
G01X11253Y12564D01*
G01X11238Y12544D01*
G01X11224Y12523D01*
G01X11213Y12500D01*
G01X11205Y12476D01*
G01X11199Y12461D01*
G01X11190Y12447D01*
G01X11180Y12435D01*
G01X11168Y12425D01*
G01X11154Y12416D01*
G01X11139Y12410D01*
G01X11124Y12406D01*
G01X11108Y12405D01*
G01X10891Y12405D01*
G01X10875Y12406D01*
G01X10860Y12410D01*
G01X10845Y12416D01*
G01X10831Y12425D01*
G01X10819Y12435D01*
G01X10809Y12447D01*
G01X10800Y12461D01*
G01X10794Y12476D01*
G01X10786Y12500D01*
G01X10775Y12523D01*
G01X10762Y12544D01*
G01X10746Y12564D01*
G01X10729Y12583D01*
G01X10710Y12600D01*
G01X10690Y12614D01*
G01X10678Y12623D01*
G01X10668Y12633D01*
G01X10660Y12645D01*
G01X10653Y12658D01*
G01X10648Y12671D01*
G01X10645Y12685D01*
G01X10644Y12700D01*
G01X10645Y12714D01*
G01X10648Y12728D01*
G01X10653Y12741D01*
G01X10660Y12754D01*
G01X10668Y12766D01*
G01X10678Y12776D01*
G01X10690Y12785D01*
G01X10709Y12798D01*
G01X10726Y12813D01*
G01X10742Y12830D01*
G01X10757Y12848D01*
G01X10769Y12867D01*
G01X10780Y12888D01*
G01X10790Y12909D01*
G01X10797Y12931D01*
G01X10802Y12953D01*
G01X10805Y12976D01*
G01X10806Y12999D01*
G01X10806Y13999D01*
G01X10805Y14023D01*
G01X10802Y14046D01*
G01X10796Y14069D01*
G01X10789Y14092D01*
G01X10779Y14113D01*
G01X10780Y14112D01*
G01X10779Y14114D01*
G01X10492Y14711D01*
G01X10486Y14725D01*
G01X10483Y14740D01*
G01X10482Y14755D01*
G01X10483Y15123D01*
G01X10485Y15139D01*
G01X10489Y15155D01*
G01X10496Y15170D01*
G01X10505Y15184D01*
G01X10516Y15197D01*
G01X10523Y15204D01*
G01X10533Y15213D01*
G01X10551Y15231D01*
G01X10560Y15241D01*
G01X10576Y15260D01*
G01X10581Y15266D01*
G01X10597Y15285D01*
G01X10605Y15296D01*
G01X10620Y15316D01*
G01X10628Y15329D01*
G01X10642Y15350D01*
G01X10649Y15362D01*
G01X10662Y15384D01*
G01X10666Y15393D01*
G01X10678Y15415D01*
G01X10684Y15428D01*
G01X10695Y15451D01*
G01X10699Y15461D01*
G01X10708Y15484D01*
G01X10713Y15498D01*
G01X10721Y15522D01*
G01X10724Y15533D01*
G01X10731Y15557D01*
G01X10740Y15593D01*
G01X10742Y15607D01*
G01X10747Y15632D01*
G01X10748Y15643D01*
G01X10751Y15667D01*
G01X10753Y15680D01*
G01X10755Y15705D01*
G01X10755Y15718D01*
G01X10756Y15743D01*
G01X10756Y15850D01*
G01X10755Y15874D01*
G01X10751Y15898D01*
G01X10746Y15921D01*
G01X10743Y15935D01*
G01X10742Y15950D01*
G01X10743Y15964D01*
G01X10746Y15978D01*
G01X10751Y16002D01*
G01X10755Y16026D01*
G01X10756Y16050D01*
G01X10756Y16095D01*
G01X10587Y16095D01*
G01X10562Y16098D01*
G01X10531Y16104D01*
G01X10500Y16106D01*
G01X9500Y16106D01*
G01X9468Y16104D01*
G01X9437Y16098D01*
G01X9412Y16095D01*
G01X9243Y16095D01*
G01X9243Y16050D01*
G01X9244Y16026D01*
G01X9248Y16002D01*
G01X9253Y15978D01*
G01X9256Y15964D01*
G01X9257Y15950D01*
G01X9256Y15935D01*
G01X9253Y15921D01*
G01X9248Y15898D01*
G01X9244Y15874D01*
G01X9243Y15850D01*
G01X9243Y15743D01*
G01X9244Y15718D01*
G01X9244Y15705D01*
G01X9246Y15680D01*
G01X9248Y15667D01*
G01X9251Y15643D01*
G01X9252Y15632D01*
G01X9257Y15607D01*
G01X9260Y15593D01*
G01X9265Y15569D01*
G01X9268Y15557D01*
G01X9275Y15533D01*
G01X9278Y15522D01*
G01X9286Y15498D01*
G01X9291Y15484D01*
G01X9300Y15461D01*
G01X9304Y15451D01*
G01X9315Y15428D01*
G01X9321Y15415D01*
G01X9333Y15393D01*
G01X9337Y15384D01*
G01X9350Y15362D01*
G01X9357Y15350D01*
G01X9371Y15329D01*
G01X9379Y15316D01*
G01X9394Y15296D01*
G01X9402Y15285D01*
G01X9418Y15266D01*
G01X9423Y15260D01*
G01X9439Y15241D01*
G01X9448Y15231D01*
G01X9466Y15213D01*
G01X9476Y15204D01*
G01X9483Y15197D01*
G01X9494Y15184D01*
G01X9504Y15170D01*
G01X9510Y15155D01*
G01X9514Y15139D01*
G01X9516Y15123D01*
G01X9517Y14755D01*
G01X9516Y14740D01*
G01X9513Y14725D01*
G01X9507Y14711D01*
G01X9218Y14111D01*
G01X9209Y14090D01*
G01X9202Y14068D01*
G01X9197Y14045D01*
G01X9194Y14022D01*
G01X9193Y14000D01*
G01X9193Y12999D01*
G01X9194Y12976D01*
G01X9197Y12953D01*
G01X9202Y12931D01*
G01X9209Y12909D01*
G01X9219Y12888D01*
G01X9230Y12867D01*
G01X9242Y12848D01*
G01X9257Y12830D01*
G01X9273Y12813D01*
G01X9291Y12798D01*
G01X9309Y12785D01*
G01X9321Y12776D01*
G01X9331Y12766D01*
G01X9340Y12754D01*
G01X9346Y12741D01*
G01X9351Y12728D01*
G01X9354Y12714D01*
G01X9355Y12699D01*
G01X9354Y12685D01*
G01X9351Y12671D01*
G01X9346Y12658D01*
G01X9340Y12645D01*
G01X9331Y12633D01*
G01X9321Y12623D01*
G01X9309Y12614D01*
G01X9290Y12600D01*
G01X9272Y12585D01*
G01X9256Y12567D01*
G01X9241Y12549D01*
G01X9228Y12529D01*
G01X9219Y12516D01*
G01X9209Y12505D01*
G01X9197Y12496D01*
G01X9184Y12488D01*
G01X9170Y12483D01*
G01X9155Y12479D01*
G01X9140Y12478D01*
G01X9124Y12480D01*
G01X9108Y12483D01*
G01X8725Y12611D01*
G01X8710Y12617D01*
G01X8697Y12626D01*
G01X8685Y12636D01*
G01X8675Y12648D01*
G01X8666Y12662D01*
G01X8660Y12676D01*
G01X8657Y12692D01*
G01X8655Y12708D01*
G01X8657Y12724D01*
G01X8660Y12739D01*
G01X8667Y12754D01*
G01X8675Y12768D01*
G01X8686Y12780D01*
G01X8698Y12790D01*
G01X8717Y12805D01*
G01X8735Y12822D01*
G01X8751Y12841D01*
G01X8765Y12861D01*
G01X8777Y12882D01*
G01X8788Y12904D01*
G01X8796Y12927D01*
G01X8801Y12951D01*
G01X8805Y12975D01*
G01X8806Y12999D01*
G01X8806Y13999D01*
G01X8805Y14022D01*
G01X8802Y14045D01*
G01X8797Y14068D01*
G01X8790Y14090D01*
G01X8781Y14111D01*
G01X8492Y14710D01*
G01X8487Y14724D01*
G01X8483Y14739D01*
G01X8482Y14754D01*
G01X8482Y14893D01*
G01X8483Y15122D01*
G01X8485Y15139D01*
G01X8489Y15155D01*
G01X8495Y15170D01*
G01X8504Y15184D01*
G01X8516Y15196D01*
G01X8523Y15204D01*
G01X8533Y15213D01*
G01X8551Y15231D01*
G01X8560Y15241D01*
G01X8576Y15260D01*
G01X8581Y15266D01*
G01X8597Y15285D01*
G01X8605Y15296D01*
G01X8620Y15316D01*
G01X8628Y15329D01*
G01X8642Y15350D01*
G01X8649Y15362D01*
G01X8662Y15384D01*
G01X8666Y15393D01*
G01X8678Y15415D01*
G01X8684Y15428D01*
G01X8695Y15451D01*
G01X8699Y15461D01*
G01X8708Y15484D01*
G01X8713Y15498D01*
G01X8721Y15522D01*
G01X8724Y15533D01*
G01X8731Y15557D01*
G01X8740Y15593D01*
G01X8742Y15607D01*
G01X8747Y15632D01*
G01X8748Y15643D01*
G01X8751Y15667D01*
G01X8753Y15680D01*
G01X8755Y15705D01*
G01X8755Y15718D01*
G01X8756Y15743D01*
G01X8756Y15850D01*
G01X8755Y15874D01*
G01X8751Y15898D01*
G01X8746Y15921D01*
G01X8743Y15935D01*
G01X8742Y15950D01*
G01X8743Y15964D01*
G01X8746Y15978D01*
G01X8751Y16002D01*
G01X8755Y16026D01*
G01X8756Y16050D01*
G01X8756Y16095D01*
G01X8587Y16095D01*
G01X8562Y16098D01*
G01X8531Y16104D01*
G01X8500Y16106D01*
G01X8171Y16106D01*
G01X8156Y16107D01*
G01X8141Y16110D01*
G01X8107Y16120D01*
G01X8072Y16126D01*
G01X8036Y16130D01*
G37*
G36*
G01X5043Y4559D02*
G01X5001Y4560D01*
G01X4965Y4559D01*
G01X4930Y4556D01*
G01X4895Y4550D01*
G01X4860Y4542D01*
G01X4826Y4532D01*
G01X4792Y4520D01*
G01X4760Y4506D01*
G01X4728Y4490D01*
G01X4698Y4472D01*
G01X4669Y4452D01*
G01X4641Y4430D01*
G01X4615Y4407D01*
G01X4590Y4382D01*
G01X4567Y4356D01*
G01X4546Y4328D01*
G01X4526Y4299D01*
G01X4508Y4268D01*
G01X4492Y4237D01*
G01X4479Y4205D01*
G01X4467Y4172D01*
G01X4457Y4138D01*
G01X4449Y4104D01*
G01X4444Y4069D01*
G01X4441Y4034D01*
G01X4439Y3999D01*
G01X4440Y3965D01*
G01X4444Y3930D01*
G01X4449Y3896D01*
G01X4456Y3862D01*
G01X4466Y3829D01*
G01X4477Y3797D01*
G01X4491Y3765D01*
G01X4506Y3734D01*
G01X4523Y3704D01*
G01X4542Y3675D01*
G01X4563Y3648D01*
G01X4585Y3621D01*
G01X4609Y3597D01*
G01X4635Y3573D01*
G01X4662Y3552D01*
G01X4690Y3532D01*
G01X4719Y3513D01*
G01X4750Y3497D01*
G01X4781Y3483D01*
G01X4813Y3470D01*
G01X4846Y3459D01*
G01X4879Y3451D01*
G01X4893Y3447D01*
G01X4906Y3441D01*
G01X4919Y3433D01*
G01X5175Y3177D01*
G01X5200Y3153D01*
G01X5227Y3131D01*
G01X5256Y3112D01*
G01X5286Y3095D01*
G01X5317Y3080D01*
G01X5350Y3067D01*
G01X5383Y3057D01*
G01X5401Y3050D01*
G01X5418Y3040D01*
G01X5638Y2875D01*
G01X5650Y2864D01*
G01X5660Y2852D01*
G01X5669Y2838D01*
G01X5680Y2817D01*
G01X5693Y2797D01*
G01X5708Y2778D01*
G01X5725Y2761D01*
G01X5744Y2746D01*
G01X5763Y2732D01*
G01X5784Y2720D01*
G01X5806Y2711D01*
G01X5829Y2703D01*
G01X5852Y2697D01*
G01X5876Y2694D01*
G01X5900Y2693D01*
G01X6900Y2693D01*
G01X6923Y2694D01*
G01X6946Y2697D01*
G01X6968Y2702D01*
G01X6990Y2709D01*
G01X7012Y2719D01*
G01X7032Y2730D01*
G01X7051Y2742D01*
G01X7069Y2757D01*
G01X7086Y2773D01*
G01X7101Y2791D01*
G01X7115Y2809D01*
G01X7123Y2821D01*
G01X7133Y2831D01*
G01X7145Y2840D01*
G01X7158Y2846D01*
G01X7171Y2851D01*
G01X7185Y2854D01*
G01X7200Y2855D01*
G01X7214Y2854D01*
G01X7228Y2851D01*
G01X7242Y2846D01*
G01X7254Y2840D01*
G01X7266Y2831D01*
G01X7276Y2821D01*
G01X7285Y2809D01*
G01X7298Y2791D01*
G01X7313Y2773D01*
G01X7330Y2757D01*
G01X7348Y2742D01*
G01X7367Y2730D01*
G01X7388Y2719D01*
G01X7409Y2709D01*
G01X7431Y2702D01*
G01X7454Y2697D01*
G01X7476Y2694D01*
G01X7500Y2693D01*
G01X8500Y2693D01*
G01X8525Y2694D01*
G01X8549Y2698D01*
G01X8573Y2704D01*
G01X8597Y2712D01*
G01X8619Y2723D01*
G01X8641Y2735D01*
G01X8661Y2750D01*
G01X8680Y2767D01*
G01X8696Y2785D01*
G01X8712Y2805D01*
G01X8722Y2818D01*
G01X8735Y2829D01*
G01X8750Y2838D01*
G01X9136Y3031D01*
G01X9150Y3037D01*
G01X9166Y3041D01*
G01X9181Y3042D01*
G01X9567Y3042D01*
G01X9580Y3041D01*
G01X9678Y3028D01*
G01X9697Y3023D01*
G01X9716Y3015D01*
G01X9748Y2997D01*
G01X9782Y2982D01*
G01X9817Y2969D01*
G01X9852Y2958D01*
G01X9889Y2949D01*
G01X9925Y2943D01*
G01X9962Y2939D01*
G01X9999Y2938D01*
G01X10033Y2939D01*
G01X10067Y2942D01*
G01X10101Y2947D01*
G01X10134Y2954D01*
G01X10166Y2963D01*
G01X10199Y2975D01*
G01X10230Y2988D01*
G01X10260Y3002D01*
G01X10290Y3019D01*
G01X10318Y3037D01*
G01X10346Y3058D01*
G01X10372Y3079D01*
G01X10396Y3102D01*
G01X10420Y3127D01*
G01X10441Y3153D01*
G01X10461Y3181D01*
G01X10480Y3209D01*
G01X10497Y3239D01*
G01X10511Y3269D01*
G01X10524Y3300D01*
G01X10535Y3332D01*
G01X10545Y3365D01*
G01X10552Y3398D01*
G01X10557Y3432D01*
G01X10560Y3466D01*
G01X10561Y3499D01*
G01X10560Y3533D01*
G01X10557Y3567D01*
G01X10552Y3601D01*
G01X10545Y3634D01*
G01X10535Y3666D01*
G01X10524Y3698D01*
G01X10511Y3730D01*
G01X10497Y3760D01*
G01X10480Y3790D01*
G01X10461Y3818D01*
G01X10441Y3846D01*
G01X10420Y3872D01*
G01X10372Y3920D01*
G01X10346Y3941D01*
G01X10318Y3961D01*
G01X10290Y3980D01*
G01X10260Y3996D01*
G01X10230Y4011D01*
G01X10199Y4024D01*
G01X10166Y4035D01*
G01X10134Y4044D01*
G01X10101Y4052D01*
G01X10067Y4057D01*
G01X10033Y4060D01*
G01X9999Y4061D01*
G01X9962Y4060D01*
G01X9925Y4056D01*
G01X9889Y4050D01*
G01X9853Y4041D01*
G01X9817Y4030D01*
G01X9782Y4017D01*
G01X9749Y4002D01*
G01X9716Y3984D01*
G01X9698Y3975D01*
G01X9678Y3971D01*
G01X9568Y3956D01*
G01X9554Y3955D01*
G01X9185Y3955D01*
G01X9169Y3956D01*
G01X9154Y3960D01*
G01X9139Y3966D01*
G01X8750Y4160D01*
G01X8735Y4169D01*
G01X8722Y4181D01*
G01X8712Y4194D01*
G01X8697Y4214D01*
G01X8680Y4232D01*
G01X8661Y4249D01*
G01X8641Y4264D01*
G01X8619Y4276D01*
G01X8597Y4287D01*
G01X8573Y4295D01*
G01X8549Y4301D01*
G01X8525Y4305D01*
G01X8500Y4306D01*
G01X7500Y4306D01*
G01X7476Y4305D01*
G01X7454Y4302D01*
G01X7431Y4297D01*
G01X7409Y4290D01*
G01X7388Y4280D01*
G01X7367Y4269D01*
G01X7348Y4257D01*
G01X7330Y4242D01*
G01X7313Y4226D01*
G01X7298Y4208D01*
G01X7285Y4190D01*
G01X7276Y4178D01*
G01X7266Y4168D01*
G01X7254Y4159D01*
G01X7242Y4153D01*
G01X7228Y4148D01*
G01X7214Y4145D01*
G01X7200Y4144D01*
G01X7185Y4145D01*
G01X7171Y4148D01*
G01X7158Y4153D01*
G01X7145Y4159D01*
G01X7133Y4168D01*
G01X7123Y4178D01*
G01X7115Y4190D01*
G01X7101Y4208D01*
G01X7086Y4226D01*
G01X7069Y4242D01*
G01X7051Y4257D01*
G01X7032Y4269D01*
G01X7012Y4280D01*
G01X6990Y4290D01*
G01X6968Y4297D01*
G01X6946Y4302D01*
G01X6923Y4305D01*
G01X6900Y4306D01*
G01X5900Y4306D01*
G01X5876Y4305D01*
G01X5852Y4301D01*
G01X5828Y4296D01*
G01X5805Y4288D01*
G01X5783Y4278D01*
G01X5762Y4266D01*
G01X5743Y4252D01*
G01X5724Y4237D01*
G01X5707Y4219D01*
G01X5692Y4200D01*
G01X5682Y4188D01*
G01X5670Y4178D01*
G01X5656Y4170D01*
G01X5641Y4164D01*
G01X5626Y4160D01*
G01X5610Y4159D01*
G01X5595Y4160D01*
G01X5581Y4163D01*
G01X5567Y4168D01*
G01X5554Y4175D01*
G01X5542Y4184D01*
G01X5532Y4195D01*
G01X5523Y4207D01*
G01X5517Y4220D01*
G01X5502Y4252D01*
G01X5485Y4284D01*
G01X5466Y4314D01*
G01X5445Y4343D01*
G01X5422Y4370D01*
G01X5398Y4396D01*
G01X5372Y4420D01*
G01X5344Y4443D01*
G01X5315Y4464D01*
G01X5285Y4483D01*
G01X5254Y4500D01*
G01X5222Y4515D01*
G01X5206Y4523D01*
G01X5192Y4535D01*
G01X5180Y4548D01*
G01X5165Y4545D01*
G01X5150Y4543D01*
G01X5127Y4546D01*
G01X5085Y4554D01*
G01X5043Y4559D01*
G37*
G36*
G01X21661Y10185D02*
G01X21193Y10185D01*
G01X21193Y9999D01*
G01X21194Y9976D01*
G01X21197Y9953D01*
G01X21202Y9930D01*
G01X21209Y9908D01*
G01X21218Y9887D01*
G01X21229Y9867D01*
G01X21242Y9847D01*
G01X21257Y9829D01*
G01X21273Y9813D01*
G01X21290Y9797D01*
G01X21309Y9784D01*
G01X21320Y9775D01*
G01X21330Y9765D01*
G01X21339Y9753D01*
G01X21346Y9741D01*
G01X21351Y9727D01*
G01X21354Y9713D01*
G01X21355Y9699D01*
G01X21354Y9684D01*
G01X21351Y9670D01*
G01X21346Y9657D01*
G01X21339Y9644D01*
G01X21330Y9633D01*
G01X21320Y9622D01*
G01X21309Y9614D01*
G01X21290Y9600D01*
G01X21273Y9585D01*
G01X21257Y9568D01*
G01X21242Y9550D01*
G01X21229Y9531D01*
G01X21218Y9511D01*
G01X21209Y9489D01*
G01X21202Y9468D01*
G01X21197Y9445D01*
G01X21194Y9422D01*
G01X21193Y9399D01*
G01X21193Y8399D01*
G01X21194Y8376D01*
G01X21197Y8352D01*
G01X21202Y8330D01*
G01X21209Y8307D01*
G01X21219Y8286D01*
G01X21230Y8265D01*
G01X21243Y8246D01*
G01X21258Y8228D01*
G01X21274Y8211D01*
G01X21292Y8196D01*
G01X21311Y8183D01*
G01X21325Y8172D01*
G01X21336Y8160D01*
G01X21346Y8145D01*
G01X21540Y7788D01*
G01X21546Y7774D01*
G01X21550Y7759D01*
G01X21558Y7726D01*
G01X21568Y7694D01*
G01X21581Y7662D01*
G01X21596Y7632D01*
G01X21613Y7602D01*
G01X21632Y7574D01*
G01X21654Y7548D01*
G01X21677Y7523D01*
G01X21721Y7479D01*
G01X21730Y7469D01*
G01X21788Y7393D01*
G01X21798Y7376D01*
G01X21805Y7357D01*
G01X21815Y7324D01*
G01X21827Y7291D01*
G01X21841Y7258D01*
G01X21857Y7227D01*
G01X21875Y7197D01*
G01X21895Y7168D01*
G01X21917Y7140D01*
G01X21940Y7114D01*
G01X21965Y7089D01*
G01X21992Y7066D01*
G01X22019Y7044D01*
G01X22049Y7025D01*
G01X22079Y7007D01*
G01X22110Y6991D01*
G01X22142Y6977D01*
G01X22176Y6965D01*
G01X22209Y6955D01*
G01X22244Y6948D01*
G01X22278Y6942D01*
G01X22313Y6939D01*
G01X22348Y6938D01*
G01X22382Y6939D01*
G01X22416Y6942D01*
G01X22450Y6947D01*
G01X22483Y6954D01*
G01X22515Y6963D01*
G01X22548Y6974D01*
G01X22579Y6987D01*
G01X22609Y7002D01*
G01X22639Y7019D01*
G01X22667Y7037D01*
G01X22695Y7057D01*
G01X22721Y7079D01*
G01X22745Y7102D01*
G01X22769Y7127D01*
G01X22790Y7153D01*
G01X22810Y7180D01*
G01X22829Y7209D01*
G01X22846Y7238D01*
G01X22860Y7269D01*
G01X22873Y7300D01*
G01X22884Y7332D01*
G01X22893Y7365D01*
G01X22901Y7398D01*
G01X22906Y7431D01*
G01X22909Y7465D01*
G01X22910Y7499D01*
G01X22909Y7534D01*
G01X22906Y7568D01*
G01X22900Y7602D01*
G01X22893Y7635D01*
G01X22884Y7669D01*
G01X22872Y7701D01*
G01X22859Y7733D01*
G01X22844Y7764D01*
G01X22808Y7822D01*
G01X22787Y7850D01*
G01X22765Y7876D01*
G01X22741Y7901D01*
G01X22715Y7924D01*
G01X22689Y7946D01*
G01X22661Y7966D01*
G01X22648Y7976D01*
G01X22636Y7988D01*
G01X22627Y8002D01*
G01X22621Y8017D01*
G01X22617Y8034D01*
G01X22615Y8050D01*
G01X22617Y8067D01*
G01X22621Y8083D01*
G01X22628Y8099D01*
G01X22654Y8146D01*
G01X22663Y8160D01*
G01X22675Y8173D01*
G01X22688Y8183D01*
G01X22707Y8197D01*
G01X22725Y8212D01*
G01X22741Y8228D01*
G01X22756Y8247D01*
G01X22769Y8266D01*
G01X22780Y8286D01*
G01X22789Y8308D01*
G01X22796Y8330D01*
G01X22801Y8353D01*
G01X22805Y8376D01*
G01X22806Y8399D01*
G01X22806Y9399D01*
G01X22805Y9422D01*
G01X22801Y9445D01*
G01X22796Y9468D01*
G01X22789Y9489D01*
G01X22780Y9511D01*
G01X22769Y9531D01*
G01X22756Y9550D01*
G01X22742Y9568D01*
G01X22726Y9585D01*
G01X22708Y9600D01*
G01X22689Y9614D01*
G01X22678Y9622D01*
G01X22668Y9633D01*
G01X22659Y9644D01*
G01X22652Y9657D01*
G01X22647Y9670D01*
G01X22644Y9684D01*
G01X22643Y9699D01*
G01X22644Y9713D01*
G01X22647Y9727D01*
G01X22652Y9741D01*
G01X22659Y9753D01*
G01X22668Y9765D01*
G01X22678Y9775D01*
G01X22689Y9784D01*
G01X22708Y9797D01*
G01X22726Y9813D01*
G01X22742Y9829D01*
G01X22756Y9847D01*
G01X22769Y9867D01*
G01X22780Y9887D01*
G01X22789Y9908D01*
G01X22796Y9930D01*
G01X22801Y9953D01*
G01X22805Y9976D01*
G01X22806Y9999D01*
G01X22806Y10185D01*
G01X22338Y10185D01*
G01X22338Y9757D01*
G01X22337Y9743D01*
G01X22333Y9728D01*
G01X22328Y9715D01*
G01X22321Y9702D01*
G01X22313Y9691D01*
G01X22303Y9680D01*
G01X22291Y9672D01*
G01X22278Y9665D01*
G01X22265Y9660D01*
G01X22250Y9656D01*
G01X22236Y9655D01*
G01X21762Y9655D01*
G01X21748Y9656D01*
G01X21734Y9660D01*
G01X21720Y9665D01*
G01X21707Y9672D01*
G01X21696Y9680D01*
G01X21685Y9691D01*
G01X21677Y9702D01*
G01X21670Y9715D01*
G01X21665Y9728D01*
G01X21662Y9743D01*
G01X21661Y9757D01*
G01X21661Y10185D01*
G37*
G36*
G01X19633Y5760D02*
G01X19599Y5761D01*
G01X19566Y5760D01*
G01X19532Y5757D01*
G01X19498Y5752D01*
G01X19465Y5744D01*
G01X19432Y5735D01*
G01X19400Y5724D01*
G01X19369Y5711D01*
G01X19339Y5696D01*
G01X19309Y5680D01*
G01X19281Y5661D01*
G01X19253Y5641D01*
G01X19227Y5620D01*
G01X19202Y5596D01*
G01X19179Y5572D01*
G01X19158Y5546D01*
G01X19137Y5518D01*
G01X19119Y5490D01*
G01X19102Y5460D01*
G01X19088Y5430D01*
G01X19075Y5398D01*
G01X19063Y5366D01*
G01X19054Y5334D01*
G01X19047Y5301D01*
G01X19042Y5267D01*
G01X19039Y5233D01*
G01X19038Y5199D01*
G01X19039Y5161D01*
G01X19043Y5123D01*
G01X19050Y5085D01*
G01X19059Y5048D01*
G01X19070Y5011D01*
G01X19085Y4976D01*
G01X19091Y4956D01*
G01X19093Y4935D01*
G01X19093Y1664D01*
G01X19091Y1643D01*
G01X19085Y1623D01*
G01X19070Y1588D01*
G01X19059Y1551D01*
G01X19050Y1514D01*
G01X19043Y1476D01*
G01X19039Y1438D01*
G01X19038Y1400D01*
G01X19039Y1366D01*
G01X19042Y1332D01*
G01X19047Y1298D01*
G01X19054Y1265D01*
G01X19063Y1233D01*
G01X19075Y1201D01*
G01X19088Y1169D01*
G01X19102Y1139D01*
G01X19119Y1109D01*
G01X19137Y1081D01*
G01X19158Y1053D01*
G01X19179Y1027D01*
G01X19202Y1003D01*
G01X19227Y979D01*
G01X19253Y958D01*
G01X19281Y938D01*
G01X19309Y919D01*
G01X19339Y903D01*
G01X19369Y888D01*
G01X19400Y875D01*
G01X19432Y864D01*
G01X19465Y855D01*
G01X19498Y847D01*
G01X19532Y842D01*
G01X19566Y839D01*
G01X19599Y838D01*
G01X19633Y839D01*
G01X19667Y842D01*
G01X19701Y847D01*
G01X19734Y855D01*
G01X19766Y864D01*
G01X19798Y875D01*
G01X19830Y888D01*
G01X19860Y903D01*
G01X19890Y919D01*
G01X19918Y938D01*
G01X19946Y958D01*
G01X19972Y979D01*
G01X20020Y1027D01*
G01X20041Y1053D01*
G01X20061Y1081D01*
G01X20080Y1109D01*
G01X20096Y1139D01*
G01X20111Y1169D01*
G01X20124Y1201D01*
G01X20135Y1233D01*
G01X20144Y1265D01*
G01X20152Y1298D01*
G01X20157Y1332D01*
G01X20160Y1366D01*
G01X20161Y1400D01*
G01X20159Y1438D01*
G01X20156Y1476D01*
G01X20149Y1514D01*
G01X20140Y1551D01*
G01X20128Y1587D01*
G01X20114Y1623D01*
G01X20108Y1643D01*
G01X20106Y1663D01*
G01X20106Y4936D01*
G01X20108Y4956D01*
G01X20114Y4976D01*
G01X20128Y5012D01*
G01X20140Y5048D01*
G01X20149Y5085D01*
G01X20156Y5123D01*
G01X20159Y5161D01*
G01X20161Y5199D01*
G01X20160Y5233D01*
G01X20157Y5267D01*
G01X20152Y5301D01*
G01X20144Y5334D01*
G01X20135Y5366D01*
G01X20124Y5398D01*
G01X20111Y5430D01*
G01X20096Y5460D01*
G01X20080Y5490D01*
G01X20061Y5518D01*
G01X20041Y5546D01*
G01X20020Y5572D01*
G01X19972Y5620D01*
G01X19946Y5641D01*
G01X19918Y5661D01*
G01X19890Y5680D01*
G01X19860Y5696D01*
G01X19830Y5711D01*
G01X19798Y5724D01*
G01X19766Y5735D01*
G01X19734Y5744D01*
G01X19701Y5752D01*
G01X19667Y5757D01*
G01X19633Y5760D01*
G37*
G36*
G01X21599Y13206D02*
G01X20599Y13206D01*
G01X20576Y13205D01*
G01X20552Y13202D01*
G01X20529Y13196D01*
G01X20507Y13189D01*
G01X20485Y13179D01*
G01X20464Y13168D01*
G01X20445Y13154D01*
G01X20427Y13139D01*
G01X20410Y13122D01*
G01X20395Y13104D01*
G01X20381Y13085D01*
G01X20370Y13064D01*
G01X20360Y13042D01*
G01X20353Y13020D01*
G01X20347Y12997D01*
G01X20344Y12973D01*
G01X20343Y12949D01*
G01X20343Y12401D01*
G01X20342Y12385D01*
G01X20338Y12370D01*
G01X20332Y12355D01*
G01X20324Y12341D01*
G01X20313Y12329D01*
G01X19947Y11963D01*
G01X19922Y11937D01*
G01X19920Y11935D01*
G01X19899Y11909D01*
G01X19879Y11882D01*
G01X19862Y11854D01*
G01X19846Y11824D01*
G01X19832Y11794D01*
G01X19820Y11763D01*
G01X19810Y11731D01*
G01X19803Y11698D01*
G01X19797Y11665D01*
G01X19794Y11632D01*
G01X19793Y11599D01*
G01X19793Y11563D01*
G01X19791Y11542D01*
G01X19784Y11522D01*
G01X19771Y11487D01*
G01X19759Y11452D01*
G01X19754Y11437D01*
G01X19746Y11422D01*
G01X19736Y11410D01*
G01X19724Y11399D01*
G01X19710Y11390D01*
G01X19720Y11378D01*
G01X19728Y11365D01*
G01X19734Y11350D01*
G01X19737Y11335D01*
G01X19738Y11320D01*
G01X19738Y11299D01*
G01X19739Y11266D01*
G01X19742Y11232D01*
G01X19747Y11198D01*
G01X19754Y11165D01*
G01X19764Y11132D01*
G01X19775Y11100D01*
G01X19788Y11069D01*
G01X19802Y11039D01*
G01X19819Y11009D01*
G01X19837Y10981D01*
G01X19858Y10953D01*
G01X19879Y10927D01*
G01X19927Y10879D01*
G01X19953Y10858D01*
G01X19981Y10838D01*
G01X20009Y10819D01*
G01X20039Y10802D01*
G01X20069Y10788D01*
G01X20100Y10775D01*
G01X20132Y10764D01*
G01X20165Y10754D01*
G01X20198Y10747D01*
G01X20232Y10742D01*
G01X20266Y10739D01*
G01X20299Y10738D01*
G01X20333Y10739D01*
G01X20367Y10742D01*
G01X20401Y10747D01*
G01X20434Y10754D01*
G01X20466Y10764D01*
G01X20498Y10775D01*
G01X20530Y10788D01*
G01X20560Y10802D01*
G01X20590Y10819D01*
G01X20618Y10838D01*
G01X20646Y10858D01*
G01X20672Y10879D01*
G01X20720Y10927D01*
G01X20741Y10953D01*
G01X20761Y10981D01*
G01X20780Y11009D01*
G01X20796Y11039D01*
G01X20811Y11069D01*
G01X20824Y11100D01*
G01X20835Y11132D01*
G01X20844Y11165D01*
G01X20852Y11198D01*
G01X20857Y11232D01*
G01X20860Y11266D01*
G01X20861Y11299D01*
G01X20860Y11337D01*
G01X20856Y11374D01*
G01X20855Y11388D01*
G01X20856Y11406D01*
G01X20861Y11423D01*
G01X20869Y11439D01*
G01X20881Y11459D01*
G01X20896Y11479D01*
G01X20980Y11563D01*
G01X20992Y11574D01*
G01X21006Y11582D01*
G01X21020Y11588D01*
G01X21036Y11592D01*
G01X21052Y11593D01*
G01X21599Y11593D01*
G01X21623Y11594D01*
G01X21647Y11597D01*
G01X21670Y11603D01*
G01X21692Y11610D01*
G01X21714Y11620D01*
G01X21735Y11631D01*
G01X21754Y11645D01*
G01X21772Y11660D01*
G01X21789Y11677D01*
G01X21804Y11695D01*
G01X21818Y11714D01*
G01X21829Y11735D01*
G01X21839Y11757D01*
G01X21846Y11779D01*
G01X21852Y11802D01*
G01X21855Y11826D01*
G01X21856Y11849D01*
G01X21856Y12949D01*
G01X21855Y12973D01*
G01X21852Y12997D01*
G01X21846Y13020D01*
G01X21839Y13042D01*
G01X21829Y13064D01*
G01X21818Y13085D01*
G01X21804Y13104D01*
G01X21789Y13122D01*
G01X21772Y13139D01*
G01X21754Y13154D01*
G01X21735Y13168D01*
G01X21714Y13179D01*
G01X21692Y13189D01*
G01X21670Y13196D01*
G01X21647Y13202D01*
G01X21623Y13205D01*
G01X21599Y13206D01*
G37*
G36*
G01X26799Y6556D02*
G01X25199Y6556D01*
G01X25176Y6555D01*
G01X25152Y6552D01*
G01X25129Y6546D01*
G01X25107Y6539D01*
G01X25085Y6529D01*
G01X25064Y6517D01*
G01X25045Y6504D01*
G01X25027Y6489D01*
G01X25010Y6472D01*
G01X24995Y6454D01*
G01X24981Y6434D01*
G01X24970Y6414D01*
G01X24960Y6392D01*
G01X24953Y6370D01*
G01X24947Y6347D01*
G01X24944Y6323D01*
G01X24943Y6299D01*
G01X24943Y4699D01*
G01X24944Y4676D01*
G01X24947Y4652D01*
G01X24953Y4629D01*
G01X24960Y4607D01*
G01X24970Y4585D01*
G01X24981Y4564D01*
G01X24995Y4545D01*
G01X25010Y4527D01*
G01X25027Y4510D01*
G01X25045Y4495D01*
G01X25064Y4481D01*
G01X25085Y4470D01*
G01X25107Y4460D01*
G01X25129Y4453D01*
G01X25152Y4447D01*
G01X25176Y4444D01*
G01X25199Y4443D01*
G01X26799Y4443D01*
G01X26823Y4444D01*
G01X26847Y4447D01*
G01X26870Y4453D01*
G01X26892Y4460D01*
G01X26914Y4470D01*
G01X26934Y4481D01*
G01X26954Y4495D01*
G01X26972Y4510D01*
G01X26989Y4527D01*
G01X27004Y4545D01*
G01X27018Y4564D01*
G01X27029Y4585D01*
G01X27039Y4607D01*
G01X27046Y4629D01*
G01X27052Y4652D01*
G01X27055Y4676D01*
G01X27056Y4699D01*
G01X27056Y6299D01*
G01X27055Y6323D01*
G01X27052Y6347D01*
G01X27046Y6370D01*
G01X27039Y6392D01*
G01X27029Y6414D01*
G01X27018Y6434D01*
G01X27004Y6454D01*
G01X26989Y6472D01*
G01X26972Y6489D01*
G01X26954Y6504D01*
G01X26934Y6517D01*
G01X26914Y6529D01*
G01X26892Y6539D01*
G01X26870Y6546D01*
G01X26847Y6552D01*
G01X26823Y6555D01*
G01X26799Y6556D01*
G37*
G36*
G01X2799Y17056D02*
G01X1199Y17056D01*
G01X1176Y17055D01*
G01X1152Y17052D01*
G01X1129Y17046D01*
G01X1107Y17039D01*
G01X1085Y17029D01*
G01X1064Y17018D01*
G01X1045Y17004D01*
G01X1027Y16989D01*
G01X1010Y16972D01*
G01X995Y16954D01*
G01X981Y16935D01*
G01X970Y16914D01*
G01X960Y16892D01*
G01X953Y16870D01*
G01X947Y16847D01*
G01X944Y16823D01*
G01X943Y16799D01*
G01X943Y15199D01*
G01X944Y15176D01*
G01X947Y15152D01*
G01X953Y15129D01*
G01X960Y15107D01*
G01X970Y15085D01*
G01X981Y15064D01*
G01X995Y15045D01*
G01X1010Y15027D01*
G01X1027Y15010D01*
G01X1045Y14995D01*
G01X1064Y14981D01*
G01X1085Y14970D01*
G01X1107Y14960D01*
G01X1129Y14953D01*
G01X1152Y14947D01*
G01X1176Y14944D01*
G01X1199Y14943D01*
G01X2799Y14943D01*
G01X2823Y14944D01*
G01X2847Y14947D01*
G01X2870Y14953D01*
G01X2892Y14960D01*
G01X2914Y14970D01*
G01X2935Y14981D01*
G01X2954Y14995D01*
G01X2972Y15010D01*
G01X2989Y15027D01*
G01X3004Y15045D01*
G01X3018Y15064D01*
G01X3029Y15085D01*
G01X3039Y15107D01*
G01X3046Y15129D01*
G01X3052Y15152D01*
G01X3055Y15176D01*
G01X3056Y15199D01*
G01X3056Y16799D01*
G01X3055Y16823D01*
G01X3052Y16847D01*
G01X3046Y16870D01*
G01X3039Y16892D01*
G01X3029Y16914D01*
G01X3018Y16935D01*
G01X3004Y16954D01*
G01X2989Y16972D01*
G01X2972Y16989D01*
G01X2954Y17004D01*
G01X2935Y17018D01*
G01X2914Y17029D01*
G01X2892Y17039D01*
G01X2870Y17046D01*
G01X2847Y17052D01*
G01X2823Y17055D01*
G01X2799Y17056D01*
G37*
G36*
G01X3441Y7641D02*
G01X3406Y7642D01*
G01X3371Y7641D01*
G01X3336Y7638D01*
G01X3301Y7633D01*
G01X3267Y7625D01*
G01X3233Y7616D01*
G01X3200Y7604D01*
G01X3167Y7591D01*
G01X3136Y7576D01*
G01X3105Y7558D01*
G01X3076Y7539D01*
G01X3047Y7519D01*
G01X3020Y7496D01*
G01X2995Y7472D01*
G01X2971Y7446D01*
G01X2948Y7419D01*
G01X2927Y7391D01*
G01X2908Y7362D01*
G01X2891Y7331D01*
G01X2876Y7299D01*
G01X2862Y7267D01*
G01X2851Y7234D01*
G01X2841Y7200D01*
G01X2834Y7166D01*
G01X2829Y7131D01*
G01X2825Y7096D01*
G01X2824Y7061D01*
G01X2825Y7026D01*
G01X2829Y6991D01*
G01X2834Y6956D01*
G01X2841Y6922D01*
G01X2851Y6888D01*
G01X2862Y6855D01*
G01X2876Y6822D01*
G01X2891Y6790D01*
G01X2908Y6760D01*
G01X2927Y6730D01*
G01X2948Y6702D01*
G01X2971Y6675D01*
G01X2995Y6650D01*
G01X3020Y6625D01*
G01X3047Y6603D01*
G01X3076Y6582D01*
G01X3105Y6563D01*
G01X3136Y6546D01*
G01X3167Y6530D01*
G01X3200Y6517D01*
G01X3233Y6506D01*
G01X3267Y6496D01*
G01X3301Y6489D01*
G01X3336Y6483D01*
G01X3371Y6480D01*
G01X3406Y6479D01*
G01X3441Y6480D01*
G01X3476Y6483D01*
G01X3511Y6489D01*
G01X3545Y6496D01*
G01X3579Y6506D01*
G01X3612Y6517D01*
G01X3645Y6530D01*
G01X3676Y6546D01*
G01X3707Y6563D01*
G01X3736Y6582D01*
G01X3765Y6603D01*
G01X3792Y6625D01*
G01X3817Y6650D01*
G01X3841Y6675D01*
G01X3864Y6702D01*
G01X3884Y6730D01*
G01X3904Y6760D01*
G01X3921Y6790D01*
G01X3936Y6822D01*
G01X3950Y6855D01*
G01X3961Y6888D01*
G01X3971Y6922D01*
G01X3978Y6956D01*
G01X3983Y6991D01*
G01X3986Y7026D01*
G01X3987Y7061D01*
G01X3986Y7096D01*
G01X3983Y7131D01*
G01X3978Y7166D01*
G01X3971Y7200D01*
G01X3961Y7234D01*
G01X3950Y7267D01*
G01X3936Y7299D01*
G01X3921Y7331D01*
G01X3904Y7362D01*
G01X3884Y7391D01*
G01X3864Y7419D01*
G01X3841Y7446D01*
G01X3817Y7472D01*
G01X3792Y7496D01*
G01X3765Y7519D01*
G01X3736Y7539D01*
G01X3707Y7558D01*
G01X3676Y7576D01*
G01X3645Y7591D01*
G01X3612Y7604D01*
G01X3579Y7616D01*
G01X3545Y7625D01*
G01X3511Y7633D01*
G01X3476Y7638D01*
G01X3441Y7641D01*
G37*
G36*
G01X3441Y11641D02*
G01X3406Y11642D01*
G01X3371Y11641D01*
G01X3336Y11638D01*
G01X3301Y11633D01*
G01X3267Y11625D01*
G01X3233Y11616D01*
G01X3200Y11604D01*
G01X3167Y11591D01*
G01X3136Y11576D01*
G01X3105Y11558D01*
G01X3076Y11539D01*
G01X3047Y11519D01*
G01X3020Y11496D01*
G01X2995Y11472D01*
G01X2971Y11446D01*
G01X2948Y11419D01*
G01X2927Y11391D01*
G01X2908Y11362D01*
G01X2891Y11331D01*
G01X2876Y11299D01*
G01X2862Y11267D01*
G01X2851Y11234D01*
G01X2841Y11200D01*
G01X2834Y11166D01*
G01X2829Y11131D01*
G01X2825Y11096D01*
G01X2824Y11061D01*
G01X2825Y11026D01*
G01X2829Y10991D01*
G01X2834Y10956D01*
G01X2841Y10922D01*
G01X2851Y10888D01*
G01X2862Y10854D01*
G01X2876Y10822D01*
G01X2891Y10790D01*
G01X2908Y10760D01*
G01X2927Y10730D01*
G01X2948Y10702D01*
G01X2971Y10675D01*
G01X2995Y10650D01*
G01X3020Y10625D01*
G01X3047Y10603D01*
G01X3076Y10582D01*
G01X3105Y10563D01*
G01X3136Y10546D01*
G01X3167Y10530D01*
G01X3200Y10517D01*
G01X3233Y10506D01*
G01X3267Y10496D01*
G01X3301Y10489D01*
G01X3336Y10483D01*
G01X3371Y10480D01*
G01X3406Y10479D01*
G01X3441Y10480D01*
G01X3476Y10483D01*
G01X3511Y10489D01*
G01X3545Y10496D01*
G01X3579Y10506D01*
G01X3612Y10517D01*
G01X3645Y10530D01*
G01X3676Y10546D01*
G01X3707Y10563D01*
G01X3736Y10582D01*
G01X3765Y10603D01*
G01X3792Y10625D01*
G01X3817Y10650D01*
G01X3841Y10675D01*
G01X3864Y10702D01*
G01X3884Y10730D01*
G01X3904Y10760D01*
G01X3921Y10790D01*
G01X3936Y10822D01*
G01X3950Y10854D01*
G01X3961Y10888D01*
G01X3971Y10922D01*
G01X3978Y10956D01*
G01X3983Y10991D01*
G01X3986Y11026D01*
G01X3987Y11061D01*
G01X3986Y11096D01*
G01X3983Y11131D01*
G01X3978Y11166D01*
G01X3971Y11200D01*
G01X3961Y11234D01*
G01X3950Y11267D01*
G01X3936Y11299D01*
G01X3921Y11331D01*
G01X3904Y11362D01*
G01X3884Y11391D01*
G01X3864Y11419D01*
G01X3841Y11446D01*
G01X3817Y11472D01*
G01X3792Y11496D01*
G01X3765Y11519D01*
G01X3736Y11539D01*
G01X3707Y11558D01*
G01X3676Y11576D01*
G01X3645Y11591D01*
G01X3612Y11604D01*
G01X3579Y11616D01*
G01X3545Y11625D01*
G01X3511Y11633D01*
G01X3476Y11638D01*
G01X3441Y11641D01*
G37*
G36*
G01X11761Y5611D02*
G01X10693Y5611D01*
G01X10693Y5050D01*
G01X10694Y5026D01*
G01X10697Y5002D01*
G01X10703Y4979D01*
G01X10710Y4957D01*
G01X10720Y4935D01*
G01X10731Y4915D01*
G01X10745Y4895D01*
G01X10760Y4877D01*
G01X10777Y4860D01*
G01X10795Y4845D01*
G01X10814Y4831D01*
G01X10835Y4820D01*
G01X10857Y4810D01*
G01X10879Y4803D01*
G01X10902Y4797D01*
G01X10926Y4794D01*
G01X10949Y4793D01*
G01X11761Y4793D01*
G01X11761Y5611D01*
G37*
G36*
G01X14450Y7806D02*
G01X13638Y7806D01*
G01X13638Y6988D01*
G01X14706Y6988D01*
G01X14706Y7549D01*
G01X14705Y7573D01*
G01X14702Y7597D01*
G01X14696Y7620D01*
G01X14689Y7642D01*
G01X14679Y7664D01*
G01X14668Y7684D01*
G01X14654Y7704D01*
G01X14639Y7722D01*
G01X14622Y7739D01*
G01X14604Y7754D01*
G01X14585Y7768D01*
G01X14564Y7779D01*
G01X14542Y7789D01*
G01X14520Y7796D01*
G01X14497Y7802D01*
G01X14473Y7805D01*
G01X14450Y7806D01*
G37*
G36*
G01X11761Y7806D02*
G01X10949Y7806D01*
G01X10926Y7805D01*
G01X10902Y7802D01*
G01X10879Y7796D01*
G01X10857Y7789D01*
G01X10835Y7779D01*
G01X10814Y7768D01*
G01X10795Y7754D01*
G01X10777Y7739D01*
G01X10760Y7722D01*
G01X10745Y7704D01*
G01X10731Y7684D01*
G01X10720Y7664D01*
G01X10710Y7642D01*
G01X10703Y7620D01*
G01X10697Y7597D01*
G01X10694Y7573D01*
G01X10693Y7549D01*
G01X10693Y6988D01*
G01X11761Y6988D01*
G01X11761Y7806D01*
G37*
G36*
G01X14706Y5611D02*
G01X13638Y5611D01*
G01X13638Y4793D01*
G01X14450Y4793D01*
G01X14473Y4794D01*
G01X14497Y4797D01*
G01X14520Y4803D01*
G01X14542Y4810D01*
G01X14564Y4820D01*
G01X14585Y4831D01*
G01X14604Y4845D01*
G01X14622Y4860D01*
G01X14639Y4877D01*
G01X14654Y4895D01*
G01X14668Y4915D01*
G01X14679Y4935D01*
G01X14689Y4957D01*
G01X14696Y4979D01*
G01X14702Y5002D01*
G01X14705Y5026D01*
G01X14706Y5050D01*
G01X14706Y5611D01*
G37*
G36*
G01X2800Y3056D02*
G01X2463Y3056D01*
G01X2463Y2463D01*
G01X3056Y2463D01*
G01X3056Y2799D01*
G01X3055Y2823D01*
G01X3052Y2847D01*
G01X3046Y2870D01*
G01X3039Y2892D01*
G01X3029Y2914D01*
G01X3018Y2935D01*
G01X3004Y2954D01*
G01X2989Y2972D01*
G01X2972Y2989D01*
G01X2954Y3004D01*
G01X2935Y3018D01*
G01X2914Y3029D01*
G01X2892Y3039D01*
G01X2870Y3046D01*
G01X2847Y3052D01*
G01X2823Y3055D01*
G01X2800Y3056D01*
G37*
G36*
G01X1536Y3056D02*
G01X1200Y3056D01*
G01X1176Y3055D01*
G01X1152Y3052D01*
G01X1129Y3046D01*
G01X1107Y3039D01*
G01X1085Y3029D01*
G01X1064Y3018D01*
G01X1045Y3004D01*
G01X1027Y2989D01*
G01X1010Y2972D01*
G01X995Y2954D01*
G01X981Y2935D01*
G01X970Y2914D01*
G01X960Y2892D01*
G01X953Y2870D01*
G01X947Y2847D01*
G01X944Y2823D01*
G01X943Y2799D01*
G01X943Y2463D01*
G01X1536Y2463D01*
G01X1536Y3056D01*
G37*
G36*
G01X1536Y1536D02*
G01X943Y1536D01*
G01X943Y1199D01*
G01X944Y1176D01*
G01X947Y1152D01*
G01X953Y1129D01*
G01X960Y1107D01*
G01X970Y1085D01*
G01X981Y1064D01*
G01X995Y1045D01*
G01X1010Y1027D01*
G01X1027Y1010D01*
G01X1045Y995D01*
G01X1064Y981D01*
G01X1085Y970D01*
G01X1107Y960D01*
G01X1129Y953D01*
G01X1152Y947D01*
G01X1176Y944D01*
G01X1200Y943D01*
G01X1536Y943D01*
G01X1536Y1536D01*
G37*
G36*
G01X3056Y1536D02*
G01X2463Y1536D01*
G01X2463Y943D01*
G01X2800Y943D01*
G01X2823Y944D01*
G01X2847Y947D01*
G01X2870Y953D01*
G01X2892Y960D01*
G01X2914Y970D01*
G01X2935Y981D01*
G01X2954Y995D01*
G01X2972Y1010D01*
G01X2989Y1027D01*
G01X3004Y1045D01*
G01X3018Y1064D01*
G01X3029Y1085D01*
G01X3039Y1107D01*
G01X3046Y1129D01*
G01X3052Y1152D01*
G01X3055Y1176D01*
G01X3056Y1199D01*
G01X3056Y1536D01*
G37*
G36*
G01X26799Y3056D02*
G01X26463Y3056D01*
G01X26463Y2463D01*
G01X27056Y2463D01*
G01X27056Y2800D01*
G01X27055Y2823D01*
G01X27052Y2847D01*
G01X27046Y2870D01*
G01X27039Y2892D01*
G01X27029Y2914D01*
G01X27018Y2935D01*
G01X27004Y2954D01*
G01X26989Y2972D01*
G01X26972Y2989D01*
G01X26954Y3004D01*
G01X26934Y3018D01*
G01X26914Y3029D01*
G01X26892Y3039D01*
G01X26870Y3046D01*
G01X26847Y3052D01*
G01X26823Y3055D01*
G01X26799Y3056D01*
G37*
G36*
G01X25536Y3056D02*
G01X25199Y3056D01*
G01X25176Y3055D01*
G01X25152Y3052D01*
G01X25129Y3046D01*
G01X25107Y3039D01*
G01X25085Y3029D01*
G01X25064Y3018D01*
G01X25045Y3004D01*
G01X25027Y2989D01*
G01X25010Y2972D01*
G01X24995Y2954D01*
G01X24981Y2935D01*
G01X24970Y2914D01*
G01X24960Y2892D01*
G01X24953Y2870D01*
G01X24947Y2847D01*
G01X24944Y2823D01*
G01X24943Y2800D01*
G01X24943Y2463D01*
G01X25536Y2463D01*
G01X25536Y3056D01*
G37*
G36*
G01X27056Y1536D02*
G01X26463Y1536D01*
G01X26463Y943D01*
G01X26799Y943D01*
G01X26823Y944D01*
G01X26847Y947D01*
G01X26870Y953D01*
G01X26892Y960D01*
G01X26914Y970D01*
G01X26934Y981D01*
G01X26954Y995D01*
G01X26972Y1010D01*
G01X26989Y1027D01*
G01X27004Y1045D01*
G01X27018Y1064D01*
G01X27029Y1085D01*
G01X27039Y1107D01*
G01X27046Y1129D01*
G01X27052Y1152D01*
G01X27055Y1176D01*
G01X27056Y1200D01*
G01X27056Y1536D01*
G37*
G36*
G01X25536Y1536D02*
G01X24943Y1536D01*
G01X24943Y1200D01*
G01X24944Y1176D01*
G01X24947Y1152D01*
G01X24953Y1129D01*
G01X24960Y1107D01*
G01X24970Y1085D01*
G01X24981Y1064D01*
G01X24995Y1045D01*
G01X25010Y1027D01*
G01X25027Y1010D01*
G01X25045Y995D01*
G01X25064Y981D01*
G01X25085Y970D01*
G01X25107Y960D01*
G01X25129Y953D01*
G01X25152Y947D01*
G01X25176Y944D01*
G01X25199Y943D01*
G01X25536Y943D01*
G01X25536Y1536D01*
G37*
G36*
G01X2435Y5035D02*
G01X1851Y5035D01*
G01X1851Y4590D01*
G01X1891Y4597D01*
G01X1930Y4607D01*
G01X1969Y4618D01*
G01X2006Y4632D01*
G01X2044Y4647D01*
G01X2080Y4664D01*
G01X2115Y4684D01*
G01X2150Y4705D01*
G01X2183Y4727D01*
G01X2215Y4752D01*
G01X2245Y4778D01*
G01X2275Y4805D01*
G01X2303Y4834D01*
G01X2329Y4865D01*
G01X2354Y4896D01*
G01X2377Y4929D01*
G01X2398Y4964D01*
G01X2418Y4999D01*
G01X2435Y5035D01*
G37*
G36*
G01X1891Y6125D02*
G01X1851Y6132D01*
G01X1851Y5687D01*
G01X2435Y5687D01*
G01X2418Y5723D01*
G01X2398Y5758D01*
G01X2377Y5792D01*
G01X2354Y5825D01*
G01X2329Y5857D01*
G01X2303Y5887D01*
G01X2275Y5916D01*
G01X2245Y5944D01*
G01X2215Y5970D01*
G01X2183Y5994D01*
G01X2150Y6017D01*
G01X2115Y6038D01*
G01X2080Y6057D01*
G01X2044Y6075D01*
G01X2006Y6090D01*
G01X1969Y6103D01*
G01X1930Y6115D01*
G01X1891Y6125D01*
G37*
G36*
G01X1841Y13404D02*
G01X1801Y13412D01*
G01X1801Y12967D01*
G01X2385Y12967D01*
G01X2368Y13003D01*
G01X2348Y13038D01*
G01X2327Y13072D01*
G01X2304Y13105D01*
G01X2279Y13137D01*
G01X2253Y13167D01*
G01X2225Y13196D01*
G01X2195Y13224D01*
G01X2165Y13250D01*
G01X2133Y13274D01*
G01X2100Y13297D01*
G01X2065Y13318D01*
G01X2030Y13337D01*
G01X1994Y13354D01*
G01X1956Y13370D01*
G01X1918Y13383D01*
G01X1880Y13395D01*
G01X1841Y13404D01*
G37*
G36*
G01X5835Y5155D02*
G01X5251Y5155D01*
G01X5251Y4709D01*
G01X5291Y4717D01*
G01X5330Y4727D01*
G01X5368Y4738D01*
G01X5406Y4752D01*
G01X5444Y4767D01*
G01X5480Y4784D01*
G01X5515Y4804D01*
G01X5550Y4825D01*
G01X5583Y4847D01*
G01X5615Y4872D01*
G01X5645Y4898D01*
G01X5675Y4925D01*
G01X5703Y4954D01*
G01X5729Y4985D01*
G01X5754Y5016D01*
G01X5777Y5049D01*
G01X5798Y5083D01*
G01X5818Y5119D01*
G01X5835Y5155D01*
G37*
G36*
G01X2385Y12315D02*
G01X1801Y12315D01*
G01X1801Y11869D01*
G01X1841Y11877D01*
G01X1880Y11886D01*
G01X1918Y11898D01*
G01X1956Y11911D01*
G01X1994Y11927D01*
G01X2030Y11944D01*
G01X2065Y11963D01*
G01X2100Y11984D01*
G01X2133Y12007D01*
G01X2165Y12032D01*
G01X2195Y12058D01*
G01X2225Y12085D01*
G01X2253Y12114D01*
G01X2279Y12145D01*
G01X2304Y12176D01*
G01X2327Y12209D01*
G01X2348Y12243D01*
G01X2368Y12278D01*
G01X2385Y12315D01*
G37*
G36*
G01X5291Y6245D02*
G01X5251Y6252D01*
G01X5251Y5807D01*
G01X5835Y5807D01*
G01X5818Y5843D01*
G01X5798Y5878D01*
G01X5777Y5912D01*
G01X5754Y5945D01*
G01X5729Y5977D01*
G01X5703Y6007D01*
G01X5675Y6036D01*
G01X5645Y6064D01*
G01X5615Y6090D01*
G01X5583Y6114D01*
G01X5550Y6137D01*
G01X5515Y6158D01*
G01X5480Y6177D01*
G01X5444Y6194D01*
G01X5406Y6210D01*
G01X5368Y6223D01*
G01X5330Y6235D01*
G01X5291Y6245D01*
G37*
G36*
G01X4200Y5155D02*
G01X3616Y5155D01*
G01X3634Y5119D01*
G01X3653Y5083D01*
G01X3674Y5049D01*
G01X3698Y5016D01*
G01X3722Y4985D01*
G01X3749Y4954D01*
G01X3776Y4925D01*
G01X3806Y4898D01*
G01X3837Y4872D01*
G01X3868Y4847D01*
G01X3902Y4825D01*
G01X3936Y4804D01*
G01X3971Y4784D01*
G01X4008Y4767D01*
G01X4045Y4752D01*
G01X4083Y4738D01*
G01X4121Y4727D01*
G01X4160Y4717D01*
G01X4200Y4709D01*
G01X4200Y5155D01*
G37*
G36*
G01X4200Y12967D02*
G01X4200Y13412D01*
G01X4160Y13405D01*
G01X4121Y13395D01*
G01X4083Y13383D01*
G01X4045Y13370D01*
G01X4008Y13354D01*
G01X3971Y13337D01*
G01X3936Y13318D01*
G01X3902Y13297D01*
G01X3868Y13274D01*
G01X3837Y13250D01*
G01X3806Y13224D01*
G01X3776Y13196D01*
G01X3749Y13167D01*
G01X3722Y13137D01*
G01X3698Y13105D01*
G01X3674Y13072D01*
G01X3653Y13038D01*
G01X3634Y13003D01*
G01X3616Y12967D01*
G01X4200Y12967D01*
G37*
G36*
G01X4200Y5807D02*
G01X4200Y6252D01*
G01X4160Y6245D01*
G01X4121Y6235D01*
G01X4083Y6223D01*
G01X4045Y6210D01*
G01X4008Y6194D01*
G01X3971Y6177D01*
G01X3936Y6158D01*
G01X3902Y6137D01*
G01X3868Y6114D01*
G01X3837Y6090D01*
G01X3806Y6064D01*
G01X3776Y6036D01*
G01X3749Y6007D01*
G01X3722Y5977D01*
G01X3698Y5945D01*
G01X3674Y5912D01*
G01X3653Y5878D01*
G01X3634Y5843D01*
G01X3616Y5807D01*
G01X4200Y5807D01*
G37*
G36*
G01X5291Y13405D02*
G01X5251Y13412D01*
G01X5251Y12967D01*
G01X5835Y12967D01*
G01X5818Y13003D01*
G01X5798Y13038D01*
G01X5777Y13072D01*
G01X5754Y13105D01*
G01X5729Y13137D01*
G01X5703Y13167D01*
G01X5675Y13196D01*
G01X5645Y13224D01*
G01X5615Y13250D01*
G01X5583Y13274D01*
G01X5550Y13297D01*
G01X5515Y13318D01*
G01X5480Y13337D01*
G01X5444Y13354D01*
G01X5406Y13370D01*
G01X5368Y13383D01*
G01X5330Y13395D01*
G01X5291Y13405D01*
G37*
G36*
G01X4200Y12315D02*
G01X3616Y12315D01*
G01X3634Y12279D01*
G01X3653Y12243D01*
G01X3674Y12209D01*
G01X3698Y12176D01*
G01X3722Y12145D01*
G01X3749Y12114D01*
G01X3776Y12085D01*
G01X3806Y12058D01*
G01X3837Y12032D01*
G01X3868Y12007D01*
G01X3902Y11985D01*
G01X3936Y11964D01*
G01X3971Y11944D01*
G01X4008Y11927D01*
G01X4045Y11912D01*
G01X4083Y11898D01*
G01X4121Y11887D01*
G01X4160Y11877D01*
G01X4200Y11870D01*
G01X4200Y12315D01*
G37*
G36*
G01X5835Y12315D02*
G01X5251Y12315D01*
G01X5251Y11870D01*
G01X5291Y11877D01*
G01X5330Y11887D01*
G01X5368Y11898D01*
G01X5406Y11912D01*
G01X5444Y11927D01*
G01X5480Y11944D01*
G01X5515Y11964D01*
G01X5550Y11985D01*
G01X5583Y12007D01*
G01X5615Y12032D01*
G01X5645Y12058D01*
G01X5675Y12085D01*
G01X5703Y12114D01*
G01X5729Y12145D01*
G01X5754Y12176D01*
G01X5777Y12209D01*
G01X5798Y12243D01*
G01X5818Y12279D01*
G01X5835Y12315D01*
G37*
G36*
G01X26550Y8956D02*
G01X26338Y8956D01*
G01X26338Y8513D01*
G01X26806Y8513D01*
G01X26806Y8699D01*
G01X26805Y8723D01*
G01X26802Y8747D01*
G01X26796Y8770D01*
G01X26789Y8792D01*
G01X26779Y8814D01*
G01X26768Y8835D01*
G01X26754Y8854D01*
G01X26739Y8872D01*
G01X26722Y8889D01*
G01X26704Y8904D01*
G01X26685Y8918D01*
G01X26664Y8929D01*
G01X26642Y8939D01*
G01X26620Y8946D01*
G01X26597Y8952D01*
G01X26573Y8955D01*
G01X26550Y8956D01*
G37*
G36*
G01X22549Y11255D02*
G01X22338Y11255D01*
G01X22338Y10812D01*
G01X22806Y10812D01*
G01X22806Y10999D01*
G01X22805Y11022D01*
G01X22801Y11046D01*
G01X22796Y11069D01*
G01X22788Y11091D01*
G01X22779Y11113D01*
G01X22767Y11134D01*
G01X22754Y11153D01*
G01X22739Y11172D01*
G01X22722Y11188D01*
G01X22704Y11203D01*
G01X22684Y11217D01*
G01X22663Y11228D01*
G01X22642Y11238D01*
G01X22619Y11245D01*
G01X22596Y11251D01*
G01X22573Y11254D01*
G01X22549Y11255D01*
G37*
G36*
G01X25661Y8956D02*
G01X25449Y8956D01*
G01X25426Y8955D01*
G01X25402Y8952D01*
G01X25379Y8946D01*
G01X25357Y8939D01*
G01X25335Y8929D01*
G01X25314Y8918D01*
G01X25295Y8904D01*
G01X25277Y8889D01*
G01X25260Y8872D01*
G01X25245Y8854D01*
G01X25231Y8835D01*
G01X25220Y8814D01*
G01X25210Y8792D01*
G01X25203Y8770D01*
G01X25197Y8747D01*
G01X25194Y8723D01*
G01X25193Y8699D01*
G01X25193Y8513D01*
G01X25661Y8513D01*
G01X25661Y8956D01*
G37*
G36*
G01X21661Y11255D02*
G01X21449Y11255D01*
G01X21425Y11254D01*
G01X21402Y11251D01*
G01X21379Y11245D01*
G01X21356Y11238D01*
G01X21335Y11228D01*
G01X21314Y11217D01*
G01X21294Y11203D01*
G01X21276Y11188D01*
G01X21260Y11172D01*
G01X21244Y11153D01*
G01X21231Y11134D01*
G01X21219Y11113D01*
G01X21210Y11091D01*
G01X21202Y11069D01*
G01X21197Y11046D01*
G01X21194Y11022D01*
G01X21193Y10999D01*
G01X21193Y10812D01*
G01X21661Y10812D01*
G01X21661Y11255D01*
G37*
G36*
G01X26806Y7886D02*
G01X26338Y7886D01*
G01X26338Y7443D01*
G01X26550Y7443D01*
G01X26573Y7444D01*
G01X26597Y7447D01*
G01X26620Y7453D01*
G01X26642Y7460D01*
G01X26664Y7470D01*
G01X26685Y7481D01*
G01X26704Y7495D01*
G01X26722Y7510D01*
G01X26739Y7527D01*
G01X26754Y7545D01*
G01X26768Y7564D01*
G01X26779Y7585D01*
G01X26789Y7607D01*
G01X26796Y7629D01*
G01X26802Y7652D01*
G01X26805Y7676D01*
G01X26806Y7699D01*
G01X26806Y7886D01*
G37*
G36*
G01X25661Y7886D02*
G01X25193Y7886D01*
G01X25193Y7699D01*
G01X25194Y7676D01*
G01X25197Y7652D01*
G01X25203Y7629D01*
G01X25210Y7607D01*
G01X25220Y7585D01*
G01X25231Y7564D01*
G01X25245Y7545D01*
G01X25260Y7527D01*
G01X25277Y7510D01*
G01X25295Y7495D01*
G01X25314Y7481D01*
G01X25335Y7470D01*
G01X25357Y7460D01*
G01X25379Y7453D01*
G01X25402Y7447D01*
G01X25426Y7444D01*
G01X25449Y7443D01*
G01X25661Y7443D01*
G01X25661Y7886D01*
G37*
G36*
G01X7686Y16522D02*
G01X7686Y16838D01*
G01X7681Y16836D01*
G01X7659Y16825D01*
G01X7648Y16820D01*
G01X7626Y16808D01*
G01X7615Y16801D01*
G01X7594Y16788D01*
G01X7584Y16782D01*
G01X7563Y16768D01*
G01X7553Y16761D01*
G01X7533Y16746D01*
G01X7523Y16737D01*
G01X7503Y16721D01*
G01X7494Y16713D01*
G01X7476Y16696D01*
G01X7466Y16686D01*
G01X7449Y16668D01*
G01X7439Y16658D01*
G01X7423Y16639D01*
G01X7418Y16633D01*
G01X7402Y16614D01*
G01X7393Y16603D01*
G01X7379Y16583D01*
G01X7357Y16550D01*
G01X7349Y16537D01*
G01X7341Y16522D01*
G01X7686Y16522D01*
G37*
G36*
G01X16318Y16836D02*
G01X16313Y16838D01*
G01X16313Y16522D01*
G01X16658Y16522D01*
G01X16650Y16537D01*
G01X16642Y16550D01*
G01X16620Y16583D01*
G01X16606Y16603D01*
G01X16597Y16614D01*
G01X16581Y16633D01*
G01X16576Y16639D01*
G01X16560Y16658D01*
G01X16550Y16668D01*
G01X16533Y16686D01*
G01X16523Y16696D01*
G01X16505Y16713D01*
G01X16496Y16721D01*
G01X16476Y16737D01*
G01X16466Y16746D01*
G01X16446Y16761D01*
G01X16436Y16768D01*
G01X16415Y16782D01*
G01X16405Y16789D01*
G01X16383Y16802D01*
G01X16373Y16808D01*
G01X16351Y16820D01*
G01X16340Y16825D01*
G01X16318Y16836D01*
G37*
G36*
G01X11686Y16522D02*
G01X11686Y16838D01*
G01X11681Y16836D01*
G01X11659Y16825D01*
G01X11648Y16820D01*
G01X11626Y16808D01*
G01X11615Y16801D01*
G01X11594Y16788D01*
G01X11584Y16782D01*
G01X11563Y16768D01*
G01X11553Y16761D01*
G01X11533Y16746D01*
G01X11523Y16737D01*
G01X11503Y16721D01*
G01X11494Y16713D01*
G01X11476Y16696D01*
G01X11466Y16686D01*
G01X11449Y16668D01*
G01X11439Y16658D01*
G01X11423Y16639D01*
G01X11418Y16633D01*
G01X11402Y16614D01*
G01X11393Y16603D01*
G01X11379Y16583D01*
G01X11357Y16550D01*
G01X11349Y16537D01*
G01X11341Y16522D01*
G01X11686Y16522D01*
G37*
G36*
G01X8318Y16836D02*
G01X8313Y16838D01*
G01X8313Y16522D01*
G01X8658Y16522D01*
G01X8649Y16537D01*
G01X8642Y16550D01*
G01X8620Y16583D01*
G01X8606Y16603D01*
G01X8597Y16614D01*
G01X8581Y16633D01*
G01X8576Y16639D01*
G01X8560Y16658D01*
G01X8550Y16668D01*
G01X8533Y16686D01*
G01X8523Y16696D01*
G01X8505Y16713D01*
G01X8495Y16721D01*
G01X8476Y16737D01*
G01X8466Y16746D01*
G01X8446Y16761D01*
G01X8436Y16768D01*
G01X8415Y16782D01*
G01X8405Y16789D01*
G01X8383Y16802D01*
G01X8373Y16808D01*
G01X8351Y16820D01*
G01X8340Y16825D01*
G01X8318Y16836D01*
G37*
G36*
G01X14318Y16836D02*
G01X14313Y16838D01*
G01X14313Y16522D01*
G01X14658Y16522D01*
G01X14649Y16537D01*
G01X14642Y16550D01*
G01X14620Y16583D01*
G01X14606Y16603D01*
G01X14596Y16614D01*
G01X14581Y16633D01*
G01X14576Y16639D01*
G01X14560Y16658D01*
G01X14550Y16668D01*
G01X14533Y16686D01*
G01X14523Y16696D01*
G01X14505Y16713D01*
G01X14495Y16721D01*
G01X14476Y16737D01*
G01X14466Y16746D01*
G01X14446Y16761D01*
G01X14436Y16768D01*
G01X14415Y16782D01*
G01X14405Y16789D01*
G01X14383Y16802D01*
G01X14373Y16808D01*
G01X14351Y16820D01*
G01X14340Y16825D01*
G01X14318Y16836D01*
G37*
G36*
G01X9686Y16522D02*
G01X9686Y16838D01*
G01X9681Y16836D01*
G01X9659Y16825D01*
G01X9648Y16820D01*
G01X9626Y16808D01*
G01X9615Y16801D01*
G01X9594Y16788D01*
G01X9584Y16782D01*
G01X9563Y16768D01*
G01X9553Y16761D01*
G01X9533Y16746D01*
G01X9523Y16737D01*
G01X9503Y16721D01*
G01X9494Y16713D01*
G01X9476Y16696D01*
G01X9466Y16686D01*
G01X9449Y16668D01*
G01X9439Y16658D01*
G01X9423Y16639D01*
G01X9418Y16633D01*
G01X9402Y16614D01*
G01X9393Y16603D01*
G01X9379Y16583D01*
G01X9357Y16550D01*
G01X9349Y16537D01*
G01X9341Y16522D01*
G01X9686Y16522D01*
G37*
G36*
G01X13686Y16522D02*
G01X13686Y16838D01*
G01X13681Y16836D01*
G01X13659Y16825D01*
G01X13648Y16820D01*
G01X13626Y16808D01*
G01X13615Y16801D01*
G01X13594Y16788D01*
G01X13584Y16782D01*
G01X13563Y16768D01*
G01X13553Y16761D01*
G01X13533Y16746D01*
G01X13523Y16737D01*
G01X13503Y16721D01*
G01X13494Y16713D01*
G01X13476Y16696D01*
G01X13466Y16686D01*
G01X13449Y16668D01*
G01X13439Y16658D01*
G01X13423Y16639D01*
G01X13418Y16633D01*
G01X13402Y16614D01*
G01X13393Y16603D01*
G01X13379Y16583D01*
G01X13357Y16550D01*
G01X13349Y16537D01*
G01X13341Y16522D01*
G01X13686Y16522D01*
G37*
G36*
G01X10318Y16836D02*
G01X10313Y16838D01*
G01X10313Y16522D01*
G01X10658Y16522D01*
G01X10649Y16537D01*
G01X10642Y16550D01*
G01X10620Y16583D01*
G01X10606Y16603D01*
G01X10597Y16614D01*
G01X10581Y16633D01*
G01X10576Y16639D01*
G01X10560Y16658D01*
G01X10550Y16668D01*
G01X10533Y16686D01*
G01X10523Y16696D01*
G01X10505Y16713D01*
G01X10495Y16721D01*
G01X10476Y16737D01*
G01X10466Y16746D01*
G01X10446Y16761D01*
G01X10436Y16768D01*
G01X10415Y16782D01*
G01X10405Y16789D01*
G01X10383Y16802D01*
G01X10373Y16808D01*
G01X10351Y16820D01*
G01X10340Y16825D01*
G01X10318Y16836D01*
G37*
G36*
G01X12318Y16836D02*
G01X12313Y16838D01*
G01X12313Y16522D01*
G01X12658Y16522D01*
G01X12649Y16537D01*
G01X12642Y16550D01*
G01X12620Y16583D01*
G01X12606Y16603D01*
G01X12597Y16614D01*
G01X12581Y16633D01*
G01X12576Y16639D01*
G01X12560Y16658D01*
G01X12550Y16668D01*
G01X12533Y16686D01*
G01X12523Y16696D01*
G01X12505Y16713D01*
G01X12495Y16721D01*
G01X12476Y16737D01*
G01X12466Y16746D01*
G01X12446Y16761D01*
G01X12436Y16768D01*
G01X12415Y16782D01*
G01X12405Y16789D01*
G01X12383Y16802D01*
G01X12373Y16808D01*
G01X12351Y16820D01*
G01X12340Y16825D01*
G01X12318Y16836D01*
G37*
G36*
G01X15686Y16522D02*
G01X15686Y16838D01*
G01X15681Y16836D01*
G01X15659Y16825D01*
G01X15648Y16820D01*
G01X15626Y16808D01*
G01X15615Y16801D01*
G01X15594Y16788D01*
G01X15584Y16782D01*
G01X15563Y16768D01*
G01X15553Y16761D01*
G01X15533Y16746D01*
G01X15523Y16737D01*
G01X15504Y16721D01*
G01X15494Y16713D01*
G01X15476Y16696D01*
G01X15466Y16686D01*
G01X15449Y16668D01*
G01X15439Y16658D01*
G01X15423Y16639D01*
G01X15418Y16633D01*
G01X15402Y16614D01*
G01X15393Y16603D01*
G01X15379Y16583D01*
G01X15357Y16550D01*
G01X15350Y16537D01*
G01X15341Y16522D01*
G01X15686Y16522D01*
G37*

%LPD*%
G54D11*
G01X5499Y2000D02*
G01X5999Y1500D01*
G01X7500Y1500D01*
G01X19600Y1399D02*
G01X19600Y5199D01*
G54D13*
G01X8001Y3499D02*
G01X9999Y3499D01*
G01X9999Y3499D01*
G01X6400Y3499D02*
G01X5499Y3499D01*
G01X5001Y3999D01*
G01X13299Y2000D02*
G01X12999Y2000D01*
G01X12499Y1500D01*
G01X9100Y1500D01*
G01X21699Y16001D02*
G01X25999Y16001D01*
G01X21998Y8899D02*
G01X21998Y7847D01*
G01X22349Y7499D01*
G54D26*
G01X25999Y12500D02*
G01X25999Y9998D01*
G01X25999Y12500D02*
G01X25999Y16001D01*
G54D11*
G01X20299Y11299D02*
G01X20299Y11599D01*
G01X21099Y12399D01*
G01X22900Y14400D02*
G01X22900Y12399D01*
G01X22900Y14400D02*
G01X21699Y14400D01*
G01X18999Y11500D02*
G01X18999Y15000D01*
G01X19999Y16001D01*
G01X21699Y16001D01*
G01X15999Y11898D02*
G01X8001Y11898D01*
G01X13299Y10699D02*
G01X13011Y10988D01*
G01X13011Y11898D01*
G01X13011Y11275D02*
G01X12616Y11671D01*
G01X12616Y11898D01*
G01X13011Y10988D02*
G01X13397Y11374D01*
G01X13397Y11898D01*
G54D27*
G01X8001Y13499D02*
G01X8001Y15650D01*
G01X9999Y13499D02*
G01X9999Y15599D01*
G01X11998Y13499D02*
G01X11998Y15599D01*
G01X14000Y13499D02*
G01X14000Y15599D01*
G01X15999Y13499D02*
G01X15999Y15599D01*
G36*
G01X15500Y15750D02*
G01X15500Y15724D01*
G01X15502Y15699D01*
G01X15505Y15675D01*
G01X15509Y15650D01*
G01X15515Y15626D01*
G01X15522Y15602D01*
G01X15530Y15578D01*
G01X15539Y15556D01*
G01X15549Y15532D01*
G01X15560Y15510D01*
G01X15573Y15488D01*
G01X15586Y15467D01*
G01X15601Y15448D01*
G01X15616Y15429D01*
G01X15633Y15410D01*
G01X15650Y15391D01*
G01X15669Y15375D01*
G01X15688Y15358D01*
G01X15708Y15343D01*
G01X15728Y15329D01*
G01X15750Y15316D01*
G01X15771Y15304D01*
G01X15794Y15294D01*
G01X15817Y15284D01*
G01X15840Y15275D01*
G01X15864Y15269D01*
G01X15888Y15262D01*
G01X15913Y15257D01*
G01X15937Y15253D01*
G01X15962Y15250D01*
G01X15987Y15249D01*
G01X16012Y15249D01*
G01X16037Y15250D01*
G01X16062Y15253D01*
G01X16086Y15257D01*
G01X16111Y15262D01*
G01X16135Y15269D01*
G01X16159Y15275D01*
G01X16182Y15284D01*
G01X16205Y15294D01*
G01X16228Y15304D01*
G01X16250Y15316D01*
G01X16271Y15329D01*
G01X16291Y15343D01*
G01X16311Y15358D01*
G01X16330Y15375D01*
G01X16349Y15391D01*
G01X16366Y15410D01*
G01X16383Y15429D01*
G01X16398Y15448D01*
G01X16413Y15467D01*
G01X16426Y15488D01*
G01X16439Y15510D01*
G01X16450Y15532D01*
G01X16460Y15556D01*
G01X16469Y15578D01*
G01X16477Y15602D01*
G01X16484Y15626D01*
G01X16490Y15650D01*
G01X16494Y15675D01*
G01X16497Y15699D01*
G01X16499Y15724D01*
G01X16500Y15750D01*
G01X16500Y15850D01*
G01X15500Y15850D01*
G01X15500Y15750D01*
G37*
G36*
G01X16499Y16150D02*
G01X16499Y16175D01*
G01X16497Y16200D01*
G01X16494Y16224D01*
G01X16490Y16249D01*
G01X16484Y16273D01*
G01X16477Y16297D01*
G01X16469Y16321D01*
G01X16460Y16344D01*
G01X16450Y16367D01*
G01X16439Y16389D01*
G01X16426Y16411D01*
G01X16413Y16432D01*
G01X16398Y16452D01*
G01X16383Y16471D01*
G01X16366Y16490D01*
G01X16349Y16508D01*
G01X16330Y16525D01*
G01X16311Y16541D01*
G01X16291Y16556D01*
G01X16271Y16570D01*
G01X16249Y16583D01*
G01X16228Y16595D01*
G01X16205Y16606D01*
G01X16182Y16615D01*
G01X16159Y16624D01*
G01X16135Y16631D01*
G01X16111Y16637D01*
G01X16086Y16642D01*
G01X16062Y16646D01*
G01X16037Y16649D01*
G01X16012Y16650D01*
G01X15987Y16650D01*
G01X15962Y16649D01*
G01X15937Y16646D01*
G01X15913Y16642D01*
G01X15888Y16637D01*
G01X15864Y16631D01*
G01X15840Y16624D01*
G01X15817Y16615D01*
G01X15794Y16606D01*
G01X15771Y16595D01*
G01X15749Y16583D01*
G01X15728Y16570D01*
G01X15708Y16556D01*
G01X15688Y16541D01*
G01X15669Y16525D01*
G01X15650Y16508D01*
G01X15633Y16490D01*
G01X15616Y16471D01*
G01X15601Y16452D01*
G01X15586Y16432D01*
G01X15573Y16411D01*
G01X15560Y16389D01*
G01X15549Y16367D01*
G01X15539Y16344D01*
G01X15530Y16321D01*
G01X15522Y16297D01*
G01X15515Y16273D01*
G01X15509Y16249D01*
G01X15505Y16224D01*
G01X15502Y16200D01*
G01X15500Y16175D01*
G01X15500Y16150D01*
G01X15500Y16050D01*
G01X16499Y16050D01*
G01X16499Y16150D01*
G37*
G36*
G01X13499Y15750D02*
G01X13500Y15724D01*
G01X13502Y15699D01*
G01X13505Y15675D01*
G01X13509Y15650D01*
G01X13515Y15626D01*
G01X13522Y15602D01*
G01X13530Y15578D01*
G01X13539Y15556D01*
G01X13549Y15532D01*
G01X13560Y15510D01*
G01X13573Y15488D01*
G01X13586Y15467D01*
G01X13601Y15448D01*
G01X13616Y15429D01*
G01X13633Y15410D01*
G01X13650Y15391D01*
G01X13669Y15375D01*
G01X13688Y15358D01*
G01X13708Y15343D01*
G01X13728Y15329D01*
G01X13750Y15316D01*
G01X13771Y15304D01*
G01X13794Y15294D01*
G01X13817Y15284D01*
G01X13840Y15275D01*
G01X13864Y15269D01*
G01X13888Y15262D01*
G01X13913Y15257D01*
G01X13937Y15253D01*
G01X13962Y15250D01*
G01X13987Y15249D01*
G01X14012Y15249D01*
G01X14037Y15250D01*
G01X14062Y15253D01*
G01X14086Y15257D01*
G01X14111Y15262D01*
G01X14135Y15269D01*
G01X14159Y15275D01*
G01X14182Y15284D01*
G01X14205Y15294D01*
G01X14228Y15304D01*
G01X14250Y15316D01*
G01X14271Y15329D01*
G01X14291Y15343D01*
G01X14311Y15358D01*
G01X14330Y15375D01*
G01X14349Y15391D01*
G01X14366Y15410D01*
G01X14383Y15429D01*
G01X14398Y15448D01*
G01X14413Y15467D01*
G01X14426Y15488D01*
G01X14439Y15510D01*
G01X14450Y15532D01*
G01X14460Y15556D01*
G01X14469Y15578D01*
G01X14477Y15602D01*
G01X14484Y15626D01*
G01X14490Y15650D01*
G01X14494Y15675D01*
G01X14497Y15699D01*
G01X14499Y15724D01*
G01X14499Y15750D01*
G01X14499Y15850D01*
G01X13499Y15850D01*
G01X13499Y15750D01*
G37*
G36*
G01X14499Y16150D02*
G01X14499Y16175D01*
G01X14497Y16200D01*
G01X14494Y16224D01*
G01X14490Y16249D01*
G01X14484Y16273D01*
G01X14477Y16297D01*
G01X14469Y16321D01*
G01X14460Y16344D01*
G01X14450Y16367D01*
G01X14439Y16389D01*
G01X14426Y16411D01*
G01X14413Y16432D01*
G01X14398Y16452D01*
G01X14383Y16471D01*
G01X14366Y16490D01*
G01X14349Y16508D01*
G01X14330Y16525D01*
G01X14311Y16541D01*
G01X14291Y16556D01*
G01X14271Y16570D01*
G01X14249Y16583D01*
G01X14228Y16595D01*
G01X14205Y16606D01*
G01X14182Y16615D01*
G01X14159Y16624D01*
G01X14135Y16631D01*
G01X14111Y16637D01*
G01X14086Y16642D01*
G01X14062Y16646D01*
G01X14037Y16649D01*
G01X14012Y16650D01*
G01X13987Y16650D01*
G01X13962Y16649D01*
G01X13937Y16646D01*
G01X13913Y16642D01*
G01X13888Y16637D01*
G01X13864Y16631D01*
G01X13840Y16624D01*
G01X13817Y16615D01*
G01X13794Y16606D01*
G01X13771Y16595D01*
G01X13749Y16583D01*
G01X13728Y16570D01*
G01X13708Y16556D01*
G01X13688Y16541D01*
G01X13669Y16525D01*
G01X13650Y16508D01*
G01X13633Y16490D01*
G01X13616Y16471D01*
G01X13601Y16452D01*
G01X13586Y16432D01*
G01X13573Y16411D01*
G01X13560Y16389D01*
G01X13549Y16367D01*
G01X13539Y16344D01*
G01X13530Y16321D01*
G01X13522Y16297D01*
G01X13515Y16273D01*
G01X13509Y16249D01*
G01X13505Y16224D01*
G01X13502Y16200D01*
G01X13500Y16175D01*
G01X13499Y16150D01*
G01X13499Y16050D01*
G01X14499Y16050D01*
G01X14499Y16150D01*
G37*
G36*
G01X9500Y15750D02*
G01X9500Y15724D01*
G01X9502Y15699D01*
G01X9505Y15675D01*
G01X9509Y15650D01*
G01X9515Y15626D01*
G01X9522Y15602D01*
G01X9530Y15578D01*
G01X9539Y15556D01*
G01X9549Y15532D01*
G01X9560Y15510D01*
G01X9573Y15488D01*
G01X9586Y15467D01*
G01X9601Y15448D01*
G01X9616Y15429D01*
G01X9633Y15410D01*
G01X9650Y15391D01*
G01X9669Y15375D01*
G01X9688Y15358D01*
G01X9708Y15343D01*
G01X9728Y15329D01*
G01X9750Y15316D01*
G01X9771Y15304D01*
G01X9794Y15294D01*
G01X9817Y15284D01*
G01X9840Y15275D01*
G01X9864Y15269D01*
G01X9888Y15262D01*
G01X9913Y15257D01*
G01X9937Y15253D01*
G01X9962Y15250D01*
G01X9987Y15249D01*
G01X10012Y15249D01*
G01X10037Y15250D01*
G01X10062Y15253D01*
G01X10086Y15257D01*
G01X10111Y15262D01*
G01X10135Y15269D01*
G01X10159Y15275D01*
G01X10182Y15284D01*
G01X10205Y15294D01*
G01X10228Y15304D01*
G01X10250Y15316D01*
G01X10271Y15329D01*
G01X10291Y15343D01*
G01X10311Y15358D01*
G01X10330Y15375D01*
G01X10349Y15391D01*
G01X10366Y15410D01*
G01X10383Y15429D01*
G01X10398Y15448D01*
G01X10413Y15467D01*
G01X10426Y15488D01*
G01X10439Y15510D01*
G01X10450Y15532D01*
G01X10460Y15556D01*
G01X10469Y15578D01*
G01X10477Y15602D01*
G01X10484Y15626D01*
G01X10490Y15650D01*
G01X10494Y15675D01*
G01X10497Y15699D01*
G01X10499Y15724D01*
G01X10500Y15750D01*
G01X10500Y15850D01*
G01X9500Y15850D01*
G01X9500Y15750D01*
G37*
G36*
G01X10499Y16150D02*
G01X10499Y16175D01*
G01X10497Y16200D01*
G01X10494Y16224D01*
G01X10490Y16249D01*
G01X10484Y16273D01*
G01X10477Y16297D01*
G01X10469Y16321D01*
G01X10460Y16344D01*
G01X10450Y16367D01*
G01X10439Y16389D01*
G01X10426Y16411D01*
G01X10413Y16432D01*
G01X10398Y16452D01*
G01X10383Y16471D01*
G01X10366Y16490D01*
G01X10349Y16508D01*
G01X10330Y16525D01*
G01X10311Y16541D01*
G01X10291Y16556D01*
G01X10271Y16570D01*
G01X10249Y16583D01*
G01X10228Y16595D01*
G01X10205Y16606D01*
G01X10182Y16615D01*
G01X10159Y16624D01*
G01X10135Y16631D01*
G01X10111Y16637D01*
G01X10086Y16642D01*
G01X10062Y16646D01*
G01X10037Y16649D01*
G01X10012Y16650D01*
G01X9987Y16650D01*
G01X9962Y16649D01*
G01X9937Y16646D01*
G01X9913Y16642D01*
G01X9888Y16637D01*
G01X9864Y16631D01*
G01X9840Y16624D01*
G01X9817Y16615D01*
G01X9794Y16606D01*
G01X9771Y16595D01*
G01X9749Y16583D01*
G01X9728Y16570D01*
G01X9708Y16556D01*
G01X9688Y16541D01*
G01X9669Y16525D01*
G01X9650Y16508D01*
G01X9633Y16490D01*
G01X9616Y16471D01*
G01X9601Y16452D01*
G01X9586Y16432D01*
G01X9573Y16411D01*
G01X9560Y16389D01*
G01X9549Y16367D01*
G01X9539Y16344D01*
G01X9530Y16321D01*
G01X9522Y16297D01*
G01X9515Y16273D01*
G01X9509Y16249D01*
G01X9505Y16224D01*
G01X9502Y16200D01*
G01X9500Y16175D01*
G01X9500Y16150D01*
G01X9500Y16050D01*
G01X10499Y16050D01*
G01X10499Y16150D01*
G37*
G36*
G01X11500Y15750D02*
G01X11500Y15724D01*
G01X11502Y15699D01*
G01X11505Y15675D01*
G01X11509Y15650D01*
G01X11515Y15626D01*
G01X11522Y15602D01*
G01X11530Y15578D01*
G01X11539Y15556D01*
G01X11549Y15532D01*
G01X11560Y15510D01*
G01X11573Y15488D01*
G01X11586Y15467D01*
G01X11601Y15448D01*
G01X11616Y15429D01*
G01X11633Y15410D01*
G01X11650Y15391D01*
G01X11669Y15375D01*
G01X11688Y15358D01*
G01X11708Y15343D01*
G01X11728Y15329D01*
G01X11750Y15316D01*
G01X11771Y15304D01*
G01X11794Y15294D01*
G01X11817Y15284D01*
G01X11840Y15275D01*
G01X11864Y15269D01*
G01X11888Y15262D01*
G01X11913Y15257D01*
G01X11937Y15253D01*
G01X11962Y15250D01*
G01X11987Y15249D01*
G01X12012Y15249D01*
G01X12037Y15250D01*
G01X12062Y15253D01*
G01X12086Y15257D01*
G01X12111Y15262D01*
G01X12135Y15269D01*
G01X12159Y15275D01*
G01X12182Y15284D01*
G01X12205Y15294D01*
G01X12228Y15304D01*
G01X12250Y15316D01*
G01X12271Y15329D01*
G01X12291Y15343D01*
G01X12311Y15358D01*
G01X12330Y15375D01*
G01X12349Y15391D01*
G01X12366Y15410D01*
G01X12383Y15429D01*
G01X12398Y15448D01*
G01X12413Y15467D01*
G01X12426Y15488D01*
G01X12439Y15510D01*
G01X12450Y15532D01*
G01X12460Y15556D01*
G01X12469Y15578D01*
G01X12477Y15602D01*
G01X12484Y15626D01*
G01X12490Y15650D01*
G01X12494Y15675D01*
G01X12497Y15699D01*
G01X12499Y15724D01*
G01X12500Y15750D01*
G01X12500Y15850D01*
G01X11500Y15850D01*
G01X11500Y15750D01*
G37*
G36*
G01X12499Y16150D02*
G01X12499Y16175D01*
G01X12497Y16200D01*
G01X12494Y16224D01*
G01X12490Y16249D01*
G01X12484Y16273D01*
G01X12477Y16297D01*
G01X12469Y16321D01*
G01X12460Y16344D01*
G01X12450Y16367D01*
G01X12439Y16389D01*
G01X12426Y16411D01*
G01X12413Y16432D01*
G01X12398Y16452D01*
G01X12383Y16471D01*
G01X12366Y16490D01*
G01X12349Y16508D01*
G01X12330Y16525D01*
G01X12311Y16541D01*
G01X12291Y16556D01*
G01X12271Y16570D01*
G01X12249Y16583D01*
G01X12228Y16595D01*
G01X12205Y16606D01*
G01X12182Y16615D01*
G01X12159Y16624D01*
G01X12135Y16631D01*
G01X12111Y16637D01*
G01X12086Y16642D01*
G01X12062Y16646D01*
G01X12037Y16649D01*
G01X12012Y16650D01*
G01X11987Y16650D01*
G01X11962Y16649D01*
G01X11937Y16646D01*
G01X11913Y16642D01*
G01X11888Y16637D01*
G01X11864Y16631D01*
G01X11840Y16624D01*
G01X11817Y16615D01*
G01X11794Y16606D01*
G01X11771Y16595D01*
G01X11749Y16583D01*
G01X11728Y16570D01*
G01X11708Y16556D01*
G01X11688Y16541D01*
G01X11669Y16525D01*
G01X11650Y16508D01*
G01X11633Y16490D01*
G01X11616Y16471D01*
G01X11601Y16452D01*
G01X11586Y16432D01*
G01X11573Y16411D01*
G01X11560Y16389D01*
G01X11549Y16367D01*
G01X11539Y16344D01*
G01X11530Y16321D01*
G01X11522Y16297D01*
G01X11515Y16273D01*
G01X11509Y16249D01*
G01X11505Y16224D01*
G01X11502Y16200D01*
G01X11500Y16175D01*
G01X11500Y16150D01*
G01X11500Y16050D01*
G01X12499Y16050D01*
G01X12499Y16150D01*
G37*
G36*
G01X7500Y15750D02*
G01X7500Y15724D01*
G01X7502Y15699D01*
G01X7505Y15675D01*
G01X7509Y15650D01*
G01X7515Y15626D01*
G01X7522Y15602D01*
G01X7530Y15578D01*
G01X7539Y15556D01*
G01X7549Y15532D01*
G01X7560Y15510D01*
G01X7573Y15488D01*
G01X7586Y15467D01*
G01X7601Y15448D01*
G01X7616Y15429D01*
G01X7633Y15410D01*
G01X7650Y15391D01*
G01X7669Y15375D01*
G01X7688Y15358D01*
G01X7708Y15343D01*
G01X7728Y15329D01*
G01X7750Y15316D01*
G01X7771Y15304D01*
G01X7794Y15294D01*
G01X7817Y15284D01*
G01X7840Y15275D01*
G01X7864Y15269D01*
G01X7888Y15262D01*
G01X7913Y15257D01*
G01X7937Y15253D01*
G01X7962Y15250D01*
G01X7987Y15249D01*
G01X8012Y15249D01*
G01X8037Y15250D01*
G01X8062Y15253D01*
G01X8086Y15257D01*
G01X8111Y15262D01*
G01X8135Y15269D01*
G01X8159Y15275D01*
G01X8182Y15284D01*
G01X8205Y15294D01*
G01X8228Y15304D01*
G01X8250Y15316D01*
G01X8271Y15329D01*
G01X8291Y15343D01*
G01X8311Y15358D01*
G01X8330Y15375D01*
G01X8349Y15391D01*
G01X8366Y15410D01*
G01X8383Y15429D01*
G01X8398Y15448D01*
G01X8413Y15467D01*
G01X8426Y15488D01*
G01X8439Y15510D01*
G01X8450Y15532D01*
G01X8460Y15556D01*
G01X8469Y15578D01*
G01X8477Y15602D01*
G01X8484Y15626D01*
G01X8490Y15650D01*
G01X8494Y15675D01*
G01X8497Y15699D01*
G01X8499Y15724D01*
G01X8500Y15750D01*
G01X8500Y15850D01*
G01X7500Y15850D01*
G01X7500Y15750D01*
G37*
G36*
G01X8499Y16150D02*
G01X8499Y16175D01*
G01X8497Y16200D01*
G01X8494Y16224D01*
G01X8490Y16249D01*
G01X8484Y16273D01*
G01X8477Y16297D01*
G01X8469Y16321D01*
G01X8460Y16344D01*
G01X8450Y16367D01*
G01X8439Y16389D01*
G01X8426Y16411D01*
G01X8413Y16432D01*
G01X8398Y16452D01*
G01X8383Y16471D01*
G01X8366Y16490D01*
G01X8349Y16508D01*
G01X8330Y16525D01*
G01X8311Y16541D01*
G01X8291Y16556D01*
G01X8271Y16570D01*
G01X8249Y16583D01*
G01X8228Y16595D01*
G01X8205Y16606D01*
G01X8182Y16615D01*
G01X8159Y16624D01*
G01X8135Y16631D01*
G01X8111Y16637D01*
G01X8086Y16642D01*
G01X8062Y16646D01*
G01X8037Y16649D01*
G01X8012Y16650D01*
G01X7987Y16650D01*
G01X7962Y16649D01*
G01X7937Y16646D01*
G01X7913Y16642D01*
G01X7888Y16637D01*
G01X7864Y16631D01*
G01X7840Y16624D01*
G01X7817Y16615D01*
G01X7794Y16606D01*
G01X7771Y16595D01*
G01X7749Y16583D01*
G01X7728Y16570D01*
G01X7708Y16556D01*
G01X7688Y16541D01*
G01X7669Y16525D01*
G01X7650Y16508D01*
G01X7633Y16490D01*
G01X7616Y16471D01*
G01X7601Y16452D01*
G01X7586Y16432D01*
G01X7573Y16411D01*
G01X7560Y16389D01*
G01X7549Y16367D01*
G01X7539Y16344D01*
G01X7530Y16321D01*
G01X7522Y16297D01*
G01X7515Y16273D01*
G01X7509Y16249D01*
G01X7505Y16224D01*
G01X7502Y16200D01*
G01X7500Y16175D01*
G01X7500Y16150D01*
G01X7500Y16050D01*
G01X8499Y16050D01*
G01X8499Y16150D01*
G37*
G36*
G01X21449Y9399D02*
G01X21449Y8399D01*
G01X22549Y8399D01*
G01X22549Y9399D01*
G01X21449Y9399D01*
G37*
G36*
G01X21449Y10999D02*
G01X21449Y9999D01*
G01X22549Y9999D01*
G01X22549Y10999D01*
G01X21449Y10999D01*
G37*
G36*
G01X8600Y949D02*
G01X9600Y949D01*
G01X9600Y2050D01*
G01X8600Y2050D01*
G01X8600Y949D01*
G37*
G36*
G01X7000Y949D02*
G01X8000Y949D01*
G01X8000Y2050D01*
G01X7000Y2050D01*
G01X7000Y949D01*
G37*
G36*
G01X7500Y2949D02*
G01X8500Y2949D01*
G01X8500Y4050D01*
G01X7500Y4050D01*
G01X7500Y2949D01*
G37*
G36*
G01X5900Y2949D02*
G01X6900Y2949D01*
G01X6900Y4050D01*
G01X5900Y4050D01*
G01X5900Y2949D01*
G37*
G36*
G01X15449Y12399D02*
G01X15449Y11399D01*
G01X16550Y11399D01*
G01X16550Y12399D01*
G01X15449Y12399D01*
G37*
G36*
G01X15449Y13999D02*
G01X15449Y12999D01*
G01X16550Y12999D01*
G01X16550Y13999D01*
G01X15449Y13999D01*
G37*
G36*
G01X9449Y12399D02*
G01X9449Y11399D01*
G01X10550Y11399D01*
G01X10550Y12399D01*
G01X9449Y12399D01*
G37*
G36*
G01X9449Y13999D02*
G01X9449Y12999D01*
G01X10550Y12999D01*
G01X10550Y13999D01*
G01X9449Y13999D01*
G37*
G36*
G01X7449Y12399D02*
G01X7449Y11399D01*
G01X8550Y11399D01*
G01X8550Y12399D01*
G01X7449Y12399D01*
G37*
G36*
G01X7449Y13999D02*
G01X7449Y12999D01*
G01X8550Y12999D01*
G01X8550Y13999D01*
G01X7449Y13999D01*
G37*
G36*
G01X21149Y14899D02*
G01X21149Y13899D01*
G01X22250Y13899D01*
G01X22250Y14899D01*
G01X21149Y14899D01*
G37*
G36*
G01X21149Y16499D02*
G01X21149Y15499D01*
G01X22250Y15499D01*
G01X22250Y16499D01*
G01X21149Y16499D01*
G37*
G36*
G01X11449Y12399D02*
G01X11449Y11399D01*
G01X12550Y11399D01*
G01X12550Y12399D01*
G01X11449Y12399D01*
G37*
G36*
G01X11449Y13999D02*
G01X11449Y12999D01*
G01X12550Y12999D01*
G01X12550Y13999D01*
G01X11449Y13999D01*
G37*
G36*
G01X13449Y12399D02*
G01X13449Y11399D01*
G01X14550Y11399D01*
G01X14550Y12399D01*
G01X13449Y12399D01*
G37*
G36*
G01X13449Y13999D02*
G01X13449Y12999D01*
G01X14550Y12999D01*
G01X14550Y13999D01*
G01X13449Y13999D01*
G37*
G36*
G01X26550Y7699D02*
G01X26550Y8699D01*
G01X25449Y8699D01*
G01X25449Y7699D01*
G01X26550Y7699D01*
G37*
G36*
G01X26550Y9500D02*
G01X26550Y10500D01*
G01X25449Y10500D01*
G01X25449Y9500D01*
G01X26550Y9500D01*
G37*
G36*
G01X20599Y11849D02*
G01X21599Y11849D01*
G01X21599Y12949D01*
G01X20599Y12949D01*
G01X20599Y11849D01*
G37*
G36*
G01X22400Y11849D02*
G01X23400Y11849D01*
G01X23400Y12949D01*
G01X22400Y12949D01*
G01X22400Y11849D01*
G37*

%LPD*%
G36*
G01X14224Y14674D02*
G01X13774Y14674D01*
G01X13449Y13999D01*
G01X14549Y13999D01*
G01X14224Y14674D01*
G37*

%LPD*%
G36*
G01X14228Y15304D02*
G01X13771Y15304D01*
G01X13774Y14629D01*
G01X14224Y14629D01*
G01X14228Y15304D01*
G37*

%LPD*%
G36*
G01X12224Y14674D02*
G01X11774Y14674D01*
G01X11449Y13999D01*
G01X12549Y13999D01*
G01X12224Y14674D01*
G37*

%LPD*%
G36*
G01X12228Y15304D02*
G01X11771Y15304D01*
G01X11774Y14629D01*
G01X12224Y14629D01*
G01X12228Y15304D01*
G37*

%LPD*%
G36*
G01X10225Y14674D02*
G01X9775Y14674D01*
G01X9449Y13999D01*
G01X10549Y13999D01*
G01X10225Y14674D01*
G37*

%LPD*%
G36*
G01X10228Y15304D02*
G01X9771Y15304D01*
G01X9775Y14629D01*
G01X10225Y14629D01*
G01X10228Y15304D01*
G37*

%LPD*%
G36*
G01X8225Y14674D02*
G01X7775Y14674D01*
G01X7450Y13999D01*
G01X8550Y13999D01*
G01X8225Y14674D01*
G37*

%LPD*%
G36*
G01X8228Y15354D02*
G01X7771Y15354D01*
G01X7775Y14679D01*
G01X8225Y14679D01*
G01X8228Y15354D01*
G37*

%LPD*%
G36*
G01X5970Y1883D02*
G01X5804Y2019D01*
G01X5480Y1695D01*
G01X5616Y1529D01*
G01X5970Y1883D01*
G37*

%LPD*%
G36*
G01X7000Y949D02*
G01X7000Y2050D01*
G01X6250Y1749D01*
G01X6250Y1249D01*
G01X7000Y949D01*
G37*

%LPD*%
G36*
G01X19850Y1814D02*
G01X19350Y1814D01*
G01X19371Y1601D01*
G01X19828Y1601D01*
G01X19850Y1814D01*
G37*

%LPD*%
G36*
G01X19828Y4998D02*
G01X19371Y4998D01*
G01X19350Y4784D01*
G01X19850Y4784D01*
G01X19828Y4998D01*
G37*

%LPD*%
G36*
G01X9098Y3699D02*
G01X8498Y3999D01*
G01X8498Y2999D01*
G01X9098Y3299D01*
G01X9098Y3699D01*
G37*

%LPD*%
G36*
G01X9798Y3271D02*
G01X9798Y3728D01*
G01X9585Y3699D01*
G01X9585Y3299D01*
G01X9798Y3271D01*
G37*

%LPD*%
G36*
G01X21150Y15624D02*
G01X21150Y16374D01*
G01X20700Y16149D01*
G01X20700Y15849D01*
G01X21150Y15624D01*
G37*

%LPD*%
G36*
G01X20684Y11630D02*
G01X20120Y11773D01*
G01X20128Y11551D01*
G01X20571Y11439D01*
G01X20684Y11630D01*
G37*

%LPD*%
G36*
G01X22698Y14628D02*
G01X22485Y14650D01*
G01X22485Y14150D01*
G01X22698Y14171D01*
G01X22698Y14628D01*
G37*

%LPD*%
G36*
G01X22900Y14650D02*
G01X22250Y14900D01*
G01X22250Y13899D01*
G01X22900Y14150D01*
G01X22900Y14650D01*
G37*

%LPD*%
G36*
G01X23128Y14198D02*
G01X22671Y14198D01*
G01X22650Y13985D01*
G01X23150Y13985D01*
G01X23128Y14198D01*
G37*

%LPD*%
G36*
G01X23150Y13699D02*
G01X22650Y13699D01*
G01X22400Y12949D01*
G01X23398Y12949D01*
G01X23150Y13699D01*
G37*

%LPD*%
G36*
G01X26500Y11712D02*
G01X25500Y11712D01*
G01X25800Y11112D01*
G01X26200Y11112D01*
G01X26500Y11712D01*
G37*

%LPD*%
G36*
G01X26200Y11100D02*
G01X25800Y11100D01*
G01X25500Y10500D01*
G01X26500Y10500D01*
G01X26200Y11100D01*
G37*

%LPD*%
G36*
G01X10201Y1699D02*
G01X9601Y1999D01*
G01X9601Y999D01*
G01X10201Y1299D01*
G01X10201Y1699D01*
G37*

%LPD*%
G36*
G01X13160Y1728D02*
G01X13048Y2171D01*
G01X12840Y2123D01*
G01X12955Y1672D01*
G01X13160Y1728D01*
G37*

%LPD*%
G36*
G01X22500Y8400D02*
G01X21500Y8400D01*
G01X21800Y7848D01*
G01X22200Y7848D01*
G01X22500Y8400D01*
G37*

%LPD*%
G36*
G01X22368Y7803D02*
G01X22197Y7934D01*
G01X21914Y7651D01*
G01X22044Y7480D01*
G01X22368Y7803D01*
G37*

%LPD*%
G36*
G01X25212Y15499D02*
G01X25212Y16499D01*
G01X24612Y16199D01*
G01X24612Y15799D01*
G01X25212Y15499D01*
G37*

%LPD*%
G36*
G01X5900Y2999D02*
G01X5900Y3999D01*
G01X5500Y3699D01*
G01X5500Y3299D01*
G01X5900Y2999D01*
G37*

%LPD*%
G36*
G01X9299Y12150D02*
G01X8549Y12399D01*
G01X8549Y11401D01*
G01X9299Y11650D01*
G01X9299Y12150D01*
G37*

%LPD*%
G36*
G01X15451Y11401D02*
G01X15451Y12399D01*
G01X14701Y12150D01*
G01X14701Y11650D01*
G01X15451Y11401D01*
G37*

%LPD*%
G36*
G01X13319Y11004D02*
G01X13188Y11165D01*
G01X12834Y10811D01*
G01X12995Y10680D01*
G01X13319Y11004D01*
G37*

%LPD*%
G36*
G01X16224Y14674D02*
G01X15774Y14674D01*
G01X15449Y13999D01*
G01X16549Y13999D01*
G01X16224Y14674D01*
G37*

%LPD*%
G36*
G01X16228Y15304D02*
G01X15771Y15304D01*
G01X15774Y14629D01*
G01X16224Y14629D01*
G01X16228Y15304D01*
G37*
G54D23*
G01X12700Y6299D03*
G54D24*
G01X25999Y12499D03*
G01X25999Y15999D03*
G01X25999Y5499D03*
G01X25999Y2000D03*
G01X1999Y15999D03*
G01X1999Y2000D03*
G54D14*
G01X18999Y11500D03*
G01X19599Y5199D03*
G01X22900Y14400D03*
G01X5899Y16299D03*
G01X5500Y16999D03*
G01X22348Y7499D03*
G01X20299Y11299D03*
G01X13299Y10700D03*
G01X5500Y2000D03*
G01X13299Y2000D03*
G01X5001Y3999D03*
G01X9999Y3499D03*
G01X19599Y1400D03*
G54D25*
G01X1676Y12641D02*
G01X876Y12641D01*
G01X5126Y5481D02*
G01X4326Y5481D01*
G01X1726Y5361D02*
G01X926Y5361D01*
G01X5126Y12641D02*
G01X4326Y12641D01*
M00*
M02*
